<?xml version="1.0" encoding="utf-8"?>
<!-- Generator: Adobe Illustrator 19.0.0, SVG Export Plug-In . SVG Version: 6.00 Build 0)  -->
<svg version="1.1" id="Layer_1" xmlns="http://www.w3.org/2000/svg" xmlns:xlink="http://www.w3.org/1999/xlink" x="0px" y="0px"
	 viewBox="-328 229.8 184.4 137.3" style="enable-background:new -328 229.8 184.4 137.3;" xml:space="preserve">
<style type="text/css">
	.st0{fill:#8D979D;}
	.st1{fill:#F78E1E;}
	.st2{fill:#FDFEFE;}
</style>
<g id="XMLID_4_">
	<path id="XMLID_416_" class="st0" d="M-172.1,332.7L-172.1,332.7c-0.6,1.2-1.5,1.5-2.8,1.4c-0.7-0.1-1.4,0-2.2,0
		c-0.4,0-1-0.2-1.3,0.3c-1,1.7-2,3.3-3.1,5c-0.5,0.9-0.5,1.7,0.4,2.3c0.8,0.6,1.7,0.3,2.3-0.6c0.6-1,1.2-2.1,1.9-3.1
		c0.2-0.3,0.3-0.7,0.7-0.7c1,0,1.9-0.1,3,0.1c-1,0.9-1.8,1.7-2.7,2.4c-0.4,0.4-0.6,0.7-0.3,1.2c0.9,1.6,1.8,3.3,2.7,5
		c0.5,0.9,1.2,1.2,2.2,0.8c0.9-0.4,1.1-1.3,0.6-2.3c-0.4-0.9-0.8-1.7-1.3-2.5c-0.4-0.6-0.4-1,0.3-1.5c2.5-1.9,4.4-4.4,6.1-7
		c0.4-0.6,0.8-1.1,1.2-1.7c2.2-0.1,4.3,0.1,6.5-0.1c0.7-0.3,1.1-0.8,0.7-1.6c0-0.3-0.2-0.4-0.4-0.5l0,0c-0.4-0.4-0.9-0.3-1.3-0.3
		c-1.8,0-3.6,0-5.4,0c-0.7,0-1.3-0.1-1.9-0.5c-2.3-1.7-4.6-3.3-6.8-5c-0.7-0.5-1.5-0.7-2.1,0.1c-0.6,0.9-0.1,1.5,0.6,2
		c1.3,0.9,2.6,1.9,3.9,2.8c0.5,0.3,0.6,0.6,0.3,1.2c-0.4,0.7-0.8,1.4-1.2,2.1C-171.9,332.1-172,332.4-172.1,332.7z M-180,273.5
		c0,0.1,0,0.2,0,0.3c-1.6,0.2-3.1,0.5-4.7,0.6c-1.1,0.1-1.8,0.5-2.4,1.4c-1.3,2-2.8,4-4.2,6c-0.9,1.3-0.8,2.6,0.3,3.4
		c1,0.7,2.3,0.3,3.2-0.9c1.1-1.6,2.3-3.2,3.4-4.8c0.4-0.6,0.9-0.9,1.6-1c0.8-0.1,1.6-0.2,2.4-0.3c2.4-0.2,4.5-0.8,6.1-2.8
		c1.2-1.4,2.6-2.6,4-3.8c0.7-0.7,1.4-1.3,2.2-2c0.5,1.3,1,2.5,1.5,3.7c0.2,0.4,0.3,0.8,0.8,0.8c2.3,0,4.6,0,6.8-0.1
		c1,0,1.6-0.8,1.5-1.8s-0.7-1.6-1.7-1.6c-0.8,0-1.7,0-2.5,0c-2.3,0-2.3,0-3.1-2.1c-0.6-1.4-1-2.9-2.4-3.9c-2.2-1.7-4.4-3.4-6.7-4.8
		c-0.7-0.4-0.8-0.8-0.7-1.6c0.3-1.5,0.5-3,0.6-4.5c0.1-1-0.4-1.7-1.4-1.9c-0.9-0.2-1.8,0.5-2,1.5c-0.4,2.2-0.6,4.5-1,6.7
		c-0.1,0.6,0.1,0.9,0.6,1.3c1.2,0.8,2.4,1.7,3.6,2.4c0.7,0.4,0.5,0.8,0.1,1.2c-1.3,1.3-2.7,2.5-4,3.8c-0.4,0.4-0.8,0.4-1.3,0.1
		c-1.3-0.6-2.7-1.2-4-1.9c-0.5-0.2-0.9-0.2-1.3,0c-2.4,1.1-4.9,2.1-7.3,3.2c-1.5,0.7-2,1.8-1.5,3s1.8,1.5,3.3,0.9
		c1.8-0.8,3.6-1.6,5.4-2.3c0.4-0.2,0.7-0.4,1.1-0.1C-182.6,272.3-181.3,272.9-180,273.5z M-295.2,258.6c-1.2,1.2-2.3,2.1-3.3,3.2
		c-0.5,0.5-0.8,0.4-1.3,0c-1-0.8-2-1.5-3-2.2c-0.3-0.3-0.7-0.6-1.2-0.3c-2.9,1.2-5.9,2.4-8.8,3.7c-1.1,0.5-1.5,1.6-1.1,2.7
		c0.5,1.1,1.5,1.6,2.7,1.2c1.2-0.4,2.4-0.8,3.4-1.4c2.6-1.6,4.9-1.3,7,0.9c0,0,0.1,0,0.1,0.1c0.6,0.4,0.6,0.7,0.1,1.2
		c-1.1,1-2,2.1-3.1,3.2c-0.4,0.4-0.6,0.9-0.6,1.5c0,2.4,0,4.9,0,7.3c0,1.5,0.9,2.5,2.2,2.5c1.3,0,2.1-1,2.2-2.5c0-1.8,0-3.6,0-5.4
		c0-0.4,0-0.9,0.4-1.2c3.3-3.1,6.6-6.3,9.9-9.4c0.2-0.2,0.4-0.4,0.7-0.1c0.7,0.8,0.8,2.3,0.2,3.2c-0.6,1-1.2,2-1.8,3
		c-0.6,1.1-0.5,2.1,0.4,2.6c0.9,0.6,1.8,0.3,2.5-0.8c1-1.6,1.9-3.3,2.9-4.8c0.3-0.5,0.3-0.9,0.1-1.4c-0.7-1.7-1.2-3.5-2-5.1
		c-1.1-2.3-3.4-3.3-5.4-4.8c-0.1-0.1-0.4-0.1-0.6-0.1c-1.2-0.1-2.3-0.2-3.5-0.2c-0.6,0-0.9-0.3-1-0.9c-0.1-1.1-0.3-2.2-0.6-3.3
		c-0.3-1-1.1-1.5-2.1-1.3c-0.8,0.2-1.4,1.1-1.3,2c0.3,2,0.7,3.9,1.1,5.9c0.1,0.5,0.3,0.7,0.8,0.8
		C-297.9,258.3-296.7,258.5-295.2,258.6z M-244.8,253.1c-1,0-1.8,0.8-1.8,2c0,1.6,0.2,3.3,0.1,4.9c-0.2,2,0.3,3.4,2.2,4.2
		c0.5,0.2,0.8,0.7,1.3,0.9c0.8,0.4,0.9,0.9,0.5,1.7c-1.5,3.2-2.9,6.4-4.4,9.6c-0.2,0.6-0.6,0.8-1.2,0.9c-1.8,0.4-3.6,0.7-5.4,1.1
		c-1.4,0.3-2.1,1.4-1.8,2.6s1.3,1.8,2.7,1.6c2.6-0.5,5.2-1,7.7-1.5c0.6-0.1,0.8-0.5,1.1-1c0.6-1.5,1.3-3,2-4.5
		c0.1-0.3,0.2-0.7,0.8-0.5c2.4,0.7,2.7,1.3,1.7,3.5c-0.1,0.3-0.2,0.6-0.4,0.9c-0.6,1.4-0.3,2.6,0.9,3.2c1.1,0.5,2.4,0,3-1.4
		c0.9-1.9,1.7-3.8,2.6-5.7c0.5-0.9,0.2-1.3-0.7-1.7c-0.7-0.3-1.4-0.7-2-1c-1.5-0.8-1.3-0.7-0.6-2.3c1.1-2.7,3-3.7,5.7-3.7
		c0.5,0,1-0.1,1.4-0.6c1.3-2,2.6-3.9,3.8-5.9c0.5-0.9,0.4-1.7-0.5-2.3c-0.8-0.6-1.8-0.3-2.4,0.5c-0.6,0.9-1.3,1.7-1.8,2.7
		c-0.9,1.8-2.2,2.5-4.2,2.8c-2.4,0.4-4.4,0.2-6.2-1.5c-0.5-0.5-1.1-0.8-1.7-1.2c-0.6-0.3-0.8-0.8-0.8-1.5c0-1.6,0-3.3,0-4.9
		C-243.1,253.8-243.8,253.1-244.8,253.1z M-232.7,338.4c0.1,0,0.2,0.1,0.3,0.1c0,1.9,0,3.8,0,5.7c0,0.6,0.1,1.1,0.5,1.5
		c1.4,1.3,2.7,2.7,4,4c1,1,2.2,1,3.1,0.2c0.9-0.9,1-2.1,0-3.2c-0.8-0.9-1.7-1.8-2.6-2.6c-0.6-0.5-0.7-1.1-0.7-1.8c0-2.1,0-4.2,0-6.4
		c0-0.9-0.1-1.8-0.9-2.3c-2.5-1.8-5-3.5-7.4-5.3c-1-0.7-1.9-0.7-2.9,0c-3.5,2.2-7,4.5-10.5,6.7c-1.2,0.8-1.5,1.7-0.9,2.6
		c0.6,1,1.5,1.1,2.7,0.3c2-1.3,4-2.6,6-3.8c2.2-1.3,1.5-1.4,3.5,0.2c0.5,0.4,0.9,0.9,1.5,1.2c0.6,0.4,0.6,0.8,0.3,1.4
		c-1.2,2.3-2.3,4.6-3.5,6.8c-0.3,0.6-0.3,1,0.2,1.5c1.5,1.5,3,3,4.5,4.5c0.9,0.9,2.3,0.9,3.1,0.1s0.8-2.1-0.1-3.1
		c-0.8-0.8-1.6-1.6-2.4-2.4c-0.3-0.3-0.5-0.5-0.3-1C-234.4,341.7-233.6,340-232.7,338.4z M-304.5,329.6c0,0.6-0.4,0.8-0.6,1.1
		c-1.2,1.3-2.4,2.5-3.6,3.8c-0.9,0.9-0.9,1.9-0.1,2.6s1.7,0.7,2.6-0.3c1-1,1.9-2,2.9-3c0.8-0.8,1.4-2.1,2.3-2.1s1.3,1.5,2,2.3
		c0,0,0,0.1,0.1,0.1c2.5,2.5,3.7,5.4,2.8,8.9c-0.1,0.5,0.1,0.9,0.4,1.3c1.4,1.4,2.8,2.8,4.2,4.1c1,1,2.3,1,3.2,0.1s0.8-2.2-0.2-3.2
		c-0.8-0.9-1.7-1.7-2.6-2.5c-0.5-0.4-0.7-0.9-0.6-1.6c0.2-2.6,0.3-5.2,0.5-7.8c0-0.7-0.1-1.2-0.5-1.7c-1.2-1.4-2.4-2.8-3.5-4.2
		c-2.6-3.1-2.1-3.1-6.2-2.2c-3.8,0.8-7.6,1.7-11.4,2.5c-1.2,0.3-1.7,1.1-1.5,2.1s1.1,1.5,2.2,1.3c0.4-0.1,0.9-0.2,1.3-0.3
		C-308.9,330.6-306.7,330.1-304.5,329.6z M-200.4,315.7c0.3,1.6,0.6,3.1,0.8,4.7c1.3,7.5,2.6,15,4,22.5c0.5,2.6,0.9,5.1,1.4,7.7
		c0.1,0.7,0.3,1.3,1.2,1.1c0.7-0.2,0.8-0.8,0.6-1.4c-0.1-0.5-0.2-1-0.3-1.5c-0.1-0.6,0.1-0.9,0.7-0.9c2.2,0,4.3,0,6.5,0
		c0.6,0,0.9,0.1,0.9,0.8c0.1,0.7,0.2,1.4,0.4,2.1c0.1,0.6,0.4,1.1,1.1,0.9c0.7-0.1,0.8-0.7,0.7-1.3c-0.2-1.3-0.5-2.7-0.7-4
		c-1.4-7.9-2.8-15.9-4.2-23.8c-0.4-2.3-0.8-4.6-1.2-7c-0.1-0.6-0.4-1-1.1-0.9c-0.7,0.1-0.8,0.6-0.7,1.1c0.1,0.6,0.1,1.2,0.3,1.8
		c0.2,0.7,0,0.9-0.7,0.9c-1.4,0-2.9,0-4.3,0c-2.8,0-2.8,0-3.4-2.8c0-0.1,0-0.2,0-0.2c-0.1-0.5-0.5-0.8-1-0.8
		C-200.2,314.7-200.4,315.2-200.4,315.7z M-195.4,264.8L-195.4,264.8c2,0,3.9,0,5.9,0c0.4,0,1,0.3,1.3-0.3c0.2-0.6-0.1-1.1-0.6-1.5
		c-1.8-1.4-3.6-2.9-5.4-4.4c-0.3-0.2-0.7-0.5-0.6-1c0.3-1.9,0.6-3.8,0.9-5.7c0.1-0.6,0.3-0.6,0.8-0.3c1.2,1,2.5,2,3.7,3
		c0.2,0.2,0.5,0.6,0.8,0.4c0.4-0.2,0.3-0.6,0.3-1c0.4-1.8,0.1-3.7,0.2-5.5c0-0.8-0.3-1.1-1.1-1.1c-4.1,0-8.2,0-12.2,0
		c-0.8,0-1,0.3-1,1c0,5.1,0,10.1,0,15.2c0,0.8,0.3,1,1.1,1C-199.5,264.7-197.5,264.8-195.4,264.8z M-244.5,244.8
		c0.1-0.5-0.3-0.6-0.6-0.7c-0.7-0.3-1.4-0.5-2.1-0.8c-0.8-0.4-1.1-0.1-1.4,0.7c-3.9,10.3-7.8,20.6-11.7,30.9c-0.3,0.9-1.1,2-0.8,2.7
		c0.3,0.8,1.7,0.8,2.6,1.2c0.9,0.5,1.1,0.1,1.4-0.7c3.8-10.2,7.7-20.4,11.6-30.5C-245.2,246.6-244.9,245.7-244.5,244.8z
		 M-246.7,345.6c0-1.3,0-2.6,0-4c0-0.6-0.1-0.9-0.8-0.9c-2.7,0-5.4,0-8,0c-0.6,0-0.8,0.2-0.8,0.8c0,2.7,0,5.4,0,8
		c0,0.5,0.2,0.8,0.7,0.8c2.7,0,5.4,0,8.1,0c0.6,0,0.8-0.2,0.8-0.8C-246.8,348.3-246.8,346.9-246.7,345.6z M-245,328.5
		c2.3,0,4.2-1.9,4.2-4.3s-1.9-4.4-4.3-4.4c-2.4,0-4.4,2-4.3,4.3C-249.4,326.6-247.4,328.5-245,328.5z M-165.7,263.1
		c2.5,0,4.4-1.8,4.4-4.3c0-2.4-2-4.4-4.3-4.4s-4.3,2-4.3,4.4C-170,261.3-168.1,263.1-165.7,263.1z M-232,258.6
		c0-2.4-1.9-4.4-4.3-4.4c-2.3,0-4.3,2-4.4,4.4c0,2.3,1.9,4.2,4.3,4.3C-233.9,262.9-232,261.1-232,258.6z M-286.5,256.8
		c2.4,0,4.3-1.8,4.3-4.2c0-2.3-2-4.4-4.3-4.4c-2.4,0-4.3,2-4.3,4.4C-290.8,255-288.9,256.8-286.5,256.8z M-186.2,260.7
		c2.3,1.3,4.5,2.6,6.7,3.9c0.1-0.1,0.2-0.2,0.2-0.3c-2.7-2.9-5.4-5.8-8.2-8.9c-0.2,0.8-0.3,1.4-0.5,2.2c-1.6-1.3-3.1-2.5-4.5-3.7
		c-0.5-0.4-0.9-0.6-0.9,0.3c-0.1,0.9-0.2,1.7-0.4,2.6c-0.1,0.4,0,0.7,0.3,0.9c2.2,1.8,4.4,3.6,6.7,5.4
		C-186.5,262.3-186.3,261.6-186.2,260.7z M-305.1,317.5c-1,0-2.3,0.8-3.1,2.4c-0.8,1.6-0.5,3.2,0.5,4.6c0.5,0.6,1,0.8,1.7,0.6
		c1.2-0.4,2.5-0.6,3.7-0.8c1.8-0.4,2.5-1.3,2.1-3.2C-300.4,318.9-302.1,317.4-305.1,317.5z M-290,333.4c-0.1,1-0.1,1.7-0.1,2.3
		c-0.2,2.5-0.2,2.5,2.1,3.5c0.4,0.2,0.8,0.6,1.3,0.2c1.9-1.5,3.8-3,5.7-4.5c0.8-0.7,0.9-2,0.2-2.8c-0.7-0.9-1.9-1.1-2.9-0.5
		c-0.5,0.3-1,0.8-1.5,1.2C-286.6,333.9-287.9,335.6-290,333.4z M-293.7,275.5c-0.9,0-1.7,0-2.5,0c-0.8-0.1-1.1,0.2-1.1,1
		c0.1,1.5,0,3,0,4.5c0,0.7,0.2,1,1,1c1.4,0,2.9-0.1,4.3,0c1,0.1,1.3-0.3,1.2-1.3c-0.1-0.7,0-1.4,0-2c0-1,0.3-2.3-0.2-2.9
		C-291.5,275.1-292.9,275.7-293.7,275.5z M-297.4,351.9c5,0,9.9,0,14.9,0c0.4,0,1.1,0.3,1.1-0.5c0-0.7-0.7-0.4-1.1-0.4
		c-4,0-8,0-12,0c-0.9,0-1.4-0.2-1.2-1.2c0.1-0.8-0.2-1.1-1-1c-0.4,0-0.7,0-1.1,0c-0.8-0.1-1.1,0.3-1,1c0.2,1-0.3,1.2-1.2,1.2
		c-4,0-7.9,0-11.9,0c-0.4,0-1.2-0.3-1.2,0.5c0,0.7,0.8,0.4,1.2,0.4C-307.2,351.9-302.3,351.9-297.4,351.9z M-161,324.9
		c0-1.7-1.4-3.2-3.2-3.3c-1.8,0-3.3,1.5-3.3,3.2s1.4,3.2,3.2,3.2C-162.5,328.2-161.1,326.7-161,324.9z M-243.5,341.3
		c0.4,0,0.9-0.4,1.3-1c0.8-1.4,1.7-2.8,2.5-4.2c0.2-0.4,0.5-0.7,0-1c-0.4-0.3-0.7-0.6-1.2-0.2c-1,0.7-2.1,1.3-3.1,2
		c-0.8,0.6-1.2,1.5-1.5,2.4C-245.8,340.3-244.9,341.3-243.5,341.3z M-229.2,327.5c-0.2-0.2-0.4-0.3-0.6-0.5c-0.3-0.2-0.4,0-0.6,0.2
		c-0.4,0.5-0.7,1.1-1.1,1.6c-0.1,0.2-0.3,0.3,0,0.5c0.2,0.2,0.7,0.4,0.7,0.4C-230.3,328.9-229.8,328.2-229.2,327.5z M-233.1,327.7
		c-0.1,0.5,0,0.9,0.6,1c0.8,0.2,0.4-0.5,0.5-0.8c0.1-0.4,0.1-0.9,0.2-1.4c0.1-0.5-0.2-0.5-0.5-0.6c-0.4-0.1-0.5,0.1-0.5,0.4
		C-232.9,326.8-233.1,327.3-233.1,327.7z M-227.6,329.5c-0.2-0.3-0.2-0.9-0.9-0.5c-0.5,0.3-1,0.5-1.5,0.8c-0.2,0.1-0.5,0.1-0.4,0.5
		c0.1,0.2,0.3,0.4,0.4,0.6C-229.6,330.9-227.6,329.8-227.6,329.5z"/>
	<path id="XMLID_414_" class="st1" d="M-180,273.5c-1.3-0.6-2.6-1.2-3.9-1.8c-0.4-0.2-0.8,0-1.1,0.1c-1.8,0.8-3.6,1.6-5.4,2.3
		c-1.5,0.7-2.8,0.3-3.3-0.9c-0.6-1.2,0-2.4,1.5-3c2.4-1.1,4.9-2.1,7.3-3.2c0.5-0.2,0.9-0.2,1.3,0c1.3,0.7,2.7,1.2,4,1.9
		c0.5,0.2,0.9,0.3,1.3-0.1c1.3-1.3,2.6-2.5,4-3.8c0.4-0.4,0.6-0.8-0.1-1.2c-1.2-0.8-2.4-1.6-3.6-2.4c-0.5-0.3-0.7-0.6-0.6-1.3
		c0.4-2.2,0.7-4.5,1-6.7c0.2-1,1-1.7,2-1.5s1.5,0.8,1.4,1.9c-0.2,1.5-0.4,3-0.6,4.5c-0.1,0.8,0,1.2,0.7,1.6c2.3,1.4,4.5,3.2,6.7,4.8
		c1.4,1,1.8,2.5,2.4,3.9c0.9,2.1,0.8,2.1,3.1,2.1c0.8,0,1.7,0,2.5,0c1,0.1,1.7,0.6,1.7,1.6c0.1,1-0.5,1.7-1.5,1.8
		c-2.3,0.1-4.6,0.1-6.8,0.1c-0.5,0-0.6-0.4-0.8-0.8c-0.5-1.2-1-2.4-1.5-3.7c-0.8,0.7-1.5,1.3-2.2,2c-1.3,1.3-2.8,2.4-4,3.8
		c-1.6,1.9-3.7,2.6-6.1,2.8c-0.8,0.1-1.6,0.2-2.4,0.3c-0.7,0.1-1.2,0.4-1.6,1c-1.1,1.6-2.2,3.2-3.4,4.8c-0.9,1.2-2.2,1.6-3.2,0.9
		c-1.1-0.7-1.2-2.1-0.3-3.4c1.4-2,2.8-4,4.2-6c0.6-1,1.4-1.3,2.4-1.4c1.6-0.2,3.1-0.4,4.7-0.6C-180,273.7-180,273.6-180,273.5z"/>
	<path id="XMLID_412_" class="st1" d="M-295.2,258.6c-1.5-0.1-2.7-0.3-3.9-0.4c-0.5,0-0.7-0.2-0.8-0.8c-0.3-2-0.7-3.9-1.1-5.9
		c-0.2-0.9,0.4-1.8,1.3-2c1-0.2,1.8,0.3,2.1,1.3c0.3,1.1,0.4,2.2,0.6,3.3c0.1,0.7,0.4,0.9,1,0.9c1.2,0,2.3,0.2,3.5,0.2
		c0.2,0,0.4,0,0.6,0.1c2,1.4,4.2,2.5,5.4,4.8c0.8,1.6,1.4,3.4,2,5.1c0.2,0.5,0.2,0.9-0.1,1.4c-1,1.6-1.9,3.2-2.9,4.8
		c-0.7,1.1-1.6,1.4-2.5,0.8c-0.9-0.5-1.1-1.5-0.4-2.6c0.6-1,1.2-2,1.8-3c0.5-0.9,0.4-2.4-0.2-3.2c-0.3-0.4-0.5-0.1-0.7,0.1
		c-3.3,3.1-6.6,6.3-9.9,9.4c-0.4,0.4-0.4,0.8-0.4,1.2c0,1.8,0,3.6,0,5.4c0,1.5-0.9,2.5-2.2,2.5c-1.3,0-2.1-1-2.2-2.5
		c0-2.4,0-4.9,0-7.3c0-0.6,0.2-1.1,0.6-1.5c1-1,2-2.2,3.1-3.2c0.5-0.5,0.5-0.9-0.1-1.2c0,0-0.1,0-0.1-0.1c-2.1-2.2-4.3-2.6-7-0.9
		c-1,0.6-2.3,1-3.4,1.4c-1.2,0.4-2.3-0.1-2.7-1.2c-0.4-1,0-2.2,1.1-2.7c2.9-1.3,5.9-2.5,8.8-3.7c0.5-0.2,0.8,0.1,1.2,0.3
		c1,0.7,2,1.4,3,2.2c0.5,0.4,0.8,0.5,1.3,0C-297.5,260.8-296.4,259.8-295.2,258.6z"/>
	<path id="XMLID_409_" class="st1" d="M-244.4,253.3c1,0,1.7,0.8,1.7,1.9c0,1.6,0.1,3.3,0,4.9c0,0.7,0.2,1.1,0.8,1.5
		c0.6,0.3,1.2,0.7,1.7,1.2c1.8,1.7,3.8,2,6.2,1.5c1.9-0.3,3.3-1,4.2-2.8c0.5-1,1.1-1.8,1.8-2.7c0.6-0.9,1.6-1.1,2.4-0.5
		c0.8,0.6,1,1.5,0.5,2.3c-1.2,2-2.6,4-3.8,5.9c-0.3,0.5-0.8,0.6-1.4,0.6c-2.7,0-4.6,1-5.7,3.7c-0.6,1.6-0.9,1.5,0.6,2.3
		c0.7,0.3,1.3,0.7,2,1c0.9,0.3,1.1,0.8,0.7,1.7c-0.9,1.9-1.7,3.8-2.6,5.7c-0.6,1.4-1.9,1.9-3,1.4c-1.2-0.6-1.5-1.7-0.9-3.2
		c0.1-0.3,0.2-0.6,0.4-0.9c1-2.2,0.6-2.8-1.7-3.5c-0.6-0.2-0.6,0.2-0.8,0.5c-0.7,1.5-1.4,3-2,4.5c-0.2,0.5-0.5,0.9-1.1,1
		c-2.6,0.5-5.2,1.1-7.7,1.5c-1.4,0.3-2.4-0.4-2.7-1.6s0.5-2.3,1.8-2.6c1.8-0.4,3.6-0.8,5.4-1.1c0.5-0.1,0.9-0.3,1.2-0.9
		c1.4-3.2,2.9-6.4,4.4-9.6c0.4-0.8,0.3-1.3-0.5-1.7c-0.5-0.2-0.8-0.7-1.3-0.9c-1.9-0.8-2.4-2.2-2.2-4.2c0.2-1.6-0.1-3.3-0.1-4.9
		C-246.1,254.1-245.4,253.3-244.4,253.3z"/>
	<path id="XMLID_404_" class="st1" d="M-232.7,338.4c-0.8,1.6-1.6,3.3-2.5,4.9c-0.2,0.5,0,0.7,0.3,1c0.8,0.8,1.6,1.6,2.4,2.4
		c0.9,1,0.9,2.3,0.1,3.1c-0.8,0.8-2.2,0.8-3.1-0.1c-1.5-1.5-3-3-4.5-4.5c-0.5-0.5-0.5-0.9-0.2-1.5c1.2-2.3,2.3-4.6,3.5-6.8
		c0.3-0.6,0.3-1-0.3-1.4c-0.5-0.3-1-0.8-1.5-1.2c-2-1.7-1.3-1.6-3.5-0.2c-2,1.2-4,2.5-6,3.8c-1.2,0.7-2.1,0.6-2.7-0.3
		c-0.6-0.9-0.3-1.8,0.9-2.6c3.5-2.2,7-4.5,10.5-6.7c1-0.6,2-0.6,2.9,0c2.5,1.7,5,3.5,7.4,5.3c0.8,0.6,0.9,1.4,0.9,2.3
		c0,2.1,0,4.2,0,6.4c0,0.7,0.1,1.3,0.7,1.8c0.9,0.8,1.8,1.7,2.6,2.6c1,1.1,1,2.3,0,3.2c-0.9,0.8-2.1,0.8-3.1-0.2
		c-1.4-1.3-2.6-2.7-4-4c-0.5-0.4-0.5-0.9-0.5-1.5c0-1.9,0-3.8,0-5.7C-232.5,338.5-232.6,338.4-232.7,338.4z"/>
	<path id="XMLID_398_" class="st1" d="M-304.5,329.6c-2.2,0.5-4.4,0.9-6.5,1.4c-0.4,0.1-0.9,0.2-1.3,0.3c-1.1,0.2-2-0.3-2.2-1.3
		s0.3-1.8,1.5-2.1c3.8-0.9,7.6-1.7,11.4-2.5c4.2-0.9,3.7-0.9,6.2,2.2c1.2,1.4,2.3,2.9,3.5,4.2c0.5,0.5,0.6,1.1,0.5,1.7
		c-0.2,2.6-0.3,5.2-0.5,7.8c0,0.7,0.1,1.1,0.6,1.6c0.9,0.8,1.7,1.7,2.6,2.5c1,1,1.1,2.3,0.2,3.2c-0.9,0.9-2.2,0.9-3.2-0.1
		c-1.4-1.4-2.8-2.8-4.2-4.1c-0.4-0.4-0.6-0.8-0.4-1.3c0.9-3.5-0.2-6.5-2.8-8.9c0,0,0-0.1-0.1-0.1c-0.7-0.8-1.1-2.3-2-2.3
		s-1.5,1.4-2.3,2.1c-1,1-1.9,2-2.9,3c-0.9,0.9-1.9,1-2.6,0.3c-0.8-0.8-0.7-1.7,0.1-2.6c1.2-1.3,2.4-2.5,3.6-3.8
		C-304.9,330.4-304.5,330.2-304.5,329.6z"/>
	<path id="XMLID_392_" class="st0" d="M-200.4,315.7c0-0.5,0.2-1,0.8-1.1s0.9,0.2,1,0.8c0,0.1,0,0.2,0,0.2c0.6,2.8,0.6,2.8,3.4,2.8
		c1.4,0,2.9,0,4.3,0c0.7,0,1-0.2,0.7-0.9c-0.2-0.6-0.2-1.2-0.3-1.8s0-1.1,0.7-1.1c0.7-0.1,1,0.3,1.1,0.9c0.4,2.3,0.8,4.6,1.2,7
		c1.4,7.9,2.8,15.9,4.2,23.8c0.2,1.3,0.5,2.7,0.7,4c0.1,0.6,0,1.1-0.7,1.3c-0.7,0.1-1-0.3-1.1-0.9c-0.1-0.7-0.3-1.4-0.4-2.1
		c-0.1-0.6-0.4-0.8-0.9-0.8c-2.2,0-4.3,0-6.5,0c-0.7,0-0.9,0.2-0.7,0.9c0.1,0.5,0.2,1,0.3,1.5c0.2,0.7,0.1,1.3-0.6,1.4
		c-0.9,0.2-1.1-0.4-1.2-1.1c-0.5-2.6-0.9-5.1-1.4-7.7c-1.3-7.5-2.6-15-4-22.5C-199.8,318.8-200.1,317.3-200.4,315.7z M-192.8,325.2
		L-192.8,325.2c1.1,0,2.2,0,3.4,0c0.6,0,0.9-0.1,0.7-0.8c-0.3-1.1-0.4-2.3-0.6-3.4c-0.1-0.6-0.4-0.8-0.9-0.8c-2.2,0-4.3,0-6.5,0
		c-0.7,0-0.9,0.3-0.7,0.9c0.2,1.1,0.4,2.3,0.6,3.4c0.1,0.6,0.4,0.8,1,0.7C-194.9,325.2-193.9,325.2-192.8,325.2z M-190.4,339.1
		L-190.4,339.1c1.1,0,2.2,0,3.3,0c0.7,0,0.8-0.2,0.7-0.9c-0.3-1.1-0.5-2.3-0.6-3.4c-0.1-0.6-0.3-0.8-0.9-0.8c-2.2,0-4.3,0-6.5,0
		c-0.8,0-0.9,0.3-0.8,0.9c0.2,1,0.4,2,0.5,2.9s0.5,1.3,1.5,1.2C-192.2,339-191.3,339.1-190.4,339.1z M-192.3,327.1L-192.3,327.1
		c-1.1,0-2.2,0-3.3,0c-0.6,0-0.8,0.2-0.7,0.8c0.2,1.2,0.5,2.4,0.7,3.6c0.1,0.5,0.3,0.6,0.8,0.6c2.2,0,4.5,0,6.7,0
		c0.3,0,0.7,0,0.7-0.4c-0.3-1.5-0.3-3.1-1-4.4c-0.4-0.7-2-0.1-3.1-0.2C-191.8,327.1-192,327.1-192.3,327.1z M-189.2,345.9
		L-189.2,345.9c1.2,0,2.3,0,3.5,0c0.5,0,0.7-0.1,0.6-0.7c-0.2-1.2-0.5-2.4-0.6-3.6c-0.1-0.6-0.4-0.7-0.9-0.7c-2.2,0-4.4,0-6.6,0
		c-0.6,0-0.8,0.2-0.7,0.8c0.2,1.2,0.5,2.3,0.6,3.5c0.1,0.6,0.4,0.8,1,0.8C-191.3,345.9-190.3,345.9-189.2,345.9z"/>
	<path id="XMLID_391_" class="st0" d="M-195.4,264.8c-2,0-4.1,0-6.1,0c-0.7,0-1.1-0.1-1.1-1c0-5.1,0-10.1,0-15.2c0-0.8,0.3-1,1-1
		c4.1,0,8.2,0,12.2,0c0.8,0,1.1,0.3,1.1,1.1c-0.1,1.8,0.1,3.7-0.2,5.5c-0.1,0.3,0,0.8-0.3,1c-0.3,0.1-0.5-0.3-0.8-0.4
		c-1.2-1-2.5-2-3.7-3c-0.4-0.4-0.7-0.4-0.8,0.3c-0.3,1.9-0.6,3.8-0.9,5.7c-0.1,0.5,0.3,0.7,0.6,1c1.8,1.5,3.6,2.9,5.4,4.4
		c0.6,0.4,0.8,0.9,0.6,1.5s-0.8,0.3-1.3,0.3C-191.5,264.8-193.5,264.8-195.4,264.8L-195.4,264.8z"/>
	<path id="XMLID_390_" class="st1" d="M-157.2,330c0.4,0.8,0,1.3-0.7,1.6c-2-0.4-4-0.1-6-0.2c-0.2,0-0.4,0.1-0.5,0.3
		c-0.4,0.6-0.8,1.1-1.2,1.7c-1.7,2.6-3.6,5.1-6.1,7c-0.6,0.5-0.6,0.9-0.3,1.5c0.5,0.8,0.9,1.7,1.3,2.5c0.5,1,0.2,2-0.6,2.3
		c-1,0.4-1.7,0.1-2.2-0.8c-0.9-1.7-1.7-3.3-2.7-5c-0.3-0.6-0.1-0.9,0.3-1.2c0.9-0.8,1.7-1.6,2.7-2.4c-1.1-0.3-2-0.1-3-0.1
		c-0.5,0-0.6,0.4-0.7,0.7c-0.6,1-1.2,2.1-1.9,3.1c-0.6,0.9-1.6,1.2-2.3,0.6c-0.9-0.6-0.9-1.5-0.4-2.3c1-1.7,2-3.3,3.1-5
		c1.5,0,3.1,0,4.6,0c1.4,0,1.6-0.3,1.6-1.7l0,0c0.5,0,0.5-0.4,0.5-0.8c0.4-0.7,0.8-1.4,1.2-2.1c0.4-0.5,0.2-0.8-0.3-1.2
		c-1.3-0.9-2.6-1.8-3.9-2.8c-0.7-0.5-1.2-1.1-0.6-2c0.6-0.8,1.3-0.7,2.1-0.1c2.3,1.7,4.6,3.3,6.8,5c-0.1,0.7,0.3,0.8,0.8,0.8
		c2.6,0,5.2,0,7.8,0l0,0C-157.7,329.8-157.6,330-157.2,330z"/>
	<path id="XMLID_389_" class="st0" d="M-244.5,244.8c-0.3,0.9-0.7,1.8-1,2.8c-3.9,10.1-7.8,20.3-11.7,30.5c-0.3,0.8-0.5,1.2-1.4,0.7
		s-2.3-0.4-2.6-1.2c-0.3-0.7,0.5-1.8,0.8-2.7c3.9-10.3,7.8-20.6,11.7-30.9c0.3-0.7,0.6-1.1,1.4-0.7c0.7,0.3,1.4,0.5,2.1,0.8
		C-244.8,244.2-244.5,244.3-244.5,244.8z"/>
	<path id="XMLID_385_" class="st0" d="M-246.8,345.6c0,1.4,0,2.7,0,4.1c0,0.6-0.2,0.8-0.8,0.8c-2.7,0-5.4,0-8.1,0
		c-0.6,0-0.7-0.3-0.7-0.8c0-2.7,0-5.4,0-8c0-0.6,0.2-0.8,0.8-0.8c2.7,0,5.4,0,8,0c0.7,0,0.8,0.3,0.8,0.9
		C-246.8,342.9-246.7,344.2-246.8,345.6z"/>
	<path id="XMLID_373_" class="st1" d="M-245,328.5c-2.4,0-4.4-1.9-4.4-4.3s2-4.3,4.3-4.3c2.4,0,4.3,1.9,4.3,4.4
		C-240.7,326.6-242.7,328.5-245,328.5z"/>
	<path id="XMLID_372_" class="st1" d="M-165.7,263.1c-2.4,0-4.3-1.9-4.3-4.2c0-2.4,2-4.4,4.3-4.4c2.4,0,4.3,2,4.3,4.4
		C-161.3,261.3-163.3,263.1-165.7,263.1z"/>
	<path id="XMLID_370_" class="st1" d="M-232,258.6c0,2.5-1.9,4.3-4.3,4.3c-2.4,0-4.3-1.9-4.3-4.3c0-2.3,2-4.4,4.4-4.4
		C-233.9,254.2-232,256.2-232,258.6z"/>
	<path id="XMLID_369_" class="st1" d="M-286.5,256.8c-2.4,0-4.3-1.8-4.3-4.2s1.9-4.4,4.3-4.4c2.3,0,4.4,2.1,4.3,4.4
		C-282.2,255-284.1,256.8-286.5,256.8z"/>
	<path id="XMLID_367_" class="st0" d="M-186.2,260.7c-0.2,0.9-0.3,1.7-0.4,2.6c-2.3-1.9-4.5-3.7-6.7-5.4c-0.3-0.3-0.4-0.6-0.3-0.9
		c0.1-0.9,0.3-1.7,0.4-2.6c0.1-0.9,0.4-0.7,0.9-0.3c1.4,1.2,2.9,2.4,4.5,3.7c0.2-0.7,0.3-1.4,0.5-2.2c2.8,3,5.5,5.9,8.2,8.9
		c-0.1,0.1-0.2,0.2-0.2,0.3C-181.7,263.3-183.9,262-186.2,260.7z"/>
	<path id="XMLID_366_" class="st1" d="M-305.1,317.5c2.9,0,4.7,1.4,5.1,3.6c0.3,1.9-0.3,2.8-2.1,3.2c-1.2,0.3-2.5,0.5-3.7,0.8
		c-0.8,0.2-1.3,0-1.7-0.6c-1.1-1.4-1.3-3-0.5-4.6C-307.3,318.3-306,317.5-305.1,317.5z"/>
	<path id="XMLID_364_" class="st1" d="M-290,333.4c2.1,2.2,3.4,0.5,4.8-0.6c0.5-0.4,1-0.8,1.5-1.2c1-0.6,2.2-0.4,2.9,0.5
		c0.6,0.8,0.6,2.1-0.2,2.8c-1.9,1.6-3.8,3-5.7,4.5c-0.5,0.4-0.9,0-1.3-0.2c-2.3-1-2.3-1-2.1-3.5C-290.1,335.1-290.1,334.5-290,333.4
		z"/>
	<path id="XMLID_362_" class="st0" d="M-293.7,275.5c0.8,0.1,2.2-0.5,2.8,0.3c0.5,0.6,0.2,1.9,0.2,2.9c0,0.7-0.1,1.4,0,2
		c0.1,1-0.2,1.4-1.2,1.3c-1.4-0.1-2.9-0.1-4.3,0c-0.7,0-1-0.2-1-1c0-1.5,0.1-3,0-4.5c0-0.8,0.3-1,1.1-1
		C-295.4,275.6-294.7,275.5-293.7,275.5z"/>
	<path id="XMLID_360_" class="st0" d="M-297.4,351.9c-4.9,0-9.7,0-14.6,0c-0.4,0-1.1,0.3-1.2-0.4c0-0.8,0.8-0.5,1.2-0.5
		c4,0,7.9,0,11.9,0c0.9,0,1.4-0.2,1.2-1.2c-0.1-0.8,0.2-1.1,1-1c0.4,0,0.7,0,1.1,0c0.8-0.1,1.1,0.3,1,1c-0.2,1,0.3,1.2,1.2,1.2
		c4,0,8,0,12,0c0.4,0,1.1-0.3,1.1,0.4c0,0.8-0.7,0.5-1.1,0.5C-287.5,351.9-292.5,351.9-297.4,351.9z"/>
	<path id="XMLID_359_" class="st1" d="M-161,324.9c0,1.8-1.5,3.3-3.3,3.2c-1.8,0-3.2-1.5-3.2-3.2c0-1.8,1.5-3.3,3.3-3.2
		C-162.5,321.7-161,323.2-161,324.9z"/>
	<path id="XMLID_354_" class="st1" d="M-243.5,341.3c-1.4,0-2.2-0.9-2-2c0.2-0.9,0.7-1.8,1.5-2.4c1-0.7,2.1-1.3,3.1-2
		c0.5-0.4,0.9-0.1,1.2,0.2c0.5,0.4,0.2,0.7,0,1c-0.9,1.4-1.7,2.8-2.5,4.2C-242.6,340.9-243.1,341.2-243.5,341.3z"/>
	<path id="XMLID_348_" class="st1" d="M-157.6,329.5c-2.6,0-5.2,0-7.8,0c-0.5,0-1-0.1-0.8-0.8c0.6,0.4,1.2,0.5,1.9,0.5
		c1.8,0,3.6,0,5.4,0C-158.5,329.2-158,329.1-157.6,329.5z"/>
	<path id="XMLID_347_" class="st1" d="M-229.2,327.5c-0.5,0.7-1,1.5-1.6,2.1c0,0-0.5-0.2-0.7-0.4c-0.2-0.2-0.1-0.3,0-0.5
		c0.4-0.5,0.7-1.1,1.1-1.6c0.1-0.2,0.3-0.4,0.6-0.2C-229.6,327.1-229.4,327.3-229.2,327.5z"/>
	<path id="XMLID_346_" class="st1" d="M-233.1,327.7c0.1-0.5,0.2-0.9,0.3-1.4c0.1-0.3,0.2-0.5,0.5-0.4s0.6,0.2,0.5,0.6
		c-0.1,0.5-0.1,1-0.2,1.4c-0.1,0.3,0.2,0.9-0.5,0.8C-233.1,328.6-233.2,328.2-233.1,327.7z"/>
	<path id="XMLID_345_" class="st1" d="M-227.6,329.5c0,0.4-2,1.5-2.3,1.3c-0.2-0.1-0.3-0.3-0.4-0.6c-0.1-0.3,0.2-0.4,0.4-0.5
		c0.5-0.3,1-0.5,1.5-0.8C-227.8,328.5-227.8,329.2-227.6,329.5z"/>
	<path id="XMLID_343_" class="st1" d="M-172.1,332.7c0,1.4-0.3,1.7-1.6,1.7c-1.5,0-3.1,0-4.6,0c0.3-0.5,0.9-0.3,1.3-0.3
		c0.7,0,1.4-0.1,2.2,0C-173.6,334.2-172.7,333.9-172.1,332.7z"/>
	<path id="XMLID_338_" class="st1" d="M-164.4,331.8c0.1-0.2,0.3-0.3,0.5-0.3c2,0.1,4-0.2,6,0.2
		C-160.1,331.9-162.2,331.7-164.4,331.8z"/>
	<path id="XMLID_336_" class="st1" d="M-171.6,331.9c0,0.4,0.1,0.8-0.5,0.8C-172,332.4-171.9,332.1-171.6,331.9z"/>
	<path id="XMLID_334_" class="st1" d="M-157.2,330c-0.3,0-0.5-0.2-0.4-0.5C-157.4,329.6-157.2,329.8-157.2,330z"/>
	<path id="XMLID_330_" class="st2" d="M-192.8,325.2c-1,0-2.1,0-3.1,0c-0.6,0-0.9-0.2-1-0.7c-0.2-1.1-0.4-2.3-0.6-3.4
		c-0.1-0.6,0.1-0.9,0.7-0.9c2.2,0,4.3,0,6.5,0c0.6,0,0.9,0.2,0.9,0.8c0.2,1.1,0.3,2.3,0.6,3.4c0.2,0.7-0.1,0.8-0.7,0.8
		C-190.6,325.2-191.7,325.2-192.8,325.2L-192.8,325.2z"/>
	<path id="XMLID_329_" class="st2" d="M-190.4,339.1c-0.9,0-1.8-0.1-2.7,0c-1,0.1-1.4-0.3-1.5-1.2c-0.1-1-0.3-2-0.5-2.9
		c-0.1-0.6,0-1,0.8-0.9c2.2,0,4.3,0,6.5,0c0.6,0,0.8,0.2,0.9,0.8c0.1,1.1,0.4,2.3,0.6,3.4c0.1,0.6,0,0.9-0.7,0.9
		C-188.1,339.1-189.3,339.1-190.4,339.1L-190.4,339.1z"/>
	<path id="XMLID_328_" class="st2" d="M-192.3,327.1c0.2,0,0.5,0,0.7,0c1.1,0.1,2.6-0.5,3.1,0.2c0.7,1.2,0.7,2.9,1,4.4
		c0.1,0.5-0.3,0.4-0.7,0.4c-2.2,0-4.5,0-6.7,0c-0.5,0-0.7-0.1-0.8-0.6c-0.2-1.2-0.4-2.4-0.7-3.6c-0.1-0.6,0.1-0.8,0.7-0.8
		C-194.5,327.2-193.4,327.2-192.3,327.1L-192.3,327.1z"/>
	<path id="XMLID_327_" class="st2" d="M-189.2,345.9c-1,0-2.1,0-3.1,0c-0.6,0-0.9-0.1-1-0.8c-0.2-1.2-0.4-2.3-0.6-3.5
		c-0.1-0.6,0.1-0.8,0.7-0.8c2.2,0,4.4,0,6.6,0c0.5,0,0.8,0.1,0.9,0.7c0.2,1.2,0.4,2.4,0.6,3.6c0.1,0.6-0.1,0.7-0.6,0.7
		C-186.9,345.9-188.1,345.9-189.2,345.9L-189.2,345.9z"/>
</g>
</svg>
