<?xml version="1.0" encoding="utf-8"?>
<!-- Generator: Adobe Illustrator 19.0.0, SVG Export Plug-In . SVG Version: 6.00 Build 0)  -->
<svg version="1.1" id="Layer_1" xmlns="http://www.w3.org/2000/svg" xmlns:xlink="http://www.w3.org/1999/xlink" x="0px" y="0px"
	 viewBox="0 0 194.1 147" style="enable-background:new 0 0 194.1 147;" xml:space="preserve">
<style type="text/css">
	.st0{fill:#FFFFFF;}
	.st1{fill:#494D50;}
	.st2{fill:#AFAFAF;}
	.st3{fill:#FAD45E;}
	.st4{fill:#F78E1E;}
	.st5{fill:none;stroke:#000000;stroke-width:0.3;}
</style>
<g id="XMLID_43_">
	<g id="XMLID_2965_">
		<g id="XMLID_3329_">
			<path id="XMLID_3568_" class="st0" d="M91.3,62.4c-0.4,1.3,0.6,1.2,1.4,1.3c0,0.4,0,0.8,0,1.1c-0.4,0-0.7,0-1.1,0
				c-0.2-0.2-0.3-0.1-0.3,0.1c-0.2,0.9,0,1.2,1.1,1.2c4.7-0.1,9.4-0.1,14,0c1,0,1.3-0.3,1.1-1.2c0-0.2-0.1-0.3-0.3-0.1
				c-0.4,0-0.7,0-1.1,0c0-0.4,0-0.8,0-1.2c0.4,0,0.7,0,1.1,0c0.2,0.2,0.3,0.1,0.3-0.1c0-0.4,0-0.7,0-1.1c0-0.2-0.1-0.3-0.3-0.2
				c-0.4,0-0.7,0-1.1,0c0-0.4,0-0.8,0-1.2c1.3-0.1,1.9-0.8,1.3-1.1c-1.4-0.8-0.6-1.8-0.6-2.7c0.2-3.7,2.4-6.2,4.9-8.6
				c2.3-2.2,3.8-4.8,4.5-7.8c1.3-5.3,0.3-10.3-3-14.8c-4.9-6.5-12.9-8.5-20-5.9c-5.8,2.1-9.5,6.5-10.9,12.6
				C81,38.8,82.6,44,86.7,48.4c2.1,2.3,4.2,4.5,5.1,7.5c0.4,1.2,0.7,2.5,0.2,3.6c-0.7,1.6-0.9,1.5,0.7,1.6c0,0.4,0,0.8,0,1.2
				c-0.4,0-0.7,0-1.1,0C91.4,62.1,91.3,62.2,91.3,62.4z M142,51.9c0.1,1.6-0.6,3.1-0.6,4.6c-0.1,0.5-0.9,0.9-0.1,1.5
				c0.7,0.5,0.9-0.2,1.2-0.4c3.8-2.6,7.6-5.2,11.2-7.9c1.1-0.8,2.5-1.3,3.3-2.5c-2.5-0.7-4.9-0.6-7.4-0.9c-3.6-0.4-7.2-0.8-10.8-1.2
				c-0.3,0-0.9-0.2-0.9,0.5c0,0.6,0,1,0.8,1c1,1.3,2,2.6,3,3.9C141.4,51,142,51.4,142,51.9z M123.6,75.5c0.2-0.8,1-1,1.6-1.5
				c0.4-0.4,0.9-0.7,0.4-1.2c-0.4-0.4-0.9-0.2-1.3,0.2c-0.7,0.7-1.5,1.4-2.4,1.8c-0.5-0.1-0.9-0.2-1.4-0.3c-1.8-0.6-3.7-1.2-5.5-1.9
				c0-0.5,1.1-0.2,0.7-0.9c-0.2-0.3-0.5-0.8-0.9-0.7c-0.5,0.1-0.8,0.5-0.6,1.1c-2.7-0.5-5.2-1.8-7.9-2.6c-0.6-0.4-1-0.4-1.5,0.3
				c-1.5,2-3.2,3.8-4.7,5.7c-0.4,0.5-0.7,0.7-1.3,0c-1.5-1.9-3.1-3.7-4.6-5.6c-0.5-0.7-1-0.9-1.7-0.5c-0.2,0.1-0.4,0.2-0.3,0.5l0,0
				c-0.3,0-0.6,0-0.8,0.1c-2.2,0.7-4.4,1.5-6.6,2.2c-0.8-0.2-0.8-1-1.2-1.5c-0.4-0.6-0.7-0.1-1.1,0c-0.5,0.2-0.5,0.5-0.1,0.8
				c0.3,0.3,0.5,0.7,0.8,1.1c-2.8,1-5.7,1.9-8.5,3c-1.4,0.5-2.9,0.7-4.2,1.6c-0.6-0.3-1-0.1-1.4,0.5c-1.6,0.6-3.2,1.1-4.9,1.7
				c-1,0-1.4,0.4-0.7,1.3c1,1.3,2.1,2.4,3.1,3.8c0.8,1.1,2.6,1.9,2.2,3.2c-0.3,1.2-1.7,2.1-2.7,3.2c-2.1,2.4-4.3,4.7-6.5,7.2
				c3.1,1.1,6.1,2.1,9.1,3.1c0.6,0.2,0.7,0.6,0.7,1.1c0,4.1,0,8.1-0.1,12.2c-5.6,1.9-11.1,3.9-16.7,5.8c4.8,1.9,9.5,3.3,14.2,5.1
				c4.6,1.8,9.3,3.2,13.9,4.9c4.8,1.8,9.6,3.4,14.3,5.1c2.6,0.9,5,1.5,7.8,0.2c2.7-1.2,5.5-2,8.3-3c3.6-1.3,7.2-2.5,10.7-3.8
				c3.4-1.2,6.7-2.3,10.1-3.6c4.3-1.6,8.7-3,13-4.5c0.3-0.1,0.8,0,0.8-0.4c0-0.5-0.5-0.4-0.9-0.5c-3-1-5.9-2.1-8.9-3.2
				c-2.2-0.8-4.4-1.5-6.7-2.2c0-4.1,0-8.1-0.1-12.2c0-0.5,0.1-0.9,0.6-1.1c3-1,6-2,9.1-3.1c-1.1-1.3-2.2-2.6-3.3-3.8
				c-1.9-2.1-3.8-4.2-5.7-6.2c-0.4-0.4-0.5-0.7,0-1.3c1.7-1.9,3.3-4,5-6c0.8-1,0.5-1.4-0.6-1.5C130.9,78,127.3,76.7,123.6,75.5z
				 M139.1,35.5c0.1-4.1-3.3-7.7-7.4-7.7c-4,0-7.5,3.2-7.6,7.3c-0.1,4.2,3.2,7.6,7.5,7.7C135.7,42.9,139,39.3,139.1,35.5z
				 M71.8,57.7c-0.3-0.5-0.6-0.8-0.8-1.1c-0.6,0.3-1.1,1.2-1.7,0.5c-0.4-0.5-1.6-1-0.7-2.1c0.3-0.3,0.3-0.8-0.2-1.1
				c-0.6-0.3-0.9,0.2-1.1,0.6c-0.2,0.3-0.1,1-0.7,0.6c-0.6-0.4-1.7,0-1.6-1.2c0-0.6,0-1-0.8-1c-0.8,0-0.6,0.5-0.6,1
				c0,1.2-1.2,0.8-1.8,1.2c-0.6,0.4-0.4-0.4-0.6-0.6c-0.3-0.3-0.5-0.9-1.1-0.6c-0.6,0.3-0.5,0.8-0.2,1.2c0.3,0.5,0.1,0.8-0.2,1.3
				c-0.9,1.1-1.6,0.7-2.4-0.1c-0.2,0.5-0.4,0.9-0.6,1.3c0.5,0.5,1.5,0.5,1.3,1.7c-0.2,1.1-0.6,1.5-1.6,1.3c-0.4-0.1-0.4,0.3-0.4,0.6
				c-0.1,0.6,0.3,0.7,0.7,0.6c0.9-0.2,1.1,0.4,1.3,1.1c0.1,0.7,0.3,1.4-0.7,1.7c-1.1,0.3-0.1,0.8-0.1,1.2c0.1,0.6,0.5,0.2,0.8,0
				c0.3-0.2,0.7-1,1-0.3c0.3,0.6,1.7,0.7,1,1.9c-0.2,0.3-0.6,0.8,0.1,1.1c0.5,0.2,0.9,0,1.2-0.5c0.2-0.3,0.2-1,0.8-0.6
				c0.5,0.4,1.5,0,1.6,1.1c0,0.4-0.3,1.1,0.6,1.1c0.9,0.1,0.8-0.6,0.8-1.1c0-1,1.1-0.7,1.6-1.1c0.5-0.4,0.6,0.1,0.8,0.5
				c0.2,0.6,0.7,0.8,1.2,0.6c0.7-0.3,0.3-1,0.1-1.2c-0.9-1.1,0.6-1.3,0.8-1.9c0.2-0.6,0.8,0,1,0.2c0.5,0.5,0.7,0.3,1-0.2
				c0.3-0.5,0.4-0.8-0.3-1c-1.1-0.4-0.5-1.3-0.5-1.9c0-0.7,0.5-0.8,1.1-0.8c0.4,0,0.9,0.2,0.9-0.6c0-0.7-0.4-0.7-0.8-0.6
				c-0.9,0.1-1-0.3-1.2-1.1C70.2,58.5,70.9,58.1,71.8,57.7z M39.2,66.6c-2.1,0-3.7,1.5-3.7,3.5c0,1.9,1.6,3.6,3.6,3.6
				c2,0,3.7-1.6,3.7-3.5C42.8,68.2,41.1,66.6,39.2,66.6z M71.4,24.3c-2.1,0-3.6,1.2-4,3.2c-0.1,0.3-0.4,0.7,0.2,0.8
				c0.4,0.1,0.9,0.3,1.1-0.3c0.1-0.4,0.3-0.7,0.4-1c0.8-1.5,2.7-1.9,4-0.9c1.8,1.4,1.7,3.4-0.2,4.7c-1.4,0.9-2,2.2-2.1,3.7
				c0,0.5-0.1,0.9,0.7,0.9c0.7,0,0.7-0.3,0.7-0.9c0-1.1,0.4-2.1,1.5-2.7c1.5-0.9,2.4-3,2-4.4C75.1,25.3,73.6,24.2,71.4,24.3z
				 M41,25.4c-0.3,0.3-0.5,0.6-0.8,0.9c-0.2,0.3,0.1,0.4,0.2,0.6c3.1,3.5,6.1,7,9.2,10.4c0.7,0.8,1.3,1.6,2.1,2.3
				c0.3,0.3,0.6,0.5,1.1,0.1c0.5-0.4,0.2-0.7,0-1c-0.1-0.2-0.3-0.4-0.5-0.7C48.7,34,45.1,30,41.5,25.9C41.3,25.8,41.2,25.6,41,25.4z
				 M110.4,68.9c0.3,0.1,0.4-0.2,0.5-0.5c2-5,4.1-10,6.1-15c0.2-0.4,0.5-0.8-0.2-1c-0.5-0.1-0.9-0.1-1.1,0.5
				c-2,4.9-4.1,9.8-6.2,14.6C109.2,68.5,109.8,68.7,110.4,68.9z M154.1,18.7c0.2-0.8-0.5-0.6-0.8-0.9c-0.4-0.4-0.4,0.2-0.6,0.4
				c-2.6,3.6-5.2,7.2-7.8,10.9c-0.3,0.4-0.6,0.7,0,1c0.4,0.3,0.8,0.5,1.1-0.2c0.1-0.3,0.4-0.5,0.6-0.7c2-2.7,3.9-5.5,5.8-8.2
				C153,20.1,153.5,19.3,154.1,18.7z M141.6,71.5c0.5-0.3,0.8-0.6,1.2-0.8c3.3-1.8,6.6-3.7,10-5.5c0.5-0.3,0.6-0.7,0.4-1.2
				c-0.2-0.6-0.7-0.2-1-0.1c-3.4,1.9-6.8,3.8-10.2,5.6C141.2,70,140.8,70.6,141.6,71.5z M122.2,16.3c-1.4,0-2.4,0.9-2.5,2.3
				c0,1.6,1,2.8,2.3,2.8c1.1,0,2.4-1.2,2.5-2.4C124.6,17.7,123.4,16.4,122.2,16.3z M75.4,51.9c-0.1,0.4-1.2,0.3-0.5,1.4
				c1.9,2.9,3.5,6,5.2,9c0.3,0.4,0.4,1,1.2,0.5c1-0.6,0.2-1,0-1.3c-1.7-3.1-3.5-6.1-5.3-9.1C75.9,52.2,75.9,51.9,75.4,51.9z
				 M122,47.9c-1.4-0.2-2.2,0.6-2.7,1.7c-0.1,0.2-0.5,0.6-0.1,0.8c0.3,0.2,0.8,0.2,1.1,0c0.3-0.3,0.5-0.6,0.8-1
				c0.7-0.8,1.5-0.6,2,0.1c0.7,0.9,0.6,1.7-0.4,2.4c-1,0.6-1.3,1.6-1.4,2.6c-0.1,0.4,0,0.7,0.5,0.7c0.3,0,0.8,0.2,0.8-0.2
				c-0.1-1.4,1.2-1.8,1.8-2.7c0.7-1,0.8-2,0.2-3C123.9,48.3,123.1,47.8,122,47.9z M67.8,76.2c0-0.4-0.2-0.6-0.5-0.7
				c-2.9-1.6-5.7-3.2-8.6-4.9c-0.4-0.2-0.8-0.5-1.2,0.2c-0.4,0.7,0.2,0.9,0.5,1c2.9,1.6,6,3.2,8.9,4.9
				C67.8,77.4,67.6,76.6,67.8,76.2z M63.3,37.1c-0.9-0.1-1.5,0.3-1.9,0.9c-0.3,0.4-0.5,1,0,1.3c0.4,0.2,0.8,0.1,1.1-0.4
				c0.3-0.5,0.9-1,1.5-0.3c0.5,0.6,0.6,1.2-0.2,1.7c-0.7,0.4-0.9,1.1-1.1,1.7c-0.1,0.3-0.3,0.8,0.4,0.8c0.4,0,0.9,0.3,1-0.4
				c0-0.6,0.4-0.9,0.8-1.2c0.9-0.7,1.2-1.6,0.8-2.6C65.2,37.6,64.4,36.9,63.3,37.1z M127.5,55.7c0.2-0.2,0.5-0.4,0.6-0.7
				c1.2-1.7,2.4-3.5,3.6-5.2c0.2-0.3,0.7-0.7,0.1-1.2c-0.7-0.5-0.9,0-1.2,0.4c-1.3,1.8-2.6,3.6-3.9,5.4c-0.2,0.2-0.4,0.4-0.2,0.7
				C126.9,55.4,127.2,55.5,127.5,55.7z M99.3,68.8c0.7,0,1.4,0,2.1,0c0.5,0,0.8-0.1,0.8-0.7c0-0.5-0.3-0.6-0.7-0.6
				c-1.4,0-2.8,0-4.2,0c-0.5,0-0.8,0.1-0.8,0.7c0,0.5,0.3,0.6,0.7,0.6C97.9,68.8,98.6,68.8,99.3,68.8z M55.3,31.2
				c-0.2-0.3-0.3-0.6-0.5-0.9c-0.6-0.8-1.2-1.5-1.7-2.3c-0.2-0.4-0.3-0.7-0.7-0.3c-0.3,0.3-0.9,0.4-0.5,1c0.7,0.9,1.3,1.9,2,2.8
				c0.3,0.4,0.6,0.4,1,0.2C55,31.6,55.3,31.5,55.3,31.2z M117.8,61.5c-0.1,0.1-0.2,0.1-0.3,0.1c-0.8,1-1.4,2.2-1.9,3.4
				c-0.2,0.4,0.4,0.6,0.7,0.8c0.3,0.2,0.4-0.1,0.5-0.3c0.6-1,1.1-1.9,1.7-2.9C119.1,61.6,118,61.8,117.8,61.5z M55.3,88.9
				c-0.8,0-1,0.6-1,1.4c0,0.9,0.3,1.5,1.3,1.5c1,0,1.3-0.6,1.3-1.5C56.9,89.3,56.4,88.9,55.3,88.9z M40.7,61.1
				c-0.4-1.1-1.5-1.1-2.3-1.7c-0.2-0.2-0.7-0.3-0.9,0.3c-0.1,0.4-0.2,0.8,0.3,1.1c0.6,0.3,1.3,0.7,1.9,1
				C40.5,62.1,40.5,61.4,40.7,61.1z M129.4,23.2c0.4,0,0.5-0.3,0.6-0.5c0.3-0.6,0.5-1.3,0.9-1.9c0.4-0.6-0.1-0.8-0.4-1
				c-0.6-0.4-0.7,0.1-0.9,0.4c-0.3,0.6-0.5,1.3-0.8,1.9C128.3,23,129.1,22.9,129.4,23.2z M110.2,12.6c-0.3,0.3-0.5,0.5-0.7,0.7
				c-0.3,0.3-0.7,0.4-0.1,1c0.4,0.4,0.7,0.5,1,0.1c0.2-0.3,1-0.5,0.2-1c-0.5-0.4-0.4-0.9,0.1-1.3c0.6-0.5-0.2-0.7-0.4-1.1
				c-0.1-0.4-0.6-0.3-0.8,0c-0.2,0.3-0.7,0.6-0.2,1.1C109.7,12.2,109.9,12.4,110.2,12.6z M84.7,56.9c-0.6-0.2-0.3-1.5-1.4-1.6
				c-0.3,0-1,0.2-0.7,0.5c0.6,0.6,0.2,1.9,1.4,2C84.5,57.9,84.8,57.7,84.7,56.9z M144.5,75.7c0.5,0.4,1,0.8,1.4,1.2
				c0.3,0.4,0.4,0.9,1,0.3c0.4-0.4,0.8-0.8,0-1.3c-0.5-0.3-0.9-0.8-1.4-1.2C145.1,75,144.8,75.3,144.5,75.7z M62.9,50
				c-0.7-0.7-1.2-1.4-1.9-1.9c-0.1-0.1-0.7,0.4-0.9,0.8c-0.1,0.2,1.6,1.9,1.8,1.8C62.2,50.6,62.5,50.3,62.9,50z M147.3,79.6
				c-0.3-0.1-0.5-0.9-0.9-0.6c-0.7,0.4-1.4,1-1.8,1.7c-0.2,0.3,0.6,0.6,0.9,0.8C145.7,81.6,147.3,79.9,147.3,79.6z M149.6,77.7
				c0.4-1,1.4-1.2,1.7-2c0.1-0.3-0.5-1.1-0.8-0.9c-0.7,0.4-1.4,1-1.7,1.8C148.7,76.8,149.2,77.2,149.6,77.7z M144.9,41.7
				c0.6,0,1,0,1-0.8c0-0.6-0.1-1.1-0.8-1.2c-0.7,0-1.1,0.2-1.2,0.9C143.9,41.3,144.2,41.7,144.9,41.7z M150.5,81.5
				c0.3-0.3,0.9-0.5,0.8-0.9c-0.2-0.8-1.1-1.2-1.7-1.6c-0.2-0.1-0.9,0.5-0.7,0.8C149.3,80.4,149.7,81.2,150.5,81.5z M73.1,18.7
				c0.3-0.3,1-0.6,0.7-1c-0.2-0.4-0.7-1-1.3-1c-0.3,0-1,0.2-0.8,0.7C72,18,72.7,18.3,73.1,18.7z M74,14.5c-0.2-0.5-0.7-0.9-0.9-0.9
				c-0.6,0.2-1.2,0.7-1.3,1.3c-0.1,0.4,0.4,0.6,0.8,0.6C73.3,15.6,73.4,14.7,74,14.5z M156.7,62.9c-0.5-0.2-0.4-1.1-0.9-1
				c-0.5,0.1-1.1,0.5-1.3,1.1c0,0.1,0,1,0.6,0.8C155.7,63.6,156.3,63.4,156.7,62.9z M69.5,13.5c-0.3,0.3-0.8,0.7-0.8,0.9
				c0.3,0.5,0.6,1.2,1.2,1.3c0.5,0.1,1-0.6,0.9-0.8C70.6,14.3,70,14,69.5,13.5z M39.6,23.7c-0.3-0.3-0.7-0.8-1.1-0.9
				c-0.3-0.1-0.9,0.3-0.8,0.7c0.1,0.4,0.6,0.8,1,1.2C38.9,24.4,39.5,24.5,39.6,23.7z M69.5,18.9c0.3-0.3,0.6-0.6,0.9-0.8
				c0.3-0.3,0.5-0.6,0.1-1c-0.4-0.4-0.6-0.3-1,0C68.6,17.6,68.6,18.2,69.5,18.9z M37.5,44c-0.3-0.3-0.3-0.9-0.9-0.9
				c-0.3,0-0.9,0.1-0.8,0.6c0.1,0.4,0.1,1.1,0.6,1.1C36.7,44.8,37.5,44.7,37.5,44z M134,46.7c0.1-0.7-0.4-1-0.7-1
				c-0.5,0-0.7,0.5-0.8,1c-0.1,0.5,0.6,0.8,0.7,0.8C133.7,47.5,133.9,47.1,134,46.7z M45.7,42.5c0.1-0.6-0.3-0.5-0.7-0.6
				c-0.6-0.1-0.7,0.3-0.7,0.7c-0.1,0.8,0.6,0.7,0.9,0.7C45.8,43.4,45.5,42.7,45.7,42.5z M150.7,35.7c0-0.7-0.7-0.8-0.9-0.8
				c-0.5,0-0.9,0.5-1,1c0,0.2,0.7,0.8,0.8,0.7C150.1,36.5,150.4,36,150.7,35.7z M36.8,41c0-0.6-0.6-0.7-0.9-0.7
				c-0.5,0.1-0.5,0.7-0.5,1.1c-0.1,0.6,0.5,0.4,0.8,0.5C36.8,42,36.7,41.5,36.8,41z M50.9,76.7c0-0.5-0.3-0.5-0.7-0.5
				c-0.5,0-0.7,0.2-0.8,0.7c-0.1,0.7,0.6,0.8,0.9,0.8C50.9,77.7,50.9,77.2,50.9,76.7z M80.3,36.7c0-0.5-0.2-0.7-0.7-0.7
				C79,36,79,36.3,79,36.7c0,0.5,0.2,0.7,0.7,0.7C80.2,37.4,80.4,37.2,80.3,36.7z M112.3,12.5c0.3-0.4,0.9-0.5,0.8-1
				c0-0.3-0.2-0.8-0.6-0.8c-0.5,0-0.8,0.4-1,0.9C111.3,12.1,112,12.2,112.3,12.5z M143.9,19.6c-0.4-0.2-0.5-0.8-1-0.8
				c-0.5,0-0.4,0.6-0.8,0.8c0.2,0.4,0.4,0.8,0.9,0.7C143.2,20.2,143.7,20.2,143.9,19.6z M45,74.7c-0.5,0.1-0.5,0.6-0.6,0.9
				c-0.1,0.4,0,0.6,0.5,0.6c0.5,0,0.9-0.1,0.9-0.6C45.8,75.1,45.4,75,45,74.7z M38.3,44.9c0,0.6-0.8,0.7-0.6,1.2
				c0.1,0.5,0.8,0.6,1.2,0.6c0.4,0.1,0.5-0.5,0.5-0.9C39.4,45.2,38.7,45.3,38.3,44.9z M80.5,41.3c-0.4,0.1-0.9,0.1-0.7,0.8
				c0.1,0.3,0,1,0.6,0.7c0.3-0.1,1,0.1,0.8-0.6C81.1,41.8,81.1,41.2,80.5,41.3z M80.2,30.6c-0.4,0.2-0.5,0.5-0.6,0.8
				c-0.1,0.7,0.5,0.6,0.8,0.7c0.6,0.2,0.6-0.5,0.6-0.8C81.3,30.6,80.5,31,80.2,30.6z M83.3,46.8c-0.1-0.3-0.3-0.7-0.7-0.5
				c-0.3,0.1-0.9,0.1-0.8,0.7c0.1,0.4,0.2,0.9,0.7,0.8C83,47.7,83.4,47.4,83.3,46.8z M90.6,18c-0.5,0.5-1.4,0.4-1.1,1.3
				c0.1,0.2,0.2,0.8,0.9,0.5C91.5,19.3,90.6,18.7,90.6,18z M49.4,73.5c-0.5,0.1-0.6,0.6-0.6,0.9c0,0.3,0.4,0.9,0.6,0.8
				c0.4-0.2,1.1-0.3,0.9-0.8C50.2,74,49.7,73.8,49.4,73.5z M107.5,19.3c0.6-0.2,0.8,1.1,1.4,0.3c0.4-0.5,0.3-1-0.2-1.2
				C107.7,18,108,19.1,107.5,19.3z M140,19.6c0.7-0.1,1.2-0.1,1.1-0.8c-0.1-0.3,0.2-0.8-0.4-0.7c-0.5,0-1.1,0.2-1.2,0.7
				C139.5,19,139.8,19.6,140,19.6z M106.9,17.6c-0.5,0.2-1.2-0.9-1.6,0.3c-0.2,0.5,0.1,0.7,0.5,0.8
				C106.9,19.1,106.5,17.9,106.9,17.6z M88.8,20.5c-0.1-0.5-0.5-0.7-0.8-0.9c-0.2,0.4-1,0.4-0.8,0.9c0.1,0.3,0.3,0.9,0.6,0.8
				C88.2,21.2,88.7,21.1,88.8,20.5z M132,67.9c0.7,0.2,0.5-0.4,0.6-0.7c0.2-0.7-0.3-0.7-0.7-0.7c-0.6-0.1-0.5,0.4-0.6,0.7
				C131,67.9,131.7,67.7,132,67.9z M119.8,34c-0.1-0.5-0.1-0.9-0.7-0.8c-0.4,0.1-0.9,0.2-0.8,0.9c0.1,0.5,0.2,0.6,0.7,0.5
				C119.5,34.6,119.9,34.5,119.8,34z M137.9,20.6c0,0.4-0.2,0.9,0.5,0.9c0.5,0,0.8-0.1,0.9-0.7c0.1-0.6-0.4-0.7-0.8-0.8
				C138,19.9,137.9,20.2,137.9,20.6z M127.4,64.1c0.1-0.7-0.5-0.6-0.9-0.6c-0.5,0-0.5,0.5-0.5,0.8c0,0.6,0.5,0.4,0.8,0.5
				C127.3,64.8,127.5,64.5,127.4,64.1z M37.5,37.9c-0.5,0.2-1,0.4-0.9,0.9c0,0.4,0.6,0.7,0.9,0.7c0.3,0,0.8-0.3,0.7-0.9
				C38.1,38.2,37.8,38,37.5,37.9z M119.2,40.1c0.3-0.1,0.5-0.4,0.5-0.8c0.1-0.8-0.6-0.6-1-0.7c-0.6-0.1-0.4,0.5-0.5,0.8
				C118.2,40.1,118.8,39.9,119.2,40.1z M115.5,24.1c-0.3-0.2-0.4-0.8-0.9-0.6c-0.4,0.1-0.8,0.4-0.7,0.8c0.1,0.2,0.3,0.9,0.9,0.6
				C115.1,24.8,115.5,24.6,115.5,24.1z M82.1,44.7c-0.4-0.2,0.1-1-0.5-1c-0.4,0-1,0.2-1.1,0.7c-0.1,0.4,0.3,0.9,0.7,0.9
				C81.4,45.3,82.1,45.3,82.1,44.7z M118.3,28.8c-0.2-0.3-0.3-0.8-0.7-0.6c-0.3,0.1-1.1-0.1-0.8,0.6c0.1,0.3-0.1,1,0.6,0.9
				C117.8,29.6,118.3,29.4,118.3,28.8z M85,49.1c-0.3-0.2-0.2-0.9-0.9-0.7c-0.3,0.1-0.8,0.3-0.8,0.7c0.1,0.4,0.4,0.9,0.9,0.8
				C84.8,49.9,84.8,49.5,85,49.1z M84.1,25c0.4-0.1,0.8-0.4,0.7-0.9c0-0.4-0.3-0.7-0.7-0.7c-0.6,0-0.7,0.3-0.7,0.8
				C83.3,24.8,83.7,24.9,84.1,25z M82.6,27.3c0.2-0.4,0.8-0.5,0.7-1c-0.1-0.5-0.6-0.8-1-0.8c-0.5-0.1-0.5,0.6-0.6,1
				C81.5,27,82.3,26.9,82.6,27.3z M139.9,23.3c0-0.5-0.4-0.8-0.7-0.7c-0.3,0.1-0.9,0.1-0.9,0.5c0,0.5,0.5,0.9,0.9,1
				C139.8,24.3,139.8,23.7,139.9,23.3z M139.9,51.9c-0.1-0.3-0.1-0.8-0.5-0.7c-0.4,0-1,0.1-0.9,0.8c0.1,0.4,0.1,0.9,0.6,0.7
				C139.4,52.6,140,52.6,139.9,51.9z M116.2,27.2c0.1-0.4,0.9-0.1,0.8-0.8c-0.1-0.3-0.1-0.9-0.5-0.9c-0.4,0-0.8,0.3-0.8,0.8
				C115.7,26.6,115.7,27.1,116.2,27.2z M136.2,69c-0.1,0.4-0.9,0.2-0.7,0.8c0.1,0.4,0.3,0.8,0.9,0.7c0.3-0.1,0.8,0.1,0.7-0.4
				C137,69.6,136.8,69.1,136.2,69z M46.5,78c-0.2-0.3-0.4-0.6-0.8-0.5c-0.4,0.1-0.8,0.2-0.7,0.7c0.1,0.4,0.4,0.8,0.8,0.8
				C46.2,78.9,46.4,78.4,46.5,78z M40.1,36.8c-0.4,0-0.9,0.1-1,0.5c0,0.4,0.2,0.9,0.9,0.9c0.5,0,0.7-0.2,0.7-0.7
				C40.7,37.2,40.7,36.8,40.1,36.8z M81.1,28c-0.5,0.1-0.6,0.4-0.6,0.8c-0.1,0.7,0.5,0.8,0.9,0.8c0.5,0.1,0.5-0.4,0.5-0.8
				C82,28.2,81.3,28.3,81.1,28z M124.2,68c0.1-0.3,0.9,0,0.7-0.8c-0.1-0.4-0.1-0.9-0.8-0.7c-0.3,0.1-0.9-0.1-0.6,0.5
				C123.7,67.5,123.5,68.1,124.2,68z M44.7,45c-0.5-0.3-0.8-1-1.5-0.3c-0.4,0.4-0.2,0.7,0.1,0.9C44.2,46.4,44.2,45.2,44.7,45z
				 M126.7,67.5c0.3-0.1,0.8,0,0.8-0.6c0-0.5-0.1-0.8-0.7-0.7c-0.3,0.1-0.8-0.2-0.8,0.5C126.1,67,126.1,67.5,126.7,67.5z
				 M129.4,59.4c-0.3-0.3-0.3-0.9-0.8-0.8c-0.4,0-0.7,0.5-0.8,0.9c-0.1,0.6,0.6,0.5,0.9,0.6C129.2,60.3,129.1,59.6,129.4,59.4z
				 M118.3,44.4c0-0.5-0.5-0.6-0.9-0.7c-0.8-0.2-0.6,0.6-0.7,0.9c-0.3,0.6,0.4,0.4,0.7,0.5C118,45.4,118,44.7,118.3,44.4z
				 M96.1,17.2c-0.1-0.3-0.2-0.7-0.7-0.6c-0.5,0.1-0.8,0.2-0.7,0.8c0,0.4,0.1,0.8,0.6,0.6C95.7,17.9,96.2,17.9,96.1,17.2z
				 M112.3,14.7c0.6,0,0.8-0.5,0.8-0.7c-0.1-0.4-0.5-0.9-0.9-0.9c-0.2,0-0.7,0.4-0.7,0.8C111.6,14.3,112,14.6,112.3,14.7z M80.5,34
				c0.1-0.5-0.3-0.6-0.8-0.7c-0.6-0.1-0.5,0.5-0.6,0.8c-0.1,0.7,0.5,0.6,0.9,0.6C80.6,34.9,80.5,34.4,80.5,34z M116,45.9
				c-0.2,0.4-0.5,0.7-0.5,1c0,0.4,0.3,0.8,0.7,0.8c0.5,0,0.7-0.5,0.7-0.9C116.9,46.3,116.2,46.4,116,45.9z M115.4,49
				c-0.3-0.3-0.6-0.7-1-0.6c-0.3,0.1-0.6,0.5-0.6,0.8c0,0.4,0.4,0.8,0.8,0.7C115.1,49.8,115.2,49.3,115.4,49z M48.5,79.5
				c0.2-0.1,0.7,0.1,0.6-0.6C49,78.5,49,78,48.2,78c-0.6,0-0.7,0.3-0.8,0.8C47.5,79.5,47.8,79.5,48.5,79.5z M103.6,18.1
				c0.5-0.1,0.5-0.4,0.5-0.8c0-0.5-0.4-0.6-0.7-0.7c-0.6-0.1-0.6,0.5-0.6,0.9C102.7,18,103.2,18,103.6,18.1z M101.5,16.8
				c0.1-0.7-0.4-0.6-0.8-0.7c-0.6-0.1-0.6,0.2-0.6,0.6c0,0.5,0.1,0.8,0.7,0.8C101.3,17.5,101.5,17.3,101.5,16.8z M43.8,39.9
				c0.3,0.2,0.1,0.8,0.7,0.7c0.4-0.1,1-0.2,0.9-0.6c0-0.4-0.3-0.9-0.9-0.9C44.1,39.1,44,39.5,43.8,39.9z M141.5,24.8
				c0.4-0.2,1-0.1,1-0.8c0-0.4-0.3-0.7-0.7-0.7c-0.4,0-0.8,0.2-0.7,0.8C141.1,24.4,141,24.8,141.5,24.8z M43.7,38.1
				c-0.5-0.6-0.7-1-1.3-0.9c-0.5,0-0.5,0.6-0.5,0.8c-0.1,0.5,0.5,0.7,0.8,0.7C43.1,38.7,43.4,38.3,43.7,38.1z M86,21.5
				c-0.7-0.1-0.9,0.4-0.9,0.6c0,0.4,0.2,0.8,0.7,0.8c0.4,0,0.9-0.2,0.9-0.7C86.7,21.8,86.3,21.6,86,21.5z M144.3,21.9
				c0-0.6-0.4-0.4-0.7-0.4c-0.6-0.1-0.8,0.3-0.8,0.7c-0.1,0.5,0.4,0.6,0.8,0.7C144.3,22.9,144.1,22.3,144.3,21.9z M111.5,20.3
				c-0.1-0.4-0.6-0.7-0.8-0.7c-0.5,0-0.6,0.6-0.7,1c0,0.1,0.5,0.6,0.8,0.6C111.2,21.2,111.5,20.9,111.5,20.3z M134.6,68.7
				c0.4-0.1,0.6-0.4,0.6-0.9c0-0.5-0.4-0.6-0.8-0.6c-0.8-0.1-0.5,0.7-0.6,1C133.7,68.5,134.1,68.7,134.6,68.7z M136.8,72.2
				c0-0.5-0.5-0.6-0.8-0.6c-0.5-0.1-0.9,0.5-0.8,0.7c0.1,0.3,0.5,0.8,0.8,0.8C136.5,73.2,136.5,72.6,136.8,72.2z M133.2,55.7
				c-0.3-0.3-0.5-0.9-0.8-0.8c-0.3,0-0.9,0.3-0.9,0.7c0,0.3,0.3,0.7,0.7,0.8C132.6,56.5,132.8,56,133.2,55.7z M80,38.7
				c-0.3,0.1-0.9-0.1-0.7,0.5c0.1,0.3-0.2,1,0.5,0.9c0.4-0.1,0.8-0.2,0.7-0.8C80.5,39,80.6,38.6,80,38.7z M134.5,73.5
				c0-0.5-0.1-0.9-0.8-0.9c-0.6,0-0.6,0.4-0.6,0.8c0,0.6,0.3,0.7,0.8,0.7C134.2,74.1,134.6,74.1,134.5,73.5z M98,16.1
				c-0.2,0-0.7,0-0.6,0.6c0,0.4,0.2,0.8,0.8,0.8c0.5,0,0.6-0.2,0.6-0.7C98.7,16.5,98.8,16,98,16.1z M127.4,60.9
				c-0.5,0-0.6,0.4-0.8,0.7c-0.2,0.6,0.4,0.6,0.7,0.7c0.6,0.2,0.7-0.4,0.8-0.7C128.2,61.2,127.6,61.2,127.4,60.9z M49.4,45.3
				c0.1,0.5,0.5,0.5,0.8,0.8c0.2-0.4,0.8-0.4,0.7-0.9c-0.1-0.4-0.3-0.7-0.8-0.6C49.8,44.6,49.5,44.9,49.4,45.3z M47.4,72.9
				c-0.5,0.4-1.4,0.1-1.3,1.1c0,0.2,0.3,0.7,0.8,0.6C47.8,74.2,47.5,73.6,47.4,72.9z M119.7,36.6c0.1-0.6-0.2-0.7-0.7-0.7
				c-0.4,0-0.7,0.1-0.7,0.6c0,0.5,0.2,0.7,0.7,0.8C119.6,37.4,119.8,37.2,119.7,36.6z M40.7,46.4c-0.1,0.5,0.1,0.8,0.7,0.7
				c0.4,0,0.8-0.1,0.8-0.6c0-0.5-0.2-0.9-0.9-0.8C40.7,45.6,40.6,45.9,40.7,46.4z M92.6,18.9c0.2-0.3,0.9-0.1,0.7-0.8
				c-0.1-0.3,0.2-0.9-0.3-0.9c-0.3,0-1-0.1-0.9,0.6C92.1,18.2,91.9,18.8,92.6,18.9z M121.8,67.2c-0.5,0.1-1,0-0.7,0.6
				c0.1,0.3,0,0.9,0.7,0.8c0.6-0.1,0.6-0.4,0.6-0.9C122.3,67.3,122.1,67.1,121.8,67.2z M136.7,53.8c0.3-0.2,0.8-0.3,0.7-0.7
				c0-0.4-0.2-0.9-0.7-0.8c-0.2,0.1-0.8,0-0.7,0.6C136,53.3,136.3,53.6,136.7,53.8z M72.2,37.2c0.1-0.4-0.2-0.6-0.7-0.6
				c-0.4,0-0.7,0-0.7,0.6c0,0.5,0.2,0.7,0.6,0.6C71.8,37.8,72.2,37.8,72.2,37.2z M122.6,57.2c0.1-0.6-0.2-0.7-0.7-0.7
				c-0.5,0-0.7,0.2-0.7,0.7c0,0.5,0.1,0.8,0.7,0.8C122.5,57.9,122.7,57.7,122.6,57.2z M127.5,70.2c0.3-0.3,0.6-0.5,0.9-0.8
				c-0.3-0.3-0.3-0.8-0.9-0.7c-0.3,0.1-0.8-0.1-0.8,0.3C126.7,69.4,127,69.9,127.5,70.2z M131,72.1c-0.4,0-0.4,0.4-0.4,0.9
				c-0.1,0.5,0.3,0.6,0.7,0.6c0.8,0.1,0.5-0.7,0.6-1C132,72.3,131.5,72.1,131,72.1z M119,31.4c-0.3-0.2,0.1-0.9-0.5-0.9
				c-0.4,0-0.9,0.2-0.8,0.8c0,0.3-0.1,0.9,0.5,0.7C118.6,32,119.1,32,119,31.4z M117.8,70.3c-0.2-0.4-0.2-0.9-0.7-1
				c-0.4,0-0.8,0.2-0.8,0.8c0,0.4,0.1,0.8,0.6,0.7C117.2,70.8,117.7,70.9,117.8,70.3z M113.6,22.2c-0.1-0.4-0.2-0.7-0.7-0.8
				c-0.6-0.1-0.7,0.5-0.7,0.8c0,0.2,0.2,0.7,0.7,0.7C113.4,22.9,113.5,22.6,113.6,22.2z M120,69c-0.3-0.2-0.1-0.8-0.6-0.8
				c-0.5,0-0.9,0.2-1,0.6c0,0.3,0.3,0.8,0.7,0.8C119.5,69.6,119.9,69.4,120,69z M131.1,57.3c-0.2-0.3-0.4-0.8-0.8-0.8
				c-0.5-0.1-0.7,0.5-0.7,0.9c0,0.5,0.5,0.7,0.8,0.7C130.6,58.1,131.2,57.9,131.1,57.3z M133.7,54.1c0.2,0.3,0.3,0.9,0.7,0.8
				c0.3-0.1,0.8-0.4,0.7-0.9c-0.1-0.3-0.1-0.7-0.5-0.7C134.2,53.4,133.8,53.7,133.7,54.1z M118.9,42.8c-0.1-0.6,0.5-1.3-0.5-1.5
				c-0.3-0.1-0.5-0.2-0.6,0.2C117.6,42.3,117.9,42.7,118.9,42.8z M64,44.2c0.1-0.6-0.3-0.6-0.7-0.6c-0.4,0-0.7,0-0.7,0.6
				c0,0.5,0.3,0.6,0.7,0.6C63.7,44.8,64.1,44.8,64,44.2z M129.7,71.4c-0.1-0.4-0.3-0.7-0.7-0.7c-0.5,0-0.7,0.5-0.7,0.7
				c0,0.3,0.2,0.8,0.7,0.7C129.5,72.1,129.7,71.8,129.7,71.4z M130,66.6c0.1-0.4-0.2-0.5-0.5-0.5c-0.4,0-0.7,0-0.7,0.6
				c0,0.4,0.2,0.6,0.6,0.6C129.8,67.4,130,67.2,130,66.6z"/>
			<path id="XMLID_3567_" class="st1" d="M278.7,138.1c-11.9,0-23.9,0-35.8,0c-0.2,0-0.4,0-0.6-0.3c12.2,0,24.3,0,36.4,0
				C278.7,137.9,278.7,138,278.7,138.1z"/>
			<path id="XMLID_3566_" class="st1" d="M278.7,9.8c-11.9,0-23.9,0-35.8,0c-0.2,0-0.3-0.1-0.5-0.3c12.1,0,24.2,0,36.3,0
				C278.7,9.6,278.7,9.7,278.7,9.8z"/>
			<path id="XMLID_3565_" class="st1" d="M-85.6,137.8c11.8,0,23.7,0,35.5,0c0.2,0,0.4,0,0.6,0.3c-12.1,0-24.1,0-36.1,0
				C-85.6,138-85.6,137.9-85.6,137.8z"/>
			<path id="XMLID_3564_" class="st1" d="M-31.8,191.8c0-11.8,0-23.7,0-35.5c0-0.2,0.1-0.3,0.3-0.5c0,12,0,24,0,36.1
				C-31.6,191.8-31.7,191.8-31.8,191.8z"/>
			<path id="XMLID_3563_" class="st1" d="M224.4,191.8c0-11.8,0-23.7,0-35.5c0-0.2,0.1-0.3,0.3-0.5c0,12,0,24,0,36.1
				C224.6,191.8,224.5,191.8,224.4,191.8z"/>
			<path id="XMLID_3562_" class="st1" d="M-31.5-44.2c0,11.8,0,23.7,0,35.5c0,0.2,0,0.4-0.3,0.6c0-12.1,0-24.1,0-36.1
				C-31.7-44.2-31.6-44.2-31.5-44.2z"/>
			<path id="XMLID_3561_" class="st1" d="M224.7-44.2c0,11.8,0,23.7,0,35.5c0,0.2,0,0.4-0.3,0.6c0-12.1,0-24.1,0-36.1
				C224.5-44.2,224.6-44.2,224.7-44.2z"/>
			<path id="XMLID_3560_" class="st1" d="M-85.6,9.5c11.8,0,23.7,0,35.5,0c0.2,0,0.4,0,0.6,0.3c-12.1,0-24.1,0-36.1,0
				C-85.6,9.7-85.6,9.6-85.6,9.5z"/>
			<path id="XMLID_3551_" class="st1" d="M69.3,114.4c0-4.1,0-8.1,0.1-12.2c0-0.5-0.1-0.9-0.7-1.1c-3-1-6-2-9.1-3.1
				c2.2-2.5,4.4-4.8,6.5-7.2c0.9-1,2.4-2,2.7-3.2c0.3-1.3-1.4-2.1-2.2-3.2c-1-1.3-2.1-2.5-3.1-3.8c-0.7-0.9-0.3-1.3,0.7-1.3
				c1.8,2.2,3.7,4.4,5.5,6.7c0.4,0.5,0.7,0.6,1.3,0.3c3.1-1.1,6.2-2.1,9.3-3.2c3.6-1.2,7.3-2.5,10.9-3.7c2.3-0.8,4.6-1.7,7.1-2.6
				c-2.1-2.4-4.1-4.8-6.1-7.1l0,0c0.2-0.1,0.3-0.3,0.3-0.5c0.8-0.4,1.2-0.1,1.7,0.5c1.5,1.9,3.1,3.7,4.6,5.6c0.5,0.7,0.8,0.5,1.3,0
				c1.6-1.9,3.3-3.7,4.7-5.7c0.6-0.7,0.9-0.8,1.5-0.3c0.2,0.4-0.1,0.7-0.3,1c-1.5,1.8-2.9,3.8-4.6,5.4c-1.1,1.1-0.4,1.2,0.4,1.5
				c2.7,0.9,5.4,1.6,8,2.6c3,1.1,6,2.2,8.9,3.3c2.9,1,5.9,2,8.9,3.1c0.6,0.2,1,0.2,1.4-0.3c1.9-2.3,3.7-4.6,5.5-6.8
				c1.1,0.2,1.4,0.6,0.6,1.5c-1.7,2-3.3,4.1-5,6c-0.5,0.6-0.4,0.8,0,1.3c1.9,2.1,3.8,4.1,5.7,6.2c1.1,1.2,2.1,2.5,3.3,3.8
				c-3.1,1-6.1,2.1-9.1,3.1c-0.6,0.2-0.6,0.6-0.6,1.1c0,4.1,0.1,8.1,0.1,12.2c0,1.7-0.1,3.4,0,5.1c0,1-0.2,1.6-1.3,1.8
				c-0.8,0.1-1.6,0.5-2.4,0.8c-3.7,1.3-7.3,2.7-11,4c-4.8,1.7-9.7,3.3-14.5,5c-0.6,0.2-1.1,0.2-1.8,0c-1.6-0.6-3.2-1.1-4.8-1.7
				c-3.3-1.2-6.7-2.3-10.1-3.4c-4.4-1.5-8.7-3.1-13.1-4.6c-0.8-0.3-1.1-0.6-1.1-1.5C69.4,118,69.3,116.2,69.3,114.4z M128,102
				c-2,0.6-3.8,1.1-5.6,1.8c-4.3,1.5-8.6,3.1-12.8,4.6c-0.8,0.3-1.4,0.1-2-0.5c-1.5-1.7-3-3.4-4.5-5.1c-0.9-1-1.8-1.9-2.9-3.1
				c0,9.8,0,19.2,0,28.7c0,0.9,0.3,1.1,1.1,0.9c1.4-0.4,2.8-0.9,4.1-1.4c3.8-1.3,7.5-2.7,11.2-4c3.3-1.2,6.7-2.3,10-3.4
				c1.1-0.4,1.5-0.9,1.5-2.1c-0.1-3.1,0-6.2,0-9.4C128,106.7,128,104.4,128,102z M70.8,102c0,0.6,0,1.1,0,1.6
				c0,4.8,0.1,9.7-0.1,14.5c-0.1,1.7,0.7,2.2,2,2.6C79,122.6,85,125,91.2,127c2.4,0.8,4.8,1.9,7.4,2.4c0-9.9,0-19.8,0-29.8
				c-2.5,2.9-4.9,5.5-7.3,8.2c-0.6,0.7-1.2,1-2.1,0.7c-2.1-0.8-4.2-1.5-6.4-2.3C78.9,104.8,74.9,103.4,70.8,102z M72.7,87.3
				c0,0.1,0,0.2,0,0.4c3.7,1.3,7.4,2.8,11.2,4c4.3,1.4,8.5,3,12.8,4.4c1,0.3,1.9,1.3,3.1,0.9c1.7-0.6,3.4-1.3,5.1-1.9
				c6.3-2.1,12.6-4.3,18.9-6.5c0.8-0.3,1.6-0.3,2.3-1.1c-8.7-3-17.3-6-26-9.1c0,5.1,0,10,0,14.9c0,0.5,0.3,1.2-0.7,1.2
				c-1,0-0.7-0.6-0.7-1.1c0-3.2,0-6.3,0-9.5c0-1.8,0-3.6,0-5.4C89.9,81.3,81.3,84.3,72.7,87.3z M128,94.5c0-1.5-0.1-2.9,0-4.4
				c0.1-1.4-0.5-1.6-1.5-1.1c-3.3,1.3-6.7,2.4-10.1,3.5c-5.1,1.7-10.1,3.5-15.1,5.2c-0.7,0.2-0.6,0.4-0.2,0.8c2.4,2.7,4.8,5.3,7.2,8
				c0.4,0.4,0.8,0.5,1.4,0.3c5.7-2,11.3-3.9,17-5.9c0.8-0.3,1.4-0.8,1.3-1.9C127.9,97.6,128,96,128,94.5z M98.2,98
				c-1.7-0.6-3.1-1.1-4.6-1.6c-4.3-1.6-8.6-3-12.9-4.5c-3-1-5.9-2-8.9-3.1c-0.9-0.3-1-0.1-1,0.8c0,3.3,0.1,6.5,0,9.8
				c0,1,0.6,1.3,1.3,1.6c5.7,2,11.4,3.9,17,5.9c0.6,0.2,1,0.1,1.4-0.3C93,103.8,95.5,100.9,98.2,98z M69.3,89.3
				c-2.4,2.7-4.6,5.1-6.8,7.5c-0.2,0.2-0.5,0.7,0,0.8c2.3,0.5,4.4,1.8,6.8,2.2C69.3,96.4,69.3,93.1,69.3,89.3z M136.7,97.5
				c-2.4-2.9-4.8-5.4-7.3-8.1c0,3.6,0,7,0,10.4C131.9,99.4,134.1,98.1,136.7,97.5z"/>
			<path id="XMLID_3550_" class="st2" d="M69.3,114.4c0,1.8,0.1,3.6,0,5.4c0,0.9,0.3,1.2,1.1,1.5c4.4,1.5,8.8,3.1,13.1,4.6
				c3.4,1.2,6.8,2.2,10.1,3.4c1.6,0.6,3.2,1.1,4.8,1.7c0.6,0.2,1.1,0.2,1.8,0c4.8-1.7,9.7-3.3,14.5-5c3.7-1.3,7.3-2.6,11-4
				c0.8-0.3,1.6-0.7,2.4-0.8c1.1-0.2,1.3-0.8,1.3-1.8c0-1.7,0-3.4,0-5.1c2.2,0.7,4.4,1.5,6.7,2.2c3,1,5.9,2.1,8.9,3.2
				c0.3,0.1,0.8,0.1,0.9,0.5c0,0.5-0.5,0.4-0.8,0.4c-4.3,1.5-8.7,2.9-13,4.5c-3.3,1.2-6.7,2.4-10.1,3.6c-3.6,1.3-7.2,2.5-10.7,3.8
				c-2.8,1-5.7,1.7-8.3,3c-2.8,1.3-5.2,0.7-7.8-0.2c-4.8-1.7-9.6-3.3-14.3-5.1c-4.6-1.7-9.3-3.2-13.9-4.9c-4.6-1.8-9.4-3.2-14.2-5.1
				C58.2,118.3,63.8,116.4,69.3,114.4z"/>
			<path id="XMLID_3547_" class="st3" d="M92.1,69.8c2,2.3,4,4.6,6.1,7.1c-2.4,0.9-4.7,1.7-7.1,2.6c-3.6,1.3-7.2,2.5-10.9,3.7
				c-3.1,1.1-6.2,2.1-9.3,3.2c-0.6,0.2-0.9,0.1-1.3-0.3c-1.8-2.2-3.7-4.4-5.5-6.7c1.6-0.6,3.2-1.1,4.9-1.7c0.3,0.8,0.9,1.1,1.7,1.3
				c0.3,0.1,0.6,0.6,0.9,0c0.2-0.4,0.4-0.9-0.2-1.2c-0.3-0.2-0.6-0.4-0.9-0.6c1.3-0.9,2.8-1,4.2-1.6c2.8-1.1,5.6-2,8.5-3
				c0.6,0.8,1.2,1.6,1.8,2.5c0.3,0.5,0.7,0.6,1.2,0.2c0.6-0.4,0.2-0.6,0-1c-0.5-0.7-1.1-1.4-1.4-2.3c2.2-0.7,4.4-1.5,6.6-2.2
				C91.6,69.8,91.9,69.8,92.1,69.8z M83,80c-0.4-0.3-0.7-0.8-1.2-0.9c-0.3-0.1-0.7,0.5-0.7,0.7c0,0.5,0.4,0.9,0.9,1.1
				C82.6,81,82.5,80.2,83,80z"/>
			<path id="XMLID_3542_" class="st3" d="M134.5,79.3c-1.8,2.3-3.7,4.6-5.5,6.8c-0.4,0.4-0.8,0.5-1.4,0.3c-2.9-1.1-5.9-2-8.9-3.1
				c-3-1.1-6-2.1-8.9-3.3c-2.6-1-5.4-1.7-8-2.6c-0.8-0.3-1.5-0.5-0.4-1.5c1.7-1.7,3.1-3.6,4.6-5.4c0.2-0.3,0.5-0.6,0.3-1
				c2.7,0.7,5.1,2,7.9,2.6c0.3,0.1,0.3,0.6,0.8,0.5c1.8,0.6,3.7,1.3,5.5,1.9c0.4,0.1,0.9,0.2,1.4,0.3c-0.4,1-1.5,1.2-2.2,1.9
				c-0.3,0.3-1,0.4-0.6,1c0.4,0.6,0.9,0.4,1.4,0c1.1-0.7,1.8-1.8,3.1-2.3C127.3,76.7,130.9,78,134.5,79.3z M111.2,76.2
				c0.5,0,0.7-0.5,0.7-0.7c0-0.4-0.4-0.8-0.8-0.8c-0.4,0-0.7,0.4-0.7,0.8C110.4,75.9,110.8,76,111.2,76.2z M109.8,78.3
				c0.4-0.2,0.6-0.4,0.6-0.9c-0.1-0.5-0.5-0.8-0.9-0.7c-0.4,0-0.6,0.5-0.6,0.9C108.8,78.2,109.5,78,109.8,78.3z M113.5,73.4
				c0-0.4-0.2-0.7-0.6-0.8c-0.5-0.1-0.6,0.3-0.7,0.7c-0.1,0.4,0.1,0.7,0.6,0.8C113.2,74.1,113.5,74,113.5,73.4z"/>
			<path id="XMLID_3539_" class="st1" d="M92.7,61.1c-1.5-0.1-1.4,0-0.7-1.6c0.5-1.1,0.2-2.4-0.2-3.6c-0.9-3.1-3-5.3-5.1-7.5
				c-4.1-4.4-5.7-9.5-4.3-15.5c1.4-6.1,5.1-10.5,10.9-12.6c7.1-2.6,15.1-0.6,20,5.9c3.3,4.5,4.3,9.4,3,14.8c-0.7,3-2.2,5.7-4.5,7.8
				c-2.5,2.4-4.7,4.9-4.9,8.6c-0.1,0.9-0.8,1.9,0.6,2.7c0.6,0.4,0,1.1-1.3,1.1C101.6,61.1,97.2,61.1,92.7,61.1z M102.2,56
				c0,0.8,0,1.6,0,2.4c-0.1,0.9,0.1,1.5,1.2,1.3c0.8-0.1,1.9,0.5,1.9-1.2c0-3.9,1.6-7.3,4.5-9.8c4.9-4.3,7-10.9,5-16.8
				c-2-6.1-6.2-10-12.8-11.1c-6.2-1-11.3,0.9-15.1,5.8c-5.3,6.6-4.7,15.4,1.3,21.3c3.1,3.1,5.4,6.4,5.3,10.9c0,1.5,1.2,0.7,1.9,0.8
				c0.6,0.2,1.2,0.1,1.1-0.9c-0.1-1.8,0-3.6,0-5.4c0-0.4-0.1-0.9,0.6-0.9c0.8,0,0.8,0.4,0.8,1c0,1.8,0.1,3.5,0,5.3
				c-0.1,1.2,0.6,1.1,1.3,1c0.7-0.1,1.8,0.5,1.8-1c-0.1-1.8,0-3.6,0-5.4c0-0.5,0-0.8,0.7-0.8c0.6,0,0.7,0.4,0.7,0.8
				C102.2,54.2,102.2,55.1,102.2,56z"/>
			<path id="XMLID_3535_" class="st3" d="M139.1,35.5c-0.1,3.9-3.4,7.4-7.6,7.3c-4.2-0.1-7.6-3.5-7.5-7.7c0.1-4.1,3.6-7.3,7.6-7.3
				C135.8,27.8,139.2,31.3,139.1,35.5z M132.3,34.3c0-0.6,0-1.2,0-1.8c0-0.5-0.1-0.8-0.7-0.8c-0.5,0-0.7,0.2-0.7,0.7
				c0,1.4,0,2.7,0,4.1c0,0.5,0.3,0.6,0.7,0.6c0.5,0,0.7-0.2,0.7-0.7C132.3,35.7,132.3,35,132.3,34.3z M132.3,38.5
				c0.1-0.5-0.2-0.6-0.7-0.6c-0.6,0-0.7,0.2-0.7,0.8c0,0.5,0.4,0.6,0.8,0.6C132.1,39.3,132.3,39,132.3,38.5z"/>
			<path id="XMLID_3532_" class="st1" d="M71.8,57.7c-0.9,0.4-1.6,0.7-1.3,1.9c0.2,0.8,0.4,1.2,1.2,1.1c0.4-0.1,0.8-0.1,0.8,0.6
				c0,0.7-0.5,0.6-0.9,0.6c-0.6,0-1.1,0.1-1.1,0.8c0,0.7-0.6,1.6,0.5,1.9c0.7,0.2,0.6,0.5,0.3,1c-0.3,0.5-0.5,0.7-1,0.2
				c-0.2-0.2-0.8-0.8-1-0.2c-0.2,0.6-1.7,0.8-0.8,1.9c0.2,0.2,0.6,0.9-0.1,1.2c-0.6,0.2-1,0-1.2-0.6c-0.1-0.4-0.3-0.8-0.8-0.5
				c-0.5,0.4-1.5,0-1.6,1.1c0,0.6,0.1,1.2-0.8,1.1c-0.9,0-0.6-0.7-0.6-1.1c-0.1-1-1.1-0.7-1.6-1.1c-0.6-0.5-0.6,0.3-0.8,0.6
				c-0.3,0.5-0.6,0.7-1.2,0.5c-0.7-0.3-0.3-0.9-0.1-1.1c0.8-1.2-0.6-1.3-1-1.9c-0.4-0.7-0.7,0.1-1,0.3c-0.3,0.2-0.7,0.5-0.8,0
				c-0.1-0.3-1-0.9,0.1-1.2c1-0.3,0.8-1,0.7-1.7c-0.1-0.7-0.3-1.3-1.3-1.1c-0.4,0.1-0.8,0-0.7-0.6c0-0.3,0-0.6,0.4-0.6
				c1,0.1,1.5-0.3,1.6-1.3c0.2-1.2-0.7-1.2-1.3-1.7c0.2-0.4,0.4-0.8,0.6-1.3c0.8,0.7,1.5,1.2,2.4,0.1c0.4-0.5,0.5-0.8,0.2-1.3
				c-0.2-0.4-0.3-0.9,0.2-1.2c0.6-0.3,0.8,0.3,1.1,0.6c0.2,0.2,0,1,0.6,0.6c0.6-0.4,1.8,0,1.8-1.2c0-0.4-0.2-1,0.6-1
				c0.8,0,0.8,0.4,0.8,1c0,1.2,1.1,0.8,1.6,1.2c0.7,0.4,0.6-0.3,0.7-0.6c0.3-0.4,0.5-0.9,1.1-0.6c0.5,0.2,0.5,0.7,0.2,1.1
				c-0.9,1.1,0.3,1.6,0.7,2.1c0.6,0.7,1.1-0.3,1.7-0.5C71.2,56.9,71.4,57.2,71.8,57.7z M58.8,61.3c0,3,2.3,5.3,5.1,5.4
				c2.7,0.1,5.4-2.3,5.4-5.3c0-3.3-2.4-5.3-5.2-5.5C61.8,55.8,58.5,58.1,58.8,61.3z"/>
			<path id="XMLID_3531_" class="st4" d="M141.7,50.5c-1-1.3-2-2.6-3-3.9c2.6-0.1,5.2,0.5,7.7,0.7c2.3,0.1,4.5,0.8,6.8,0.9
				c-1.5,1.2-3,2.3-4.5,3.4c-2.5,1.7-4.7,3.7-7.4,5c0-1.6,0.7-3.1,0.6-4.6c1.3-0.4,2.7-0.8,4-1.2c0.7-0.2,0.9-0.5,0.6-1.1
				c-0.2-0.6-0.7-0.4-1-0.2C144.4,50,143,50.1,141.7,50.5z"/>
			<path id="XMLID_3530_" class="st1" d="M141.4,56.5c2.7-1.4,4.9-3.4,7.4-5c1.5-1,3-2.1,4.5-3.4c-2.3-0.2-4.6-0.8-6.8-0.9
				c-2.6-0.1-5.1-0.8-7.7-0.7c-0.7,0.1-0.8-0.4-0.8-1c0-0.7,0.6-0.5,0.9-0.5c3.6,0.4,7.2,0.8,10.8,1.2c2.4,0.3,4.9,0.2,7.4,0.9
				c-0.8,1.2-2.2,1.7-3.3,2.5c-3.7,2.7-7.5,5.3-11.2,7.9c-0.3,0.2-0.5,0.9-1.2,0.4C140.5,57.4,141.3,57,141.4,56.5z"/>
			<path id="XMLID_3529_" class="st4" d="M39.2,66.6c2,0,3.7,1.7,3.6,3.5c0,1.9-1.7,3.5-3.7,3.5c-2,0-3.6-1.6-3.6-3.6
				C35.5,68.1,37.1,66.6,39.2,66.6z"/>
			<path id="XMLID_3528_" class="st1" d="M71.4,24.3c2.2,0,3.7,1.1,4.2,3.2c0.4,1.5-0.5,3.6-2,4.4c-1.1,0.6-1.4,1.6-1.5,2.7
				c0,0.5-0.1,0.9-0.7,0.9c-0.8,0-0.7-0.5-0.7-0.9c0.1-1.6,0.6-2.8,2.1-3.7c1.9-1.3,2-3.3,0.2-4.7c-1.3-1.1-3.2-0.7-4,0.9
				c-0.2,0.3-0.3,0.7-0.4,1c-0.2,0.6-0.7,0.4-1.1,0.3c-0.6-0.1-0.2-0.5-0.2-0.8C67.8,25.4,69.3,24.3,71.4,24.3z"/>
			<path id="XMLID_3527_" class="st1" d="M41,25.4c0.2,0.2,0.4,0.4,0.5,0.5c3.6,4.1,7.2,8.1,10.8,12.2c0.2,0.2,0.4,0.4,0.5,0.7
				c0.2,0.3,0.6,0.6,0,1c-0.5,0.4-0.8,0.1-1.1-0.1c-0.8-0.7-1.4-1.6-2.1-2.3c-3.1-3.4-6.1-6.9-9.2-10.4c-0.2-0.2-0.5-0.3-0.2-0.6
				C40.4,26,40.7,25.7,41,25.4z"/>
			<path id="XMLID_3526_" class="st1" d="M110.4,68.9c-0.6-0.2-1.1-0.4-0.8-1.2c2.1-4.9,4.1-9.7,6.2-14.6c0.2-0.6,0.6-0.7,1.1-0.5
				c0.7,0.2,0.3,0.5,0.2,1c-2.1,5-4.1,10-6.1,15C110.8,68.7,110.7,69,110.4,68.9z"/>
			<path id="XMLID_3525_" class="st1" d="M154.1,18.7c-0.6,0.6-1.1,1.4-1.6,2.2c-1.9,2.8-3.9,5.5-5.8,8.2c-0.2,0.3-0.5,0.5-0.6,0.7
				c-0.3,0.7-0.7,0.4-1.1,0.2c-0.6-0.4-0.3-0.7,0-1c2.6-3.6,5.2-7.2,7.8-10.9c0.2-0.2,0.2-0.8,0.6-0.4
				C153.6,18,154.3,17.9,154.1,18.7z"/>
			<path id="XMLID_3524_" class="st1" d="M141.6,71.5c-0.8-0.9-0.5-1.4,0.4-1.9c3.4-1.9,6.8-3.8,10.2-5.6c0.3-0.2,0.8-0.6,1,0.1
				c0.2,0.5,0.2,0.9-0.4,1.2c-3.3,1.8-6.7,3.7-10,5.5C142.5,70.9,142.1,71.2,141.6,71.5z"/>
			<path id="XMLID_3523_" class="st4" d="M122.2,16.3c1.3,0,2.4,1.3,2.4,2.7c-0.1,1.2-1.4,2.5-2.5,2.4c-1.4,0-2.3-1.2-2.3-2.8
				C119.7,17.3,120.8,16.3,122.2,16.3z"/>
			<path id="XMLID_3522_" class="st2" d="M92.7,61.1c4.5,0,9,0,13.5,0c0,0.4,0,0.8,0,1.2c-4.5,0-8.9,0-13.4,0
				C92.7,61.9,92.7,61.5,92.7,61.1z"/>
			<path id="XMLID_3521_" class="st2" d="M106.1,63.7c0,0.4,0,0.8,0,1.2c-4.5,0-8.9,0-13.4,0c0-0.4,0-0.8,0-1.1
				C97.2,63.7,101.6,63.7,106.1,63.7z"/>
			<path id="XMLID_3520_" class="st1" d="M75.4,51.9c0.5-0.1,0.5,0.3,0.6,0.5c1.8,3,3.6,6,5.3,9.1c0.2,0.3,1,0.7,0,1.3
				c-0.8,0.5-1-0.1-1.2-0.5c-1.7-3-3.4-6.1-5.2-9C74.1,52.2,75.3,52.4,75.4,51.9z"/>
			<path id="XMLID_3519_" class="st1" d="M122,47.9c1.2-0.1,2,0.4,2.5,1.4c0.6,1.1,0.5,2-0.2,3c-0.6,0.9-1.8,1.3-1.8,2.7
				c0,0.4-0.5,0.2-0.8,0.2c-0.5,0-0.6-0.3-0.5-0.7c0.2-1,0.5-2,1.4-2.6c1-0.6,1.1-1.5,0.4-2.4c-0.6-0.7-1.3-0.9-2-0.1
				c-0.3,0.3-0.5,0.7-0.8,1c-0.3,0.2-0.8,0.2-1.1,0c-0.4-0.3,0-0.6,0.1-0.8C119.8,48.5,120.6,47.8,122,47.9z"/>
			<path id="XMLID_3518_" class="st1" d="M92.7,64.8c4.5,0,8.9,0,13.4,0c0.4,0,0.7,0,1.1,0c0.1,0,0.2,0.1,0.3,0.1
				c0.2,0.9-0.1,1.2-1.1,1.2c-4.7-0.1-9.4-0.1-14,0c-1,0-1.2-0.4-1.1-1.2c0.1,0,0.2-0.1,0.3-0.1C92,64.9,92.3,64.9,92.7,64.8z"/>
			<path id="XMLID_3517_" class="st1" d="M106.1,63.7c-4.5,0-9,0-13.4,0c-0.8-0.1-1.8,0.1-1.4-1.3c0.1,0,0.2-0.1,0.3-0.1
				c0.4,0,0.7,0,1.1,0c4.5,0,8.9,0,13.4,0c0.4,0,0.7,0,1.1,0c0.1,0.1,0.2,0.1,0.3,0.2c0,0.4,0,0.7,0,1.1c-0.1,0-0.2,0.1-0.3,0.1
				C106.8,63.7,106.5,63.7,106.1,63.7z"/>
			<path id="XMLID_3516_" class="st1" d="M67.8,76.2c-0.2,0.3,0,1.1-1,0.5c-2.9-1.7-5.9-3.2-8.9-4.9c-0.3-0.2-0.9-0.3-0.5-1
				c0.4-0.7,0.8-0.4,1.2-0.2c2.9,1.6,5.7,3.2,8.6,4.9C67.5,75.7,67.8,75.8,67.8,76.2z"/>
			<path id="XMLID_3515_" class="st1" d="M63.3,37.1c1.2-0.2,1.9,0.5,2.3,1.4c0.4,1,0.1,1.9-0.8,2.6c-0.4,0.3-0.8,0.6-0.8,1.2
				c0,0.7-0.6,0.4-1,0.4c-0.6,0-0.5-0.5-0.4-0.8c0.2-0.6,0.5-1.3,1.1-1.7c0.7-0.5,0.7-1.1,0.2-1.7c-0.6-0.7-1.2-0.3-1.5,0.3
				c-0.3,0.6-0.7,0.7-1.1,0.4c-0.4-0.3-0.2-0.9,0-1.3C61.8,37.4,62.4,37,63.3,37.1z"/>
			<path id="XMLID_3514_" class="st1" d="M127.5,55.7c-0.3-0.2-0.6-0.3-0.9-0.5c-0.3-0.3,0-0.4,0.2-0.7c1.3-1.8,2.6-3.6,3.9-5.4
				c0.3-0.4,0.5-0.9,1.2-0.4c0.6,0.5,0.1,0.8-0.1,1.2c-1.2,1.7-2.4,3.5-3.6,5.2C128,55.3,127.7,55.5,127.5,55.7z"/>
			<path id="XMLID_3513_" class="st1" d="M123.6,75.5c-1.3,0.4-2,1.6-3.1,2.3c-0.6,0.4-1,0.5-1.4,0c-0.5-0.6,0.3-0.7,0.6-1
				c0.6-0.7,1.7-1,2.2-1.9c0.9-0.4,1.7-1.1,2.4-1.8c0.4-0.4,0.9-0.6,1.3-0.2c0.5,0.5,0.1,0.9-0.4,1.2
				C124.6,74.4,123.8,74.6,123.6,75.5z"/>
			<path id="XMLID_3512_" class="st1" d="M84.7,72.1c0.2,0.9,0.9,1.5,1.4,2.3c0.2,0.4,0.6,0.6,0,1c-0.5,0.3-0.8,0.2-1.2-0.2
				c-0.6-0.8-1.2-1.7-1.8-2.5c-0.3-0.4-0.5-0.8-0.8-1.1c-0.4-0.4-0.3-0.7,0.1-0.8c0.3-0.1,0.6-0.6,1.1,0
				C83.9,71.2,84,71.9,84.7,72.1z"/>
			<path id="XMLID_3511_" class="st1" d="M99.3,68.8c-0.7,0-1.4,0-2.1,0c-0.4,0-0.7-0.1-0.7-0.6c0-0.6,0.3-0.7,0.8-0.7
				c1.4,0,2.8,0,4.2,0c0.4,0,0.7,0.1,0.7,0.6c0,0.6-0.3,0.7-0.8,0.7C100.7,68.8,100,68.8,99.3,68.8z"/>
			<path id="XMLID_3510_" class="st1" d="M141.7,50.5c1.3-0.4,2.7-0.5,3.9-1.1c0.4-0.2,0.8-0.4,1,0.2c0.2,0.6,0,1-0.6,1.1
				c-1.4,0.4-2.7,0.8-4,1.2C142,51.4,141.4,51,141.7,50.5z"/>
			<path id="XMLID_3509_" class="st1" d="M55.3,31.2c0.1,0.3-0.3,0.4-0.5,0.5c-0.4,0.2-0.7,0.1-1-0.2c-0.7-0.9-1.3-1.9-2-2.8
				c-0.4-0.6,0.2-0.7,0.5-1c0.4-0.5,0.5-0.1,0.7,0.3c0.5,0.8,1.2,1.6,1.7,2.3C54.9,30.5,55.1,30.8,55.3,31.2z"/>
			<path id="XMLID_3508_" class="st1" d="M117.8,61.5c0.2,0.3,1.3,0.1,0.7,1.1c-0.6,1-1.1,1.9-1.7,2.9c-0.1,0.2-0.2,0.5-0.5,0.3
				c-0.3-0.2-0.9-0.4-0.7-0.8c0.5-1.2,1.1-2.4,1.9-3.4C117.5,61.6,117.6,61.6,117.8,61.5z"/>
			<path id="XMLID_3507_" class="st4" d="M55.3,88.9c1.1,0,1.6,0.4,1.6,1.4c0,0.9-0.3,1.5-1.3,1.5c-1,0-1.3-0.6-1.3-1.5
				C54.3,89.4,54.5,88.8,55.3,88.9z"/>
			<path id="XMLID_3506_" class="st1" d="M40.7,61.1c-0.2,0.4-0.2,1-1,0.6c-0.6-0.4-1.3-0.7-1.9-1c-0.5-0.3-0.4-0.6-0.3-1.1
				c0.2-0.6,0.7-0.4,0.9-0.3C39.2,59.9,40.3,60,40.7,61.1z"/>
			<path id="XMLID_3505_" class="st1" d="M129.4,23.2c-0.3-0.3-1.1-0.2-0.7-1.1c0.3-0.6,0.6-1.3,0.8-1.9c0.2-0.4,0.3-0.8,0.9-0.4
				c0.4,0.2,0.8,0.4,0.4,1c-0.4,0.6-0.6,1.3-0.9,1.9C129.8,22.9,129.8,23.2,129.4,23.2z"/>
			<path id="XMLID_3504_" class="st1" d="M110.2,12.6c-0.3-0.3-0.5-0.5-0.8-0.7c-0.5-0.4,0-0.8,0.2-1.1c0.2-0.3,0.6-0.4,0.8,0
				c0.1,0.4,1,0.6,0.4,1.1c-0.6,0.5-0.6,1-0.1,1.3c0.8,0.6,0.1,0.8-0.2,1c-0.3,0.4-0.6,0.3-1-0.1c-0.5-0.5-0.1-0.7,0.1-1
				C109.7,13.2,109.9,13,110.2,12.6z"/>
			<path id="XMLID_3503_" class="st1" d="M84.7,56.9c0.1,0.8-0.2,1-0.7,1c-1.1-0.2-0.8-1.4-1.4-2c-0.3-0.3,0.4-0.5,0.7-0.5
				C84.5,55.4,84.1,56.6,84.7,56.9z"/>
			<path id="XMLID_3502_" class="st1" d="M144.5,75.7c0.3-0.3,0.7-0.7,0.9-0.9c0.5,0.4,0.9,0.9,1.4,1.2c0.8,0.5,0.4,0.9,0,1.3
				c-0.6,0.6-0.7,0-1-0.3C145.5,76.4,145,76.1,144.5,75.7z"/>
			<path id="XMLID_3501_" class="st1" d="M70.4,77.2c0.3,0.2,0.6,0.4,0.9,0.6c0.6,0.3,0.4,0.7,0.2,1.2c-0.3,0.6-0.6,0.1-0.9,0
				c-0.7-0.3-1.4-0.5-1.7-1.3C69.4,77.1,69.8,76.9,70.4,77.2z"/>
			<path id="XMLID_3500_" class="st1" d="M62.9,50c-0.4,0.3-0.7,0.5-1,0.7c-0.2,0.1-1.9-1.6-1.8-1.8c0.1-0.4,0.8-0.9,0.9-0.8
				C61.6,48.7,62.2,49.3,62.9,50z"/>
			<path id="XMLID_3499_" class="st1" d="M147.3,79.6c0,0.3-1.6,2-1.8,1.8c-0.4-0.3-1.1-0.5-0.9-0.8c0.5-0.7,1.1-1.2,1.8-1.7
				C146.8,78.7,147,79.5,147.3,79.6z"/>
			<path id="XMLID_3498_" class="st1" d="M149.6,77.7c-0.4-0.5-0.9-0.9-0.8-1.1c0.3-0.8,1-1.4,1.7-1.8c0.3-0.2,0.9,0.6,0.8,0.9
				C151,76.5,149.9,76.7,149.6,77.7z"/>
			<path id="XMLID_3497_" class="st4" d="M144.9,41.7c-0.7,0-1-0.4-1-1.1c0.1-0.7,0.5-1,1.2-0.9c0.8,0.1,0.8,0.6,0.8,1.2
				C145.9,41.6,145.4,41.7,144.9,41.7z"/>
			<path id="XMLID_3496_" class="st1" d="M150.5,81.5c-0.8-0.4-1.2-1.1-1.7-1.7c-0.2-0.3,0.5-0.9,0.7-0.8c0.7,0.4,1.5,0.8,1.7,1.6
				C151.4,81,150.8,81.2,150.5,81.5z"/>
			<path id="XMLID_3495_" class="st1" d="M73.1,18.7c-0.5-0.4-1.1-0.7-1.4-1.2c-0.2-0.5,0.5-0.7,0.8-0.7c0.6,0,1.1,0.6,1.3,1
				C74.1,18.2,73.4,18.5,73.1,18.7z"/>
			<path id="XMLID_3494_" class="st1" d="M74,14.5c-0.6,0.2-0.7,1.1-1.5,1.1c-0.4,0-0.9-0.3-0.8-0.6c0.2-0.6,0.7-1.1,1.3-1.3
				C73.4,13.6,73.8,14,74,14.5z"/>
			<path id="XMLID_3493_" class="st1" d="M156.7,62.9c-0.4,0.5-1,0.7-1.5,0.9c-0.6,0.2-0.7-0.6-0.6-0.8c0.2-0.6,0.7-1,1.3-1.1
				C156.3,61.8,156.2,62.6,156.7,62.9z"/>
			<path id="XMLID_3492_" class="st1" d="M69.5,13.5c0.5,0.5,1.1,0.8,1.4,1.4c0.1,0.2-0.4,1-0.9,0.8c-0.6-0.1-0.9-0.8-1.2-1.3
				C68.7,14.2,69.2,13.8,69.5,13.5z"/>
			<path id="XMLID_3491_" class="st1" d="M39.6,23.7c0,0.8-0.7,0.7-1,1c-0.3-0.4-0.8-0.7-1-1.2c-0.1-0.4,0.5-0.9,0.8-0.7
				C38.9,23,39.2,23.5,39.6,23.7z"/>
			<path id="XMLID_3490_" class="st1" d="M69.5,18.9c-1-0.7-0.9-1.3,0-1.9c0.4-0.3,0.6-0.4,1,0c0.4,0.4,0.3,0.7-0.1,1
				C70.1,18.3,69.8,18.6,69.5,18.9z"/>
			<path id="XMLID_3489_" class="st1" d="M37.5,44c-0.1,0.6-0.8,0.8-1,0.8c-0.6,0.1-0.6-0.7-0.6-1.1c-0.1-0.5,0.5-0.6,0.8-0.6
				C37.2,43.1,37.3,43.7,37.5,44z"/>
			<path id="XMLID_3488_" class="st1" d="M134,46.7c-0.1,0.3-0.3,0.8-0.8,0.8c-0.2,0-0.8-0.3-0.7-0.8c0.1-0.4,0.3-1,0.8-1
				C133.6,45.7,134.1,46,134,46.7z"/>
			<path id="XMLID_3487_" class="st1" d="M45.7,42.5c-0.3,0.3,0.1,1-0.5,0.9c-0.3,0-1,0-0.9-0.7c0.1-0.4,0.1-0.8,0.7-0.7
				C45.4,41.9,45.8,41.8,45.7,42.5z"/>
			<path id="XMLID_3486_" class="st1" d="M150.7,35.7c-0.3,0.3-0.6,0.7-1.1,0.9c-0.1,0.1-0.8-0.6-0.8-0.7c0.1-0.4,0.5-0.9,1-1
				C150.1,34.9,150.7,35,150.7,35.7z"/>
			<path id="XMLID_3485_" class="st1" d="M36.8,41c-0.1,0.4,0,1-0.7,0.9c-0.3,0-0.9,0.1-0.8-0.5c0-0.4,0-1.1,0.5-1.1
				C36.2,40.3,36.8,40.4,36.8,41z"/>
			<path id="XMLID_3484_" class="st1" d="M50.9,76.7c0,0.5-0.1,1.1-0.6,1c-0.3,0-1-0.1-0.9-0.8c0-0.5,0.2-0.8,0.8-0.7
				C50.6,76.2,51,76.2,50.9,76.7z"/>
			<path id="XMLID_3483_" class="st1" d="M80.3,36.7c0.1,0.5-0.1,0.7-0.6,0.7c-0.5,0-0.7-0.2-0.7-0.7c0-0.4,0-0.7,0.6-0.7
				C80.1,36,80.4,36.2,80.3,36.7z"/>
			<path id="XMLID_3482_" class="st1" d="M112.3,12.5c-0.3-0.4-0.9-0.4-0.8-0.9c0.1-0.4,0.5-0.9,1-0.9c0.4,0,0.6,0.5,0.6,0.8
				C113.1,12.1,112.5,12.2,112.3,12.5z"/>
			<path id="XMLID_3481_" class="st1" d="M143.9,19.6c-0.1,0.5-0.7,0.6-1,0.6c-0.4,0.1-0.7-0.3-0.9-0.7c0.4-0.1,0.3-0.8,0.8-0.8
				C143.3,18.9,143.5,19.4,143.9,19.6z"/>
			<path id="XMLID_3480_" class="st1" d="M45,74.7c0.3,0.3,0.8,0.4,0.7,0.9c-0.1,0.5-0.5,0.6-0.9,0.6c-0.5,0-0.6-0.3-0.5-0.6
				C44.5,75.3,44.5,74.8,45,74.7z"/>
			<path id="XMLID_3479_" class="st1" d="M38.3,44.9c0.5,0.4,1.1,0.3,1.1,0.9c0,0.4-0.1,0.9-0.5,0.9c-0.4-0.1-1.1-0.1-1.2-0.6
				C37.5,45.6,38.3,45.5,38.3,44.9z"/>
			<path id="XMLID_3478_" class="st1" d="M80.5,41.3c0.7-0.2,0.7,0.4,0.8,0.8c0.2,0.7-0.6,0.5-0.8,0.6c-0.6,0.3-0.5-0.4-0.6-0.7
				C79.5,41.4,80.1,41.5,80.5,41.3z"/>
			<path id="XMLID_3477_" class="st1" d="M80.2,30.6c0.2,0.4,1,0,0.8,0.8c-0.1,0.3,0,1-0.6,0.8c-0.3-0.1-0.9,0-0.8-0.7
				C79.7,31,79.8,30.7,80.2,30.6z"/>
			<path id="XMLID_3476_" class="st1" d="M83.3,46.8c0.1,0.7-0.4,0.9-0.7,1c-0.5,0.1-0.6-0.4-0.7-0.8c-0.2-0.6,0.5-0.6,0.8-0.7
				C83,46.1,83.3,46.5,83.3,46.8z"/>
			<path id="XMLID_3475_" class="st1" d="M90.6,18c0,0.7,0.8,1.3-0.2,1.8c-0.7,0.3-0.8-0.3-0.9-0.5C89.3,18.4,90.1,18.5,90.6,18z"/>
			<path id="XMLID_3474_" class="st1" d="M49.4,73.5c0.3,0.3,0.8,0.5,0.9,0.9c0.1,0.5-0.6,0.7-0.9,0.8c-0.2,0.1-0.6-0.5-0.6-0.8
				C48.8,74.1,48.8,73.7,49.4,73.5z"/>
			<path id="XMLID_3473_" class="st1" d="M107.5,19.3c0.5-0.2,0.2-1.4,1.2-1c0.6,0.3,0.6,0.7,0.2,1.2
				C108.3,20.4,108.1,19.2,107.5,19.3z"/>
			<path id="XMLID_3472_" class="st1" d="M140,19.6c-0.2-0.1-0.5-0.7-0.5-0.8c0.1-0.5,0.7-0.7,1.2-0.7c0.5,0,0.3,0.4,0.4,0.7
				C141.2,19.5,140.7,19.5,140,19.6z"/>
			<path id="XMLID_3471_" class="st1" d="M106.9,17.6c-0.4,0.4,0,1.5-1.1,1.1c-0.4-0.1-0.6-0.3-0.5-0.8
				C105.7,16.7,106.4,17.7,106.9,17.6z"/>
			<path id="XMLID_3470_" class="st1" d="M88.8,20.5c0,0.6-0.6,0.7-1,0.8c-0.3,0.1-0.6-0.5-0.6-0.8C87,19.9,87.8,20,88,19.6
				C88.3,19.9,88.7,20,88.8,20.5z"/>
			<path id="XMLID_3469_" class="st1" d="M132,67.9c-0.3-0.2-0.9,0-0.7-0.7c0.1-0.3,0-0.9,0.6-0.7c0.4,0.1,0.9,0.1,0.7,0.7
				C132.5,67.5,132.7,68,132,67.9z"/>
			<path id="XMLID_3468_" class="st1" d="M119.8,34c0.1,0.5-0.3,0.5-0.8,0.6c-0.5,0.1-0.7,0-0.7-0.5c-0.1-0.7,0.4-0.8,0.8-0.9
				C119.7,33.1,119.7,33.5,119.8,34z"/>
			<path id="XMLID_3467_" class="st1" d="M137.9,20.6c0-0.5,0.1-0.8,0.6-0.6c0.4,0.1,0.8,0.2,0.8,0.8c-0.1,0.6-0.4,0.6-0.9,0.7
				C137.7,21.5,137.9,21,137.9,20.6z"/>
			<path id="XMLID_3466_" class="st1" d="M127.4,64.1c0,0.4-0.1,0.7-0.6,0.6c-0.3-0.1-0.8,0.2-0.8-0.5c0-0.3,0-0.8,0.5-0.8
				C126.9,63.5,127.5,63.4,127.4,64.1z"/>
			<path id="XMLID_3465_" class="st1" d="M37.5,37.9c0.4,0.1,0.6,0.3,0.7,0.7c0.1,0.5-0.4,0.9-0.7,0.9c-0.3,0-0.9-0.3-0.9-0.7
				C36.5,38.4,37,38.1,37.5,37.9z"/>
			<path id="XMLID_3464_" class="st1" d="M119.2,40.1c-0.4-0.2-1-0.1-0.9-0.7c0.1-0.3-0.2-0.9,0.5-0.8c0.4,0.1,1-0.1,1,0.7
				C119.7,39.7,119.6,40,119.2,40.1z"/>
			<path id="XMLID_3463_" class="st1" d="M115.5,24.1c0,0.5-0.4,0.7-0.7,0.8c-0.6,0.2-0.8-0.4-0.9-0.6c-0.1-0.4,0.4-0.7,0.7-0.8
				C115.2,23.3,115.2,23.9,115.5,24.1z"/>
			<path id="XMLID_3462_" class="st1" d="M82.1,44.7c-0.1,0.6-0.7,0.6-0.9,0.6c-0.4,0-0.7-0.4-0.7-0.9c0.1-0.5,0.7-0.7,1.1-0.7
				C82.2,43.7,81.7,44.5,82.1,44.7z"/>
			<path id="XMLID_3461_" class="st1" d="M118.3,28.8c0,0.6-0.6,0.8-1,0.9c-0.7,0.1-0.4-0.6-0.6-0.9c-0.3-0.8,0.5-0.5,0.8-0.6
				C118,27.9,118.2,28.4,118.3,28.8z"/>
			<path id="XMLID_3460_" class="st1" d="M85,49.1c-0.2,0.3-0.2,0.8-0.7,0.8c-0.6,0-0.9-0.4-0.9-0.8c-0.1-0.4,0.4-0.6,0.8-0.7
				C84.8,48.2,84.7,48.9,85,49.1z"/>
			<path id="XMLID_3459_" class="st1" d="M84.1,25c-0.4-0.1-0.8-0.2-0.7-0.7c0-0.5,0.2-0.8,0.7-0.8c0.4,0,0.7,0.3,0.7,0.7
				C84.8,24.6,84.5,24.9,84.1,25z"/>
			<path id="XMLID_3458_" class="st1" d="M114.9,72.5c-0.5,0.2-0.5-0.4-0.8-0.5c-0.2-0.6,0.1-1,0.6-1.1c0.4-0.1,0.7,0.4,0.9,0.7
				C116,72.3,114.9,72,114.9,72.5z"/>
			<path id="XMLID_3457_" class="st1" d="M82.6,27.3c-0.3-0.5-1.1-0.3-0.9-0.8c0.1-0.3,0.1-1,0.6-1c0.4,0,0.9,0.4,1,0.8
				C83.3,26.8,82.8,26.9,82.6,27.3z"/>
			<path id="XMLID_3456_" class="st1" d="M139.9,23.3c-0.2,0.3-0.2,0.9-0.7,0.9c-0.4-0.1-0.9-0.5-0.9-1c0-0.4,0.6-0.5,0.9-0.5
				C139.6,22.6,139.9,22.9,139.9,23.3z"/>
			<path id="XMLID_3455_" class="st1" d="M139.9,51.9c0.1,0.8-0.5,0.7-0.8,0.8c-0.5,0.1-0.6-0.3-0.6-0.7c-0.1-0.7,0.5-0.8,0.9-0.8
				C139.9,51.1,139.8,51.6,139.9,51.9z"/>
			<path id="XMLID_3454_" class="st1" d="M116.2,27.2c-0.5-0.1-0.5-0.5-0.6-0.9c-0.1-0.5,0.4-0.8,0.8-0.8c0.4,0,0.5,0.5,0.5,0.9
				C117.1,27.1,116.3,26.8,116.2,27.2z"/>
			<path id="XMLID_3453_" class="st1" d="M136.2,69c0.6,0.1,0.8,0.6,0.8,1c0.1,0.5-0.4,0.3-0.7,0.4c-0.6,0.2-0.8-0.3-0.9-0.7
				C135.3,69.2,136.1,69.4,136.2,69z"/>
			<path id="XMLID_3452_" class="st1" d="M46.5,78c-0.1,0.4-0.3,1-0.7,1c-0.4,0-0.7-0.4-0.8-0.8c-0.1-0.5,0.3-0.6,0.7-0.7
				C46.1,77.4,46.3,77.7,46.5,78z"/>
			<path id="XMLID_3451_" class="st1" d="M40.1,36.8c0.6-0.1,0.6,0.3,0.6,0.7c0,0.5-0.2,0.7-0.7,0.7c-0.7,0.1-0.9-0.5-0.9-0.9
				C39.2,36.9,39.7,36.9,40.1,36.8z"/>
			<path id="XMLID_3450_" class="st1" d="M81.1,28c0.3,0.3,1,0.1,0.9,0.8c-0.1,0.4-0.1,0.8-0.5,0.8c-0.4,0-1-0.1-0.9-0.8
				C80.5,28.5,80.6,28.1,81.1,28z"/>
			<path id="XMLID_3449_" class="st1" d="M124.2,68c-0.8,0.1-0.5-0.6-0.7-0.9c-0.3-0.7,0.3-0.4,0.6-0.5c0.7-0.3,0.6,0.3,0.8,0.7
				C125.2,68,124.3,67.7,124.2,68z"/>
			<path id="XMLID_3448_" class="st1" d="M44.7,45c-0.5,0.2-0.5,1.4-1.4,0.6c-0.3-0.3-0.5-0.5-0.1-0.9C43.8,43.9,44.2,44.7,44.7,45z
				"/>
			<path id="XMLID_3447_" class="st1" d="M126.7,67.5c-0.6,0-0.6-0.5-0.7-0.9c-0.1-0.6,0.4-0.4,0.8-0.5c0.6-0.1,0.7,0.3,0.7,0.7
				C127.5,67.4,127,67.3,126.7,67.5z"/>
			<path id="XMLID_3446_" class="st1" d="M129.4,59.4c-0.3,0.3-0.2,0.9-0.7,0.7c-0.3-0.1-1-0.1-0.9-0.6c0.1-0.4,0.4-0.8,0.8-0.9
				C129.1,58.5,129.1,59,129.4,59.4z"/>
			<path id="XMLID_3445_" class="st1" d="M118.3,44.4c-0.3,0.3-0.3,0.9-0.9,0.7c-0.3-0.1-1,0-0.7-0.5c0.1-0.3-0.1-1.2,0.7-0.9
				C117.8,43.8,118.3,43.9,118.3,44.4z"/>
			<path id="XMLID_3444_" class="st1" d="M96.1,17.2c0.1,0.7-0.4,0.7-0.8,0.8c-0.5,0.1-0.6-0.2-0.6-0.6c-0.1-0.6,0.3-0.7,0.7-0.8
				C95.9,16.5,96,16.9,96.1,17.2z"/>
			<path id="XMLID_3443_" class="st1" d="M112.3,14.7c-0.4-0.1-0.8-0.3-0.9-0.8c-0.1-0.4,0.4-0.8,0.7-0.8c0.5,0,0.9,0.4,0.9,0.9
				C113.1,14.1,113,14.7,112.3,14.7z"/>
			<path id="XMLID_3442_" class="st1" d="M80.5,34c0,0.4,0.1,0.9-0.5,0.8c-0.4-0.1-1,0.1-0.9-0.6c0.1-0.3,0-0.8,0.6-0.8
				C80.2,33.4,80.6,33.5,80.5,34z"/>
			<path id="XMLID_3441_" class="st1" d="M116,45.9c0.3,0.5,0.9,0.4,0.9,0.9c0,0.4-0.2,0.9-0.7,0.9c-0.4,0-0.7-0.5-0.7-0.8
				C115.5,46.6,115.8,46.3,116,45.9z"/>
			<path id="XMLID_3440_" class="st1" d="M115.4,49c-0.2,0.4-0.4,0.9-0.8,0.9c-0.4,0.1-0.8-0.4-0.8-0.7c0-0.3,0.4-0.8,0.6-0.8
				C114.8,48.3,115.2,48.6,115.4,49z"/>
			<path id="XMLID_3439_" class="st1" d="M48.5,79.5c-0.6,0-1,0-1-0.6c0-0.6,0.1-0.8,0.8-0.8c0.7,0,0.7,0.5,0.8,0.9
				C49.2,79.6,48.6,79.4,48.5,79.5z"/>
			<path id="XMLID_3438_" class="st1" d="M103.6,18.1c-0.4-0.1-0.9-0.1-0.8-0.6c0-0.4,0-0.9,0.6-0.9c0.4,0,0.7,0.1,0.7,0.7
				C104.1,17.7,104,18,103.6,18.1z"/>
			<path id="XMLID_3437_" class="st1" d="M101.5,16.8c0,0.5-0.2,0.7-0.8,0.7c-0.6,0-0.7-0.3-0.7-0.8c0-0.4,0.1-0.8,0.6-0.6
				C101.1,16.2,101.6,16.1,101.5,16.8z"/>
			<path id="XMLID_3436_" class="st1" d="M43.8,39.9c0.1-0.4,0.2-0.7,0.7-0.7c0.6,0,0.9,0.5,0.9,0.9c0,0.4-0.5,0.5-0.9,0.6
				C43.9,40.7,44.1,40.1,43.8,39.9z"/>
			<path id="XMLID_3435_" class="st1" d="M141.5,24.8c-0.5,0-0.4-0.4-0.4-0.7c-0.1-0.6,0.3-0.7,0.7-0.8c0.4,0,0.7,0.2,0.7,0.7
				C142.5,24.7,141.9,24.6,141.5,24.8z"/>
			<path id="XMLID_3434_" class="st1" d="M43.7,38.1c-0.3,0.2-0.6,0.6-0.9,0.6c-0.3,0-0.9-0.2-0.8-0.7c0-0.3,0-0.8,0.5-0.8
				C42.9,37.1,43.2,37.5,43.7,38.1z"/>
			<path id="XMLID_3433_" class="st1" d="M86,21.5c0.2,0.1,0.6,0.3,0.7,0.7c0,0.5-0.5,0.7-0.9,0.7c-0.5,0-0.7-0.5-0.7-0.8
				C85.1,21.9,85.3,21.4,86,21.5z"/>
			<path id="XMLID_3432_" class="st1" d="M144.3,21.9c-0.2,0.4-0.1,1.1-0.8,1c-0.3,0-0.8-0.2-0.8-0.7c0.1-0.4,0.2-0.8,0.8-0.7
				C143.9,21.5,144.3,21.3,144.3,21.9z"/>
			<path id="XMLID_3431_" class="st1" d="M111.5,20.3c0,0.6-0.3,0.9-0.7,0.9c-0.3,0-0.8-0.5-0.8-0.6c0.1-0.4,0.2-1,0.7-1
				C110.9,19.6,111.4,19.9,111.5,20.3z"/>
			<path id="XMLID_3430_" class="st1" d="M134.6,68.7c-0.4,0-0.9-0.2-0.7-0.5c0.2-0.3-0.2-1.1,0.6-1c0.4,0,0.8,0.1,0.8,0.6
				C135.2,68.2,135,68.6,134.6,68.7z"/>
			<path id="XMLID_3429_" class="st1" d="M136.8,72.2c-0.3,0.3-0.3,1-0.7,0.9c-0.3-0.1-0.7-0.5-0.8-0.8c-0.1-0.2,0.3-0.8,0.8-0.7
				C136.3,71.7,136.8,71.8,136.8,72.2z"/>
			<path id="XMLID_3428_" class="st1" d="M133.2,55.7c-0.4,0.3-0.5,0.8-1,0.7c-0.4-0.1-0.7-0.5-0.7-0.8c0-0.5,0.6-0.7,0.9-0.7
				C132.6,54.8,132.9,55.4,133.2,55.7z"/>
			<path id="XMLID_3427_" class="st1" d="M80,38.7c0.6-0.1,0.5,0.3,0.5,0.6c0.1,0.6-0.3,0.8-0.7,0.8c-0.7,0.1-0.4-0.6-0.5-0.9
				C79.1,38.6,79.7,38.9,80,38.7z"/>
			<path id="XMLID_3426_" class="st1" d="M134.5,73.5c0.1,0.6-0.3,0.6-0.7,0.6c-0.5,0-0.8-0.1-0.8-0.7c0-0.4,0-0.8,0.6-0.8
				C134.4,72.6,134.5,73,134.5,73.5z"/>
			<path id="XMLID_3425_" class="st1" d="M98,16.1c0.8-0.1,0.7,0.4,0.7,0.7c0,0.4-0.1,0.7-0.6,0.7c-0.6,0-0.7-0.3-0.8-0.8
				C97.3,16.1,97.8,16.2,98,16.1z"/>
			<path id="XMLID_3424_" class="st1" d="M127.4,60.9c0.2,0.2,0.8,0.3,0.7,0.7c-0.1,0.3-0.2,1-0.8,0.7c-0.3-0.1-0.9-0.1-0.7-0.7
				C126.7,61.3,126.9,60.9,127.4,60.9z"/>
			<path id="XMLID_3423_" class="st1" d="M49.4,45.3c0.1-0.4,0.3-0.7,0.7-0.7c0.4-0.1,0.7,0.2,0.8,0.6c0.1,0.5-0.6,0.5-0.7,0.9
				C50,45.8,49.5,45.7,49.4,45.3z"/>
			<path id="XMLID_3422_" class="st1" d="M47.4,72.9c0,0.7,0.4,1.4-0.5,1.6c-0.5,0.2-0.7-0.3-0.8-0.6C46,72.9,46.9,73.3,47.4,72.9z"
				/>
			<path id="XMLID_3421_" class="st1" d="M119.7,36.6c0.1,0.5-0.1,0.8-0.7,0.7c-0.5,0-0.7-0.2-0.7-0.8c0-0.5,0.3-0.6,0.7-0.6
				C119.5,35.9,119.8,36,119.7,36.6z"/>
			<path id="XMLID_3420_" class="st1" d="M40.7,46.4c0-0.4,0-0.7,0.6-0.7c0.6,0,0.8,0.3,0.9,0.8c0,0.5-0.4,0.6-0.8,0.6
				C40.8,47.1,40.6,46.9,40.7,46.4z"/>
			<path id="XMLID_3419_" class="st1" d="M92.6,18.9c-0.7-0.1-0.5-0.7-0.5-1c-0.1-0.7,0.7-0.6,0.9-0.6c0.5,0,0.3,0.6,0.3,0.9
				C93.5,18.8,92.7,18.6,92.6,18.9z"/>
			<path id="XMLID_3418_" class="st1" d="M121.8,67.2c0.4-0.1,0.5,0.1,0.6,0.6c0,0.5-0.1,0.8-0.6,0.9c-0.7,0.1-0.5-0.5-0.7-0.8
				C120.8,67.2,121.3,67.3,121.8,67.2z"/>
			<path id="XMLID_3417_" class="st1" d="M136.7,53.8c-0.4-0.2-0.7-0.5-0.7-0.9c-0.1-0.6,0.5-0.5,0.7-0.6c0.5-0.2,0.7,0.4,0.7,0.8
				C137.5,53.4,137,53.6,136.7,53.8z"/>
			<path id="XMLID_3416_" class="st1" d="M72.2,37.2c0,0.6-0.4,0.6-0.7,0.6c-0.5,0-0.7-0.1-0.6-0.6c0-0.5,0.3-0.6,0.7-0.6
				C72,36.6,72.3,36.7,72.2,37.2z"/>
			<path id="XMLID_3415_" class="st1" d="M122.6,57.2c0.1,0.5-0.1,0.7-0.7,0.7c-0.6,0-0.7-0.3-0.7-0.8c0-0.5,0.2-0.7,0.7-0.7
				C122.4,56.4,122.7,56.6,122.6,57.2z"/>
			<path id="XMLID_3414_" class="st1" d="M127.5,70.2c-0.5-0.3-0.7-0.7-0.8-1.1c0-0.4,0.5-0.3,0.8-0.3c0.6-0.1,0.6,0.4,0.9,0.7
				C128.1,69.6,127.8,69.9,127.5,70.2z"/>
			<path id="XMLID_3413_" class="st1" d="M131,72.1c0.6,0,1,0.2,0.9,0.4c-0.2,0.3,0.2,1.1-0.6,1c-0.4,0-0.8,0-0.7-0.6
				C130.6,72.5,130.6,72.1,131,72.1z"/>
			<path id="XMLID_3412_" class="st1" d="M119,31.4c0.1,0.6-0.4,0.5-0.8,0.6c-0.7,0.2-0.5-0.4-0.5-0.7c-0.1-0.6,0.4-0.7,0.8-0.8
				C119.1,30.6,118.8,31.2,119,31.4z"/>
			<path id="XMLID_3411_" class="st1" d="M117.8,70.3c-0.1,0.6-0.6,0.4-0.9,0.5c-0.5,0.1-0.6-0.4-0.6-0.7c0-0.5,0.4-0.8,0.8-0.8
				C117.5,69.4,117.6,69.9,117.8,70.3z"/>
			<path id="XMLID_3410_" class="st1" d="M113.6,22.2c-0.1,0.4-0.2,0.7-0.7,0.7c-0.5,0-0.8-0.5-0.7-0.7c0-0.3,0.1-0.9,0.7-0.8
				C113.4,21.5,113.5,21.8,113.6,22.2z"/>
			<path id="XMLID_3409_" class="st1" d="M120,69c-0.1,0.5-0.5,0.7-0.8,0.6c-0.4,0-0.8-0.5-0.7-0.8c0-0.4,0.5-0.7,1-0.6
				C119.9,68.2,119.7,68.8,120,69z"/>
			<path id="XMLID_3408_" class="st1" d="M131.1,57.3c0.1,0.6-0.5,0.8-0.7,0.8c-0.4,0-0.9-0.3-0.8-0.7c0-0.4,0.2-0.9,0.7-0.9
				C130.7,56.5,130.9,57,131.1,57.3z"/>
			<path id="XMLID_3407_" class="st1" d="M133.7,54.1c0.1-0.4,0.4-0.7,0.8-0.7c0.4,0,0.5,0.4,0.5,0.7c0.1,0.5-0.4,0.8-0.7,0.9
				C134,55.1,134,54.5,133.7,54.1z"/>
			<path id="XMLID_3406_" class="st1" d="M118.9,42.8c-0.9,0-1.3-0.4-1.1-1.3c0.1-0.4,0.3-0.3,0.6-0.2
				C119.4,41.5,118.8,42.2,118.9,42.8z"/>
			<path id="XMLID_3405_" class="st1" d="M64,44.2c0.1,0.6-0.3,0.5-0.7,0.6c-0.4,0-0.7-0.1-0.7-0.6c0-0.6,0.3-0.6,0.7-0.6
				C63.7,43.6,64.1,43.7,64,44.2z"/>
			<path id="XMLID_3404_" class="st1" d="M129.7,71.4c-0.1,0.4-0.3,0.7-0.7,0.7c-0.5,0-0.7-0.5-0.7-0.7c0-0.3,0.2-0.7,0.7-0.7
				C129.5,70.7,129.7,71,129.7,71.4z"/>
			<path id="XMLID_3403_" class="st1" d="M130,66.6c0,0.5-0.2,0.7-0.7,0.7c-0.4,0-0.6-0.2-0.6-0.6c0-0.5,0.3-0.6,0.7-0.6
				C129.8,66.1,130.1,66.2,130,66.6z"/>
			<path id="XMLID_3402_" class="st3" d="M92.4,69.4c0,0.2,0,0.4-0.3,0.5C92.1,69.6,92.2,69.5,92.4,69.4z"/>
			<path id="XMLID_3401_" class="st2" d="M107.5,65c-0.1,0-0.2-0.1-0.3-0.1C107.4,64.7,107.5,64.8,107.5,65z"/>
			<path id="XMLID_3400_" class="st2" d="M91.6,64.9c-0.1,0-0.2,0.1-0.3,0.1C91.3,64.8,91.4,64.7,91.6,64.9z"/>
			<path id="XMLID_3399_" class="st2" d="M107.2,63.6c0.1,0,0.2-0.1,0.3-0.1C107.5,63.7,107.4,63.8,107.2,63.6z"/>
			<path id="XMLID_3398_" class="st2" d="M107.5,62.5c-0.1-0.1-0.2-0.1-0.3-0.2C107.4,62.1,107.5,62.2,107.5,62.5z"/>
			<path id="XMLID_3397_" class="st2" d="M91.6,62.3c-0.1,0-0.2,0.1-0.3,0.1C91.3,62.2,91.4,62.1,91.6,62.3z"/>
			<path id="XMLID_3393_" class="st2" d="M128,102c0,2.4,0,4.6,0,6.9c0,3.1-0.1,6.3,0,9.4c0,1.2-0.4,1.8-1.5,2.1
				c-3.3,1.1-6.7,2.2-10,3.4c-3.8,1.3-7.5,2.7-11.2,4c-1.4,0.5-2.7,1-4.1,1.4c-0.7,0.2-1.1,0-1.1-0.9c0-9.5,0-18.9,0-28.7
				c1.1,1.2,2,2.1,2.9,3.1c1.5,1.7,3.1,3.4,4.5,5.1c0.6,0.7,1.2,0.8,2,0.5c4.3-1.6,8.5-3.1,12.8-4.6C124.1,103.2,126,102.7,128,102z
				 M111,123.2c-0.7,0.2-1.4,0.4-2.1,0.7c-1.8,0.7-3.7,1.4-5.5,2.1c-0.5,0.2-0.6,0.5-0.4,1c0.2,0.6,0.6,0.4,0.9,0.2
				c2.5-0.8,5-1.7,7.4-2.6c0.4-0.1,0.7-0.3,0.5-0.8C111.6,123.4,111.5,123,111,123.2z M103.7,124.6c1-0.7,2.4-0.8,3.6-1.4
				c0.4-0.2,0-0.6,0-0.9c-0.1-0.3-0.3-0.6-0.6-0.4c-1.1,0.6-2.4,0.8-3.5,1.3c-0.5,0.2-0.2,0.5-0.2,0.8
				C103,124.4,103,124.8,103.7,124.6z"/>
			<path id="XMLID_3389_" class="st2" d="M70.8,102c4.1,1.5,8.1,2.8,12.1,4.2c2.1,0.7,4.2,1.5,6.4,2.3c0.9,0.3,1.5,0,2.1-0.7
				c2.4-2.7,4.8-5.3,7.3-8.2c0,10.1,0,19.9,0,29.8c-2.6-0.6-4.9-1.6-7.4-2.4c-6.2-2-12.2-4.4-18.5-6.4c-1.3-0.4-2.1-0.9-2-2.6
				c0.2-4.8,0.1-9.7,0.1-14.5C70.8,103.1,70.8,102.6,70.8,102z M82.1,120c0-0.3,0-0.6,0-0.9c0.2-1.2-0.2-1.9-1.4-2.3
				c-2.3-0.7-4.5-1.6-6.7-2.4c-1-0.4-1.2,0-1.2,0.9c0.1,0.9,0.1,1.9,0,2.8c-0.1,0.9,0.3,1.3,1.1,1.6c2,0.6,3.9,1.4,5.8,2
				C82.1,122.6,82.1,122.6,82.1,120z M77.6,113.7c0.1-0.4,0.1-0.6-0.1-0.6c-1.1-0.4-2.2-0.8-3.3-1.1c-0.4-0.1-0.5,0.3-0.7,0.6
				c-0.2,0.4,0.1,0.4,0.4,0.6c0.9,0.6,1.9,0.7,2.9,1.1C77.4,114.6,77.4,113.9,77.6,113.7z"/>
			<path id="XMLID_3380_" class="st0" d="M72.7,87.3c8.6-3,17.2-6,26-9.1c0,1.9,0,3.6,0,5.4c0,3.2,0,6.3,0,9.5
				c0,0.5-0.3,1.2,0.7,1.1c1,0,0.7-0.7,0.7-1.2c0-4.9,0-9.8,0-14.9c8.7,3,17.3,6,26,9.1c-0.6,0.8-1.5,0.8-2.3,1.1
				c-6.3,2.3-12.6,4.4-18.9,6.5c-1.7,0.6-3.4,1.3-5.1,1.9c-1.2,0.4-2.1-0.5-3.1-0.9c-4.3-1.4-8.5-3-12.8-4.4
				c-3.8-1.2-7.5-2.7-11.2-4C72.7,87.5,72.7,87.4,72.7,87.3z M92.5,90c0.1-0.3-0.2-0.5-0.3-0.6c-1.7-1-3.4-2-5.2-3
				c-0.5-0.3-0.6,0.3-0.9,0.5c-0.5,0.4,0.1,0.5,0.3,0.7c1.7,1,3.4,2,5.2,3C92.4,91.2,92.1,90,92.5,90z M114.3,86.5
				c-0.2-0.3-0.4-0.6-0.6-0.9c-0.3-0.3-0.5,0-0.7,0.2c-1,0.6-1.9,1.2-2.9,1.6c-0.5,0.3-1,0.3-0.6,1.1c0.4,0.8,0.9,0.3,1.2,0.1
				c1.1-0.6,2.2-1.2,3.3-1.8C114.1,86.8,114.3,86.8,114.3,86.5z M103.2,84.1c-0.7,0.4-1,1.1-1.1,1.8c-0.1,0.7,0.8,0.6,0.9,0.6
				c0.8-0.2,0.7-1.1,1-1.7C104.3,84.2,103.5,84.4,103.2,84.1z M106.4,90c0.1-0.6-0.2-0.7-0.7-0.8c-0.6,0-0.6,0.3-0.6,0.7
				c0,0.5,0.1,0.7,0.6,0.7C106.2,90.6,106.5,90.5,106.4,90z M106,88c0.7,0.2,0.7-0.3,0.8-0.7c0.1-0.7-0.5-0.6-0.8-0.7
				c-0.6-0.1-0.4,0.5-0.5,0.8C105.3,88,105.8,87.9,106,88z M106.5,85.4c0.7,0.1,0.7-0.4,0.8-0.7c0.1-0.6-0.5-0.6-0.9-0.6
				c-0.5-0.1-0.5,0.5-0.6,0.8C105.8,85.4,106.2,85.4,106.5,85.4z M107.2,81.5c-0.5,0.2-0.6,0.6-0.6,1c0,0.5,0.5,0.5,0.9,0.5
				c0.5,0,0.6-0.4,0.6-0.8C108.1,81.6,107.6,81.6,107.2,81.5z"/>
			<path id="XMLID_3379_" class="st2" d="M128,94.5c0,1.6-0.1,3.1,0,4.7c0.1,1.1-0.5,1.6-1.3,1.9c-5.7,2-11.3,3.9-17,5.9
				c-0.6,0.2-1,0.1-1.4-0.3c-2.4-2.7-4.8-5.4-7.2-8c-0.4-0.4-0.5-0.6,0.2-0.8c5-1.7,10.1-3.5,15.1-5.2c3.4-1.1,6.7-2.2,10.1-3.5
				c1.1-0.4,1.7-0.3,1.5,1.1C127.8,91.5,128,93,128,94.5z"/>
			<path id="XMLID_3378_" class="st2" d="M98.2,98c-2.6,2.9-5.2,5.8-7.7,8.6c-0.4,0.4-0.7,0.5-1.4,0.3c-5.7-2-11.4-3.9-17-5.9
				c-0.7-0.2-1.3-0.6-1.3-1.6c0.1-3.3,0-6.5,0-9.8c0-0.8,0.1-1.1,1-0.8c2.9,1.1,5.9,2.1,8.9,3.1c4.3,1.5,8.6,2.9,12.9,4.5
				C95,96.9,96.5,97.4,98.2,98z"/>
			<path id="XMLID_3377_" class="st0" d="M69.3,89.3c0,3.7,0,7.1,0,10.5c-2.4-0.3-4.5-1.7-6.8-2.2c-0.5-0.1-0.2-0.5,0-0.8
				C64.7,94.4,66.9,92,69.3,89.3z"/>
			<path id="XMLID_3376_" class="st0" d="M136.7,97.5c-2.7,0.6-4.8,1.9-7.3,2.3c0-3.4,0-6.8,0-10.4C132,92.1,134.3,94.7,136.7,97.5z
				"/>
			<path id="XMLID_3375_" class="st1" d="M83,80c-0.5,0.3-0.4,1-0.9,0.9c-0.5-0.1-0.9-0.6-0.9-1.1c0-0.3,0.3-0.8,0.7-0.7
				C82.2,79.2,82.6,79.6,83,80z"/>
			<path id="XMLID_3374_" class="st1" d="M111.2,76.2c-0.4-0.1-0.8-0.3-0.8-0.7c0-0.4,0.3-0.8,0.7-0.8c0.5,0,0.8,0.4,0.8,0.8
				C111.9,75.7,111.6,76.1,111.2,76.2z"/>
			<path id="XMLID_3373_" class="st1" d="M109.8,78.3c-0.3-0.3-0.9-0.1-0.9-0.8c0-0.4,0.2-0.8,0.6-0.9c0.4,0,0.8,0.2,0.9,0.7
				C110.4,77.9,110.2,78.2,109.8,78.3z"/>
			<path id="XMLID_3372_" class="st1" d="M113.5,73.4c0,0.5-0.3,0.7-0.7,0.7c-0.5,0-0.6-0.4-0.6-0.8c0.1-0.3,0.2-0.8,0.7-0.7
				C113.3,72.8,113.5,73.1,113.5,73.4z"/>
			<path id="XMLID_3368_" class="st0" d="M102.2,56c0-0.9,0-1.8,0-2.7c0-0.5,0-0.8-0.7-0.8c-0.6,0-0.7,0.3-0.7,0.8
				c0,1.8,0,3.6,0,5.4c0.1,1.6-1.1,1-1.8,1c-0.7,0.1-1.4,0.2-1.3-1c0.1-1.7,0-3.5,0-5.3c0-0.5,0-1-0.8-1c-0.8,0-0.6,0.5-0.6,0.9
				c0,1.8-0.1,3.6,0,5.4c0,1-0.5,1-1.1,0.9c-0.7-0.2-1.9,0.7-1.9-0.8c0.1-4.6-2.2-7.8-5.3-10.9c-5.9-5.8-6.5-14.7-1.3-21.3
				c3.9-4.8,9-6.7,15.1-5.8c6.6,1,10.7,5,12.8,11.1c2,5.9-0.1,12.6-5,16.8c-2.9,2.5-4.4,5.9-4.5,9.8c0,1.7-1.1,1-1.9,1.2
				c-1.1,0.2-1.3-0.4-1.2-1.3C102.2,57.6,102.2,56.8,102.2,56z M99.6,36.5c0,3,0,6,0,8.9c0,1.7,1,3.1,2.7,3.5
				c1.4,0.3,2.6-0.2,3.4-1.4c0.3-0.5,0.8-0.4,1.2-0.5c1.3-0.2,2.3-0.8,2.7-2.2c0.2-0.7,0.5-1.1,1.2-1.5c1.2-0.6,1.9-2.2,1.5-3.5
				c-0.2-0.6-0.1-0.9,0.2-1.3c1-1.4,0.9-2.8-0.1-4.2c-0.2-0.3-0.3-0.6-0.2-1c0.4-1.6-0.2-2.8-1.7-3.7c-0.4-0.2-0.7-0.5-0.8-1
				c-0.2-1.7-1.4-2.3-2.9-2.6c-0.3-0.1-0.7,0.1-1-0.3c-1-1.7-2.7-1.8-4.2-1.3c-1.6,0.6-2.1,2.2-2,3.8C99.6,31.1,99.6,33.8,99.6,36.5
				z M99.1,36.5c0-2.9,0-5.8,0-8.7c0-1.5-0.5-2.8-1.9-3.5c-1.2-0.6-3.1,0-4.2,1.1c-0.2,0.2-0.3,0.5-0.6,0.5c-3.4-0.1-3.2,3.8-5.6,5
				c-0.1,0.1-0.1,0.5-0.1,0.8c0.1,1.3-0.2,2.6-0.9,3.8c-0.4,0.6-0.4,1.4,0,2c0.8,1.1,0.9,2.4,0.9,3.7c0,0.9,0.5,1.6,1.2,2
				c0.7,0.4,1.1,0.9,1.3,1.6c0.4,1.3,1.4,2,2.7,2.1c0.4,0,0.8,0,1.1,0.4c0.9,1.2,2.1,1.9,3.7,1.4c1.8-0.6,2.3-1.6,2.3-3.7
				C99.1,42.3,99.1,39.4,99.1,36.5z"/>
			<path id="XMLID_3367_" class="st1" d="M132.3,34.3c0,0.7,0,1.4,0,2.1c0,0.5-0.2,0.7-0.7,0.7c-0.4,0-0.7-0.1-0.7-0.6
				c0-1.4,0-2.7,0-4.1c0-0.5,0.2-0.6,0.7-0.7c0.6,0,0.7,0.2,0.7,0.8C132.3,33.1,132.3,33.7,132.3,34.3z"/>
			<path id="XMLID_3366_" class="st1" d="M132.3,38.5c0.1,0.5-0.1,0.8-0.6,0.8c-0.4,0-0.8,0-0.8-0.6c0-0.5,0.2-0.8,0.7-0.8
				C132,37.9,132.4,38,132.3,38.5z"/>
			<path id="XMLID_3363_" class="st0" d="M58.8,61.3c-0.3-3.1,3-5.4,5.3-5.3c2.9,0.2,5.2,2.2,5.2,5.5c0,2.9-2.7,5.4-5.4,5.3
				C61.1,66.6,58.8,64.3,58.8,61.3z M64.1,58.4c-1.8,0-3,1.2-3,3c0,1.6,1.5,3.1,2.9,3c1.4-0.2,3.1-1.1,3.1-2.9
				C67.1,59.7,65.9,58.4,64.1,58.4z"/>
			<path id="XMLID_3362_" class="st1" d="M111,123.2c0.5-0.1,0.6,0.3,0.8,0.6c0.2,0.5-0.1,0.7-0.5,0.8c-2.5,0.9-4.9,1.7-7.4,2.6
				c-0.3,0.1-0.7,0.3-0.9-0.2c-0.2-0.5-0.1-0.8,0.4-1c1.8-0.7,3.7-1.4,5.5-2.1C109.6,123.6,110.3,123.4,111,123.2z"/>
			<path id="XMLID_3361_" class="st1" d="M103.7,124.6c-0.7,0.1-0.7-0.2-0.8-0.6c0-0.3-0.3-0.6,0.2-0.8c1.2-0.4,2.4-0.7,3.5-1.3
				c0.3-0.2,0.5,0.1,0.6,0.4c0.1,0.3,0.5,0.6,0,0.9C106.1,123.8,104.7,124,103.7,124.6z"/>
			<path id="XMLID_3358_" class="st1" d="M82.1,120c0,2.6,0,2.6-2.4,1.8c-2-0.7-3.9-1.4-5.8-2c-0.8-0.3-1.1-0.7-1.1-1.6
				c0.1-0.9,0.1-1.9,0-2.8c-0.1-0.9,0.2-1.3,1.2-0.9c2.2,0.8,4.5,1.7,6.7,2.4c1.2,0.4,1.6,1.1,1.4,2.3
				C82.1,119.4,82.1,119.7,82.1,120z M74.3,116.1c0.1,0.9-0.6,1.9,0.5,2.3c1.9,0.8,3.9,1.5,6,2.3c-0.2-1,0.6-2.2-0.7-2.6
				C78.2,117.4,76.3,116.8,74.3,116.1z"/>
			<path id="XMLID_3357_" class="st1" d="M77.6,113.7c-0.1,0.2-0.2,0.9-0.9,0.6c-0.9-0.4-2-0.5-2.9-1.1c-0.2-0.2-0.6-0.2-0.4-0.6
				c0.1-0.3,0.3-0.7,0.7-0.6c1.1,0.3,2.2,0.7,3.3,1.1C77.6,113.1,77.7,113.3,77.6,113.7z"/>
			<path id="XMLID_3356_" class="st1" d="M92.5,90c-0.5,0-0.1,1.1-0.9,0.7c-1.7-1-3.5-2-5.2-3c-0.2-0.1-0.8-0.2-0.3-0.7
				c0.2-0.2,0.3-0.8,0.9-0.5c1.7,1,3.5,2,5.2,3C92.3,89.6,92.6,89.7,92.5,90z"/>
			<path id="XMLID_3355_" class="st1" d="M114.3,86.5c0,0.3-0.2,0.3-0.4,0.4c-1.1,0.6-2.2,1.2-3.3,1.8c-0.4,0.2-0.8,0.7-1.2-0.1
				c-0.4-0.8,0.1-0.9,0.6-1.1c1-0.5,1.9-1.1,2.9-1.6c0.2-0.1,0.5-0.4,0.7-0.2C114,85.9,114.1,86.2,114.3,86.5z"/>
			<path id="XMLID_3354_" class="st1" d="M103.2,84.1c0.3,0.3,1.1,0.1,0.8,0.7c-0.3,0.6-0.2,1.5-1,1.7c-0.1,0-1,0.1-0.9-0.6
				C102.3,85.2,102.6,84.5,103.2,84.1z"/>
			<path id="XMLID_3353_" class="st1" d="M106.4,90c0,0.5-0.3,0.6-0.7,0.6c-0.5,0-0.7-0.2-0.6-0.7c0-0.4,0-0.8,0.6-0.7
				C106.2,89.2,106.5,89.4,106.4,90z"/>
			<path id="XMLID_3352_" class="st1" d="M106,88c-0.2-0.1-0.7,0-0.6-0.5c0.1-0.3-0.1-0.9,0.5-0.8c0.3,0.1,1,0,0.8,0.7
				C106.7,87.6,106.8,88.1,106,88z"/>
			<path id="XMLID_3351_" class="st1" d="M106.5,85.4c-0.2,0-0.7,0-0.6-0.5c0-0.3,0.1-0.8,0.6-0.8c0.3,0,0.9,0,0.9,0.6
				C107.2,85.1,107.1,85.5,106.5,85.4z"/>
			<path id="XMLID_3350_" class="st1" d="M107.2,81.5c0.3,0.2,0.8,0.2,0.8,0.6c0,0.4-0.1,0.8-0.6,0.8c-0.4,0-0.9,0.1-0.9-0.5
				C106.6,82.1,106.8,81.6,107.2,81.5z"/>
			<path id="XMLID_3347_" class="st1" d="M99.6,36.5c0-2.7,0-5.5,0-8.2c0-1.7,0.4-3.3,2-3.8c1.5-0.5,3.2-0.5,4.2,1.3
				c0.3,0.4,0.7,0.3,1,0.3c1.5,0.3,2.7,0.9,2.9,2.6c0.1,0.5,0.4,0.8,0.8,1c1.5,0.9,2.1,2.1,1.7,3.7c-0.1,0.4,0,0.7,0.2,1
				c0.9,1.4,1.1,2.7,0.1,4.2c-0.2,0.4-0.4,0.7-0.2,1.3c0.4,1.3-0.3,2.8-1.5,3.5c-0.7,0.4-1,0.8-1.2,1.5c-0.3,1.4-1.4,2-2.7,2.2
				c-0.5,0.1-0.9,0-1.2,0.5c-0.8,1.2-2,1.8-3.4,1.4c-1.6-0.4-2.6-1.8-2.7-3.5C99.5,42.5,99.6,39.5,99.6,36.5z M101,39.1
				c0.3-0.1,0.5-0.1,0.6-0.2c0.4-0.2,1-0.7,1.3-0.1c0.3,0.6-0.1,1-0.7,1.3c-0.7,0.3-1.1,0.8-1.1,1.5c-0.1,1.5-0.1,2.9,0,4.4
				c0.1,0.9,0.8,1.5,1.7,1.7c1.1,0.2,1.7-0.6,2.1-1.4c0.4-0.8,0-1.5-0.7-2c-0.2-0.2-0.4-0.4-0.7-0.5c-0.5-0.2-0.7-0.6-0.5-1
				c0.2-0.5,0.7-0.3,1.1-0.2c1,0.4,1.7,1.1,1.9,2.1c0.1,0.5,0,1,0.8,0.9c0.7-0.1,1.2-0.5,1.4-1.2c0.3-0.8-0.4-0.7-0.7-0.9
				c-0.3-0.2-0.8-0.3-0.6-0.8c0.2-0.4,0.6-0.7,1-0.4c0.5,0.3,1,0.2,1.5,0.1c0.8-0.2,1.2-0.8,1.4-1.6c0.1-0.5,0.1-1-0.7-1.3
				c-0.7-0.2-0.5-0.9,0.1-1.3c2-1.3,2-2.2,0-3.7c-0.6-0.5-0.8-1.1,0-1.3c1-0.3,0.7-1,0.5-1.4c-0.5-1-1.3-1.6-2.5-1.2
				c-0.5,0.2-1,0.3-1.3-0.3c-0.3-0.7,0.4-0.7,0.8-0.9c0.5-0.2,0.6-0.5,0.4-1c-0.3-0.6-0.6-1.1-1.3-1.1c-0.6,0-0.7,0.3-0.7,0.8
				c-0.2,1.2-1,2-2.2,2.3c-0.3,0.1-0.7,0.2-0.9-0.2c-0.1-0.3-0.2-0.7,0.1-0.9c0.2-0.2,0.6-0.3,0.8-0.5c0.8-0.6,1.3-1.3,0.7-2.3
				c-0.5-0.8-1.2-1.4-2.2-1.1c-1,0.3-1.5,1-1.5,2c-0.1,1.2,0,2.5,0,3.7c0,0.9,0.5,1.6,1.3,1.8c0.6,0.2,0.8,0.6,0.7,1.2
				c-0.2,0.7-0.7,0.3-1,0.2c-0.7-0.2-1,0-0.9,0.7C101,36.3,101,37.6,101,39.1z"/>
			<path id="XMLID_3344_" class="st1" d="M99.1,36.5c0,2.9,0,5.8,0,8.6c0,2.2-0.6,3.1-2.3,3.7c-1.6,0.6-2.7-0.2-3.7-1.4
				c-0.3-0.4-0.7-0.4-1.1-0.4c-1.4-0.1-2.4-0.8-2.7-2.1c-0.2-0.8-0.6-1.3-1.3-1.6c-0.8-0.4-1.3-1.1-1.2-2c0-1.3-0.1-2.5-0.9-3.7
				c-0.4-0.6-0.4-1.4,0-2c0.7-1.2,1-2.4,0.9-3.8c0-0.3,0-0.7,0.1-0.8c2.3-1.1,2.2-5.1,5.6-5c0.3,0,0.4-0.3,0.6-0.5
				c1.1-1.1,3-1.7,4.2-1.1c1.4,0.7,1.9,1.9,1.9,3.5C99,30.8,99.1,33.6,99.1,36.5z M97.8,38.9c0-1.3,0-2.5,0-3.8c0-0.8-0.3-1.1-1-0.8
				c-0.3,0.1-0.8,0.4-0.9-0.2c-0.1-0.4-0.1-0.8,0.5-1c0.5-0.2,1.1-0.3,1.2-0.9c0.3-1.8,0.4-3.6,0.1-5.4c-0.2-0.8-0.8-1.3-1.7-1.4
				c-0.9-0.1-1.3,0.4-1.7,1c-0.6,1-0.2,2,1.1,2.8c0.4,0.3,0.7,0.5,0.5,1c-0.2,0.6-0.7,0.3-1.1,0.2c-1-0.3-1.7-1-2-2
				c-0.1-0.5-0.1-1.1-0.9-1c-0.8,0.1-1.1,0.6-1.4,1.3c-0.3,0.7,0.5,0.7,0.8,0.9c0.3,0.2,0.9,0.2,0.6,0.7c-0.2,0.4-0.6,0.7-1.1,0.5
				c-0.3-0.1-0.6-0.3-0.9-0.3c-0.9,0-1.6,0.3-1.9,1.2c-0.2,0.5-0.4,1.2,0.2,1.5c1.1,0.6,0.8,1,0,1.5c-1.6,1.1-1.6,2.6,0.1,3.4
				c0.7,0.4,0.7,1.1,0.3,1.3c-1.2,0.5-0.8,1.3-0.5,2c0.4,0.9,1.4,1.3,2.3,0.9c0.9-0.4,1.2,0,1.8,0.4c-0.4,0.3-0.7,0.5-1,0.7
				c-0.3,0.2-1,0.1-0.7,0.7c0.3,0.7,0.7,1.2,1.5,1.3c0.7,0.1,0.8-0.4,0.8-0.9c0.1-1.2,1.1-1.7,2-2.2c0.3-0.1,0.8-0.3,1,0.1
				c0.2,0.4,0.2,0.8-0.4,1c-0.2,0.1-0.4,0.2-0.6,0.4c-0.8,0.7-1,1.6-0.6,2.5c0.3,0.7,1,1.2,1.8,1c0.9-0.2,1.6-0.7,1.7-1.8
				c0-1.2,0.1-2.4,0.1-3.6c0-1-0.2-2-1.4-2.4c-0.6-0.2-0.7-0.7-0.5-1.1c0.2-0.5,0.6-0.2,1-0.1C97.1,38.8,97.4,38.8,97.8,38.9z"/>
			<path id="XMLID_3343_" class="st4" d="M64.1,58.4c1.8,0,3,1.3,3,3c0,1.8-1.6,2.8-3.1,2.9c-1.5,0.2-2.9-1.4-2.9-3
				C61.2,59.6,62.3,58.4,64.1,58.4z"/>
			<path id="XMLID_3342_" class="st2" d="M74.3,116.1c2,0.7,3.9,1.3,5.8,2c1.2,0.5,0.5,1.6,0.7,2.6c-2.1-0.8-4.1-1.5-6-2.3
				C73.7,118,74.4,117,74.3,116.1z"/>
			<path id="XMLID_3338_" class="st4" d="M101,39.1c0-1.4,0-2.7,0-4c0-0.7,0.3-0.9,0.9-0.7c0.4,0.1,0.8,0.5,1-0.2
				c0.2-0.6,0-0.9-0.7-1.2c-0.8-0.3-1.3-0.9-1.3-1.8c0-1.2-0.1-2.5,0-3.7c0.1-1,0.5-1.7,1.5-2c1-0.3,1.7,0.4,2.2,1.1
				c0.6,1,0.1,1.7-0.7,2.3c-0.3,0.2-0.6,0.3-0.8,0.5c-0.3,0.2-0.2,0.6-0.1,0.9c0.2,0.4,0.6,0.2,0.9,0.2c1.2-0.4,2-1.1,2.2-2.3
				c0.1-0.5,0.2-0.8,0.7-0.8c0.7,0,1.1,0.5,1.3,1.1c0.2,0.5,0.1,0.7-0.4,1c-0.3,0.2-1.1,0.1-0.8,0.9c0.3,0.6,0.8,0.5,1.3,0.3
				c1.2-0.4,2,0.1,2.5,1.2c0.2,0.5,0.5,1.1-0.5,1.4c-0.8,0.3-0.6,0.9,0,1.3c2,1.5,2,2.4,0,3.7c-0.6,0.4-0.8,1.1-0.1,1.3
				c0.8,0.2,0.8,0.7,0.7,1.3c-0.2,0.8-0.6,1.4-1.4,1.6c-0.5,0.1-1,0.1-1.5-0.1c-0.5-0.3-0.9,0.1-1,0.4c-0.2,0.5,0.3,0.6,0.6,0.8
				c0.4,0.2,1,0.1,0.7,0.9c-0.3,0.7-0.7,1.1-1.4,1.2c-0.7,0.1-0.6-0.4-0.8-0.9c-0.3-1-0.9-1.8-1.9-2.1c-0.4-0.1-0.9-0.4-1.1,0.2
				c-0.2,0.4,0,0.8,0.5,1c0.2,0.1,0.4,0.4,0.7,0.5c0.7,0.5,1.1,1.2,0.7,2c-0.4,0.8-1.1,1.5-2.1,1.4c-0.9-0.1-1.6-0.8-1.7-1.7
				c-0.1-1.5-0.1-2.9,0-4.4c0-0.7,0.5-1.2,1.1-1.5c0.6-0.2,1.1-0.6,0.7-1.3c-0.4-0.6-0.9-0.1-1.3,0.1
				C101.4,38.9,101.3,38.9,101,39.1z M107.5,33.3c0-0.2,0.1-0.6-0.3-0.6c-0.3-0.1-0.9-0.2-1,0.2c-0.2,1-0.9,1.4-1.8,1.7
				c-0.4,0.1-0.3,0.6-0.3,0.9c0,0.4,0.3,0.4,0.6,0.4C105.9,35.9,107.4,34.5,107.5,33.3z M107.5,39.9c0.1-0.8-1.3-2.2-2.5-2.6
				c-0.3-0.1-0.7-0.3-0.8,0.1c-0.1,0.4-0.3,0.9,0.2,1.1c0.8,0.3,1.4,0.7,1.7,1.5c0.2,0.5,0.6,0.3,1,0.3
				C107.4,40.4,107.5,40.1,107.5,39.9z"/>
			<path id="XMLID_3334_" class="st4" d="M97.8,38.9c-0.4-0.1-0.6-0.1-0.9-0.2c-0.3-0.1-0.8-0.4-1,0.1c-0.2,0.4-0.1,0.9,0.5,1.1
				c1.2,0.4,1.3,1.4,1.4,2.4c0,1.2,0,2.4-0.1,3.6c0,1.1-0.7,1.6-1.7,1.8c-0.8,0.2-1.5-0.2-1.8-1c-0.4-1-0.2-1.8,0.6-2.5
				c0.2-0.2,0.4-0.3,0.6-0.4c0.6-0.2,0.6-0.6,0.4-1c-0.2-0.4-0.7-0.3-1-0.1c-1,0.4-1.9,0.9-2,2.2c-0.1,0.5-0.1,1-0.8,0.9
				c-0.8-0.1-1.2-0.7-1.5-1.3c-0.3-0.7,0.4-0.6,0.7-0.7c0.3-0.2,0.6-0.4,1-0.7c-0.6-0.4-1-0.8-1.8-0.4c-0.9,0.4-1.8,0-2.3-0.9
				c-0.3-0.6-0.7-1.5,0.5-2c0.4-0.2,0.4-0.9-0.3-1.3c-1.7-0.9-1.7-2.4-0.1-3.4c0.8-0.5,1.1-0.9,0-1.5c-0.6-0.3-0.4-1-0.2-1.5
				c0.3-0.8,1.1-1.2,1.9-1.2c0.3,0,0.6,0.2,0.9,0.3c0.5,0.1,0.9-0.2,1.1-0.5c0.3-0.5-0.4-0.5-0.6-0.7c-0.3-0.3-1.1-0.2-0.8-0.9
				c0.2-0.6,0.6-1.2,1.4-1.3c0.8,0,0.7,0.5,0.9,1c0.3,1,1,1.7,2,2c0.4,0.1,0.9,0.4,1.1-0.2c0.2-0.5-0.1-0.7-0.5-1
				c-1.3-0.8-1.7-1.7-1.1-2.8c0.4-0.6,0.8-1.1,1.7-1c0.9,0.1,1.6,0.5,1.7,1.4c0.4,1.8,0.2,3.6-0.1,5.4c-0.1,0.6-0.7,0.7-1.2,0.9
				c-0.5,0.2-0.6,0.6-0.5,1c0.1,0.6,0.5,0.4,0.9,0.2c0.8-0.3,1,0,1,0.8C97.8,36.4,97.8,37.6,97.8,38.9z M94,35.8
				c0.3,0.1,0.6-0.1,0.6-0.4c0.1-0.5,0-0.8-0.5-1c-0.7-0.2-1.2-0.5-1.3-1.3c-0.1-0.6-0.5-0.6-0.9-0.5c-0.6,0.1-0.5,0.6-0.4,1
				C91.5,34.6,93,35.9,94,35.8z M94,37.2c-0.9,0-2.5,1.4-2.6,2.3c0,0.3-0.2,0.7,0.3,0.8c0.3,0.1,0.8,0.2,0.9-0.1
				c0.3-0.9,1.1-1.3,1.8-1.8c0.2-0.1,0.2-0.6,0.2-0.9C94.5,37.2,94.2,37.1,94,37.2z"/>
			<path id="XMLID_3333_" class="st1" d="M107.5,33.3c-0.1,1.2-1.6,2.6-2.8,2.6c-0.3,0-0.6-0.1-0.6-0.4c0-0.3-0.1-0.7,0.3-0.9
				c0.9-0.3,1.6-0.7,1.8-1.7c0.1-0.4,0.6-0.3,1-0.2C107.6,32.7,107.5,33.1,107.5,33.3z"/>
			<path id="XMLID_3332_" class="st1" d="M107.5,39.9c0,0.3-0.1,0.5-0.4,0.5c-0.4,0-0.8,0.1-1-0.3c-0.3-0.8-0.9-1.3-1.7-1.5
				c-0.6-0.2-0.4-0.7-0.2-1.1c0.1-0.4,0.5-0.2,0.8-0.1C106.2,37.7,107.6,39.1,107.5,39.9z"/>
			<path id="XMLID_3331_" class="st1" d="M94,35.8c-1,0-2.5-1.2-2.6-2.2c-0.1-0.4-0.2-0.9,0.4-1c0.4-0.1,0.9-0.1,0.9,0.5
				c0.1,0.8,0.7,1.1,1.3,1.3c0.5,0.2,0.6,0.5,0.5,1C94.5,35.7,94.3,35.9,94,35.8z"/>
			<path id="XMLID_3330_" class="st1" d="M94,37.2c0.2,0,0.5,0,0.5,0.3c0,0.3,0,0.8-0.2,0.9c-0.8,0.5-1.5,0.8-1.8,1.8
				c-0.1,0.3-0.6,0.2-0.9,0.1c-0.4-0.1-0.3-0.5-0.3-0.8C91.5,38.5,93,37.2,94,37.2z"/>
		</g>
	</g>
	<line id="XMLID_2964_" class="st5" x1="-85.6" y1="-98.2" x2="-85.6" y2="-62.2"/>
	<line id="XMLID_2963_" class="st5" x1="-139.6" y1="-44.2" x2="-103.6" y2="-44.2"/>
	<line id="XMLID_2962_" class="st5" x1="-139.6" y1="191.8" x2="-103.6" y2="191.8"/>
	<line id="XMLID_2961_" class="st5" x1="-85.6" y1="245.8" x2="-85.6" y2="209.8"/>
	<line id="XMLID_2960_" class="st5" x1="278.7" y1="-98.2" x2="278.7" y2="-62.2"/>
	<line id="XMLID_2959_" class="st5" x1="332.7" y1="-44.2" x2="296.7" y2="-44.2"/>
	<line id="XMLID_2958_" class="st5" x1="332.7" y1="191.8" x2="296.7" y2="191.8"/>
	<line id="XMLID_2957_" class="st5" x1="278.7" y1="245.8" x2="278.7" y2="209.8"/>
</g>
</svg>
