<?xml version="1.0" encoding="utf-8"?>
<!-- Generator: Adobe Illustrator 19.0.0, SVG Export Plug-In . SVG Version: 6.00 Build 0)  -->
<svg version="1.1" id="Layer_1" xmlns="http://www.w3.org/2000/svg" xmlns:xlink="http://www.w3.org/1999/xlink" x="0px" y="0px"
	 viewBox="0 0 209.5 130.7" style="enable-background:new 0 0 209.5 130.7;" xml:space="preserve">
<style type="text/css">
	.st0{fill:#FEFEFE;}
	.st1{fill:#4E5A74;}
	.st2{fill:#A3AAB4;}
	.st3{fill:#666766;}
	.st4{fill:#F78E1E;}
</style>
<g id="XMLID_4_">
	<path id="XMLID_211_" class="st0" d="M32.3,124.4c-7.7,0-15.4,0-23.2,0c-0.7,0-0.9-0.1-0.9-0.9c0-37.5,0-75,0-112.6
		c0-0.9,0.3-0.9,1-0.9c33.5,0,67,0,100.6,0c-1.2,0.8-1.2,1-0.5,2.2c0.2,0.3,0.2,0.5,0.2,0.8c0,1.1-0.1,2.2,0,3.2
		c0,0.7-0.2,0.8-0.8,0.5c-2.1-1.1-4.2-2.2-6.3-3.3c-2.9-1.5-2.9-1.6-5.3,0.7c-0.1,0.1-0.2,0.2-0.3,0.3c-0.2,0.2-0.2,0.4,0,0.5
		c1.2,1.5,1.9,3.5,3.8,4.5c2.6,1.3,5.2,2.7,7.9,4c0.8,0.4,0.9,0.9,0.9,1.7c0,0.9-0.6,0.8-1.1,0.9c-3.8,1-7.5,2.1-11.3,3.2
		c-1.2,0.4-1.9,0.9-2.6,1.9c-1.6,2.4-1.6,2.3,0.4,4.3c0.5,0.5,1,0.6,1.7,0.4c2-0.7,4.1-1.3,6.2-1.9c2.2-0.7,4.5-1.3,6.8-2
		c0,0.5,0,0.8,0,1.1c0,7.2,0,14.5,0,21.7c0,8.8-0.1,17.7-0.1,26.5c0,2.4,0,2.4-2.3,2.9c-2.6,0.6-5.2,1.2-7.8,1.8
		c-0.2,0-0.4,0.2-0.5,0.3c-0.1,0.1-0.2,0.3-0.1,0.4c0,0.3,0.3,0.2,0.5,0.2c2.6-0.5,5.3-1,7.9-1.8c0.7-0.2,1.5-0.4,2.2-0.4
		c0.9-0.1,1.2-0.5,1.2-1.4c-0.2-3.3,0-6.6,0-10c0-10.7,0-21.4,0-32.2c0-3.7,0-7.4,0-11.2c0-0.9,0.2-0.9,0.9-0.6
		c2.3,1.1,4.6,2.3,6.8,3.5c2.9,1.6,2.9,1.6,4.8-1.1c0.2-0.2,0.4-0.5,0.3-0.7c-0.9-1.3-1.3-3.1-2.9-4c-3-1.6-6-3.2-9-4.7
		c-1.1-0.5-0.6-1.3-0.7-2c-0.1-0.8,0.6-0.7,1-0.8c3.8-1.1,7.7-2.1,11.5-3.2c0.5-0.1,1.1-0.2,1.5-0.7c0.7-0.9,1.4-1.7,2.2-2.5
		c0.5-0.5,0.5-0.9-0.1-1.4c-0.8-0.7-1.8-1.2-2.4-2.1c25.5,0,51,0,76.6,0c0.8,0,1,0.2,1,1c0,37.4,0,74.9,0,112.3c0,0.8-0.2,1-1,1
		c-49.8,0-99.5,0-149.3,0c-0.1-0.3,0.4-0.8-0.1-1c-0.3-0.1-0.5-0.1-0.8,0c-0.5,0.3-0.2,0.7-0.1,1c-5.9,0-11.8,0-17.8,0
		c0.1-0.3,0.8-0.4,0.5-0.9c-0.2-0.3-0.4-0.3-0.7-0.2c-0.3,0.1-0.5,0.3-0.4,0.7C32.1,124.1,32.2,124.2,32.3,124.4z M68.7,109.5
		c-0.1-0.6-0.3-1-1-0.8c-0.5,0.1-0.9,0.2-1.4,0.3c-0.2,0.1-0.4,0.2-0.4,0.4c0,0.3,0.3,0.3,0.6,0.3C67.3,109.7,68,109.6,68.7,109.5
		c-1,0.6-2.2,0.7-3.3,0.9c-2.7,0.7-5.4,1.3-8.1,2c-0.8,0.2-1.3,0.6-1,1.5c0.2,0.8,0.8,1,1.6,0.8c3.2-0.8,6.4-1.5,9.6-2.3
		c3.3-0.8,6.7-1.6,10-2.3c0.1,0.3,0,0.6-0.4,0.7c-1,0.2-2.1,0.5-3.1,0.7c-0.2,0-0.4,0.2-0.4,0.4c0,0.2,0.2,0.3,0.3,0.3
		c1.2-0.2,2.4,0,3.4-0.9c1.7,0.1,3.3-0.6,4.9-0.8c0.2,0,0.5-0.2,0.4-0.5c0-0.3-0.1-0.6-0.4-0.7c-0.3-0.1-0.5-0.1-0.8-0.1
		c0.2-0.1,0.3-0.3,0.5-0.3c5.8-1.2,11.5-3,17.3-4c3.4-0.6,6.7-1.5,10-2.3c7.8-1.8,15.7-3.5,23.6-5.2c10.3-2.3,20.5-4.6,30.8-6.9
		c7.1-1.6,14.1-3.2,21.2-4.8c3.7-0.8,7.4-1.7,11.1-2.5c0.3-0.1,0.6-0.3,1,0.1c1.2,1,1.3,1,2.4-0.1c0.4-0.4,0.9-0.8,1.3-1.3
		c0.8-0.8,0.5-1.7-0.6-2c-1.1-0.3-2.2-0.4-3.3-0.6c-0.6-0.1-1.2,0.2-1.3,0.7c-0.1,1.1-0.9,1.2-1.7,1.3c-11.1,2.3-22,5.1-33.1,7.4
		c-4.8,1-9.6,2.4-14.4,3.4c-8.7,1.9-17.4,3.8-26.1,5.8c-7.4,1.7-14.8,3.4-22.3,4.9c-5.9,1.2-11.6,2.8-17.4,4.2
		c-0.1-0.3-0.2-0.7-0.2-1c0-2.1,0-4.1,0-6.2c6.7-1.7,13.5-3.1,20.3-4.8c7.4-1.8,14.9-3.5,22.4-5.1c5.9-1.3,11.1-3.5,15.3-8.2
		c2.7-3.1,2.7-8.1,1-10.7c-1.9-2.9-3.7-5.8-5.5-8.7c-0.2-0.4-0.8-0.8,0.1-1c0.4-0.1,1.1-0.1,1-0.8c0-0.6-0.7-0.6-1.1-0.8
		c-0.1-0.1-0.3-0.1-0.4-0.2c-2.9-1-2-1.2-3.4,1.3c-0.2,0.4-0.5,0.8-0.2,1.2c0.4,0.4,0.8,0.1,1.2,0c0.5-0.1,1-0.3,1.4,0.3
		c2.2,3.2,4.4,6.5,6.2,10c1.2,2.3,1.3,5-0.2,7.2c-2.9,4.2-6.8,7.1-11.8,8.3c-11.6,2.7-23.1,5.5-34.7,8c-3.9,0.8-7.7,2.1-11.6,2.8
		c0.1-6.2,0.2-12.5,0.2-18.7c0-0.9,0.2-1.4,1.1-1.8c1.5-0.7,1.5-0.9,0.8-2.5c-0.8-1.9-1.9-3.6-2.1-5.8c-0.5-5.2-0.6-10.4-0.7-15.6
		c0-0.6,0-1.3-0.4-1.6c-1.1-0.7-1.3-2-2-2.9c-0.3-0.4-0.2-0.8,0-1.3c0.1-0.3,0.3-0.2,0.5-0.1c1,0.5,1.1-0.3,1.3-1
		c0.1-0.5-0.1-1.2,0.6-1.3c0.9-0.2,0.6-0.6,0.4-1.1c-0.9-1.7-0.4-3.5-0.4-5.2c0-0.8,0-1.1-0.6-1.4c-0.7-0.3-1.5-0.5-2.3-0.6
		c-1.8-0.1-3.5,0.1-4.6,1.7c-1.4,2.1-0.9,4.4-0.4,6.6c0,0.1,0.2,0.2,0.3,0.3c0.8,0.4,0.5,1.1,0.1,1.6c-1.1,1.3-2.1,2.5-2.5,4.3
		c-0.7,3.4-1.6,6.8-2.4,10.2c-0.2,0.8-0.2,1.4,0.3,2c1.8,2.5,2.2,5.4,2,8.4c-0.1,1.6-0.2,3.2-0.4,4.8c0,0.3-0.2,0.7,0.2,0.8
		c1.1,0.2,1,1.1,1,1.9c0.1,1.2,0.1,2.5,0.2,3.7c0.2,5.7,0.2,11.4-0.4,17c-0.2,0-0.5,0-0.7,0.1c-5.7,1.4-11.4,2.8-17,4.2
		c-2,0.5-4.1,1-6.1,1.5c-0.5,0.1-1.5,0-1.2,0.9c0.2,0.8,1,0.3,1.4,0.2c5.7-1.4,11.4-2.8,17.1-4.1c2.2-0.5,4.4-1.2,6.6-1.5
		c-0.2,2.2-0.1,4.5-0.8,6.7c1.3,0.2,2.5-0.6,3.7-0.5C71.5,109.2,70.2,109.4,68.7,109.5z M159.6,96.3c4.8-0.1,7.9,0.7,11.1,1.1
		c6.7,0.9,12.3,4.2,17.6,8.1c0.3,0.3,0.5,0.4,0,0.7c-0.4,0.2-1,0.3-0.8,0.9c0.2,0.6,0.8,0.4,1.2,0.5c0.3,0.1,0.6,0.1,0.9,0.2
		c2.3,0.2,2.3,0.2,2.5-2c0.1-0.9-0.3-1.3-1.1-0.8c-0.8,0.5-1.4,0.3-2-0.2c-1.4-1-2.9-2-4.3-3c-1.4-1-2.8-1.9-4.4-2.6
		c-6.9-2.9-14-4.1-21.5-3.9c-3.8,0.1-7.6,0.6-11.3,1.3c-7.8,1.6-15.5,3.4-23.2,5.1c-8,1.8-16,3.5-23.9,5.3
		c-12.3,2.7-24.5,5.8-36.8,8.7c-4.5,1.1-8.9,2.1-13.4,3.2c-0.4,0.1-1,0.1-0.9,0.7c0.1,0.7,0.8,0.3,1.2,0.4c0.1,0,0.2-0.1,0.3-0.1
		c9.2-2.2,18.4-4.4,27.6-6.5c8.2-1.9,16.3-4.1,24.6-5.7c3.6-0.7,7.1-1.7,10.7-2.4c11-2.3,22-5.1,33-7.3
		C151.6,97,156.3,96.5,159.6,96.3z M144.5,103.8c3.5-0.1,6.7,0.3,9.9,1c4.3,1,7.7,3.2,10,7c1.4,2.2,2.9,4.4,4.4,6.6
		c0.4,0.6,0.6,1-0.4,1.1c-0.4,0.1-1.2,0.4-0.6,0.9c0.9,0.8,2.2,1,3.4,1.1c0.7,0.1,0.9-0.9,1.3-1.5c0.2-0.3,0.6-0.6,0.3-1.1
		c-0.3-0.5-0.8-0.3-1.2-0.2c-0.8,0.3-1.2,0-1.6-0.6c-1.8-2.7-3.6-5.3-5.4-8c-1.6-2.4-3.7-4-6.3-5.2c-4.1-1.9-8.6-2.2-13-2.3
		c-4.5-0.2-8.9,0.9-13.4,1.8c-8.9,1.9-17.7,3.9-26.5,5.9c-11.4,2.6-22.8,5.4-34.2,8.1c-1.6,0.4-3.2,0.8-4.8,1.2
		c-0.3,0.1-0.7,0.2-0.6,0.6c0.1,0.5,0.5,0.4,0.8,0.4c0.2,0,0.3-0.1,0.5-0.1c13.2-3.2,26.4-6.5,39.7-9.4c8.2-1.8,16.3-3.7,24.5-5.4
		C135.8,104.8,140.2,103.5,144.5,103.8z M76.9,28.7c0-0.5-0.1-0.9-0.3-1.3c-0.4-0.7-1.1-0.8-1.7-0.8c-0.5,0-1.1,0.2-1.4,0.8
		c-0.2,0.3-0.3,0.7,0.1,1c0.3,0.2,0.5,0,0.7-0.3c0.3-0.5,0.6-0.7,1.1-0.4c0.5,0.3,0.7,0.7,0.5,1.3c-0.2,0.6-0.5,1.1-0.9,1.5
		c-0.4,0.5-0.6,1-0.6,1.6c0,0.3,0,0.7,0.4,0.8c0.4,0.1,0.5-0.3,0.6-0.6c0.1-0.8,0.5-1.3,1-1.9C76.7,29.9,76.8,29.3,76.9,28.7z
		 M74.9,35.5c0.4-0.1,0.7-0.4,0.7-0.8c0-0.4-0.3-0.6-0.7-0.6c-0.4,0-0.7,0.3-0.7,0.7C74.3,35.2,74.5,35.5,74.9,35.5z M19.2,114.5
		c0.4,0,0.7-0.1,0.8-0.6c0-0.4-0.3-0.6-0.6-0.6c-0.4,0-0.6,0.2-0.7,0.5C18.6,114.3,18.8,114.5,19.2,114.5z M41.8,108.5
		c-0.1-0.3-0.3-0.5-0.7-0.4c-0.4,0-0.7,0.2-0.6,0.7c0.1,0.4,0.4,0.5,0.7,0.4C41.5,109.2,41.8,109,41.8,108.5z M39.6,109.1
		c-0.1-0.3-0.3-0.5-0.7-0.5c-0.4,0-0.7,0.2-0.6,0.7c0.1,0.4,0.4,0.5,0.7,0.4C39.4,109.7,39.6,109.5,39.6,109.1z M60.5,121.6
		c-0.1-0.4-0.3-0.5-0.7-0.5c-0.4,0-0.6,0.2-0.6,0.6c0,0.4,0.3,0.5,0.6,0.5C60.2,122.2,60.5,122,60.5,121.6z M53.1,123.8
		c0.3-0.1,0.7-0.2,0.7-0.5c0-0.4-0.3-0.5-0.7-0.5c-0.4,0-0.6,0.2-0.6,0.6C52.5,123.7,52.8,123.8,53.1,123.8z M39.9,122.2
		c0-0.3-0.2-0.5-0.5-0.6c-0.4,0-0.7,0.1-0.8,0.5c0,0.4,0.2,0.6,0.6,0.6C39.5,122.7,39.8,122.5,39.9,122.2z M42,121.7
		c0-0.4-0.2-0.6-0.6-0.6c-0.4,0-0.6,0.2-0.7,0.5c-0.1,0.3,0.1,0.5,0.4,0.6C41.6,122.2,41.9,122.1,42,121.7z M22.1,113.4
		c-0.1-0.4-0.3-0.5-0.7-0.5c-0.4,0-0.6,0.2-0.6,0.6c0,0.4,0.3,0.6,0.7,0.5C21.8,113.9,22.1,113.8,22.1,113.4z M24.3,112.9
		c-0.1-0.4-0.3-0.5-0.7-0.5c-0.4,0-0.6,0.2-0.6,0.6c0,0.3,0.2,0.5,0.5,0.5C23.8,113.5,24.2,113.4,24.3,112.9z M28.6,111.8
		c-0.1-0.3-0.3-0.5-0.7-0.5c-0.3,0.1-0.6,0.3-0.6,0.6c0,0.4,0.3,0.5,0.7,0.5C28.4,112.3,28.6,112.1,28.6,111.8z M43.3,107.6
		c-0.4,0-0.6,0.2-0.7,0.5c0,0.3,0.2,0.5,0.5,0.5c0.4,0,0.7-0.2,0.7-0.6C43.9,107.7,43.6,107.6,43.3,107.6z M53.1,115.2
		c0.3-0.1,0.7-0.3,0.6-0.7c0-0.3-0.3-0.4-0.6-0.4c-0.3,0-0.6,0.2-0.6,0.6C52.4,115,52.7,115.2,53.1,115.2z M37.1,122.1
		c-0.3,0.1-0.6,0.2-0.7,0.6c0,0.4,0.3,0.5,0.7,0.5c0.4,0,0.6-0.2,0.6-0.6C37.7,122.2,37.4,122.1,37.1,122.1z M51.6,115.1
		c0-0.3-0.3-0.5-0.6-0.5c-0.4,0-0.7,0.2-0.7,0.6c0,0.3,0.2,0.5,0.5,0.5C51.2,115.7,51.5,115.5,51.6,115.1z M35.1,110.2
		c0-0.4-0.3-0.5-0.6-0.5c-0.4,0-0.6,0.1-0.6,0.6c0,0.4,0.3,0.6,0.6,0.5C34.9,110.8,35.1,110.6,35.1,110.2z M33,110.8
		c0-0.3-0.2-0.5-0.5-0.5c-0.4,0-0.6,0.1-0.7,0.5c0,0.3,0.1,0.6,0.4,0.6C32.6,111.4,32.9,111.2,33,110.8z M26.4,112.3
		c-0.1-0.4-0.4-0.4-0.7-0.4c-0.3,0-0.6,0.2-0.5,0.6c0.1,0.3,0.3,0.5,0.7,0.5C26.2,112.9,26.4,112.7,26.4,112.3z M17.1,114
		c-0.3,0.1-0.6,0.2-0.6,0.6c0,0.4,0.3,0.5,0.6,0.5c0.4,0,0.6-0.2,0.5-0.6C17.6,114.1,17.4,114,17.1,114z M38.5,118.3
		c0-0.3-0.1-0.5-0.5-0.6c-0.3,0-0.6,0.1-0.7,0.5c-0.1,0.4,0.2,0.6,0.5,0.6C38.2,118.8,38.5,118.6,38.5,118.3z M30.2,110.8
		c-0.3,0.1-0.6,0.2-0.6,0.6c0,0.3,0.2,0.5,0.5,0.5c0.4,0,0.7-0.2,0.7-0.6C30.8,110.9,30.5,110.8,30.2,110.8z M25,120.8
		c-0.3,0-0.6,0.2-0.6,0.6c0,0.3,0.2,0.5,0.5,0.5c0.4,0,0.6-0.2,0.6-0.6C25.6,121,25.4,120.8,25,120.8z M62.7,121.1
		c0-0.4-0.2-0.5-0.5-0.5c-0.3,0-0.7,0.2-0.7,0.5c0,0.3,0.2,0.5,0.5,0.5C62.3,121.6,62.6,121.5,62.7,121.1z M45.8,120.1
		c-0.4,0-0.6,0.2-0.6,0.6c0,0.3,0.2,0.5,0.5,0.5c0.3-0.1,0.6-0.2,0.6-0.6C46.4,120.2,46.1,120.1,45.8,120.1z M34.8,122.7
		c-0.3,0-0.6,0.1-0.6,0.4c0,0.4,0.3,0.5,0.6,0.5c0.3,0,0.6-0.1,0.6-0.5C35.5,122.8,35.2,122.7,34.8,122.7z M37.3,109.6
		c-0.1-0.3-0.3-0.5-0.6-0.5c-0.3,0.1-0.6,0.2-0.6,0.6c0,0.4,0.3,0.5,0.6,0.4C37,110.2,37.3,110,37.3,109.6z M48.7,115.1
		c-0.3,0.1-0.6,0.2-0.6,0.6c0,0.3,0.3,0.5,0.6,0.5c0.3,0,0.6-0.2,0.6-0.6C49.3,115.3,49,115.1,48.7,115.1z M44.2,121
		c0-0.3-0.3-0.5-0.6-0.4c-0.3,0-0.6,0.2-0.6,0.6c0,0.3,0.2,0.5,0.5,0.5C43.9,121.6,44.2,121.4,44.2,121z M27.7,120.8
		c0-0.3-0.2-0.5-0.5-0.5c-0.3,0-0.6,0.1-0.7,0.5c-0.1,0.4,0.2,0.6,0.5,0.6C27.4,121.4,27.6,121.2,27.7,120.8z M36.3,118.8
		c0-0.3-0.2-0.5-0.5-0.6c-0.4,0-0.7,0.1-0.7,0.6c0,0.3,0.2,0.5,0.5,0.5C36,119.3,36.3,119.1,36.3,118.8z M40.7,117.6
		c0-0.3-0.2-0.5-0.6-0.5c-0.3,0-0.6,0.2-0.6,0.6c0,0.4,0.2,0.6,0.6,0.5C40.4,118.2,40.7,118.1,40.7,117.6z M29.9,120.3
		c0-0.4-0.2-0.5-0.6-0.5c-0.3,0-0.6,0.1-0.6,0.5c0,0.3,0.2,0.5,0.5,0.5C29.6,120.8,29.8,120.7,29.9,120.3z M34.2,119.2
		c-0.1-0.2-0.2-0.5-0.6-0.4c-0.3,0-0.7,0.2-0.6,0.6c0,0.3,0.3,0.5,0.6,0.5C33.9,119.8,34.2,119.6,34.2,119.2z M15.6,115
		c-0.1-0.3-0.3-0.4-0.6-0.4c-0.4,0-0.6,0.2-0.6,0.6c0,0.3,0.3,0.4,0.6,0.4C15.3,115.5,15.5,115.4,15.6,115z M56,122.7
		c0-0.3-0.3-0.4-0.6-0.4c-0.3,0-0.5,0.1-0.5,0.5c0,0.4,0.3,0.5,0.6,0.5C55.8,123.2,56,123,56,122.7z M64.8,120.6
		c-0.1-0.2-0.2-0.5-0.5-0.4c-0.3,0-0.5,0.2-0.5,0.5c0,0.3,0.3,0.5,0.5,0.5C64.6,121.1,64.8,121,64.8,120.6z M32,119.8
		c0-0.4-0.2-0.5-0.6-0.5c-0.3,0-0.6,0.1-0.6,0.5c0,0.3,0.2,0.5,0.5,0.5C31.7,120.3,32,120.2,32,119.8z M46.6,116.7
		c0.3-0.1,0.6-0.2,0.6-0.6c0-0.3-0.2-0.5-0.6-0.5c-0.3,0.1-0.6,0.2-0.6,0.6C46,116.6,46.3,116.7,46.6,116.7z M42.8,117.2
		c0-0.4-0.2-0.5-0.5-0.5c-0.3,0-0.6,0.2-0.6,0.5c0,0.3,0.2,0.5,0.5,0.5C42.5,117.7,42.8,117.6,42.8,117.2z M57.7,121.8
		c-0.3,0-0.6,0.1-0.6,0.4c0,0.4,0.2,0.5,0.5,0.5c0.3,0,0.5-0.1,0.5-0.5C58.1,121.9,58,121.8,57.7,121.8z M55.1,113.6
		c-0.2,0.1-0.5,0.2-0.5,0.6c0,0.4,0.3,0.4,0.6,0.4c0.3,0,0.6-0.1,0.5-0.5C55.7,113.7,55.5,113.6,55.1,113.6z M45,116.7
		c0-0.4-0.2-0.5-0.6-0.5c-0.3,0-0.6,0.1-0.6,0.5c0,0.4,0.3,0.5,0.6,0.5C44.8,117.2,45,117,45,116.7z M47.9,119.6
		c-0.2,0.1-0.5,0.2-0.4,0.5c0,0.3,0.3,0.4,0.5,0.4c0.3,0,0.6-0.2,0.5-0.5C48.4,119.7,48.2,119.6,47.9,119.6z"/>
	<path id="XMLID_205_" class="st1" d="M107.2,84.6c2.3-0.5,2.3-0.5,2.3-2.9c0-8.8,0.1-17.7,0.1-26.5c0-7.2,0-14.5,0-21.7
		c0-0.3,0-0.6,0-1.1c-2.3,0.7-4.6,1.3-6.8,2c-2.1,0.6-4.1,1.2-6.2,1.9c-0.7,0.2-1.2,0.1-1.7-0.4c-2-2-2-2-0.4-4.3
		c0.6-1,1.4-1.6,2.6-1.9c3.7-1.1,7.5-2.2,11.3-3.2c0.5-0.1,1.1-0.1,1.1-0.9c0-0.8-0.1-1.3-0.9-1.7c-2.7-1.3-5.3-2.7-7.9-4
		c-1.9-1-2.6-3-3.8-4.5c-0.1-0.2-0.1-0.4,0-0.5c0.1-0.1,0.2-0.2,0.3-0.3c2.4-2.3,2.4-2.2,5.3-0.7c2.1,1.1,4.2,2.2,6.3,3.3
		c0.6,0.3,0.8,0.3,0.8-0.5c0-1.1,0-2.2,0-3.2c0-0.3,0-0.5-0.2-0.8c-0.8-1.2-0.7-1.4,0.5-2.2c0.2,0,0.3,0,0.5,0
		c0.6,0.5,1.3,1.1,0.7,1.9c-0.5,0.6-0.5,1.2-0.3,1.9c4.4-0.9,8.6-2.5,12.9-3.7c0.2,0,0.5,0,0.7,0c0.7,0.9,1.6,1.4,2.4,2.1
		c0.6,0.5,0.6,0.8,0.1,1.4c-0.8,0.8-1.5,1.7-2.2,2.5c-0.4,0.5-0.9,0.6-1.5,0.7c-3.8,1.1-7.7,2.1-11.5,3.2c-0.4,0.1-1.1,0-1,0.8
		c0.1,0.7-0.3,1.5,0.7,2c3.1,1.5,6,3.1,9,4.7c1.6,0.8,2,2.6,2.9,4c0.2,0.3-0.1,0.5-0.3,0.7c-1.9,2.8-1.9,2.8-4.8,1.1
		c-2.2-1.3-4.5-2.4-6.8-3.5c-0.7-0.4-0.9-0.3-0.9,0.6c0,3.7,0,7.4,0,11.2c0,10.7,0,21.4,0,32.2c0,3.3-0.2,6.6,0,10
		c0,0.9-0.3,1.3-1.2,1.4c-0.7,0.1-1.5,0.3-2.2,0.4C107.1,85.2,107.2,84.9,107.2,84.6z M109.3,30.2c0-0.5-0.1-1.4,0-2.2
		c0.1-0.9-0.3-1-1-0.7c-3.4,1-6.7,2-10.1,2.9c-1.6,0.4-2.8,1.1-3.5,2.6c-0.2,0.4-0.9,0.7-0.3,1.2c0.6,0.4,0.8,1.6,1.9,1.2
		c4.1-1.2,8.3-2.5,12.4-3.7C109.3,31.3,109.6,31.1,109.3,30.2z M110.5,17.1c0,0.3,0,0.6,0,1c-0.2,1.1,0.3,1.2,1.2,0.9
		c3.4-1,6.8-2,10.3-2.8c1.8-0.4,2.6-1.8,3.7-2.9c0.1-0.1,0.2-0.2,0.1-0.4c-0.3-0.7-2.2-1.6-3-1.4c-3.4,0.9-6.7,2.2-10.1,3
		C110.5,14.9,110.5,15,110.5,17.1z M110.5,23.6c-0.2,1.3-0.1,2.5-0.2,3.7c0,0.7,0.2,1.1,0.9,1.5c2.9,1.4,5.8,2.8,8.6,4.5
		c0.3,0.2,0.7,0.6,1,0.1c0.4-0.6,1.4-1.1,1.1-1.8c-0.4-1-0.9-2.3-1.9-2.8C117,26.8,113.8,25.2,110.5,23.6z M109.5,23.1
		c0-1.4,0-2.6,0-3.8c0-0.7-0.2-1-0.8-1.3c-2.7-1.4-5.3-2.8-8-4.1c-0.8-0.4-2.5,0.2-2.8,1.1c0,0.1,0,0.2,0,0.3
		c0.9,1.1,1.4,2.5,2.7,3.3C103.4,20.2,106.4,21.5,109.5,23.1z"/>
	<path id="XMLID_204_" class="st0" d="M123.5,10.2c-4.3,1.2-8.4,2.8-12.9,3.7c-0.1-0.7-0.2-1.2,0.3-1.9c0.6-0.8,0-1.4-0.7-1.9
		C114.7,10.2,119.1,10.2,123.5,10.2z"/>
	<path id="XMLID_203_" class="st2" d="M50.5,124.4c-0.1-0.4-0.4-0.7,0.1-1c0.2-0.2,0.5-0.2,0.8,0c0.5,0.3,0,0.7,0.1,1
		C51.1,124.4,50.8,124.4,50.5,124.4z"/>
	<path id="XMLID_202_" class="st2" d="M32.3,124.4c-0.1-0.1-0.1-0.3-0.2-0.4c-0.1-0.4,0.1-0.6,0.4-0.7c0.3-0.1,0.6-0.1,0.7,0.2
		c0.3,0.6-0.4,0.6-0.5,0.9C32.6,124.4,32.4,124.4,32.3,124.4z"/>
	<path id="XMLID_197_" class="st3" d="M80.3,99.7c0,2.1,0,4.1,0,6.2c0,0.3,0.2,0.7,0.2,1c0.2,0.8-0.7,2.1,1,2.3
		c0.3,0,0.6,0.1,0.8,0.1c0.3,0.1,0.4,0.4,0.4,0.7c0,0.3-0.2,0.4-0.4,0.5c-1.6,0.3-3.2,0.9-4.9,0.8c-0.4,0-0.5-0.2-0.2-0.5
		c0.4-0.1,0.5-0.4,0.4-0.7c0.1-0.8,0-1.6-0.2-2.4c-0.2-2.3-0.5-4.6-0.7-7c0-0.4,0-0.8-0.1-1.3c-0.4-3.4-0.8-6.8-1.2-10.3
		c-0.1,0-0.1,0-0.2,0c-0.5,3.7-1.1,7.3-1.6,11c0,0.3,0,0.7,0,1c-0.3,1.5-0.5,3-0.7,4.4c-0.1,0.9-0.1,1.5,1,1.3
		c0.5-0.1,0.7,0.3,0.8,0.7c0,0.5-0.5,0.4-0.8,0.5c-0.4,0.2-0.8,0-1.1,0.4l0,0c-1.3-0.1-2.4,0.7-3.7,0.5c0.7-2.2,0.6-4.5,0.8-6.7
		c0-0.4,0-0.8,0-1.2c0.5-5.7,0.6-11.3,0.4-17c0-1.2-0.1-2.5-0.2-3.7c-0.1-0.8,0.1-1.6-1-1.9c-0.4-0.1-0.3-0.5-0.2-0.8
		c0.2-1.6,0.3-3.2,0.4-4.8c0.2-3-0.2-5.9-2-8.4c-0.5-0.6-0.5-1.3-0.3-2c0.9-3.4,1.7-6.8,2.4-10.2c0.4-1.7,1.4-3,2.5-4.3
		c0.3-0.4,0.7-1.1-0.1-1.6c-0.1-0.1-0.3-0.2-0.3-0.3c-0.5-2.2-1.1-4.5,0.4-6.6c1.1-1.6,2.8-1.9,4.6-1.7c0.8,0.1,1.6,0.2,2.3,0.6
		c0.6,0.3,0.6,0.6,0.6,1.4c0,1.7-0.4,3.6,0.4,5.2c0.3,0.5,0.6,0.9-0.4,1.1c-0.6,0.1-0.5,0.8-0.6,1.3c-0.2,0.7-0.2,1.4-1.3,1
		c-0.2-0.1-0.4-0.2-0.5,0.1c-0.1,0.4-0.3,0.9,0,1.3c0.8,0.9,0.9,2.2,2,2.9c0.5,0.3,0.4,1,0.4,1.6c0.1,5.2,0.2,10.4,0.7,15.6
		c0.2,2.2,1.4,3.9,2.1,5.8c0.7,1.6,0.7,1.8-0.8,2.5c-0.9,0.4-1.1,0.9-1.1,1.8c0,6.2-0.2,12.5-0.2,18.7
		C80.2,98.9,80.2,99.3,80.3,99.7z M76.1,49.1c0-0.6,0.5-1.3-0.3-1.8c-0.2-0.2-0.4-0.4-0.1-0.7c0.3-0.3,0.5,0,0.7,0.2
		c0.3,0.2,0.7,0.4,1,0.6c0.2,0.1,0.5,0.3,0.6-0.1c0.2-0.8,0.8-1.8,0.7-2.3c-0.2-1.2-0.1-2.5-0.2-3.7c0-0.7-0.3-0.7-0.8-0.3
		c-0.9,0.7-1.1,1.7-0.9,2.8c0,0.3,0.2,0.7-0.2,0.9c-0.3,0.2-0.5-0.1-0.7-0.3c-0.7-0.6-1-0.3-1.1,0.5c0,0.2-0.1,0.5-0.1,0.7
		c0,0.6-0.1,1-0.9,0.7c-0.7-0.3-0.9,0.1-0.9,0.8c-0.1,0.9,0.1,1.3,1,1.4C74.7,48.6,75.4,48.9,76.1,49.1z M76.8,50.7
		c-1.3-1.2-2.9-1.5-4.5-1.8c-0.2,0-0.4,0.1-0.4,0.3c0,0.4,0.3,0.3,0.5,0.3C73.9,49.7,75.4,50.1,76.8,50.7z M82,76.6
		c-0.1-0.2-0.2-0.6-0.4-0.5c-0.4,0.1-0.7,0.5-0.8,0.9c-0.1,0.2,0.2,0.4,0.4,0.4C81.5,77.1,81.9,77.1,82,76.6z"/>
	<path id="XMLID_196_" class="st4" d="M81.5,109.1c-1.6-0.2-0.8-1.5-1-2.3c5.8-1.4,11.6-3,17.4-4.2c7.5-1.5,14.9-3.3,22.3-4.9
		c8.7-2,17.4-3.9,26.1-5.8c4.8-1,9.6-2.4,14.4-3.4c11.1-2.3,22.1-5.1,33.1-7.4c0.8-0.2,1.6-0.2,1.7-1.3c0-0.5,0.7-0.8,1.3-0.7
		c1.1,0.2,2.2,0.4,3.3,0.6c1.1,0.3,1.3,1.1,0.6,2c-0.4,0.4-0.8,0.9-1.3,1.3c-1.1,1.1-1.2,1.1-2.4,0.1c-0.4-0.3-0.7-0.1-1-0.1
		c-3.7,0.8-7.4,1.7-11.1,2.5c-7.1,1.6-14.1,3.2-21.2,4.8c-10.3,2.3-20.5,4.6-30.8,6.9c-7.9,1.8-15.7,3.4-23.6,5.2
		c-3.3,0.8-6.6,1.7-10,2.3c-5.9,1-11.5,2.8-17.3,4C81.8,108.9,81.7,109,81.5,109.1z"/>
	<path id="XMLID_195_" class="st2" d="M159.6,96.3c-3.3,0.1-8.1,0.7-12.8,1.6c-11.1,2.2-22,5-33,7.3c-3.6,0.7-7.1,1.7-10.7,2.4
		c-8.3,1.6-16.4,3.8-24.6,5.7c-9.2,2.1-18.4,4.4-27.6,6.5c-0.1,0-0.2,0.1-0.3,0.1c-0.4,0-1.1,0.3-1.2-0.4c-0.1-0.6,0.6-0.6,0.9-0.7
		c4.5-1.1,8.9-2.1,13.4-3.2c12.3-2.9,24.5-6,36.8-8.7c8-1.7,16-3.5,23.9-5.3c7.7-1.7,15.5-3.5,23.2-5.1c3.7-0.8,7.5-1.2,11.3-1.3
		c7.4-0.3,14.6,1,21.5,3.9c1.6,0.7,3.1,1.6,4.4,2.6c1.4,1.1,2.9,2,4.3,3c0.7,0.5,1.2,0.7,2,0.2c0.8-0.5,1.2-0.2,1.1,0.8
		c-0.2,2.3-0.2,2.3-2.5,2c-0.3,0-0.6-0.1-0.9-0.2c-0.4-0.1-1.1,0.1-1.2-0.5c-0.2-0.6,0.5-0.7,0.8-0.9c0.4-0.3,0.3-0.4,0-0.7
		c-5.3-4-10.9-7.3-17.6-8.1C167.6,97,164.4,96.2,159.6,96.3z"/>
	<path id="XMLID_194_" class="st2" d="M144.5,103.8c-4.3-0.2-8.7,1-13.1,1.9c-8.2,1.6-16.4,3.6-24.5,5.4c-13.3,3-26.5,6.3-39.7,9.4
		c-0.2,0-0.3,0.1-0.5,0.1c-0.4,0-0.8,0.1-0.8-0.4c-0.1-0.4,0.3-0.5,0.6-0.6c1.6-0.4,3.2-0.8,4.8-1.2c11.4-2.7,22.8-5.5,34.2-8.1
		c8.8-2,17.7-4,26.5-5.9c4.4-0.9,8.8-2,13.4-1.8c4.4,0.2,8.9,0.5,13,2.3c2.5,1.2,4.7,2.8,6.3,5.2c1.8,2.7,3.6,5.3,5.4,8
		c0.4,0.6,0.8,0.9,1.6,0.6c0.4-0.1,0.9-0.3,1.2,0.2c0.3,0.4-0.1,0.8-0.3,1.1c-0.4,0.5-0.5,1.5-1.3,1.5c-1.2-0.1-2.4-0.3-3.4-1.1
		c-0.6-0.5,0.1-0.8,0.6-0.9c1-0.1,0.8-0.5,0.4-1.1c-1.5-2.2-3-4.3-4.4-6.6c-2.4-3.8-5.7-6-10-7C151.2,104,148,103.7,144.5,103.8z"/>
	<path id="XMLID_193_" class="st2" d="M80.3,99.7c0-0.4,0-0.8,0-1.2c3.9-0.7,7.7-2,11.6-2.8c11.6-2.5,23.1-5.3,34.7-8
		c5-1.2,8.9-4.1,11.8-8.3c1.5-2.2,1.4-4.9,0.2-7.2c-1.8-3.5-4-6.7-6.2-10c-0.4-0.6-0.8-0.4-1.4-0.3c-0.4,0.1-0.9,0.4-1.2,0
		c-0.4-0.4,0-0.8,0.2-1.2c1.3-2.5,0.5-2.3,3.4-1.3c0.2,0.1,0.3,0.1,0.4,0.2c0.4,0.2,1,0.2,1.1,0.8c0.1,0.7-0.6,0.6-1,0.8
		c-0.9,0.3-0.4,0.6-0.1,1c1.8,2.9,3.6,5.8,5.5,8.7c1.7,2.6,1.7,7.6-1,10.7c-4.2,4.7-9.4,6.9-15.3,8.2c-7.5,1.6-14.9,3.3-22.4,5.1
		C93.8,96.5,87,98,80.3,99.7z"/>
	<path id="XMLID_192_" class="st4" d="M77.4,107.6c0.1,0.8,0.3,1.6,0.2,2.4c-3.3,0.8-6.7,1.5-10,2.3c-3.2,0.8-6.4,1.5-9.6,2.3
		c-0.8,0.2-1.4,0-1.6-0.8c-0.2-0.8,0.3-1.3,1-1.5c2.7-0.7,5.4-1.3,8.1-2c1.1-0.3,2.3-0.3,3.3-1l0,0c1.4-0.1,2.8-0.3,4.1-1
		c0,0,0,0,0,0C74.4,108.6,75.8,107.9,77.4,107.6z"/>
	<path id="XMLID_191_" class="st2" d="M69.9,101.1c0,0.4,0,0.8,0,1.2c-2.3,0.3-4.4,1-6.6,1.5c-5.7,1.4-11.4,2.8-17.1,4.1
		c-0.5,0.1-1.2,0.6-1.4-0.2c-0.2-0.9,0.7-0.8,1.2-0.9c2-0.5,4.1-1,6.1-1.5c5.7-1.4,11.4-2.8,17-4.2
		C69.4,101.1,69.7,101.1,69.9,101.1z"/>
	<path id="XMLID_190_" class="st4" d="M76.9,28.7c-0.1,0.6-0.2,1.3-0.7,1.7c-0.5,0.5-0.9,1.1-1,1.9c0,0.3-0.2,0.7-0.6,0.6
		c-0.4-0.1-0.4-0.4-0.4-0.8c0-0.6,0.2-1.2,0.6-1.6c0.4-0.5,0.7-0.9,0.9-1.5c0.2-0.6,0-1-0.5-1.3c-0.5-0.4-0.9-0.1-1.1,0.4
		c-0.1,0.3-0.4,0.5-0.7,0.3c-0.4-0.3-0.3-0.6-0.1-1c0.3-0.6,0.8-0.8,1.4-0.8c0.7,0,1.4,0.2,1.7,0.8C76.8,27.8,76.9,28.2,76.9,28.7z"
		/>
	<path id="XMLID_189_" class="st2" d="M107.2,84.6c0,0.3,0,0.6,0,0.9c-2.6,0.8-5.2,1.3-7.9,1.8c-0.2,0-0.4,0.1-0.5-0.2
		c0-0.1,0-0.3,0.1-0.4c0.1-0.1,0.3-0.3,0.5-0.3C102,85.8,104.6,85.2,107.2,84.6z"/>
	<path id="XMLID_188_" class="st2" d="M77.2,110.7c-0.2,0.3-0.1,0.5,0.2,0.5c-1,0.9-2.2,0.7-3.4,0.9c-0.2,0-0.3-0.1-0.3-0.3
		c0-0.2,0.2-0.3,0.4-0.4C75.1,111.2,76.1,111,77.2,110.7z"/>
	<path id="XMLID_187_" class="st2" d="M68.7,109.5c-0.7,0.1-1.5,0.2-2.2,0.2c-0.2,0-0.5,0.1-0.6-0.3c0-0.2,0.2-0.3,0.4-0.4
		c0.5-0.1,0.9-0.2,1.4-0.3C68.4,108.5,68.7,108.9,68.7,109.5C68.7,109.5,68.7,109.5,68.7,109.5z"/>
	<path id="XMLID_186_" class="st4" d="M74.9,35.5c-0.4,0-0.7-0.3-0.7-0.7c0-0.4,0.2-0.7,0.7-0.7c0.4,0,0.7,0.2,0.7,0.6
		C75.7,35.2,75.3,35.4,74.9,35.5z"/>
	<path id="XMLID_185_" class="st2" d="M19.2,114.5c-0.4,0-0.6-0.2-0.5-0.6c0.1-0.4,0.3-0.5,0.7-0.5c0.4,0,0.6,0.2,0.6,0.6
		C19.9,114.4,19.6,114.5,19.2,114.5z"/>
	<path id="XMLID_184_" class="st2" d="M41.8,108.5c0,0.5-0.2,0.6-0.6,0.7c-0.3,0.1-0.7-0.1-0.7-0.4c-0.1-0.4,0.2-0.6,0.6-0.7
		C41.5,108.1,41.7,108.3,41.8,108.5z"/>
	<path id="XMLID_183_" class="st2" d="M39.6,109.1c0,0.4-0.3,0.6-0.6,0.6c-0.3,0-0.7-0.1-0.7-0.4c-0.1-0.4,0.2-0.6,0.6-0.7
		C39.3,108.6,39.5,108.8,39.6,109.1z"/>
	<path id="XMLID_182_" class="st2" d="M60.5,121.6c-0.1,0.4-0.3,0.5-0.6,0.6c-0.4,0-0.6-0.2-0.6-0.5c0-0.4,0.3-0.5,0.6-0.6
		C60.2,121.1,60.4,121.3,60.5,121.6z"/>
	<path id="XMLID_181_" class="st2" d="M53.1,123.8c-0.3,0-0.6-0.2-0.6-0.5c0-0.4,0.3-0.6,0.6-0.6c0.4,0,0.7,0.1,0.7,0.5
		C53.8,123.7,53.4,123.7,53.1,123.8z"/>
	<path id="XMLID_180_" class="st2" d="M39.9,122.2c-0.1,0.4-0.3,0.5-0.7,0.5c-0.4,0-0.6-0.2-0.6-0.6c0.1-0.4,0.4-0.5,0.8-0.5
		C39.7,121.6,39.9,121.8,39.9,122.2z"/>
	<path id="XMLID_179_" class="st2" d="M42,121.7c-0.1,0.4-0.4,0.6-0.8,0.5c-0.3,0-0.5-0.2-0.4-0.6c0.1-0.3,0.3-0.6,0.7-0.5
		C41.8,121.1,42,121.3,42,121.7z"/>
	<path id="XMLID_178_" class="st2" d="M22.1,113.4c0,0.4-0.4,0.5-0.7,0.6c-0.4,0.1-0.6-0.1-0.7-0.5c0-0.4,0.3-0.6,0.6-0.6
		C21.8,112.9,22,113,22.1,113.4z"/>
	<path id="XMLID_177_" class="st2" d="M24.3,112.9c-0.1,0.5-0.4,0.6-0.8,0.6c-0.3,0-0.5-0.2-0.5-0.5c0-0.4,0.3-0.5,0.6-0.6
		C24,112.4,24.2,112.5,24.3,112.9z"/>
	<path id="XMLID_176_" class="st2" d="M28.6,111.8c0,0.4-0.2,0.6-0.6,0.6c-0.3,0-0.7-0.1-0.7-0.5c0-0.4,0.3-0.6,0.6-0.6
		C28.3,111.2,28.5,111.4,28.6,111.8z"/>
	<path id="XMLID_175_" class="st2" d="M43.3,107.6c0.3,0,0.6,0.1,0.6,0.5c0,0.4-0.3,0.6-0.7,0.6c-0.3,0-0.5-0.2-0.5-0.5
		C42.7,107.8,42.9,107.6,43.3,107.6z"/>
	<path id="XMLID_174_" class="st4" d="M53.1,115.2c-0.4,0-0.7-0.2-0.7-0.6c0-0.4,0.3-0.5,0.6-0.6c0.3,0,0.6,0.1,0.6,0.4
		C53.8,114.9,53.4,115.1,53.1,115.2z"/>
	<path id="XMLID_173_" class="st2" d="M37.1,122.1c0.3,0,0.6,0.2,0.6,0.5c0,0.4-0.2,0.6-0.6,0.6c-0.4,0-0.7-0.1-0.7-0.5
		C36.5,122.3,36.8,122.1,37.1,122.1z"/>
	<path id="XMLID_172_" class="st4" d="M51.6,115.1c-0.1,0.4-0.4,0.6-0.8,0.6c-0.3,0-0.5-0.2-0.5-0.5c0-0.4,0.3-0.6,0.7-0.6
		C51.3,114.6,51.5,114.8,51.6,115.1z"/>
	<path id="XMLID_171_" class="st2" d="M35.1,110.2c0,0.4-0.2,0.6-0.5,0.6c-0.4,0-0.6-0.2-0.6-0.5c0-0.4,0.3-0.5,0.6-0.6
		C34.9,109.7,35.1,109.8,35.1,110.2z"/>
	<path id="XMLID_170_" class="st2" d="M33,110.8c-0.1,0.4-0.4,0.6-0.8,0.6c-0.3,0-0.5-0.3-0.4-0.6c0.1-0.4,0.3-0.5,0.7-0.5
		C32.8,110.3,33,110.5,33,110.8z"/>
	<path id="XMLID_169_" class="st2" d="M26.4,112.3c0,0.3-0.3,0.6-0.6,0.7c-0.4,0.1-0.6-0.1-0.7-0.5c-0.1-0.4,0.2-0.6,0.5-0.6
		C26,111.9,26.4,111.9,26.4,112.3z"/>
	<path id="XMLID_168_" class="st2" d="M17.1,114c0.3,0,0.5,0.2,0.5,0.5c0,0.4-0.2,0.6-0.5,0.6c-0.4,0-0.6-0.1-0.6-0.5
		C16.4,114.1,16.8,114.1,17.1,114z"/>
	<path id="XMLID_167_" class="st4" d="M38.5,118.3c-0.1,0.4-0.3,0.6-0.6,0.5c-0.3,0-0.6-0.2-0.5-0.6c0.1-0.4,0.4-0.5,0.7-0.5
		C38.4,117.7,38.5,117.9,38.5,118.3z"/>
	<path id="XMLID_166_" class="st2" d="M30.2,110.8c0.3,0,0.6,0.2,0.6,0.5c0,0.4-0.3,0.6-0.7,0.6c-0.3,0-0.5-0.2-0.5-0.5
		C29.6,111,29.9,110.8,30.2,110.8z"/>
	<path id="XMLID_165_" class="st4" d="M25,120.8c0.4,0,0.6,0.2,0.5,0.5c0,0.4-0.3,0.6-0.6,0.6c-0.3,0-0.5-0.2-0.5-0.5
		C24.4,121,24.7,120.8,25,120.8z"/>
	<path id="XMLID_164_" class="st2" d="M62.7,121.1c-0.1,0.4-0.4,0.5-0.7,0.5c-0.3,0-0.6-0.2-0.5-0.5c0.1-0.3,0.4-0.5,0.7-0.5
		C62.5,120.6,62.7,120.8,62.7,121.1z"/>
	<path id="XMLID_163_" class="st2" d="M45.8,120.1c0.3,0,0.5,0.1,0.6,0.4c0,0.4-0.3,0.5-0.6,0.6c-0.3,0.1-0.5-0.2-0.5-0.5
		C45.2,120.2,45.5,120.1,45.8,120.1z"/>
	<path id="XMLID_162_" class="st2" d="M34.8,122.7c0.3,0,0.6,0.1,0.6,0.5c0,0.3-0.3,0.4-0.6,0.5c-0.4,0-0.6-0.1-0.6-0.5
		C34.2,122.8,34.5,122.7,34.8,122.7z"/>
	<path id="XMLID_161_" class="st2" d="M37.3,109.6c0,0.4-0.3,0.6-0.6,0.6c-0.3,0-0.6-0.1-0.6-0.4c0-0.4,0.3-0.6,0.6-0.6
		C37,109.1,37.2,109.3,37.3,109.6z"/>
	<path id="XMLID_160_" class="st4" d="M48.7,115.1c0.4,0,0.6,0.2,0.6,0.6c0,0.4-0.3,0.5-0.6,0.6c-0.3,0-0.5-0.2-0.6-0.5
		C48.1,115.3,48.4,115.2,48.7,115.1z"/>
	<path id="XMLID_159_" class="st2" d="M44.2,121c0,0.4-0.3,0.5-0.6,0.6c-0.3,0.1-0.5-0.1-0.5-0.5c0-0.4,0.2-0.5,0.6-0.6
		C44,120.6,44.2,120.7,44.2,121z"/>
	<path id="XMLID_158_" class="st4" d="M27.7,120.8c0,0.4-0.3,0.5-0.6,0.6c-0.4,0-0.6-0.2-0.5-0.6c0.1-0.4,0.4-0.5,0.7-0.5
		C27.5,120.3,27.7,120.5,27.7,120.8z"/>
	<path id="XMLID_157_" class="st4" d="M36.3,118.8c-0.1,0.3-0.3,0.5-0.7,0.5c-0.3,0-0.5-0.2-0.5-0.5c0-0.4,0.3-0.6,0.7-0.6
		C36.2,118.2,36.3,118.5,36.3,118.8z"/>
	<path id="XMLID_156_" class="st4" d="M40.7,117.7c0,0.4-0.3,0.5-0.6,0.6c-0.4,0.1-0.6-0.2-0.6-0.5c0-0.4,0.3-0.5,0.6-0.6
		C40.4,117.2,40.6,117.3,40.7,117.7z"/>
	<path id="XMLID_155_" class="st4" d="M29.9,120.3c0,0.4-0.3,0.5-0.6,0.5c-0.3,0-0.5-0.1-0.5-0.5c0-0.4,0.3-0.5,0.6-0.5
		C29.6,119.8,29.8,119.9,29.9,120.3z"/>
	<path id="XMLID_154_" class="st4" d="M34.2,119.2c0,0.5-0.3,0.6-0.6,0.7c-0.3,0-0.6-0.1-0.6-0.5c0-0.4,0.3-0.5,0.6-0.6
		C33.9,118.7,34.1,118.9,34.2,119.2z"/>
	<path id="XMLID_153_" class="st2" d="M15.6,115c0,0.4-0.3,0.5-0.6,0.5c-0.3,0-0.6-0.1-0.6-0.4c0-0.4,0.2-0.6,0.6-0.6
		C15.3,114.6,15.5,114.7,15.6,115z"/>
	<path id="XMLID_152_" class="st2" d="M56,122.7c0,0.3-0.2,0.5-0.5,0.5c-0.3,0-0.6,0-0.6-0.5c0-0.4,0.3-0.4,0.5-0.5
		C55.7,122.2,55.9,122.3,56,122.7z"/>
	<path id="XMLID_151_" class="st2" d="M64.8,120.6c0,0.4-0.3,0.5-0.6,0.5c-0.3,0-0.6-0.1-0.5-0.5c0-0.3,0.2-0.5,0.5-0.5
		C64.6,120.1,64.8,120.3,64.8,120.6z"/>
	<path id="XMLID_150_" class="st4" d="M32,119.8c0,0.4-0.3,0.5-0.6,0.5c-0.3,0-0.5-0.1-0.5-0.5c0-0.4,0.3-0.5,0.6-0.5
		C31.8,119.3,32,119.4,32,119.8z"/>
	<path id="XMLID_149_" class="st4" d="M46.6,116.7c-0.3,0-0.6-0.1-0.6-0.5c0-0.4,0.3-0.6,0.6-0.6c0.3-0.1,0.5,0.1,0.6,0.5
		C47.2,116.5,46.9,116.6,46.6,116.7z"/>
	<path id="XMLID_148_" class="st4" d="M42.8,117.2c0,0.4-0.3,0.5-0.6,0.5c-0.3,0-0.6-0.1-0.5-0.5c0-0.4,0.3-0.5,0.6-0.5
		C42.6,116.7,42.8,116.8,42.8,117.2z"/>
	<path id="XMLID_147_" class="st2" d="M57.7,121.8c0.3,0,0.5,0.1,0.5,0.4c0,0.4-0.2,0.5-0.5,0.5c-0.3,0-0.6-0.1-0.5-0.5
		C57.1,121.9,57.4,121.8,57.7,121.8z"/>
	<path id="XMLID_146_" class="st4" d="M55.1,113.6c0.4,0,0.6,0.1,0.6,0.5c0,0.4-0.2,0.5-0.5,0.5c-0.3,0-0.6-0.1-0.6-0.4
		C54.6,113.8,54.9,113.7,55.1,113.6z"/>
	<path id="XMLID_145_" class="st4" d="M45,116.7c0,0.3-0.2,0.5-0.5,0.5c-0.4,0-0.7-0.1-0.6-0.5c0-0.3,0.3-0.4,0.6-0.5
		C44.7,116.2,45,116.3,45,116.7z"/>
	<path id="XMLID_144_" class="st2" d="M47.9,119.6c0.4,0,0.6,0.1,0.6,0.4c0,0.3-0.2,0.5-0.5,0.5c-0.3,0-0.5-0.1-0.5-0.4
		C47.4,119.8,47.7,119.7,47.9,119.6z"/>
	<path id="XMLID_143_" class="st0" d="M109.3,30.2c0.2,0.8,0,1.1-0.5,1.2c-4.1,1.2-8.3,2.4-12.4,3.7c-1.1,0.3-1.3-0.8-1.9-1.2
		c-0.7-0.5,0.1-0.8,0.3-1.2c0.7-1.5,1.9-2.2,3.5-2.6c3.4-0.9,6.8-1.9,10.1-2.9c0.7-0.2,1.1-0.1,1,0.7
		C109.3,28.9,109.3,29.7,109.3,30.2z"/>
	<path id="XMLID_142_" class="st4" d="M110.5,17.1c0-2.2,0-2.2,2.1-2.6c3.4-0.8,6.7-2.1,10.1-3c0.8-0.2,2.7,0.7,3,1.4
		c0.1,0.2,0,0.3-0.1,0.4c-1.1,1.1-1.9,2.5-3.7,2.9c-3.5,0.8-6.9,1.8-10.3,2.8c-1,0.3-1.4,0.2-1.2-0.9
		C110.5,17.7,110.5,17.4,110.5,17.1z"/>
	<path id="XMLID_141_" class="st2" d="M110.5,23.6c3.2,1.7,6.4,3.3,9.5,5c1,0.6,1.5,1.8,1.9,2.8c0.3,0.7-0.7,1.2-1.1,1.8
		c-0.3,0.5-0.7,0.1-1-0.1c-2.8-1.6-5.7-3.1-8.6-4.5c-0.7-0.3-0.9-0.7-0.9-1.5C110.4,26.1,110.3,24.9,110.5,23.6z"/>
	<path id="XMLID_140_" class="st2" d="M109.5,23.1c-3.1-1.6-6-2.9-8.8-4.5c-1.3-0.8-1.8-2.2-2.7-3.3c-0.1-0.1-0.1-0.2,0-0.3
		c0.3-0.8,2-1.5,2.8-1.1c2.6,1.4,5.3,2.8,8,4.1c0.6,0.3,0.8,0.6,0.8,1.3C109.4,20.5,109.5,21.7,109.5,23.1z"/>
	<path id="XMLID_139_" class="st0" d="M77.4,107.6c-1.5,0.3-3,1-4.6,0.9c0.3-0.4,0.7-0.2,1.1-0.4c0.3-0.1,0.8,0,0.8-0.5
		c0-0.4-0.3-0.8-0.8-0.7c-1.1,0.1-1.1-0.5-1-1.3c0.2-1.5,0.4-3,0.7-4.4c1.1,0.2,2-0.5,3.1-0.5C76.9,103,77.1,105.3,77.4,107.6z"/>
	<path id="XMLID_138_" class="st0" d="M76.1,49.1c-0.8-0.2-1.5-0.5-2.2-0.6c-0.9-0.1-1.1-0.5-1-1.4c0.1-0.7,0.2-1.1,0.9-0.8
		c0.8,0.3,0.9-0.1,0.9-0.7c0-0.2,0.1-0.5,0.1-0.7c0.1-0.8,0.4-1,1.1-0.5c0.2,0.2,0.4,0.4,0.7,0.3c0.4-0.2,0.3-0.6,0.2-0.9
		c-0.2-1.1-0.1-2.1,0.9-2.8c0.5-0.4,0.8-0.4,0.8,0.3c0,1.2,0,2.4,0.2,3.7c0.1,0.6-0.5,1.5-0.7,2.3c-0.1,0.3-0.4,0.2-0.6,0.1
		c-0.3-0.2-0.7-0.4-1-0.6c-0.2-0.1-0.4-0.5-0.7-0.2c-0.3,0.3-0.1,0.6,0.1,0.7C76.6,47.8,76.1,48.5,76.1,49.1z"/>
	<path id="XMLID_137_" class="st0" d="M73.6,100.1c0.5-3.7,1.1-7.3,1.6-11c0.1,0,0.1,0,0.2,0c0.4,3.4,0.8,6.8,1.2,10.3
		C75.6,99.8,74.6,99.9,73.6,100.1z"/>
	<path id="XMLID_136_" class="st2" d="M73.6,100.1c1-0.2,2-0.3,3-0.7c0,0.4,0,0.8,0.1,1.3c-1.1-0.1-2,0.6-3.1,0.5
		C73.6,100.8,73.6,100.4,73.6,100.1z"/>
	<path id="XMLID_135_" class="st2" d="M76.8,50.7c-1.4-0.6-2.9-0.9-4.5-1.1c-0.2,0-0.5,0-0.5-0.3c0-0.2,0.2-0.4,0.4-0.3
		C73.9,49.2,75.6,49.5,76.8,50.7z"/>
	<path id="XMLID_134_" class="st0" d="M82,76.6c-0.1,0.5-0.5,0.6-0.8,0.7c-0.2,0.1-0.4-0.2-0.4-0.4c0.1-0.4,0.4-0.7,0.8-0.9
		C81.8,76,81.9,76.4,82,76.6z"/>
</g>
</svg>
