<?xml version="1.0" encoding="utf-8"?>
<!-- Generator: Adobe Illustrator 19.0.0, SVG Export Plug-In . SVG Version: 6.00 Build 0)  -->
<svg version="1.1" id="Layer_1" xmlns="http://www.w3.org/2000/svg" xmlns:xlink="http://www.w3.org/1999/xlink" x="0px" y="0px"
	 viewBox="0 0 209.5 130.7" style="enable-background:new 0 0 209.5 130.7;" xml:space="preserve">
<style type="text/css">
	.st0{fill:#FEFEFE;}
	.st1{fill:#4E5A74;}
	.st2{fill:#A3AAB4;}
</style>
<g id="XMLID_4_">
	<g id="XMLID_135_">
		<path id="XMLID_213_" class="st0" d="M26.6,124.4c-7.7,0-15.4,0-23.2,0c-0.7,0-0.9-0.1-0.9-0.9c0-37.5,0-75,0-112.6
			c0-0.9,0.3-0.9,1-0.9c33.5,0,67,0,100.6,0c-1.2,0.8-1.2,1-0.5,2.2c0.2,0.3,0.2,0.5,0.2,0.8c0,1.1-0.1,2.2,0,3.2
			c0,0.7-0.2,0.8-0.8,0.5c-2.1-1.1-4.2-2.2-6.3-3.3c-2.9-1.5-2.9-1.6-5.3,0.7c-0.1,0.1-0.2,0.2-0.3,0.3c-0.2,0.2-0.2,0.4,0,0.5
			c1.2,1.5,1.9,3.5,3.8,4.5c2.6,1.3,5.2,2.7,7.9,4c0.8,0.4,0.9,0.9,0.9,1.7c0,0.9-0.6,0.8-1.1,0.9c-3.8,1-7.5,2.1-11.3,3.2
			c-1.2,0.4-1.9,0.9-2.6,1.9c-1.6,2.4-1.6,2.3,0.4,4.3c0.5,0.5,1,0.6,1.7,0.4c2-0.7,4.1-1.3,6.2-1.9c2.2-0.7,4.5-1.3,6.8-2
			c0,0.5,0,0.8,0,1.1c0,7.2,0,14.5,0,21.7c0,8.8-0.1,17.7-0.1,26.5c0,2.4,0,2.4-2.3,2.9c-2.6,0.6-5.2,1.2-7.8,1.8
			c-0.2,0-0.4,0.2-0.5,0.3c-0.1,0.1-0.2,0.3-0.1,0.4c0,0.3,0.3,0.2,0.5,0.2c2.6-0.5,5.3-1,7.9-1.8c0.7-0.2,1.5-0.4,2.2-0.4
			c0.9-0.1,1.2-0.5,1.2-1.4c-0.2-3.3,0-6.6,0-10c0-10.7,0-21.4,0-32.2c0-3.7,0-7.4,0-11.2c0-0.9,0.2-0.9,0.9-0.6
			c2.3,1.1,4.6,2.3,6.8,3.5c2.9,1.6,2.9,1.6,4.8-1.1c0.2-0.2,0.4-0.5,0.3-0.7c-0.9-1.3-1.3-3.1-2.9-4c-3-1.6-6-3.2-9-4.7
			c-1.1-0.5-0.6-1.3-0.7-2c-0.1-0.8,0.6-0.7,1-0.8c3.8-1.1,7.7-2.1,11.5-3.2c0.5-0.1,1.1-0.2,1.5-0.7c0.7-0.9,1.4-1.7,2.2-2.5
			c0.5-0.5,0.5-0.9-0.1-1.4c-0.8-0.7-1.8-1.2-2.4-2.1c25.5,0,51,0,76.6,0c0.8,0,1,0.2,1,1c0,37.4,0,74.9,0,112.3c0,0.8-0.2,1-1,1
			c-49.8,0-99.5,0-149.3,0c-0.1-0.3,0.4-0.8-0.1-1c-0.3-0.1-0.5-0.1-0.8,0c-0.5,0.3-0.2,0.7-0.1,1c-5.9,0-11.8,0-17.8,0
			c0.1-0.3,0.8-0.4,0.5-0.9c-0.2-0.3-0.4-0.3-0.7-0.2c-0.3,0.1-0.5,0.3-0.4,0.7C26.5,124.1,26.5,124.2,26.6,124.4z M63.1,109.5
			c-0.1-0.6-0.3-1-1-0.8c-0.5,0.1-0.9,0.2-1.4,0.3c-0.2,0.1-0.4,0.2-0.4,0.4c0,0.3,0.3,0.3,0.6,0.3
			C61.6,109.7,62.3,109.6,63.1,109.5c-1,0.6-2.2,0.7-3.3,0.9c-2.7,0.7-5.4,1.3-8.1,2c-0.8,0.2-1.3,0.6-1,1.5c0.2,0.8,0.8,1,1.6,0.8
			c3.2-0.8,6.4-1.5,9.6-2.3c3.3-0.8,6.7-1.6,10-2.3c0.1,0.3,0,0.6-0.4,0.7c-1,0.2-2.1,0.5-3.1,0.7c-0.2,0-0.4,0.2-0.4,0.4
			c0,0.2,0.2,0.3,0.3,0.3c1.2-0.2,2.4,0,3.4-0.9c1.7,0.1,3.3-0.6,4.9-0.8c0.2,0,0.5-0.2,0.4-0.5c0-0.3-0.1-0.6-0.4-0.7
			c-0.3-0.1-0.5-0.1-0.8-0.1c0.2-0.1,0.3-0.3,0.5-0.3c5.8-1.2,11.5-3,17.3-4c3.4-0.6,6.7-1.5,10-2.3c7.8-1.8,15.7-3.5,23.6-5.2
			c10.3-2.3,20.5-4.6,30.8-6.9c7.1-1.6,14.1-3.2,21.2-4.8c3.7-0.8,7.4-1.7,11.1-2.5c0.3-0.1,0.6-0.3,1,0.1c1.2,1,1.3,1,2.4-0.1
			c0.4-0.4,0.9-0.8,1.3-1.3c0.8-0.8,0.5-1.7-0.6-2c-1.1-0.3-2.2-0.4-3.3-0.6c-0.6-0.1-1.2,0.2-1.3,0.7c-0.1,1.1-0.9,1.2-1.7,1.3
			c-11.1,2.3-22,5.1-33.1,7.4c-4.8,1-9.6,2.4-14.4,3.4c-8.7,1.9-17.4,3.8-26.1,5.8c-7.4,1.7-14.8,3.4-22.3,4.9
			c-5.9,1.2-11.6,2.8-17.4,4.2c-0.1-0.3-0.2-0.7-0.2-1c0-2.1,0-4.1,0-6.2c6.7-1.7,13.5-3.1,20.3-4.8c7.4-1.8,14.9-3.5,22.4-5.1
			c5.9-1.3,11.1-3.5,15.3-8.2c2.7-3.1,2.7-8.1,1-10.7c-1.9-2.9-3.7-5.8-5.5-8.7c-0.2-0.4-0.8-0.8,0.1-1c0.4-0.1,1.1-0.1,1-0.8
			c0-0.6-0.7-0.6-1.1-0.8c-0.1-0.1-0.3-0.1-0.4-0.2c-2.9-1-2-1.2-3.4,1.3c-0.2,0.4-0.5,0.8-0.2,1.2c0.4,0.4,0.8,0.1,1.2,0
			c0.5-0.1,1-0.3,1.4,0.3c2.2,3.2,4.4,6.5,6.2,10c1.2,2.3,1.3,5-0.2,7.2c-2.9,4.2-6.8,7.1-11.8,8.3c-11.6,2.7-23.1,5.5-34.7,8
			c-3.9,0.8-7.7,2.1-11.6,2.8c0.1-6.2,0.2-12.5,0.2-18.7c0-0.9,0.2-1.4,1.1-1.8c1.5-0.7,1.5-0.9,0.8-2.5c-0.8-1.9-1.9-3.6-2.1-5.8
			c-0.5-5.2-0.6-10.4-0.7-15.6c0-0.6,0-1.3-0.4-1.6c-1.1-0.7-1.3-2-2-2.9c-0.3-0.4-0.2-0.8,0-1.3c0.1-0.3,0.3-0.2,0.5-0.1
			c1,0.5,1.1-0.3,1.3-1c0.1-0.5-0.1-1.2,0.6-1.3c0.9-0.2,0.6-0.6,0.4-1.1c-0.9-1.7-0.4-3.5-0.4-5.2c0-0.8,0-1.1-0.6-1.4
			c-0.7-0.3-1.5-0.5-2.3-0.6c-1.8-0.1-3.5,0.1-4.6,1.7c-1.4,2.1-0.9,4.4-0.4,6.6c0,0.1,0.2,0.2,0.3,0.3c0.8,0.4,0.5,1.1,0.1,1.6
			c-1.1,1.3-2.1,2.5-2.5,4.3c-0.7,3.4-1.6,6.8-2.4,10.2c-0.2,0.8-0.2,1.4,0.3,2c1.8,2.5,2.2,5.4,2,8.4c-0.1,1.6-0.2,3.2-0.4,4.8
			c0,0.3-0.2,0.7,0.2,0.8c1.1,0.2,1,1.1,1,1.9c0.1,1.2,0.1,2.5,0.2,3.7c0.2,5.7,0.2,11.4-0.4,17c-0.2,0-0.5,0-0.7,0.1
			c-5.7,1.4-11.4,2.8-17,4.2c-2,0.5-4.1,1-6.1,1.5c-0.5,0.1-1.5,0-1.2,0.9c0.2,0.8,1,0.3,1.4,0.2c5.7-1.4,11.4-2.8,17.1-4.1
			c2.2-0.5,4.4-1.2,6.6-1.5c-0.2,2.2-0.1,4.5-0.8,6.7c1.3,0.2,2.5-0.6,3.7-0.5C65.9,109.2,64.5,109.4,63.1,109.5z M154,96.3
			c4.8-0.1,7.9,0.7,11.1,1.1c6.7,0.9,12.3,4.2,17.6,8.1c0.3,0.3,0.5,0.4,0,0.7c-0.4,0.2-1,0.3-0.8,0.9c0.2,0.6,0.8,0.4,1.2,0.5
			c0.3,0.1,0.6,0.1,0.9,0.2c2.3,0.2,2.3,0.2,2.5-2c0.1-0.9-0.3-1.3-1.1-0.8c-0.8,0.5-1.4,0.3-2-0.2c-1.4-1-2.9-2-4.3-3
			c-1.4-1-2.8-1.9-4.4-2.6c-6.9-2.9-14-4.1-21.5-3.9c-3.8,0.1-7.6,0.6-11.3,1.3c-7.8,1.6-15.5,3.4-23.2,5.1c-8,1.8-16,3.5-23.9,5.3
			c-12.3,2.7-24.5,5.8-36.8,8.7c-4.5,1.1-8.9,2.1-13.4,3.2c-0.4,0.1-1,0.1-0.9,0.7c0.1,0.7,0.8,0.3,1.2,0.4c0.1,0,0.2-0.1,0.3-0.1
			c9.2-2.2,18.4-4.4,27.6-6.5c8.2-1.9,16.3-4.1,24.6-5.7c3.6-0.7,7.1-1.7,10.7-2.4c11-2.3,22-5.1,33-7.3
			C145.9,97,150.7,96.5,154,96.3z M138.8,103.8c3.5-0.1,6.7,0.3,9.9,1c4.3,1,7.7,3.2,10,7c1.4,2.2,2.9,4.4,4.4,6.6
			c0.4,0.6,0.6,1-0.4,1.1c-0.4,0.1-1.2,0.4-0.6,0.9c0.9,0.8,2.2,1,3.4,1.1c0.7,0.1,0.9-0.9,1.3-1.5c0.2-0.3,0.6-0.6,0.3-1.1
			c-0.3-0.5-0.8-0.3-1.2-0.2c-0.8,0.3-1.2,0-1.6-0.6c-1.8-2.7-3.6-5.3-5.4-8c-1.6-2.4-3.7-4-6.3-5.2c-4.1-1.9-8.6-2.2-13-2.3
			c-4.5-0.2-8.9,0.9-13.4,1.8c-8.9,1.9-17.7,3.9-26.5,5.9c-11.4,2.6-22.8,5.4-34.2,8.1c-1.6,0.4-3.2,0.8-4.8,1.2
			c-0.3,0.1-0.7,0.2-0.6,0.6c0.1,0.5,0.5,0.4,0.8,0.4c0.2,0,0.3-0.1,0.5-0.1c13.2-3.2,26.4-6.5,39.7-9.4c8.2-1.8,16.3-3.7,24.5-5.4
			C130.1,104.8,134.5,103.5,138.8,103.8z M71.2,28.7c0-0.5-0.1-0.9-0.3-1.3c-0.4-0.7-1.1-0.8-1.7-0.8c-0.5,0-1.1,0.2-1.4,0.8
			c-0.2,0.3-0.3,0.7,0.1,1c0.3,0.2,0.5,0,0.7-0.3c0.3-0.5,0.6-0.7,1.1-0.4c0.5,0.3,0.7,0.7,0.5,1.3c-0.2,0.6-0.5,1.1-0.9,1.5
			c-0.4,0.5-0.6,1-0.6,1.6c0,0.3,0,0.7,0.4,0.8c0.4,0.1,0.5-0.3,0.6-0.6c0.1-0.8,0.5-1.3,1-1.9C71,29.9,71.1,29.3,71.2,28.7z
			 M69.3,35.5c0.4-0.1,0.7-0.4,0.7-0.8c0-0.4-0.3-0.6-0.7-0.6c-0.4,0-0.7,0.3-0.7,0.7C68.6,35.2,68.8,35.5,69.3,35.5z M13.5,114.5
			c0.4,0,0.7-0.1,0.8-0.6c0-0.4-0.3-0.6-0.6-0.6c-0.4,0-0.6,0.2-0.7,0.5C12.9,114.3,13.1,114.5,13.5,114.5z M36.1,108.5
			c-0.1-0.3-0.3-0.5-0.7-0.4c-0.4,0-0.7,0.2-0.6,0.7c0.1,0.4,0.4,0.5,0.7,0.4C35.9,109.2,36.1,109,36.1,108.5z M34,109.1
			c-0.1-0.3-0.3-0.5-0.7-0.5c-0.4,0-0.7,0.2-0.6,0.7c0.1,0.4,0.4,0.5,0.7,0.4C33.7,109.7,33.9,109.5,34,109.1z M54.9,121.6
			c-0.1-0.4-0.3-0.5-0.7-0.5c-0.4,0-0.6,0.2-0.6,0.6c0,0.4,0.3,0.5,0.6,0.5C54.6,122.2,54.8,122,54.9,121.6z M47.4,123.8
			c0.3-0.1,0.7-0.2,0.7-0.5c0-0.4-0.3-0.5-0.7-0.5c-0.4,0-0.6,0.2-0.6,0.6C46.9,123.7,47.1,123.8,47.4,123.8z M34.2,122.2
			c0-0.3-0.2-0.5-0.5-0.6c-0.4,0-0.7,0.1-0.8,0.5c0,0.4,0.2,0.6,0.6,0.6C33.9,122.7,34.1,122.5,34.2,122.2z M36.4,121.7
			c0-0.4-0.2-0.6-0.6-0.6c-0.4,0-0.6,0.2-0.7,0.5c-0.1,0.3,0.1,0.5,0.4,0.6C36,122.2,36.3,122.1,36.4,121.7z M16.4,113.4
			c-0.1-0.4-0.3-0.5-0.7-0.5c-0.4,0-0.6,0.2-0.6,0.6c0,0.4,0.3,0.6,0.7,0.5C16.1,113.9,16.4,113.8,16.4,113.4z M18.6,112.9
			c-0.1-0.4-0.3-0.5-0.7-0.5c-0.4,0-0.6,0.2-0.6,0.6c0,0.3,0.2,0.5,0.5,0.5C18.2,113.5,18.6,113.4,18.6,112.9z M23,111.8
			c-0.1-0.3-0.3-0.5-0.7-0.5c-0.3,0.1-0.6,0.3-0.6,0.6c0,0.4,0.3,0.5,0.7,0.5C22.7,112.3,22.9,112.1,23,111.8z M37.6,107.6
			c-0.4,0-0.6,0.2-0.7,0.5c0,0.3,0.2,0.5,0.5,0.5c0.4,0,0.7-0.2,0.7-0.6C38.2,107.7,37.9,107.6,37.6,107.6z M47.5,115.2
			c0.3-0.1,0.7-0.3,0.6-0.7c0-0.3-0.3-0.4-0.6-0.4c-0.3,0-0.6,0.2-0.6,0.6C46.8,115,47,115.2,47.5,115.2z M31.4,122.1
			c-0.3,0.1-0.6,0.2-0.7,0.6c0,0.4,0.3,0.5,0.7,0.5c0.4,0,0.6-0.2,0.6-0.6C32,122.2,31.8,122.1,31.4,122.1z M45.9,115.1
			c0-0.3-0.3-0.5-0.6-0.5c-0.4,0-0.7,0.2-0.7,0.6c0,0.3,0.2,0.5,0.5,0.5C45.5,115.7,45.8,115.5,45.9,115.1z M29.5,110.2
			c0-0.4-0.3-0.5-0.6-0.5c-0.4,0-0.6,0.1-0.6,0.6c0,0.4,0.3,0.6,0.6,0.5C29.3,110.8,29.5,110.6,29.5,110.2z M27.3,110.8
			c0-0.3-0.2-0.5-0.5-0.5c-0.4,0-0.6,0.1-0.7,0.5c0,0.3,0.1,0.6,0.4,0.6C27,111.4,27.2,111.2,27.3,110.8z M20.8,112.3
			c-0.1-0.4-0.4-0.4-0.7-0.4c-0.3,0-0.6,0.2-0.5,0.6c0.1,0.3,0.3,0.5,0.7,0.5C20.5,112.9,20.8,112.7,20.8,112.3z M11.4,114
			c-0.3,0.1-0.6,0.2-0.6,0.6c0,0.4,0.3,0.5,0.6,0.5c0.4,0,0.6-0.2,0.5-0.6C11.9,114.1,11.7,114,11.4,114z M32.8,118.3
			c0-0.3-0.1-0.5-0.5-0.6c-0.3,0-0.6,0.1-0.7,0.5c-0.1,0.4,0.2,0.6,0.5,0.6C32.5,118.8,32.8,118.6,32.8,118.3z M24.5,110.8
			c-0.3,0.1-0.6,0.2-0.6,0.6c0,0.3,0.2,0.5,0.5,0.5c0.4,0,0.7-0.2,0.7-0.6C25.1,110.9,24.9,110.8,24.5,110.8z M19.3,120.8
			c-0.3,0-0.6,0.2-0.6,0.6c0,0.3,0.2,0.5,0.5,0.5c0.4,0,0.6-0.2,0.6-0.6C19.9,121,19.7,120.8,19.3,120.8z M57,121.1
			c0-0.4-0.2-0.5-0.5-0.5c-0.3,0-0.7,0.2-0.7,0.5c0,0.3,0.2,0.5,0.5,0.5C56.7,121.6,57,121.5,57,121.1z M40.2,120.1
			c-0.4,0-0.6,0.2-0.6,0.6c0,0.3,0.2,0.5,0.5,0.5c0.3-0.1,0.6-0.2,0.6-0.6C40.7,120.2,40.5,120.1,40.2,120.1z M29.2,122.7
			c-0.3,0-0.6,0.1-0.6,0.4c0,0.4,0.3,0.5,0.6,0.5c0.3,0,0.6-0.1,0.6-0.5C29.8,122.8,29.5,122.7,29.2,122.7z M31.6,109.6
			c-0.1-0.3-0.3-0.5-0.6-0.5c-0.3,0.1-0.6,0.2-0.6,0.6c0,0.4,0.3,0.5,0.6,0.4C31.4,110.2,31.6,110,31.6,109.6z M43,115.1
			c-0.3,0.1-0.6,0.2-0.6,0.6c0,0.3,0.3,0.5,0.6,0.5c0.3,0,0.6-0.2,0.6-0.6C43.7,115.3,43.4,115.1,43,115.1z M38.6,121
			c0-0.3-0.3-0.5-0.6-0.4c-0.3,0-0.6,0.2-0.6,0.6c0,0.3,0.2,0.5,0.5,0.5C38.3,121.6,38.6,121.4,38.6,121z M22,120.8
			c0-0.3-0.2-0.5-0.5-0.5c-0.3,0-0.6,0.1-0.7,0.5c-0.1,0.4,0.2,0.6,0.5,0.6C21.7,121.4,22,121.2,22,120.8z M30.7,118.8
			c0-0.3-0.2-0.5-0.5-0.6c-0.4,0-0.7,0.1-0.7,0.6c0,0.3,0.2,0.5,0.5,0.5C30.4,119.3,30.6,119.1,30.7,118.8z M35,117.6
			c0-0.3-0.2-0.5-0.6-0.5c-0.3,0-0.6,0.2-0.6,0.6c0,0.4,0.2,0.6,0.6,0.5C34.7,118.2,35,118.1,35,117.6z M24.2,120.3
			c0-0.4-0.2-0.5-0.6-0.5c-0.3,0-0.6,0.1-0.6,0.5c0,0.3,0.2,0.5,0.5,0.5C23.9,120.8,24.2,120.7,24.2,120.3z M28.5,119.2
			c-0.1-0.2-0.2-0.5-0.6-0.4c-0.3,0-0.7,0.2-0.6,0.6c0,0.3,0.3,0.5,0.6,0.5C28.2,119.8,28.5,119.6,28.5,119.2z M9.9,115
			c-0.1-0.3-0.3-0.4-0.6-0.4c-0.4,0-0.6,0.2-0.6,0.6c0,0.3,0.3,0.4,0.6,0.4C9.6,115.5,9.9,115.4,9.9,115z M50.3,122.7
			c0-0.3-0.3-0.4-0.6-0.4c-0.3,0-0.5,0.1-0.5,0.5c0,0.4,0.3,0.5,0.6,0.5C50.1,123.2,50.3,123,50.3,122.7z M59.2,120.6
			c-0.1-0.2-0.2-0.5-0.5-0.4c-0.3,0-0.5,0.2-0.5,0.5c0,0.3,0.3,0.5,0.5,0.5C58.9,121.1,59.2,121,59.2,120.6z M26.3,119.8
			c0-0.4-0.2-0.5-0.6-0.5c-0.3,0-0.6,0.1-0.6,0.5c0,0.3,0.2,0.5,0.5,0.5C26,120.3,26.3,120.2,26.3,119.8z M40.9,116.7
			c0.3-0.1,0.6-0.2,0.6-0.6c0-0.3-0.2-0.5-0.6-0.5c-0.3,0.1-0.6,0.2-0.6,0.6C40.3,116.6,40.6,116.7,40.9,116.7z M37.2,117.2
			c0-0.4-0.2-0.5-0.5-0.5c-0.3,0-0.6,0.2-0.6,0.5c0,0.3,0.2,0.5,0.5,0.5C36.9,117.7,37.1,117.6,37.2,117.2z M52,121.8
			c-0.3,0-0.6,0.1-0.6,0.4c0,0.4,0.2,0.5,0.5,0.5c0.3,0,0.5-0.1,0.5-0.5C52.5,121.9,52.3,121.8,52,121.8z M49.4,113.6
			c-0.2,0.1-0.5,0.2-0.5,0.6c0,0.4,0.3,0.4,0.6,0.4c0.3,0,0.6-0.1,0.5-0.5C50,113.7,49.8,113.6,49.4,113.6z M39.3,116.7
			c0-0.4-0.2-0.5-0.6-0.5c-0.3,0-0.6,0.1-0.6,0.5c0,0.4,0.3,0.5,0.6,0.5C39.1,117.2,39.3,117,39.3,116.7z M42.2,119.6
			c-0.2,0.1-0.5,0.2-0.4,0.5c0,0.3,0.3,0.4,0.5,0.4c0.3,0,0.6-0.2,0.5-0.5C42.8,119.7,42.6,119.6,42.2,119.6z"/>
		<path id="XMLID_207_" class="st1" d="M101.5,84.6c2.3-0.5,2.3-0.5,2.3-2.9c0-8.8,0.1-17.7,0.1-26.5c0-7.2,0-14.5,0-21.7
			c0-0.3,0-0.6,0-1.1c-2.3,0.7-4.6,1.3-6.8,2c-2.1,0.6-4.1,1.2-6.2,1.9c-0.7,0.2-1.2,0.1-1.7-0.4c-2-2-2-2-0.4-4.3
			c0.6-1,1.4-1.6,2.6-1.9c3.7-1.1,7.5-2.2,11.3-3.2c0.5-0.1,1.1-0.1,1.1-0.9c0-0.8-0.1-1.3-0.9-1.7c-2.7-1.3-5.3-2.7-7.9-4
			c-1.9-1-2.6-3-3.8-4.5c-0.1-0.2-0.1-0.4,0-0.5c0.1-0.1,0.2-0.2,0.3-0.3c2.4-2.3,2.4-2.2,5.3-0.7c2.1,1.1,4.2,2.2,6.3,3.3
			c0.6,0.3,0.8,0.3,0.8-0.5c0-1.1,0-2.2,0-3.2c0-0.3,0-0.5-0.2-0.8c-0.8-1.2-0.7-1.4,0.5-2.2c0.2,0,0.3,0,0.5,0
			c0.6,0.5,1.3,1.1,0.7,1.9c-0.5,0.6-0.5,1.2-0.3,1.9c4.4-0.9,8.6-2.5,12.9-3.7c0.2,0,0.5,0,0.7,0c0.7,0.9,1.6,1.4,2.4,2.1
			c0.6,0.5,0.6,0.8,0.1,1.4c-0.8,0.8-1.5,1.7-2.2,2.5c-0.4,0.5-0.9,0.6-1.5,0.7c-3.8,1.1-7.7,2.1-11.5,3.2c-0.4,0.1-1.1,0-1,0.8
			c0.1,0.7-0.3,1.5,0.7,2c3.1,1.5,6,3.1,9,4.7c1.6,0.8,2,2.6,2.9,4c0.2,0.3-0.1,0.5-0.3,0.7c-1.9,2.8-1.9,2.8-4.8,1.1
			c-2.2-1.3-4.5-2.4-6.8-3.5c-0.7-0.4-0.9-0.3-0.9,0.6c0,3.7,0,7.4,0,11.2c0,10.7,0,21.4,0,32.2c0,3.3-0.2,6.6,0,10
			c0,0.9-0.3,1.3-1.2,1.4c-0.7,0.1-1.5,0.3-2.2,0.4C101.5,85.2,101.5,84.9,101.5,84.6z M103.7,30.2c0-0.5-0.1-1.4,0-2.2
			c0.1-0.9-0.3-1-1-0.7c-3.4,1-6.7,2-10.1,2.9c-1.6,0.4-2.8,1.1-3.5,2.6c-0.2,0.4-0.9,0.7-0.3,1.2c0.6,0.4,0.8,1.6,1.9,1.2
			c4.1-1.2,8.3-2.5,12.4-3.7C103.7,31.3,103.9,31.1,103.7,30.2z M104.8,17.1c0,0.3,0,0.6,0,1c-0.2,1.1,0.3,1.2,1.2,0.9
			c3.4-1,6.8-2,10.3-2.8c1.8-0.4,2.6-1.8,3.7-2.9c0.1-0.1,0.2-0.2,0.1-0.4c-0.3-0.7-2.2-1.6-3-1.4c-3.4,0.9-6.7,2.2-10.1,3
			C104.8,14.9,104.9,15,104.8,17.1z M104.9,23.6c-0.2,1.3-0.1,2.5-0.2,3.7c0,0.7,0.2,1.1,0.9,1.5c2.9,1.4,5.8,2.8,8.6,4.5
			c0.3,0.2,0.7,0.6,1,0.1c0.4-0.6,1.4-1.1,1.1-1.8c-0.4-1-0.9-2.3-1.9-2.8C111.3,26.8,108.1,25.2,104.9,23.6z M103.8,23.1
			c0-1.4,0-2.6,0-3.8c0-0.7-0.2-1-0.8-1.3c-2.7-1.4-5.3-2.8-8-4.1c-0.8-0.4-2.5,0.2-2.8,1.1c0,0.1,0,0.2,0,0.3
			c0.9,1.1,1.4,2.5,2.7,3.3C97.8,20.2,100.8,21.5,103.8,23.1z"/>
		<path id="XMLID_206_" class="st0" d="M117.8,10.2c-4.3,1.2-8.4,2.8-12.9,3.7c-0.1-0.7-0.2-1.2,0.3-1.9c0.6-0.8,0-1.4-0.7-1.9
			C109,10.2,113.4,10.2,117.8,10.2z"/>
		<path id="XMLID_205_" class="st2" d="M44.8,124.4c-0.1-0.4-0.4-0.7,0.1-1c0.2-0.2,0.5-0.2,0.8,0c0.5,0.3,0,0.7,0.1,1
			C45.5,124.4,45.2,124.4,44.8,124.4z"/>
		<path id="XMLID_204_" class="st2" d="M26.6,124.4c-0.1-0.1-0.1-0.3-0.2-0.4c-0.1-0.4,0.1-0.6,0.4-0.7c0.3-0.1,0.6-0.1,0.7,0.2
			c0.3,0.6-0.4,0.6-0.5,0.9C26.9,124.4,26.8,124.4,26.6,124.4z"/>
		<path id="XMLID_199_" class="st1" d="M74.6,99.7c0,2.1,0,4.1,0,6.2c0,0.3,0.2,0.7,0.2,1c0.2,0.8-0.7,2.1,1,2.3
			c0.3,0,0.6,0.1,0.8,0.1c0.3,0.1,0.4,0.4,0.4,0.7c0,0.3-0.2,0.4-0.4,0.5c-1.6,0.3-3.2,0.9-4.9,0.8c-0.4,0-0.5-0.2-0.2-0.5
			c0.4-0.1,0.5-0.4,0.4-0.7c0.1-0.8,0-1.6-0.2-2.4c-0.2-2.3-0.5-4.6-0.7-7c0-0.4,0-0.8-0.1-1.3c-0.4-3.4-0.8-6.8-1.2-10.3
			c-0.1,0-0.1,0-0.2,0c-0.5,3.7-1.1,7.3-1.6,11c0,0.3,0,0.7,0,1c-0.3,1.5-0.5,3-0.7,4.4c-0.1,0.9-0.1,1.5,1,1.3
			c0.5-0.1,0.7,0.3,0.8,0.7c0,0.5-0.5,0.4-0.8,0.5c-0.4,0.2-0.8,0-1.1,0.4l0,0c-1.3-0.1-2.4,0.7-3.7,0.5c0.7-2.2,0.6-4.5,0.8-6.7
			c0-0.4,0-0.8,0-1.2c0.5-5.7,0.6-11.3,0.4-17c0-1.2-0.1-2.5-0.2-3.7c-0.1-0.8,0.1-1.6-1-1.9c-0.4-0.1-0.3-0.5-0.2-0.8
			c0.2-1.6,0.3-3.2,0.4-4.8c0.2-3-0.2-5.9-2-8.4c-0.5-0.6-0.5-1.3-0.3-2c0.9-3.4,1.7-6.8,2.4-10.2c0.4-1.7,1.4-3,2.5-4.3
			c0.3-0.4,0.7-1.1-0.1-1.6c-0.1-0.1-0.3-0.2-0.3-0.3c-0.5-2.2-1.1-4.5,0.4-6.6c1.1-1.6,2.8-1.9,4.6-1.7c0.8,0.1,1.6,0.2,2.3,0.6
			c0.6,0.3,0.6,0.6,0.6,1.4c0,1.7-0.4,3.6,0.4,5.2c0.3,0.5,0.6,0.9-0.4,1.1c-0.6,0.1-0.5,0.8-0.6,1.3c-0.2,0.7-0.2,1.4-1.3,1
			c-0.2-0.1-0.4-0.2-0.5,0.1c-0.1,0.4-0.3,0.9,0,1.3c0.8,0.9,0.9,2.2,2,2.9c0.5,0.3,0.4,1,0.4,1.6c0.1,5.2,0.2,10.4,0.7,15.6
			c0.2,2.2,1.4,3.9,2.1,5.8c0.7,1.6,0.7,1.8-0.8,2.5c-0.9,0.4-1.1,0.9-1.1,1.8c0,6.2-0.2,12.5-0.2,18.7
			C74.6,98.9,74.6,99.3,74.6,99.7z M70.5,49.1c0-0.6,0.5-1.3-0.3-1.8c-0.2-0.2-0.4-0.4-0.1-0.7c0.3-0.3,0.5,0,0.7,0.2
			c0.3,0.2,0.7,0.4,1,0.6c0.2,0.1,0.5,0.3,0.6-0.1c0.2-0.8,0.8-1.8,0.7-2.3c-0.2-1.2-0.1-2.5-0.2-3.7c0-0.7-0.3-0.7-0.8-0.3
			c-0.9,0.7-1.1,1.7-0.9,2.8c0,0.3,0.2,0.7-0.2,0.9c-0.3,0.2-0.5-0.1-0.7-0.3c-0.7-0.6-1-0.3-1.1,0.5c0,0.2-0.1,0.5-0.1,0.7
			c0,0.6-0.1,1-0.9,0.7c-0.7-0.3-0.9,0.1-0.9,0.8c-0.1,0.9,0.1,1.3,1,1.4C69,48.6,69.7,48.9,70.5,49.1z M71.2,50.7
			c-1.3-1.2-2.9-1.5-4.5-1.8c-0.2,0-0.4,0.1-0.4,0.3c0,0.4,0.3,0.3,0.5,0.3C68.3,49.7,69.7,50.1,71.2,50.7z M76.3,76.6
			C76.2,76.4,76.2,76,76,76c-0.4,0.1-0.7,0.5-0.8,0.9c-0.1,0.2,0.2,0.4,0.4,0.4C75.8,77.1,76.3,77.1,76.3,76.6z"/>
		<path id="XMLID_198_" class="st2" d="M75.9,109.1c-1.6-0.2-0.8-1.5-1-2.3c5.8-1.4,11.6-3,17.4-4.2c7.5-1.5,14.9-3.3,22.3-4.9
			c8.7-2,17.4-3.9,26.1-5.8c4.8-1,9.6-2.4,14.4-3.4c11.1-2.3,22.1-5.1,33.1-7.4c0.8-0.2,1.6-0.2,1.7-1.3c0-0.5,0.7-0.8,1.3-0.7
			c1.1,0.2,2.2,0.4,3.3,0.6c1.1,0.3,1.3,1.1,0.6,2c-0.4,0.4-0.8,0.9-1.3,1.3c-1.1,1.1-1.2,1.1-2.4,0.1c-0.4-0.3-0.7-0.1-1-0.1
			c-3.7,0.8-7.4,1.7-11.1,2.5c-7.1,1.6-14.1,3.2-21.2,4.8c-10.3,2.3-20.5,4.6-30.8,6.9c-7.9,1.8-15.7,3.4-23.6,5.2
			c-3.3,0.8-6.6,1.7-10,2.3c-5.9,1-11.5,2.8-17.3,4C76.2,108.9,76,109,75.9,109.1z"/>
		<path id="XMLID_197_" class="st2" d="M154,96.3c-3.3,0.1-8.1,0.7-12.8,1.6c-11.1,2.2-22,5-33,7.3c-3.6,0.7-7.1,1.7-10.7,2.4
			c-8.3,1.6-16.4,3.8-24.6,5.7c-9.2,2.1-18.4,4.4-27.6,6.5c-0.1,0-0.2,0.1-0.3,0.1c-0.4,0-1.1,0.3-1.2-0.4c-0.1-0.6,0.6-0.6,0.9-0.7
			c4.5-1.1,8.9-2.1,13.4-3.2c12.3-2.9,24.5-6,36.8-8.7c8-1.7,16-3.5,23.9-5.3c7.7-1.7,15.5-3.5,23.2-5.1c3.7-0.8,7.5-1.2,11.3-1.3
			c7.4-0.3,14.6,1,21.5,3.9c1.6,0.7,3.1,1.6,4.4,2.6c1.4,1.1,2.9,2,4.3,3c0.7,0.5,1.2,0.7,2,0.2c0.8-0.5,1.2-0.2,1.1,0.8
			c-0.2,2.3-0.2,2.3-2.5,2c-0.3,0-0.6-0.1-0.9-0.2c-0.4-0.1-1.1,0.1-1.2-0.5c-0.2-0.6,0.5-0.7,0.8-0.9c0.4-0.3,0.3-0.4,0-0.7
			c-5.3-4-10.9-7.3-17.6-8.1C161.9,97,158.8,96.2,154,96.3z"/>
		<path id="XMLID_196_" class="st2" d="M138.8,103.8c-4.3-0.2-8.7,1-13.1,1.9c-8.2,1.6-16.4,3.6-24.5,5.4c-13.3,3-26.5,6.3-39.7,9.4
			c-0.2,0-0.3,0.1-0.5,0.1c-0.4,0-0.8,0.1-0.8-0.4c-0.1-0.4,0.3-0.5,0.6-0.6c1.6-0.4,3.2-0.8,4.8-1.2c11.4-2.7,22.8-5.5,34.2-8.1
			c8.8-2,17.7-4,26.5-5.9c4.4-0.9,8.8-2,13.4-1.8c4.4,0.2,8.9,0.5,13,2.3c2.5,1.2,4.7,2.8,6.3,5.2c1.8,2.7,3.6,5.3,5.4,8
			c0.4,0.6,0.8,0.9,1.6,0.6c0.4-0.1,0.9-0.3,1.2,0.2c0.3,0.4-0.1,0.8-0.3,1.1c-0.4,0.5-0.5,1.5-1.3,1.5c-1.2-0.1-2.4-0.3-3.4-1.1
			c-0.6-0.5,0.1-0.8,0.6-0.9c1-0.1,0.8-0.5,0.4-1.1c-1.5-2.2-3-4.3-4.4-6.6c-2.4-3.8-5.7-6-10-7C145.5,104,142.3,103.7,138.8,103.8z
			"/>
		<path id="XMLID_195_" class="st2" d="M74.6,99.7c0-0.4,0-0.8,0-1.2c3.9-0.7,7.7-2,11.6-2.8c11.6-2.5,23.1-5.3,34.7-8
			c5-1.2,8.9-4.1,11.8-8.3c1.5-2.2,1.4-4.9,0.2-7.2c-1.8-3.5-4-6.7-6.2-10c-0.4-0.6-0.8-0.4-1.4-0.3c-0.4,0.1-0.9,0.4-1.2,0
			c-0.4-0.4,0-0.8,0.2-1.2c1.3-2.5,0.5-2.3,3.4-1.3c0.2,0.1,0.3,0.1,0.4,0.2c0.4,0.2,1,0.2,1.1,0.8c0.1,0.7-0.6,0.6-1,0.8
			c-0.9,0.3-0.4,0.6-0.1,1c1.8,2.9,3.6,5.8,5.5,8.7c1.7,2.6,1.7,7.6-1,10.7c-4.2,4.7-9.4,6.9-15.3,8.2c-7.5,1.6-14.9,3.3-22.4,5.1
			C88.1,96.5,81.3,98,74.6,99.7z"/>
		<path id="XMLID_194_" class="st2" d="M71.7,107.6c0.1,0.8,0.3,1.6,0.2,2.4c-3.3,0.8-6.7,1.5-10,2.3c-3.2,0.8-6.4,1.5-9.6,2.3
			c-0.8,0.2-1.4,0-1.6-0.8c-0.2-0.8,0.3-1.3,1-1.5c2.7-0.7,5.4-1.3,8.1-2c1.1-0.3,2.3-0.3,3.3-1l0,0c1.4-0.1,2.8-0.3,4.1-1
			c0,0,0,0,0,0C68.7,108.6,70.2,107.9,71.7,107.6z"/>
		<path id="XMLID_193_" class="st2" d="M64.3,101.1c0,0.4,0,0.8,0,1.2c-2.3,0.3-4.4,1-6.6,1.5c-5.7,1.4-11.4,2.8-17.1,4.1
			c-0.5,0.1-1.2,0.6-1.4-0.2c-0.2-0.9,0.7-0.8,1.2-0.9c2-0.5,4.1-1,6.1-1.5c5.7-1.4,11.4-2.8,17-4.2C63.8,101.1,64,101.1,64.3,101.1
			z"/>
		<path id="XMLID_192_" class="st2" d="M71.2,28.7c-0.1,0.6-0.2,1.3-0.7,1.7c-0.5,0.5-0.9,1.1-1,1.9c0,0.3-0.2,0.7-0.6,0.6
			c-0.4-0.1-0.4-0.4-0.4-0.8c0-0.6,0.2-1.2,0.6-1.6c0.4-0.5,0.7-0.9,0.9-1.5c0.2-0.6,0-1-0.5-1.3c-0.5-0.4-0.9-0.1-1.1,0.4
			c-0.1,0.3-0.4,0.5-0.7,0.3c-0.4-0.3-0.3-0.6-0.1-1c0.3-0.6,0.8-0.8,1.4-0.8c0.7,0,1.4,0.2,1.7,0.8C71.1,27.8,71.2,28.2,71.2,28.7z
			"/>
		<path id="XMLID_191_" class="st2" d="M101.5,84.6c0,0.3,0,0.6,0,0.9c-2.6,0.8-5.2,1.3-7.9,1.8c-0.2,0-0.4,0.1-0.5-0.2
			c0-0.1,0-0.3,0.1-0.4c0.1-0.1,0.3-0.3,0.5-0.3C96.3,85.8,98.9,85.2,101.5,84.6z"/>
		<path id="XMLID_190_" class="st2" d="M71.5,110.7c-0.2,0.3-0.1,0.5,0.2,0.5c-1,0.9-2.2,0.7-3.4,0.9c-0.2,0-0.3-0.1-0.3-0.3
			c0-0.2,0.2-0.3,0.4-0.4C69.4,111.2,70.5,111,71.5,110.7z"/>
		<path id="XMLID_189_" class="st2" d="M63.1,109.5c-0.7,0.1-1.5,0.2-2.2,0.2c-0.2,0-0.5,0.1-0.6-0.3c0-0.2,0.2-0.3,0.4-0.4
			c0.5-0.1,0.9-0.2,1.4-0.3C62.8,108.5,63,108.9,63.1,109.5C63.1,109.5,63.1,109.5,63.1,109.5z"/>
		<path id="XMLID_188_" class="st2" d="M69.3,35.5c-0.4,0-0.7-0.3-0.7-0.7c0-0.4,0.2-0.7,0.7-0.7c0.4,0,0.7,0.2,0.7,0.6
			C70,35.2,69.7,35.4,69.3,35.5z"/>
		<path id="XMLID_187_" class="st2" d="M13.5,114.5c-0.4,0-0.6-0.2-0.5-0.6c0.1-0.4,0.3-0.5,0.7-0.5c0.4,0,0.6,0.2,0.6,0.6
			C14.2,114.4,13.9,114.5,13.5,114.5z"/>
		<path id="XMLID_186_" class="st2" d="M36.1,108.5c0,0.5-0.2,0.6-0.6,0.7c-0.3,0.1-0.7-0.1-0.7-0.4c-0.1-0.4,0.2-0.6,0.6-0.7
			C35.8,108.1,36,108.3,36.1,108.5z"/>
		<path id="XMLID_185_" class="st2" d="M34,109.1c0,0.4-0.3,0.6-0.6,0.6c-0.3,0-0.7-0.1-0.7-0.4c-0.1-0.4,0.2-0.6,0.6-0.7
			C33.6,108.6,33.9,108.8,34,109.1z"/>
		<path id="XMLID_184_" class="st2" d="M54.9,121.6c-0.1,0.4-0.3,0.5-0.6,0.6c-0.4,0-0.6-0.2-0.6-0.5c0-0.4,0.3-0.5,0.6-0.6
			C54.6,121.1,54.8,121.3,54.9,121.6z"/>
		<path id="XMLID_183_" class="st2" d="M47.4,123.8c-0.3,0-0.6-0.2-0.6-0.5c0-0.4,0.3-0.6,0.6-0.6c0.4,0,0.7,0.1,0.7,0.5
			C48.1,123.7,47.7,123.7,47.4,123.8z"/>
		<path id="XMLID_182_" class="st2" d="M34.2,122.2c-0.1,0.4-0.3,0.5-0.7,0.5c-0.4,0-0.6-0.2-0.6-0.6c0.1-0.4,0.4-0.5,0.8-0.5
			C34,121.6,34.2,121.8,34.2,122.2z"/>
		<path id="XMLID_181_" class="st2" d="M36.4,121.7c-0.1,0.4-0.4,0.6-0.8,0.5c-0.3,0-0.5-0.2-0.4-0.6c0.1-0.3,0.3-0.6,0.7-0.5
			C36.2,121.1,36.4,121.3,36.4,121.7z"/>
		<path id="XMLID_180_" class="st2" d="M16.4,113.4c0,0.4-0.4,0.5-0.7,0.6c-0.4,0.1-0.6-0.1-0.7-0.5c0-0.4,0.3-0.6,0.6-0.6
			C16.1,112.9,16.4,113,16.4,113.4z"/>
		<path id="XMLID_179_" class="st2" d="M18.6,112.9c-0.1,0.5-0.4,0.6-0.8,0.6c-0.3,0-0.5-0.2-0.5-0.5c0-0.4,0.3-0.5,0.6-0.6
			C18.3,112.4,18.5,112.5,18.6,112.9z"/>
		<path id="XMLID_178_" class="st2" d="M23,111.8c0,0.4-0.2,0.6-0.6,0.6c-0.3,0-0.7-0.1-0.7-0.5c0-0.4,0.3-0.6,0.6-0.6
			C22.6,111.2,22.9,111.4,23,111.8z"/>
		<path id="XMLID_177_" class="st2" d="M37.6,107.6c0.3,0,0.6,0.1,0.6,0.5c0,0.4-0.3,0.6-0.7,0.6c-0.3,0-0.5-0.2-0.5-0.5
			C37,107.8,37.3,107.6,37.6,107.6z"/>
		<path id="XMLID_176_" class="st2" d="M47.5,115.2c-0.4,0-0.7-0.2-0.7-0.6c0-0.4,0.3-0.5,0.6-0.6c0.3,0,0.6,0.1,0.6,0.4
			C48.1,114.9,47.7,115.1,47.5,115.2z"/>
		<path id="XMLID_175_" class="st2" d="M31.4,122.1c0.3,0,0.6,0.2,0.6,0.5c0,0.4-0.2,0.6-0.6,0.6c-0.4,0-0.7-0.1-0.7-0.5
			C30.8,122.3,31.1,122.1,31.4,122.1z"/>
		<path id="XMLID_174_" class="st2" d="M45.9,115.1c-0.1,0.4-0.4,0.6-0.8,0.6c-0.3,0-0.5-0.2-0.5-0.5c0-0.4,0.3-0.6,0.7-0.6
			C45.7,114.6,45.9,114.8,45.9,115.1z"/>
		<path id="XMLID_173_" class="st2" d="M29.5,110.2c0,0.4-0.2,0.6-0.5,0.6c-0.4,0-0.6-0.2-0.6-0.5c0-0.4,0.3-0.5,0.6-0.6
			C29.2,109.7,29.4,109.8,29.5,110.2z"/>
		<path id="XMLID_172_" class="st2" d="M27.3,110.8c-0.1,0.4-0.4,0.6-0.8,0.6c-0.3,0-0.5-0.3-0.4-0.6c0.1-0.4,0.3-0.5,0.7-0.5
			C27.1,110.3,27.3,110.5,27.3,110.8z"/>
		<path id="XMLID_171_" class="st2" d="M20.8,112.3c0,0.3-0.3,0.6-0.6,0.7c-0.4,0.1-0.6-0.1-0.7-0.5c-0.1-0.4,0.2-0.6,0.5-0.6
			C20.4,111.9,20.7,111.9,20.8,112.3z"/>
		<path id="XMLID_170_" class="st2" d="M11.4,114c0.3,0,0.5,0.2,0.5,0.5c0,0.4-0.2,0.6-0.5,0.6c-0.4,0-0.6-0.1-0.6-0.5
			C10.8,114.1,11.1,114.1,11.4,114z"/>
		<path id="XMLID_169_" class="st2" d="M32.8,118.3c-0.1,0.4-0.3,0.6-0.6,0.5c-0.3,0-0.6-0.2-0.5-0.6c0.1-0.4,0.4-0.5,0.7-0.5
			C32.7,117.7,32.8,117.9,32.8,118.3z"/>
		<path id="XMLID_168_" class="st2" d="M24.5,110.8c0.3,0,0.6,0.2,0.6,0.5c0,0.4-0.3,0.6-0.7,0.6c-0.3,0-0.5-0.2-0.5-0.5
			C24,111,24.2,110.8,24.5,110.8z"/>
		<path id="XMLID_167_" class="st2" d="M19.3,120.8c0.4,0,0.6,0.2,0.5,0.5c0,0.4-0.3,0.6-0.6,0.6c-0.3,0-0.5-0.2-0.5-0.5
			C18.7,121,19,120.8,19.3,120.8z"/>
		<path id="XMLID_166_" class="st2" d="M57,121.1c-0.1,0.4-0.4,0.5-0.7,0.5c-0.3,0-0.6-0.2-0.5-0.5c0.1-0.3,0.4-0.5,0.7-0.5
			C56.9,120.6,57,120.8,57,121.1z"/>
		<path id="XMLID_165_" class="st2" d="M40.2,120.1c0.3,0,0.5,0.1,0.6,0.4c0,0.4-0.3,0.5-0.6,0.6c-0.3,0.1-0.5-0.2-0.5-0.5
			C39.5,120.2,39.8,120.1,40.2,120.1z"/>
		<path id="XMLID_164_" class="st2" d="M29.2,122.7c0.3,0,0.6,0.1,0.6,0.5c0,0.3-0.3,0.4-0.6,0.5c-0.4,0-0.6-0.1-0.6-0.5
			C28.6,122.8,28.9,122.7,29.2,122.7z"/>
		<path id="XMLID_163_" class="st2" d="M31.6,109.6c0,0.4-0.3,0.6-0.6,0.6c-0.3,0-0.6-0.1-0.6-0.4c0-0.4,0.3-0.6,0.6-0.6
			C31.4,109.1,31.6,109.3,31.6,109.6z"/>
		<path id="XMLID_162_" class="st2" d="M43,115.1c0.4,0,0.6,0.2,0.6,0.6c0,0.4-0.3,0.5-0.6,0.6c-0.3,0-0.5-0.2-0.6-0.5
			C42.4,115.3,42.7,115.2,43,115.1z"/>
		<path id="XMLID_161_" class="st2" d="M38.6,121c0,0.4-0.3,0.5-0.6,0.6c-0.3,0.1-0.5-0.1-0.5-0.5c0-0.4,0.2-0.5,0.6-0.6
			C38.3,120.6,38.5,120.7,38.6,121z"/>
		<path id="XMLID_160_" class="st2" d="M22,120.8c0,0.4-0.3,0.5-0.6,0.6c-0.4,0-0.6-0.2-0.5-0.6c0.1-0.4,0.4-0.5,0.7-0.5
			C21.9,120.3,22,120.5,22,120.8z"/>
		<path id="XMLID_159_" class="st2" d="M30.7,118.8c-0.1,0.3-0.3,0.5-0.7,0.5c-0.3,0-0.5-0.2-0.5-0.5c0-0.4,0.3-0.6,0.7-0.6
			C30.5,118.2,30.7,118.5,30.7,118.8z"/>
		<path id="XMLID_158_" class="st2" d="M35,117.7c0,0.4-0.3,0.5-0.6,0.6c-0.4,0.1-0.6-0.2-0.6-0.5c0-0.4,0.3-0.5,0.6-0.6
			C34.8,117.2,35,117.3,35,117.7z"/>
		<path id="XMLID_157_" class="st2" d="M24.2,120.3c0,0.4-0.3,0.5-0.6,0.5c-0.3,0-0.5-0.1-0.5-0.5c0-0.4,0.3-0.5,0.6-0.5
			C24,119.8,24.2,119.9,24.2,120.3z"/>
		<path id="XMLID_156_" class="st2" d="M28.5,119.2c0,0.5-0.3,0.6-0.6,0.7c-0.3,0-0.6-0.1-0.6-0.5c0-0.4,0.3-0.5,0.6-0.6
			C28.3,118.7,28.5,118.9,28.5,119.2z"/>
		<path id="XMLID_155_" class="st2" d="M9.9,115c0,0.4-0.3,0.5-0.6,0.5c-0.3,0-0.6-0.1-0.6-0.4c0-0.4,0.2-0.6,0.6-0.6
			C9.6,114.6,9.8,114.7,9.9,115z"/>
		<path id="XMLID_154_" class="st2" d="M50.3,122.7c0,0.3-0.2,0.5-0.5,0.5c-0.3,0-0.6,0-0.6-0.5c0-0.4,0.3-0.4,0.5-0.5
			C50,122.2,50.3,122.3,50.3,122.7z"/>
		<path id="XMLID_153_" class="st2" d="M59.2,120.6c0,0.4-0.3,0.5-0.6,0.5c-0.3,0-0.6-0.1-0.5-0.5c0-0.3,0.2-0.5,0.5-0.5
			C59,120.1,59.1,120.3,59.2,120.6z"/>
		<path id="XMLID_152_" class="st2" d="M26.3,119.8c0,0.4-0.3,0.5-0.6,0.5c-0.3,0-0.5-0.1-0.5-0.5c0-0.4,0.3-0.5,0.6-0.5
			C26.1,119.3,26.3,119.4,26.3,119.8z"/>
		<path id="XMLID_151_" class="st2" d="M40.9,116.7c-0.3,0-0.6-0.1-0.6-0.5c0-0.4,0.3-0.6,0.6-0.6c0.3-0.1,0.5,0.1,0.6,0.5
			C41.5,116.5,41.2,116.6,40.9,116.7z"/>
		<path id="XMLID_150_" class="st2" d="M37.2,117.2c0,0.4-0.3,0.5-0.6,0.5c-0.3,0-0.6-0.1-0.5-0.5c0-0.4,0.3-0.5,0.6-0.5
			C36.9,116.7,37.1,116.8,37.2,117.2z"/>
		<path id="XMLID_149_" class="st2" d="M52,121.8c0.3,0,0.5,0.1,0.5,0.4c0,0.4-0.2,0.5-0.5,0.5c-0.3,0-0.6-0.1-0.5-0.5
			C51.4,121.9,51.7,121.8,52,121.8z"/>
		<path id="XMLID_148_" class="st2" d="M49.4,113.6c0.4,0,0.6,0.1,0.6,0.5c0,0.4-0.2,0.5-0.5,0.5c-0.3,0-0.6-0.1-0.6-0.4
			C49,113.8,49.2,113.7,49.4,113.6z"/>
		<path id="XMLID_147_" class="st2" d="M39.3,116.7c0,0.3-0.2,0.5-0.5,0.5c-0.4,0-0.7-0.1-0.6-0.5c0-0.3,0.3-0.4,0.6-0.5
			C39.1,116.2,39.3,116.3,39.3,116.7z"/>
		<path id="XMLID_146_" class="st2" d="M42.2,119.6c0.4,0,0.6,0.1,0.6,0.4c0,0.3-0.2,0.5-0.5,0.5c-0.3,0-0.5-0.1-0.5-0.4
			C41.7,119.8,42,119.7,42.2,119.6z"/>
		<path id="XMLID_145_" class="st0" d="M103.7,30.2c0.2,0.8,0,1.1-0.5,1.2c-4.1,1.2-8.3,2.4-12.4,3.7c-1.1,0.3-1.3-0.8-1.9-1.2
			c-0.7-0.5,0.1-0.8,0.3-1.2c0.7-1.5,1.9-2.2,3.5-2.6c3.4-0.9,6.8-1.9,10.1-2.9c0.7-0.2,1.1-0.1,1,0.7
			C103.6,28.9,103.7,29.7,103.7,30.2z"/>
		<path id="XMLID_144_" class="st2" d="M104.8,17.1c0-2.2,0-2.2,2.1-2.6c3.4-0.8,6.7-2.1,10.1-3c0.8-0.2,2.7,0.7,3,1.4
			c0.1,0.2,0,0.3-0.1,0.4c-1.1,1.1-1.9,2.5-3.7,2.9C112.9,17,109.4,18,106,19c-1,0.3-1.4,0.2-1.2-0.9
			C104.8,17.7,104.8,17.4,104.8,17.1z"/>
		<path id="XMLID_143_" class="st2" d="M104.9,23.6c3.2,1.7,6.4,3.3,9.5,5c1,0.6,1.5,1.8,1.9,2.8c0.3,0.7-0.7,1.2-1.1,1.8
			c-0.3,0.5-0.7,0.1-1-0.1c-2.8-1.6-5.7-3.1-8.6-4.5c-0.7-0.3-0.9-0.7-0.9-1.5C104.7,26.1,104.7,24.9,104.9,23.6z"/>
		<path id="XMLID_142_" class="st2" d="M103.8,23.1c-3.1-1.6-6-2.9-8.8-4.5c-1.3-0.8-1.8-2.2-2.7-3.3c-0.1-0.1-0.1-0.2,0-0.3
			c0.3-0.8,2-1.5,2.8-1.1c2.6,1.4,5.3,2.8,8,4.1c0.6,0.3,0.8,0.6,0.8,1.3C103.8,20.5,103.8,21.7,103.8,23.1z"/>
		<path id="XMLID_141_" class="st0" d="M71.7,107.6c-1.5,0.3-3,1-4.6,0.9c0.3-0.4,0.7-0.2,1.1-0.4c0.3-0.1,0.8,0,0.8-0.5
			c0-0.4-0.3-0.8-0.8-0.7c-1.1,0.1-1.1-0.5-1-1.3c0.2-1.5,0.4-3,0.7-4.4c1.1,0.2,2-0.5,3.1-0.5C71.2,103,71.5,105.3,71.7,107.6z"/>
		<path id="XMLID_140_" class="st0" d="M70.5,49.1c-0.8-0.2-1.5-0.5-2.2-0.6c-0.9-0.1-1.1-0.5-1-1.4c0.1-0.7,0.2-1.1,0.9-0.8
			c0.8,0.3,0.9-0.1,0.9-0.7c0-0.2,0.1-0.5,0.1-0.7c0.1-0.8,0.4-1,1.1-0.5c0.2,0.2,0.4,0.4,0.7,0.3c0.4-0.2,0.3-0.6,0.2-0.9
			c-0.2-1.1-0.1-2.1,0.9-2.8c0.5-0.4,0.8-0.4,0.8,0.3c0,1.2,0,2.4,0.2,3.7c0.1,0.6-0.5,1.5-0.7,2.3c-0.1,0.3-0.4,0.2-0.6,0.1
			c-0.3-0.2-0.7-0.4-1-0.6c-0.2-0.1-0.4-0.5-0.7-0.2c-0.3,0.3-0.1,0.6,0.1,0.7C71,47.8,70.4,48.5,70.5,49.1z"/>
		<path id="XMLID_139_" class="st0" d="M67.9,100.1c0.5-3.7,1.1-7.3,1.6-11c0.1,0,0.1,0,0.2,0c0.4,3.4,0.8,6.8,1.2,10.3
			C70,99.8,68.9,99.9,67.9,100.1z"/>
		<path id="XMLID_138_" class="st2" d="M67.9,100.1c1-0.2,2-0.3,3-0.7c0,0.4,0,0.8,0.1,1.3c-1.1-0.1-2,0.6-3.1,0.5
			C67.9,100.8,67.9,100.4,67.9,100.1z"/>
		<path id="XMLID_137_" class="st2" d="M71.2,50.7c-1.4-0.6-2.9-0.9-4.5-1.1c-0.2,0-0.5,0-0.5-0.3c0-0.2,0.2-0.4,0.4-0.3
			C68.3,49.2,69.9,49.5,71.2,50.7z"/>
		<path id="XMLID_136_" class="st0" d="M76.3,76.6c-0.1,0.5-0.5,0.6-0.8,0.7c-0.2,0.1-0.4-0.2-0.4-0.4c0.1-0.4,0.4-0.7,0.8-0.9
			C76.2,76,76.2,76.4,76.3,76.6z"/>
	</g>
</g>
</svg>
