<?xml version="1.0" encoding="utf-8"?>
<!-- Generator: Adobe Illustrator 19.0.0, SVG Export Plug-In . SVG Version: 6.00 Build 0)  -->
<svg version="1.1" id="Layer_1" xmlns="http://www.w3.org/2000/svg" xmlns:xlink="http://www.w3.org/1999/xlink" x="0px" y="0px"
	 viewBox="0 0 168.3 156.7" style="enable-background:new 0 0 168.3 156.7;" xml:space="preserve">
<style type="text/css">
	.st0{fill:none;}
	.st1{font-family:'HelveticaNeue-CondensedBold';}
	.st2{font-size:19.8425px;}
	.st3{fill:#F7941E;}
	.st4{font-size:42.5197px;}
	.st5{font-family:'HelveticaNeue-Bold';}
	.st6{font-size:14.1732px;}
	.st7{font-size:9.9213px;}
	.st8{font-size:8.5039px;}
	.st9{fill:#F78F21;}
	.st10{font-size:22.6772px;}
</style>
<g id="XMLID_1081_">
	<rect id="XMLID_94_" x="27.1" y="12.3" class="st0" width="113" height="22.2"/>
	<text id="XMLID_93_" transform="matrix(1 0 0 1 34.1603 26.4962)" class="st1 st2">SHORT CUTS</text>
</g>
<g id="XMLID_1076_">
	<rect id="XMLID_92_" x="27.5" y="32.5" class="st0" width="113.5" height="25"/>
	<text id="XMLID_91_" transform="matrix(1 0 0 1 38.5388 46.6588)" class="st1 st2">ARE MESSY</text>
</g>
<g id="XMLID_1071_">
	<rect id="XMLID_90_" x="27.4" y="52.3" class="st0" width="113.3" height="30.9"/>
	<text id="XMLID_89_" transform="matrix(1 0 0 1 32.9145 82.609)" class="st3 st1 st4">THINK</text>
</g>
<g id="XMLID_1004_">
	<rect id="XMLID_45_" x="49.6" y="129.4" class="st0" width="71.7" height="11.6"/>
	<text id="XMLID_1069_" transform="matrix(1 0 0 1 49.5554 139.4729)" class="st3 st5 st6">safehandz</text>
	<text id="XMLID_1068_" transform="matrix(1 0 0 1 122.3978 139.5374)" class="st1 st7">FH</text>
	<text id="XMLID_1067_" transform="matrix(1.0322 0 0 1 80.0787 128.3416)" class="st1 st8">S9  </text>
	<text id="XMLID_1066_" transform="matrix(1 0 0 1 60.4491 128.3388)" class="st1 st8">4131</text>
	<g id="XMLID_1029_">
		<g id="XMLID_1042_">
			<g id="XMLID_82_">
				<g id="XMLID_83_">
					<path id="XMLID_86_" class="st3" d="M45.9,135.8c-0.4,0-0.9,0.4-1.3,0.8c0,0-0.5,0.8-1.5,0.8c-1.1,0-2-0.9-2-2c0-1.1,1-2,2-2
						c0.9,0,1.5,0.8,1.5,0.8c0.3,0.5,1,0.9,1.4,0.9c0.5,0,1-0.4,0.7-0.9c0,0-1.5-2.8-3.6-2.8c-2.2,0-4.1,1.8-4.1,4.1
						c0,2.3,1.9,4.1,4.1,4.1c2,0,3.6-2.8,3.6-2.8C47,136.2,46.3,135.8,45.9,135.8z"/>
				</g>
			</g>
		</g>
		<g id="XMLID_1038_">
			<path id="XMLID_1039_" class="st9" d="M45.4,126.1c0.3-2.2,0.1-3.7,0.1-3.7c-0.1-0.8-0.6-1.4-1.2-1.3c-0.6,0.1-1,0.3-1,0.3
				c0.1,0.6,0.2,1.2,0.2,1.9c0,0,0,1.3-0.2,2.8c-0.5,2.6-1.8,5.1-2.3,5.9c0.3-0.1,0.6-0.3,1.1-0.4c0.5-0.1,0.9-0.2,1.2-0.2
				C44,130.1,45.1,128.3,45.4,126.1z"/>
		</g>
		<g id="XMLID_1034_">
			<path id="XMLID_1037_" class="st9" d="M42.6,127.3c0-0.3,0.1-0.5,0.1-0.8c0-0.2,0-0.3,0.1-0.5c0-0.1,0-0.2,0-0.3c0-0.2,0-0.6,0-1
				c0-0.2,0-0.5,0-0.7c0-0.7-0.1-1.5-0.1-1.5c-0.1-0.6-0.5-0.9-1.1-0.8L41,122c0.2,1.3,0.4,3,0.3,5.1c-0.1,2.5-0.4,3.3-0.7,4.8
				C40.6,131.9,42.2,129.3,42.6,127.3z"/>
		</g>
		<g id="XMLID_1032_">
			<path id="XMLID_1033_" class="st9" d="M40.9,127.1c0-0.2,0-0.3,0-0.5c0-0.2,0-0.5,0-0.7c0-0.3,0-0.6,0-0.8c0-1-0.2-2-0.2-2
				c-0.1-0.6-0.4-0.9-0.8-0.8s-0.7,0.2-0.7,0.2c0.3,1.5,0.6,2.5,0.7,5.2c0.1,2.1-0.3,5.3-0.3,5.3C40.5,131.7,40.8,129.2,40.9,127.1z
				"/>
		</g>
	</g>
	<g id="XMLID_1006_">
		<path id="XMLID_1028_" d="M57.6,122.3c0,0.3,0,0.5,0,0.8c-0.1,0-0.1,0-0.2,0c-0.3,0-0.5,0-0.7,0.1c-0.7,0.2-1.1,0.6-1.4,1.2
			c-0.1,0.1-0.1,0.3-0.2,0.4c0,0,0,0.1,0,0.2c0.6,0,1.2,0,1.8,0c0,0.3,0,0.5,0,0.8c-0.6,0-1.2,0-1.7,0c0,0.2,0,0.3,0.1,0.4
			c0.3,0.6,0.7,1.1,1.3,1.3c0.2,0.1,0.5,0.1,0.8,0.1c0.1,0,0.2,0,0.4,0c0,0.3,0,0.5,0,0.8c-1.2,0.1-2.1-0.3-2.8-1.2
			c-0.7-1-0.8-2.1-0.2-3.3C55.2,122.7,56.2,122.2,57.6,122.3z"/>
		<path id="XMLID_1027_" d="M54,122.3c0,0.3,0,0.5,0,0.8c-0.1,0-0.2,0-0.3,0c-0.2,0-0.5,0-0.7,0.1c-0.6,0.2-1.1,0.6-1.4,1.2
			c-0.2,0.3-0.2,0.7-0.2,1c0,0.4,0.1,0.7,0.3,1c0.4,0.8,1.1,1.2,2,1.2c0.1,0,0.2,0,0.4,0c0,0.3,0,0.5,0,0.8c-0.9,0.1-2-0.2-2.8-1.2
			c-0.7-1-0.8-2.3-0.2-3.4C51.6,122.6,52.8,122.2,54,122.3z"/>
	</g>
</g>
<g id="XMLID_376_">
	<rect id="XMLID_96_" x="28.3" y="90.5" class="st0" width="113" height="28.1"/>
	<text id="XMLID_95_" transform="matrix(1 0 0 1 56.2427 106.6674)" class="st1 st10">TWICE</text>
</g>
</svg>
