<?xml version="1.0" encoding="utf-8"?>
<!-- Generator: Adobe Illustrator 19.0.0, SVG Export Plug-In . SVG Version: 6.00 Build 0)  -->
<svg version="1.1" id="Layer_1" xmlns="http://www.w3.org/2000/svg" xmlns:xlink="http://www.w3.org/1999/xlink" x="0px" y="0px"
	 viewBox="0 0 168.3 156.7" style="enable-background:new 0 0 168.3 156.7;" xml:space="preserve">
<style type="text/css">
	.st0{fill:none;}
	.st1{font-family:'HelveticaNeue-CondensedBold';}
	.st2{font-size:19.8425px;}
	.st3{fill:#F7941E;}
	.st4{font-size:42.5197px;}
	.st5{font-size:22.6772px;}
	.st6{font-family:'HelveticaNeue-Bold';}
	.st7{font-size:14.1732px;}
	.st8{font-size:9.9213px;}
	.st9{font-size:8.5039px;}
	.st10{fill:#F78F21;}
</style>
<g id="XMLID_580_">
	<rect id="XMLID_97_" x="27.3" y="11.5" class="st0" width="113" height="22.2"/>
	<text id="XMLID_96_" transform="matrix(1 0 0 1 28.9506 25.686)" class="st1 st2">NOTHING LIKE</text>
</g>
<g id="XMLID_575_">
	<rect id="XMLID_99_" x="27.8" y="31.7" class="st0" width="113.5" height="25"/>
	<text id="XMLID_98_" transform="matrix(1 0 0 1 44.6884 45.8486)" class="st1 st2">SHE’LL BE</text>
</g>
<g id="XMLID_570_">
	<rect id="XMLID_101_" x="27" y="74" class="st0" width="113.3" height="30.9"/>
	<text id="XMLID_100_" transform="matrix(1 0 0 1 32.5308 104.4033)" class="st3 st1 st4">THINK</text>
</g>
<g id="XMLID_556_">
	<rect id="XMLID_105_" x="27.2" y="51.9" class="st0" width="113" height="28.1"/>
	<text id="XMLID_102_" transform="matrix(1 0 0 1 56.3805 68.0883)" class="st1 st5">RIGHT</text>
</g>
<rect id="XMLID_36_" x="49.2" y="130.7" class="st0" width="71.7" height="11.6"/>
<text id="XMLID_127_" transform="matrix(1 0 0 1 49.2374 140.7814)" class="st3 st6 st7">safehandz</text>
<text id="XMLID_123_" transform="matrix(1 0 0 1 122.0798 140.8459)" class="st1 st8">MH</text>
<text id="XMLID_122_" transform="matrix(1.0322 0 0 1 79.7607 129.6501)" class="st1 st9">S9  </text>
<text id="XMLID_107_" transform="matrix(1 0 0 1 60.1311 129.6473)" class="st1 st9">4131</text>
<g id="XMLID_63_">
	<g id="XMLID_88_">
		<g id="XMLID_109_">
			<g id="XMLID_110_">
				<path id="XMLID_111_" class="st10" d="M45.6,137.1c-0.4,0-0.9,0.4-1.3,0.8c0,0-0.5,0.8-1.5,0.8c-1.1,0-2-0.9-2-2c0-1.1,1-2,2-2
					c0.9,0,1.5,0.8,1.5,0.8c0.3,0.5,1,0.9,1.4,0.9c0.5,0,1-0.4,0.7-0.9c0,0-1.5-2.8-3.6-2.8c-2.2,0-4.1,1.8-4.1,4.1
					c0,2.3,1.9,4.1,4.1,4.1c2,0,3.6-2.8,3.6-2.8C46.7,137.5,46,137.1,45.6,137.1z"/>
			</g>
		</g>
	</g>
	<g id="XMLID_79_">
		<path id="XMLID_80_" class="st10" d="M45.1,127.4c0.3-2.2,0.1-3.7,0.1-3.7c-0.1-0.8-0.6-1.4-1.2-1.3c-0.6,0.1-1,0.3-1,0.3
			c0.1,0.6,0.2,1.2,0.2,1.9c0,0,0,1.3-0.2,2.8c-0.5,2.6-1.8,5.1-2.3,5.9c0.3-0.1,0.6-0.3,1.1-0.4c0.5-0.1,0.9-0.2,1.2-0.2
			C43.7,131.4,44.8,129.7,45.1,127.4z"/>
	</g>
	<g id="XMLID_68_">
		<path id="XMLID_78_" class="st10" d="M42.3,128.6c0-0.3,0.1-0.5,0.1-0.8c0-0.2,0-0.3,0.1-0.5c0-0.1,0-0.2,0-0.3c0-0.2,0-0.6,0-1
			c0-0.2,0-0.5,0-0.7c0-0.7-0.1-1.5-0.1-1.5c-0.1-0.6-0.5-0.9-1.1-0.8l-0.7,0.2c0.2,1.3,0.4,3,0.3,5.1c-0.1,2.5-0.4,3.3-0.7,4.8
			C40.3,133.2,41.9,130.6,42.3,128.6z"/>
	</g>
	<g id="XMLID_66_">
		<path id="XMLID_67_" class="st10" d="M40.6,128.4c0-0.2,0-0.3,0-0.5c0-0.2,0-0.5,0-0.7c0-0.3,0-0.6,0-0.8c0-1-0.2-2-0.2-2
			c-0.1-0.6-0.4-0.9-0.8-0.8s-0.7,0.2-0.7,0.2c0.3,1.5,0.6,2.5,0.7,5.2c0.1,2.1-0.3,5.3-0.3,5.3C40.2,133,40.5,130.5,40.6,128.4z"/>
	</g>
</g>
<g id="XMLID_45_">
	<path id="XMLID_51_" d="M57.2,123.6c0,0.3,0,0.5,0,0.8c-0.1,0-0.1,0-0.2,0c-0.3,0-0.5,0-0.7,0.1c-0.7,0.2-1.1,0.6-1.4,1.2
		c-0.1,0.1-0.1,0.3-0.2,0.4c0,0,0,0.1,0,0.2c0.6,0,1.2,0,1.8,0c0,0.3,0,0.5,0,0.8c-0.6,0-1.2,0-1.7,0c0,0.2,0,0.3,0.1,0.4
		c0.3,0.6,0.7,1.1,1.3,1.3c0.2,0.1,0.5,0.1,0.8,0.1c0.1,0,0.2,0,0.4,0c0,0.3,0,0.5,0,0.8c-1.2,0.1-2.1-0.3-2.8-1.2
		c-0.7-1-0.8-2.1-0.2-3.3C54.9,124,55.9,123.5,57.2,123.6z"/>
	<path id="XMLID_50_" d="M53.6,123.6c0,0.3,0,0.5,0,0.8c-0.1,0-0.2,0-0.3,0c-0.2,0-0.5,0-0.7,0.1c-0.6,0.2-1.1,0.6-1.4,1.2
		c-0.2,0.3-0.2,0.7-0.2,1c0,0.4,0.1,0.7,0.3,1c0.4,0.8,1.1,1.2,2,1.2c0.1,0,0.2,0,0.4,0c0,0.3,0,0.5,0,0.8c-0.9,0.1-2-0.2-2.8-1.2
		c-0.7-1-0.8-2.3-0.2-3.4C51.3,124,52.5,123.5,53.6,123.6z"/>
</g>
</svg>
