<?xml version="1.0" encoding="utf-8"?>
<!-- Generator: Adobe Illustrator 19.0.0, SVG Export Plug-In . SVG Version: 6.00 Build 0)  -->
<svg version="1.1" id="Layer_1" xmlns="http://www.w3.org/2000/svg" xmlns:xlink="http://www.w3.org/1999/xlink" x="0px" y="0px"
	 viewBox="0 0 168.3 156.7" style="enable-background:new 0 0 168.3 156.7;" xml:space="preserve">
<style type="text/css">
	.st0{fill:none;}
	.st1{font-family:'HelveticaNeue-CondensedBold';}
	.st2{font-size:19.8425px;}
	.st3{fill:#F7941E;}
	.st4{font-size:36.8504px;}
	.st5{font-size:34.0158px;}
	.st6{font-size:22.6772px;}
	.st7{font-family:'HelveticaNeue-Bold';}
	.st8{font-size:14.1732px;}
	.st9{font-size:9.9213px;}
	.st10{font-size:8.5039px;}
	.st11{fill:#F78F21;}
</style>
<g id="XMLID_714_">
	<rect id="XMLID_94_" x="24.8" y="13.8" class="st0" width="113" height="22.2"/>
	<text id="XMLID_93_" transform="matrix(1 0 0 1 36.2634 27.9523)" class="st1 st2">RIGHT NOW</text>
</g>
<g id="XMLID_709_">
	<rect id="XMLID_92_" x="25.2" y="34.5" class="st0" width="113.5" height="32.1"/>
	<text id="XMLID_91_" transform="matrix(1 0 0 1 26.3582 60.7813)" class="st3 st1 st4">SAFETY</text>
</g>
<g id="XMLID_704_">
	<rect id="XMLID_90_" x="24.8" y="89.9" class="st0" width="113.3" height="30.9"/>
	<text id="XMLID_89_" transform="matrix(1 0 0 1 34.147 114.1972)" class="st1 st5">HANDS</text>
</g>
<g id="XMLID_699_">
	<rect id="XMLID_96_" x="25.8" y="66.6" class="st0" width="113" height="28.1"/>
	<text id="XMLID_95_" transform="matrix(1 0 0 1 33.9763 82.7575)" class="st1 st6">IS IN YOUR</text>
</g>
<g id="XMLID_108_">
	<rect id="XMLID_37_" x="45.4" y="131.4" class="st0" width="71.7" height="11.6"/>
	<text id="XMLID_685_" transform="matrix(1 0 0 1 45.4223 141.4868)" class="st3 st7 st8">safehandz</text>
	<text id="XMLID_684_" transform="matrix(1 0 0 1 118.2647 141.5513)" class="st1 st9">GH</text>
	<text id="XMLID_679_" transform="matrix(1.0322 0 0 1 75.9456 130.3555)" class="st1 st10">S9  </text>
	<text id="XMLID_675_" transform="matrix(1 0 0 1 56.316 130.3527)" class="st1 st10">4131</text>
	<g id="XMLID_614_">
		<g id="XMLID_663_">
			<g id="XMLID_81_">
				<g id="XMLID_82_">
					<path id="XMLID_85_" class="st3" d="M41.8,137.8c-0.4,0-0.9,0.4-1.3,0.8c0,0-0.5,0.8-1.5,0.8c-1.1,0-2-0.9-2-2c0-1.1,1-2,2-2
						c0.9,0,1.5,0.8,1.5,0.8c0.3,0.5,1,0.9,1.4,0.9c0.5,0,1-0.4,0.7-0.9c0,0-1.5-2.8-3.6-2.8c-2.2,0-4.1,1.8-4.1,4.1
						c0,2.3,1.9,4.1,4.1,4.1c2,0,3.6-2.8,3.6-2.8C42.9,138.2,42.1,137.8,41.8,137.8z"/>
				</g>
			</g>
		</g>
		<g id="XMLID_659_">
			<path id="XMLID_660_" class="st11" d="M41.3,128.1c0.3-2.2,0.1-3.7,0.1-3.7c-0.1-0.8-0.6-1.4-1.2-1.3c-0.6,0.1-1,0.3-1,0.3
				c0.1,0.6,0.2,1.2,0.2,1.9c0,0,0,1.3-0.2,2.8c-0.5,2.6-1.8,5.1-2.3,5.9c0.3-0.1,0.6-0.3,1.1-0.4c0.5-0.1,0.9-0.2,1.2-0.2
				C39.9,132.1,41,130.4,41.3,128.1z"/>
		</g>
		<g id="XMLID_622_">
			<path id="XMLID_658_" class="st11" d="M38.5,129.3c0-0.3,0.1-0.5,0.1-0.8c0-0.2,0-0.3,0.1-0.5c0-0.1,0-0.2,0-0.3c0-0.2,0-0.6,0-1
				c0-0.2,0-0.5,0-0.7c0-0.7-0.1-1.5-0.1-1.5c-0.1-0.6-0.5-0.9-1.1-0.8l-0.7,0.2c0.2,1.3,0.4,3,0.3,5.1c-0.1,2.5-0.4,3.3-0.7,4.8
				C36.4,133.9,38,131.3,38.5,129.3z"/>
		</g>
		<g id="XMLID_620_">
			<path id="XMLID_621_" class="st11" d="M36.8,129.2c0-0.2,0-0.3,0-0.5c0-0.2,0-0.5,0-0.7c0-0.3,0-0.6,0-0.8c0-1-0.2-2-0.2-2
				c-0.1-0.6-0.4-0.9-0.8-0.8c-0.4,0.1-0.7,0.2-0.7,0.2c0.3,1.5,0.6,2.5,0.7,5.2c0.1,2.1-0.3,5.3-0.3,5.3
				C36.4,133.7,36.7,131.2,36.8,129.2z"/>
		</g>
	</g>
	<g id="XMLID_109_">
		<path id="XMLID_110_" d="M53.4,124.3c0,0.3,0,0.5,0,0.8c-0.1,0-0.1,0-0.2,0c-0.3,0-0.5,0-0.7,0.1c-0.7,0.2-1.1,0.6-1.4,1.2
			c-0.1,0.1-0.1,0.3-0.2,0.4c0,0,0,0.1,0,0.2c0.6,0,1.2,0,1.8,0c0,0.3,0,0.5,0,0.8c-0.6,0-1.2,0-1.7,0c0,0.2,0,0.3,0.1,0.4
			c0.3,0.6,0.7,1.1,1.3,1.3c0.2,0.1,0.5,0.1,0.8,0.1c0.1,0,0.2,0,0.4,0c0,0.3,0,0.5,0,0.8c-1.2,0.1-2.1-0.3-2.8-1.2
			c-0.7-1-0.8-2.1-0.2-3.3C51,124.7,52.1,124.2,53.4,124.3z"/>
		<path id="XMLID_111_" d="M49.8,124.3c0,0.3,0,0.5,0,0.8c-0.1,0-0.2,0-0.3,0c-0.2,0-0.5,0-0.7,0.1c-0.6,0.2-1.1,0.6-1.4,1.2
			c-0.2,0.3-0.2,0.7-0.2,1c0,0.4,0.1,0.7,0.3,1c0.4,0.8,1.1,1.2,2,1.2c0.1,0,0.2,0,0.4,0c0,0.3,0,0.5,0,0.8c-0.9,0.1-2-0.2-2.8-1.2
			c-0.7-1-0.8-2.3-0.2-3.4C47.5,124.7,48.7,124.2,49.8,124.3z"/>
	</g>
</g>
</svg>
