<?xml version="1.0" encoding="utf-8"?>
<!-- Generator: Adobe Illustrator 19.0.0, SVG Export Plug-In . SVG Version: 6.00 Build 0)  -->
<svg version="1.1" id="Layer_1" xmlns="http://www.w3.org/2000/svg" xmlns:xlink="http://www.w3.org/1999/xlink" x="0px" y="0px"
	 viewBox="0 0 168.3 156.7" style="enable-background:new 0 0 168.3 156.7;" xml:space="preserve">
<style type="text/css">
	.st0{fill:none;}
	.st1{font-family:'HelveticaNeue-CondensedBold';}
	.st2{font-size:19.8425px;}
	.st3{fill:#F7941E;}
	.st4{font-size:42.5197px;}
	.st5{font-size:28.3465px;}
	.st6{font-family:'HelveticaNeue-Bold';}
	.st7{font-size:14.1732px;}
	.st8{font-size:9.9213px;}
	.st9{font-size:8.5039px;}
	.st10{fill:#F78F21;}
</style>
<g id="XMLID_629_">
	<rect id="XMLID_97_" x="27.6" y="12.8" class="st0" width="113" height="22.2"/>
	<text id="XMLID_96_" transform="matrix(1 0 0 1 28.0195 26.9747)" class="st1 st2">DO YOU KNOW </text>
</g>
<g id="XMLID_624_">
	<rect id="XMLID_92_" x="28" y="33" class="st0" width="113.5" height="25"/>
	<text id="XMLID_91_" transform="matrix(1 0 0 1 63.2724 47.1373)" class="st1 st2">YOUR</text>
</g>
<g id="XMLID_619_">
	<rect id="XMLID_90_" x="26.8" y="80" class="st0" width="113.3" height="30.9"/>
	<text id="XMLID_89_" transform="matrix(1 0 0 1 32.6319 110.3109)" class="st3 st1 st4">RISKS</text>
</g>
<g id="XMLID_607_">
	<rect id="XMLID_100_" x="26.9" y="55.2" class="st0" width="113" height="28.1"/>
	<text id="XMLID_98_" transform="matrix(1 0 0 1 31.7604 75.4773)" class="st1 st5">CRITICAL </text>
</g>
<g id="XMLID_93_">
	<rect id="XMLID_37_" x="47.6" y="132.3" class="st0" width="71.7" height="11.6"/>
	<text id="XMLID_381_" transform="matrix(1 0 0 1 47.5772 142.4646)" class="st3 st6 st7">safehandz</text>
	<text id="XMLID_380_" transform="matrix(1 0 0 1 120.4196 142.5291)" class="st1 st8">GH</text>
	<text id="XMLID_377_" transform="matrix(1.0322 0 0 1 78.1005 131.3333)" class="st1 st9">S9  </text>
	<text id="XMLID_355_" transform="matrix(1 0 0 1 58.4709 131.3304)" class="st1 st9">4131</text>
	<g id="XMLID_148_">
		<g id="XMLID_229_">
			<g id="XMLID_81_">
				<g id="XMLID_82_">
					<path id="XMLID_85_" class="st3" d="M43.9,138.8c-0.4,0-0.9,0.4-1.3,0.8c0,0-0.5,0.8-1.5,0.8c-1.1,0-2-0.9-2-2c0-1.1,1-2,2-2
						c0.9,0,1.5,0.8,1.5,0.8c0.3,0.5,1,0.9,1.4,0.9c0.5,0,1-0.4,0.7-0.9c0,0-1.5-2.8-3.6-2.8c-2.2,0-4.1,1.8-4.1,4.1
						c0,2.3,1.9,4.1,4.1,4.1c2,0,3.6-2.8,3.6-2.8C45.1,139.2,44.3,138.8,43.9,138.8z"/>
				</g>
			</g>
		</g>
		<g id="XMLID_204_">
			<path id="XMLID_205_" class="st10" d="M43.4,129.1c0.3-2.2,0.1-3.7,0.1-3.7c-0.1-0.8-0.6-1.4-1.2-1.3c-0.6,0.1-1,0.3-1,0.3
				c0.1,0.6,0.2,1.2,0.2,1.9c0,0,0,1.3-0.2,2.8c-0.5,2.6-1.8,5.1-2.3,5.9c0.3-0.1,0.6-0.3,1.1-0.4c0.5-0.1,0.9-0.2,1.2-0.2
				C42.1,133.1,43.1,131.3,43.4,129.1z"/>
		</g>
		<g id="XMLID_200_">
			<path id="XMLID_203_" class="st10" d="M40.7,130.3c0-0.3,0.1-0.5,0.1-0.8c0-0.2,0-0.3,0.1-0.5c0-0.1,0-0.2,0-0.3c0-0.2,0-0.6,0-1
				c0-0.2,0-0.5,0-0.7c0-0.7-0.1-1.5-0.1-1.5c-0.1-0.6-0.5-0.9-1.1-0.8L39,125c0.2,1.3,0.4,3,0.3,5.1c-0.1,2.5-0.4,3.3-0.7,4.8
				C38.6,134.9,40.2,132.3,40.7,130.3z"/>
		</g>
		<g id="XMLID_198_">
			<path id="XMLID_199_" class="st10" d="M38.9,130.1c0-0.2,0-0.3,0-0.5c0-0.2,0-0.5,0-0.7c0-0.3,0-0.6,0-0.8c0-1-0.2-2-0.2-2
				c-0.1-0.6-0.4-0.9-0.8-0.8c-0.4,0.1-0.7,0.2-0.7,0.2c0.3,1.5,0.6,2.5,0.7,5.2c0.1,2.1-0.3,5.3-0.3,5.3
				C38.5,134.7,38.8,132.2,38.9,130.1z"/>
		</g>
	</g>
	<g id="XMLID_94_">
		<path id="XMLID_99_" d="M55.6,125.3c0,0.3,0,0.5,0,0.8c-0.1,0-0.1,0-0.2,0c-0.3,0-0.5,0-0.7,0.1c-0.7,0.2-1.1,0.6-1.4,1.2
			c-0.1,0.1-0.1,0.3-0.2,0.4c0,0,0,0.1,0,0.2c0.6,0,1.2,0,1.8,0c0,0.3,0,0.5,0,0.8c-0.6,0-1.2,0-1.7,0c0,0.2,0,0.3,0.1,0.4
			c0.3,0.6,0.7,1.1,1.3,1.3c0.2,0.1,0.5,0.1,0.8,0.1c0.1,0,0.2,0,0.4,0c0,0.3,0,0.5,0,0.8c-1.2,0.1-2.1-0.3-2.8-1.2
			c-0.7-1-0.8-2.1-0.2-3.3C53.2,125.7,54.3,125.2,55.6,125.3z"/>
		<path id="XMLID_95_" d="M52,125.3c0,0.3,0,0.5,0,0.8c-0.1,0-0.2,0-0.3,0c-0.2,0-0.5,0-0.7,0.1c-0.6,0.2-1.1,0.6-1.4,1.2
			c-0.2,0.3-0.2,0.7-0.2,1c0,0.4,0.1,0.7,0.3,1c0.4,0.8,1.1,1.2,2,1.2c0.1,0,0.2,0,0.4,0c0,0.3,0,0.5,0,0.8c-0.9,0.1-2-0.2-2.8-1.2
			c-0.7-1-0.8-2.3-0.2-3.4C49.7,125.6,50.8,125.2,52,125.3z"/>
	</g>
</g>
</svg>
