<?xml version="1.0" encoding="utf-8"?>
<!-- Generator: Adobe Illustrator 19.0.0, SVG Export Plug-In . SVG Version: 6.00 Build 0)  -->
<svg version="1.1" id="Layer_1" xmlns="http://www.w3.org/2000/svg" xmlns:xlink="http://www.w3.org/1999/xlink" x="0px" y="0px"
	 viewBox="0 0 168.3 156.7" style="enable-background:new 0 0 168.3 156.7;" xml:space="preserve">
<style type="text/css">
	.st0{fill:none;}
	.st1{font-family:'HelveticaNeue-CondensedBold';}
	.st2{font-size:19.8425px;}
	.st3{fill:#F7941E;}
	.st4{font-size:42.5197px;}
	.st5{font-family:'HelveticaNeue-Bold';}
	.st6{font-size:14.1732px;}
	.st7{font-size:9.9213px;}
	.st8{font-size:8.5039px;}
	.st9{fill:#F78F21;}
	.st10{font-size:28.3465px;}
</style>
<g id="XMLID_991_">
	<rect id="XMLID_94_" x="25.4" y="14.1" class="st0" width="113" height="22.2"/>
	<text id="XMLID_93_" transform="matrix(1 0 0 1 36.3333 28.2313)" class="st1 st2">DONT RUSH</text>
</g>
<g id="XMLID_986_">
	<rect id="XMLID_92_" x="25.9" y="34.2" class="st0" width="113.5" height="25"/>
	<text id="XMLID_91_" transform="matrix(1 0 0 1 42.2294 48.3939)" class="st1 st2">THE DRILL</text>
</g>
<g id="XMLID_981_">
	<rect id="XMLID_90_" x="25.7" y="54" class="st0" width="113.3" height="30.9"/>
	<text id="XMLID_89_" transform="matrix(1 0 0 1 26.4762 84.3441)" class="st3 st1 st4">NEEDS </text>
</g>
<g id="XMLID_613_">
	<rect id="XMLID_45_" x="47.9" y="131.1" class="st0" width="71.7" height="11.6"/>
	<text id="XMLID_979_" transform="matrix(1 0 0 1 47.8788 141.208)" class="st3 st5 st6">safehandz</text>
	<text id="XMLID_978_" transform="matrix(1 0 0 1 120.7212 141.2724)" class="st1 st7">FH</text>
	<text id="XMLID_977_" transform="matrix(1.0322 0 0 1 78.4021 130.0766)" class="st1 st8">S9  </text>
	<text id="XMLID_976_" transform="matrix(1 0 0 1 58.7725 130.0738)" class="st1 st8">4131</text>
	<g id="XMLID_630_">
		<g id="XMLID_693_">
			<g id="XMLID_82_">
				<g id="XMLID_83_">
					<path id="XMLID_86_" class="st3" d="M44.2,137.5c-0.4,0-0.9,0.4-1.3,0.8c0,0-0.5,0.8-1.5,0.8c-1.1,0-2-0.9-2-2c0-1.1,1-2,2-2
						c0.9,0,1.5,0.8,1.5,0.8c0.3,0.5,1,0.9,1.4,0.9c0.5,0,1-0.4,0.7-0.9c0,0-1.5-2.8-3.6-2.8c-2.2,0-4.1,1.8-4.1,4.1
						c0,2.3,1.9,4.1,4.1,4.1c2,0,3.6-2.8,3.6-2.8C45.4,137.9,44.6,137.5,44.2,137.5z"/>
				</g>
			</g>
		</g>
		<g id="XMLID_688_">
			<path id="XMLID_692_" class="st9" d="M43.7,127.8c0.3-2.2,0.1-3.7,0.1-3.7c-0.1-0.8-0.6-1.4-1.2-1.3c-0.6,0.1-1,0.3-1,0.3
				c0.1,0.6,0.2,1.2,0.2,1.9c0,0,0,1.3-0.2,2.8c-0.5,2.6-1.8,5.1-2.3,5.9c0.3-0.1,0.6-0.3,1.1-0.4c0.5-0.1,0.9-0.2,1.2-0.2
				C42.4,131.9,43.4,130.1,43.7,127.8z"/>
		</g>
		<g id="XMLID_638_">
			<path id="XMLID_641_" class="st9" d="M41,129c0-0.3,0.1-0.5,0.1-0.8c0-0.2,0-0.3,0.1-0.5c0-0.1,0-0.2,0-0.3c0-0.2,0-0.6,0-1
				c0-0.2,0-0.5,0-0.7c0-0.7-0.1-1.5-0.1-1.5c-0.1-0.6-0.5-0.9-1.1-0.8l-0.7,0.2c0.2,1.3,0.4,3,0.3,5.1c-0.1,2.5-0.4,3.3-0.7,4.8
				C38.9,133.7,40.5,131,41,129z"/>
		</g>
		<g id="XMLID_631_">
			<path id="XMLID_636_" class="st9" d="M39.2,128.9c0-0.2,0-0.3,0-0.5c0-0.2,0-0.5,0-0.7c0-0.3,0-0.6,0-0.8c0-1-0.2-2-0.2-2
				c-0.1-0.6-0.4-0.9-0.8-0.8c-0.4,0.1-0.7,0.2-0.7,0.2c0.3,1.5,0.6,2.5,0.7,5.2c0.1,2.1-0.3,5.3-0.3,5.3
				C38.8,133.4,39.1,130.9,39.2,128.9z"/>
		</g>
	</g>
	<g id="XMLID_625_">
		<path id="XMLID_627_" d="M55.9,124c0,0.3,0,0.5,0,0.8c-0.1,0-0.1,0-0.2,0c-0.3,0-0.5,0-0.7,0.1c-0.7,0.2-1.1,0.6-1.4,1.2
			c-0.1,0.1-0.1,0.3-0.2,0.4c0,0,0,0.1,0,0.2c0.6,0,1.2,0,1.8,0c0,0.3,0,0.5,0,0.8c-0.6,0-1.2,0-1.7,0c0,0.2,0,0.3,0.1,0.4
			c0.3,0.6,0.7,1.1,1.3,1.3c0.2,0.1,0.5,0.1,0.8,0.1c0.1,0,0.2,0,0.4,0c0,0.3,0,0.5,0,0.8c-1.2,0.1-2.1-0.3-2.8-1.2
			c-0.7-1-0.8-2.1-0.2-3.3C53.5,124.4,54.6,124,55.9,124z"/>
		<path id="XMLID_626_" d="M52.3,124c0,0.3,0,0.5,0,0.8c-0.1,0-0.2,0-0.3,0c-0.2,0-0.5,0-0.7,0.1c-0.6,0.2-1.1,0.6-1.4,1.2
			c-0.2,0.3-0.2,0.7-0.2,1c0,0.4,0.1,0.7,0.3,1c0.4,0.8,1.1,1.2,2,1.2c0.1,0,0.2,0,0.4,0c0,0.3,0,0.5,0,0.8c-0.9,0.1-2-0.2-2.8-1.2
			c-0.7-1-0.8-2.3-0.2-3.4C50,124.4,51.1,123.9,52.3,124z"/>
	</g>
</g>
<g id="XMLID_356_">
	<rect id="XMLID_96_" x="26.6" y="92.2" class="st0" width="113" height="28.1"/>
	<text id="XMLID_95_" transform="matrix(1 0 0 1 60.2179 112.4503)" class="st1 st10">YOU</text>
</g>
</svg>
