<?xml version="1.0" encoding="utf-8"?>
<!-- Generator: Adobe Illustrator 19.0.0, SVG Export Plug-In . SVG Version: 6.00 Build 0)  -->
<svg version="1.1" id="Layer_1" xmlns="http://www.w3.org/2000/svg" xmlns:xlink="http://www.w3.org/1999/xlink" x="0px" y="0px"
	 viewBox="0 0 168.3 156.7" style="enable-background:new 0 0 168.3 156.7;" xml:space="preserve">
<style type="text/css">
	.st0{fill:none;}
	.st1{font-family:'HelveticaNeue-CondensedBold';}
	.st2{font-size:19.8425px;}
	.st3{fill:#F7941E;}
	.st4{font-size:25.5118px;}
	.st5{font-size:34.0158px;}
	.st6{fill:#FFFFFF;}
	.st7{font-family:'HelveticaNeue-Bold';}
	.st8{font-size:14.1732px;}
	.st9{font-size:9.9213px;}
	.st10{font-size:8.5039px;}
	.st11{fill:#F78F21;}
</style>
<g id="XMLID_672_">
	<rect id="XMLID_94_" x="24.4" y="14.4" class="st0" width="113" height="22.2"/>
	<text id="XMLID_93_" transform="matrix(1 0 0 1 48.799 28.5698)" class="st1 st2">CHANCE</text>
</g>
<g id="XMLID_667_">
	<rect id="XMLID_92_" x="24.9" y="34.6" class="st0" width="113.5" height="25"/>
	<text id="XMLID_91_" transform="matrix(1 0 0 1 51.0046 48.7607)" class="st1 st2">TAKER?</text>
</g>
<g id="XMLID_662_">
	<rect id="XMLID_90_" x="26.9" y="57.8" class="st0" width="113.3" height="30.9"/>
	<text id="XMLID_89_" transform="matrix(1 0 0 1 32.5075 75.9839)" class="st3 st1 st4">ACCIDENT</text>
</g>
<g id="XMLID_657_">
	<rect id="XMLID_96_" x="25.2" y="83.5" class="st0" width="113" height="28.1"/>
	<text id="XMLID_95_" transform="matrix(1 0 0 1 32.8588 107.8019)"><tspan x="0" y="0" class="st3 st1 st5">MAKER</tspan><tspan x="97.6" y="0" class="st6 st1 st5"> </tspan></text>
</g>
<g id="XMLID_230_">
	<rect id="XMLID_37_" x="50.5" y="130.8" class="st0" width="71.7" height="11.6"/>
	<text id="XMLID_694_" transform="matrix(1 0 0 1 50.4876 140.8694)" class="st3 st7 st8">safehandz</text>
	<text id="XMLID_656_" transform="matrix(1 0 0 1 123.33 140.9338)" class="st1 st9">MH</text>
	<text id="XMLID_651_" transform="matrix(1.0322 0 0 1 81.0109 129.738)" class="st1 st10">S9  </text>
	<text id="XMLID_650_" transform="matrix(1 0 0 1 61.3813 129.7352)" class="st1 st10">4131</text>
	<g id="XMLID_400_">
		<g id="XMLID_530_">
			<g id="XMLID_81_">
				<g id="XMLID_82_">
					<path id="XMLID_85_" class="st3" d="M46.8,137.2c-0.4,0-0.9,0.4-1.3,0.8c0,0-0.5,0.8-1.5,0.8c-1.1,0-2-0.9-2-2c0-1.1,1-2,2-2
						c0.9,0,1.5,0.8,1.5,0.8c0.3,0.5,1,0.9,1.4,0.9c0.5,0,1-0.4,0.7-0.9c0,0-1.5-2.8-3.6-2.8c-2.2,0-4.1,1.8-4.1,4.1
						c0,2.3,1.9,4.1,4.1,4.1c2,0,3.6-2.8,3.6-2.8C48,137.6,47.2,137.2,46.8,137.2z"/>
				</g>
			</g>
		</g>
		<g id="XMLID_507_">
			<path id="XMLID_529_" class="st11" d="M46.3,127.5c0.3-2.2,0.1-3.7,0.1-3.7c-0.1-0.8-0.6-1.4-1.2-1.3c-0.6,0.1-1,0.3-1,0.3
				c0.1,0.6,0.2,1.2,0.2,1.9c0,0,0,1.3-0.2,2.8c-0.5,2.6-1.8,5.1-2.3,5.9c0.3-0.1,0.6-0.3,1.1-0.4c0.5-0.1,0.9-0.2,1.2-0.2
				C45,131.5,46,129.7,46.3,127.5z"/>
		</g>
		<g id="XMLID_410_">
			<path id="XMLID_415_" class="st11" d="M43.6,128.7c0-0.3,0.1-0.5,0.1-0.8c0-0.2,0-0.3,0.1-0.5c0-0.1,0-0.2,0-0.3c0-0.2,0-0.6,0-1
				c0-0.2,0-0.5,0-0.7c0-0.7-0.1-1.5-0.1-1.5c-0.1-0.6-0.5-0.9-1.1-0.8l-0.7,0.2c0.2,1.3,0.4,3,0.3,5.1c-0.1,2.5-0.4,3.3-0.7,4.8
				C41.5,133.3,43.1,130.7,43.6,128.7z"/>
		</g>
		<g id="XMLID_401_">
			<path id="XMLID_402_" class="st11" d="M41.8,128.5c0-0.2,0-0.3,0-0.5c0-0.2,0-0.5,0-0.7c0-0.3,0-0.6,0-0.8c0-1-0.2-2-0.2-2
				c-0.1-0.6-0.4-0.9-0.8-0.8c-0.4,0.1-0.7,0.2-0.7,0.2c0.3,1.5,0.6,2.5,0.7,5.2c0.1,2.1-0.3,5.3-0.3,5.3
				C41.4,133.1,41.7,130.6,41.8,128.5z"/>
		</g>
	</g>
	<g id="XMLID_256_">
		<path id="XMLID_323_" d="M58.5,123.7c0,0.3,0,0.5,0,0.8c-0.1,0-0.1,0-0.2,0c-0.3,0-0.5,0-0.7,0.1c-0.7,0.2-1.1,0.6-1.4,1.2
			c-0.1,0.1-0.1,0.3-0.2,0.4c0,0,0,0.1,0,0.2c0.6,0,1.2,0,1.8,0c0,0.3,0,0.5,0,0.8c-0.6,0-1.2,0-1.7,0c0,0.2,0,0.3,0.1,0.4
			c0.3,0.6,0.7,1.1,1.3,1.3c0.2,0.1,0.5,0.1,0.8,0.1c0.1,0,0.2,0,0.4,0c0,0.3,0,0.5,0,0.8c-1.2,0.1-2.1-0.3-2.8-1.2
			c-0.7-1-0.8-2.1-0.2-3.3C56.1,124.1,57.2,123.6,58.5,123.7z"/>
		<path id="XMLID_277_" d="M54.9,123.7c0,0.3,0,0.5,0,0.8c-0.1,0-0.2,0-0.3,0c-0.2,0-0.5,0-0.7,0.1c-0.6,0.2-1.1,0.6-1.4,1.2
			c-0.2,0.3-0.2,0.7-0.2,1c0,0.4,0.1,0.7,0.3,1c0.4,0.8,1.1,1.2,2,1.2c0.1,0,0.2,0,0.4,0c0,0.3,0,0.5,0,0.8c-0.9,0.1-2-0.2-2.8-1.2
			c-0.7-1-0.8-2.3-0.2-3.4C52.6,124,53.7,123.6,54.9,123.7z"/>
	</g>
</g>
</svg>
