<?xml version="1.0" encoding="utf-8"?>
<!-- Generator: Adobe Illustrator 19.0.0, SVG Export Plug-In . SVG Version: 6.00 Build 0)  -->
<svg version="1.1" id="Layer_1" xmlns="http://www.w3.org/2000/svg" xmlns:xlink="http://www.w3.org/1999/xlink" x="0px" y="0px"
	 viewBox="0 0 168.3 156.7" style="enable-background:new 0 0 168.3 156.7;" xml:space="preserve">
<style type="text/css">
	.st0{fill:none;}
	.st1{font-family:'HelveticaNeue-CondensedBold';}
	.st2{font-size:19.8425px;}
	.st3{fill:#F7941E;}
	.st4{font-size:42.5197px;}
	.st5{font-family:'HelveticaNeue-Bold';}
	.st6{font-size:14.1732px;}
	.st7{font-size:9.9213px;}
	.st8{font-size:8.5039px;}
	.st9{fill:#F78F21;}
	.st10{font-size:22.6772px;}
</style>
<g id="XMLID_941_">
	<rect id="XMLID_94_" x="26.9" y="15.6" class="st0" width="113" height="22.2"/>
	<text id="XMLID_93_" transform="matrix(1 0 0 1 29.7202 29.7994)" class="st1 st2">YOUR FAMILY</text>
</g>
<g id="XMLID_936_">
	<rect id="XMLID_92_" x="27.4" y="35.8" class="st0" width="113.5" height="25"/>
	<text id="XMLID_91_" transform="matrix(1 0 0 1 37.0547 49.962)" class="st1 st2">WANTS YOU </text>
</g>
<g id="XMLID_931_">
	<rect id="XMLID_90_" x="27.2" y="55.6" class="st0" width="113.3" height="30.9"/>
	<text id="XMLID_89_" transform="matrix(1 0 0 1 34.261 85.9122)" class="st3 st1 st4">HOME</text>
</g>
<g id="XMLID_865_">
	<rect id="XMLID_45_" x="49.4" y="132.7" class="st0" width="71.7" height="11.6"/>
	<text id="XMLID_929_" transform="matrix(1 0 0 1 49.3711 142.776)" class="st3 st5 st6">safehandz</text>
	<text id="XMLID_928_" transform="matrix(1 0 0 1 122.2135 142.8406)" class="st1 st7">CH</text>
	<text id="XMLID_927_" transform="matrix(1.0322 0 0 1 79.8944 131.6448)" class="st1 st8">S9  </text>
	<text id="XMLID_926_" transform="matrix(1 0 0 1 60.2648 131.642)" class="st1 st8">4343</text>
	<g id="XMLID_889_">
		<g id="XMLID_904_">
			<g id="XMLID_82_">
				<g id="XMLID_83_">
					<path id="XMLID_86_" class="st3" d="M45.7,139.1c-0.4,0-0.9,0.4-1.3,0.8c0,0-0.5,0.8-1.5,0.8c-1.1,0-2-0.9-2-2c0-1.1,1-2,2-2
						c0.9,0,1.5,0.8,1.5,0.8c0.3,0.5,1,0.9,1.4,0.9c0.5,0,1-0.4,0.7-0.9c0,0-1.5-2.8-3.6-2.8c-2.2,0-4.1,1.8-4.1,4.1
						c0,2.3,1.9,4.1,4.1,4.1c2,0,3.6-2.8,3.6-2.8C46.9,139.5,46.1,139.1,45.7,139.1z"/>
				</g>
			</g>
		</g>
		<g id="XMLID_899_">
			<path id="XMLID_903_" class="st9" d="M45.2,129.4c0.3-2.2,0.1-3.7,0.1-3.7c-0.1-0.8-0.6-1.4-1.2-1.3c-0.6,0.1-1,0.3-1,0.3
				c0.1,0.6,0.2,1.2,0.2,1.9c0,0,0,1.3-0.2,2.8c-0.5,2.6-1.8,5.1-2.3,5.9c0.3-0.1,0.6-0.3,1.1-0.4c0.5-0.1,0.9-0.2,1.2-0.2
				C43.9,133.4,44.9,131.6,45.2,129.4z"/>
		</g>
		<g id="XMLID_894_">
			<path id="XMLID_897_" class="st9" d="M42.5,130.6c0-0.3,0.1-0.5,0.1-0.8c0-0.2,0-0.3,0.1-0.5c0-0.1,0-0.2,0-0.3c0-0.2,0-0.6,0-1
				c0-0.2,0-0.5,0-0.7c0-0.7-0.1-1.5-0.1-1.5c-0.1-0.6-0.5-0.9-1.1-0.8l-0.7,0.2c0.2,1.3,0.4,3,0.3,5.1c-0.1,2.5-0.4,3.3-0.7,4.8
				C40.4,135.2,42,132.6,42.5,130.6z"/>
		</g>
		<g id="XMLID_892_">
			<path id="XMLID_893_" class="st9" d="M40.7,130.4c0-0.2,0-0.3,0-0.5c0-0.2,0-0.5,0-0.7c0-0.3,0-0.6,0-0.8c0-1-0.2-2-0.2-2
				c-0.1-0.6-0.4-0.9-0.8-0.8s-0.7,0.2-0.7,0.2c0.3,1.5,0.6,2.5,0.7,5.2c0.1,2.1-0.3,5.3-0.3,5.3C40.3,135,40.6,132.5,40.7,130.4z"
				/>
		</g>
	</g>
	<g id="XMLID_869_">
		<path id="XMLID_887_" d="M57.4,125.6c0,0.3,0,0.5,0,0.8c-0.1,0-0.1,0-0.2,0c-0.3,0-0.5,0-0.7,0.1c-0.7,0.2-1.1,0.6-1.4,1.2
			c-0.1,0.1-0.1,0.3-0.2,0.4c0,0,0,0.1,0,0.2c0.6,0,1.2,0,1.8,0c0,0.3,0,0.5,0,0.8c-0.6,0-1.2,0-1.7,0c0,0.2,0,0.3,0.1,0.4
			c0.3,0.6,0.7,1.1,1.3,1.3c0.2,0.1,0.5,0.1,0.8,0.1c0.1,0,0.2,0,0.4,0c0,0.3,0,0.5,0,0.8c-1.2,0.1-2.1-0.3-2.8-1.2
			c-0.7-1-0.8-2.1-0.2-3.3C55,126,56,125.5,57.4,125.6z"/>
		<path id="XMLID_879_" d="M53.8,125.6c0,0.3,0,0.5,0,0.8c-0.1,0-0.2,0-0.3,0c-0.2,0-0.5,0-0.7,0.1c-0.6,0.2-1.1,0.6-1.4,1.2
			c-0.2,0.3-0.2,0.7-0.2,1c0,0.4,0.1,0.7,0.3,1c0.4,0.8,1.1,1.2,2,1.2c0.1,0,0.2,0,0.4,0c0,0.3,0,0.5,0,0.8c-0.9,0.1-2-0.2-2.8-1.2
			c-0.7-1-0.8-2.3-0.2-3.4C51.4,125.9,52.6,125.5,53.8,125.6z"/>
	</g>
</g>
<g id="XMLID_747_">
	<rect id="XMLID_96_" x="28.5" y="93.8" class="st0" width="113" height="28.1"/>
	<text id="XMLID_95_" transform="matrix(1 0 0 1 45.7228 109.9706)" class="st1 st10">TONIGHT</text>
</g>
</svg>
