<?xml version="1.0" encoding="utf-8"?>
<!-- Generator: Adobe Illustrator 19.0.0, SVG Export Plug-In . SVG Version: 6.00 Build 0)  -->
<svg version="1.1" id="Layer_1" xmlns="http://www.w3.org/2000/svg" xmlns:xlink="http://www.w3.org/1999/xlink" x="0px" y="0px"
	 viewBox="0 0 520 336" style="enable-background:new 0 0 520 336;" xml:space="preserve">
<style type="text/css">
	.st0{fill:#F7941E;}
	.st1{font-family:'MyriadPro-Regular';}
	.st2{font-size:22.6772px;}
	.st3{fill:none;}
</style>
<g id="XMLID_1_">
	<g id="XMLID_317_">
		<g id="XMLID_321_">
			<g id="XMLID_322_">
				<g id="XMLID_323_">
					<path id="XMLID_493_" d="M64.4,298.7c0,0.4,0.4,0.3,0.5,0.3C64.8,298.3,64.3,298.7,64.4,298.7z"/>
					<polygon id="XMLID_492_" points="63.5,292.1 63.7,292.2 63.2,291.3 					"/>
					<path id="XMLID_491_" d="M63.5,286c-0.7,0.6,0.1,2.2-0.1,3.3l-0.2,0.2l0.6,0.5C63.7,288.7,63.3,286.9,63.5,286z"/>
					<path id="XMLID_490_" d="M65,282.7c-0.3,0.2-0.2-0.7-0.1,0.8c0-0.1,0-0.1,0.1-0.1C65,283.2,65,283,65,282.7z"/>
					<path id="XMLID_489_" d="M65,283.4C65,284,65.3,282.9,65,283.4L65,283.4z"/>
					<path id="XMLID_488_" d="M64.9,280.4l0.2,0.9c0.2-0.2,0.2-0.9,0.3-0.7C65.3,279.7,65.1,279.9,64.9,280.4z"/>
					<path id="XMLID_487_" d="M64.3,279.6l0.1,0.4C64.5,279.9,64.5,279.8,64.3,279.6z"/>
					<path id="XMLID_486_" d="M64.7,280.9l-0.2-0.9c-0.1,0.1-0.3,0.1,0.1,0.4C64.3,280.4,64.5,280.5,64.7,280.9z"/>
					<path id="XMLID_485_" d="M64.6,281.5c-0.2,0.5-0.3,1.1-0.5,0.2C64.2,283.3,64.7,283.1,64.6,281.5z"/>
					<path id="XMLID_484_" d="M62.8,285.7l-0.2,0.6l0.2,0.6C62.7,286.6,63,285.6,62.8,285.7z"/>
					<path id="XMLID_400_" d="M65.2,275.1c-0.2-0.1-0.4,0.3-0.6,0.3l0.2,0.6C64.9,275.7,65,275.1,65.2,275.1z"/>
					<path id="XMLID_399_" d="M64.6,275.4l-0.3-0.9C64.3,275.3,64.5,275.5,64.6,275.4z"/>
					<polygon id="XMLID_398_" points="63.5,279.4 64.1,281 63.5,279.1 					"/>
					<polygon id="XMLID_397_" points="65.2,271.5 65.6,272 65.1,271.1 					"/>
					<path id="XMLID_396_" d="M65.2,269.1c0.3,0.4,0.5-0.5,0.7-0.1c-0.1-0.6-0.3-1.2-0.5-1.7C65.5,267.8,65.4,268.4,65.2,269.1z"/>
					<path id="XMLID_395_" d="M65,266.4c0.1,0.3,0.2,0.5,0.3,0.8C65.3,267,65.2,266.7,65,266.4z"/>
					<path id="XMLID_394_" d="M64.4,272.9c0.1-0.1,0.3-0.2,0.4-0.7l-0.4,0.4C64.4,272.6,64.4,272.8,64.4,272.9z"/>
					<path id="XMLID_393_" d="M64.4,272.5L64.4,272.5c0-0.4,0-0.7,0-0.8C64.5,271.8,64.5,272.1,64.4,272.5z"/>
					<path id="XMLID_392_" d="M64.4,273C64.4,272.9,64.4,272.9,64.4,273C64.4,272.9,64.4,272.9,64.4,273z"/>
					<path id="XMLID_391_" d="M63.9,277c-0.2-0.6-0.5-1.7-0.9-0.6C63.4,276.8,63.6,276.1,63.9,277z"/>
					<path id="XMLID_390_" d="M63.9,273.4l-0.1,1c0.1,0,0.3-0.2,0.4,0.1L63.9,273.4z"/>
					<polygon id="XMLID_389_" points="63.8,272.9 63.9,273.4 63.9,273.1 					"/>
					<path id="XMLID_388_" d="M64.6,268.2c-0.2-0.4-0.2-0.9-0.2-1.4c-0.1,0.6-0.1,1.2-0.1,1.7C64.4,268.5,64.6,268.8,64.6,268.2z"/>
					<path id="XMLID_387_" d="M64.5,270.3C64.5,270.3,64.5,270.2,64.5,270.3C64.4,270.2,64.4,270.3,64.5,270.3z"/>
					<path id="XMLID_386_" d="M64.4,261.5C64.4,261.5,64.3,261.5,64.4,261.5c-0.1,0.1,0,0.1,0,0.1L64.4,261.5z"/>
					<path id="XMLID_385_" d="M64.2,268.5c-0.1,0.4,0,0.7,0.2,0.9C64.3,269.2,64.2,268.8,64.2,268.5
						C64.2,268.4,64.1,268.4,64.2,268.5z"/>
					<path id="XMLID_384_" d="M64.8,265c-0.1,0.2-0.2,0.5-0.2,0.7C64.7,265.5,64.9,265.1,64.8,265z"/>
					<path id="XMLID_383_" d="M64.6,270C64.6,270.1,64.6,270.1,64.6,270C64.7,270,64.6,270,64.6,270z"/>
					<path id="XMLID_382_" d="M64.6,270c-0.1-0.2-0.2-0.4-0.3-0.6c0,0.3,0.1,0.5,0.1,0.7C64.5,270.1,64.5,270.1,64.6,270z"/>
					<path id="XMLID_381_" d="M61.6,259.9c0.4,0.1,0.8,1.2,0.3,2.2c0.3,1,1.6,0.3,2.3-0.5c-0.2,0-0.3,0-0.6-1
						c-0.2,0.3-0.5,2.2-0.9,1.4c-0.2-1.3,0.1-1.1,0.3-1.7c-0.5,0.5-0.7-1.7-1.4-1.4L62,260C61.9,260,61.7,259.6,61.6,259.9z"/>
					<path id="XMLID_380_" d="M64.3,263.4l0,0.4c0.1-0.5,0.2-0.8,0.5-1.4c-0.2-0.7-0.3-0.8-0.5-0.9l-0.1,2L64.3,263.4z"/>
					<path id="XMLID_379_" d="M64.3,265.7c-0.4-0.3-0.6-1.3-1.1-0.7c0,1.2,0.4,0.8,0.5,1.5C63.7,264.6,64,267.1,64.3,265.7
						c0,0.4,0,0.7,0.1,1.1c0.1-0.3,0.1-0.7,0.2-1c0,0,0,0,0,0l0,0c0,0,0,0,0,0c-0.1,0.1-0.1,0.1-0.1,0c0,0,0,0,0,0
						C64.4,265.7,64.4,265.7,64.3,265.7c0.1-0.6,0.1-0.1,0.2,0.1c0,0,0,0,0.1,0c0,0,0,0,0,0l-0.2-1.9
						C64.2,264.3,64.3,264.8,64.3,265.7z"/>
					<path id="XMLID_378_" d="M62.1,275.3c0-0.1,0.1-0.1,0.1-0.1C62.2,275.1,62.2,275.1,62.1,275.3z"/>
					<path id="XMLID_377_" d="M62.4,274.5c0.1,0.1,0.2,0.3,0.2,0.7c-0.1,0.4-0.2,0-0.3,0c0.1,0.3,0.3,1,0.5,0.1l-0.1-0.1
						c0.1-0.8,0.7-1.8,0.7-1.6C63.1,273.8,62.8,274,62.4,274.5z"/>
					<path id="XMLID_376_" d="M63.2,270.1l-0.2-1.6l-0.4,0.8l0.2,0C62.8,270.1,63.1,269.9,63.2,270.1z"/>
					<polygon id="XMLID_375_" points="64.6,261.3 65,261.5 64.4,260.6 					"/>
					<polygon id="XMLID_374_" points="64.5,259.2 64.9,259.3 64.7,258.7 					"/>
					<path id="XMLID_373_" d="M59.6,141.6l-0.1-0.5C59.5,141.4,59.6,141.5,59.6,141.6z"/>
					<path id="XMLID_372_" d="M59.6,145l0.2,0.1C59.7,144.9,59.6,144.9,59.6,145z"/>
					<path id="XMLID_371_" d="M64.5,208c0.4-0.7,0.9-1.5,0.5-1.4l-0.4,0.2C64.6,207.3,64.6,207.7,64.5,208z"/>
					<path id="XMLID_370_" d="M61.9,173c0,0.1-0.1,0.1-0.1,0.2c0.1,0.2,0.3,0.3,0.4,0.5C62.1,173.4,62,173.2,61.9,173z"/>
					<path id="XMLID_369_" d="M60.1,172.5l0.3-0.9C60.3,171.8,60.2,172.1,60.1,172.5z"/>
					<path id="XMLID_368_" d="M59.2,123l-0.4-0.5C58.7,123.3,58.9,122.9,59.2,123z"/>
					<path id="XMLID_367_" d="M64.4,237.9c0.2-0.6,0.2-1.1,0.3-1.5C64.4,237.1,64,237.7,64.4,237.9z"/>
					<path id="XMLID_366_" d="M64.2,143c-0.1-0.3-0.2-0.4-0.3-0.4C64,142.8,64.1,143,64.2,143z"/>
					<path id="XMLID_365_" d="M64.6,234.7c0,0.1-0.1,0.2-0.1,0.3c0.1,0.4,0.1,0.9,0.1,1.4C64.8,235.9,64.9,235.3,64.6,234.7z"/>
					<path id="XMLID_364_" d="M59.5,55.4c0,0,0-0.1,0.1-0.2C59.5,55.2,59.5,55.3,59.5,55.4z"/>
					<path id="XMLID_363_" d="M63.9,35.7c0,0.2,0,0.5,0,0.8C64,36.4,64,36.1,63.9,35.7z"/>
					<path id="XMLID_362_" d="M64.7,250.8C64.8,251.3,64.8,250.9,64.7,250.8L64.7,250.8z"/>
					<path id="XMLID_361_" d="M63,253c0-0.1-0.1-0.2-0.2-0.2C62.9,252.8,63,252.9,63,253z"/>
					<path id="XMLID_360_" d="M61.9,230.3C61.9,230.3,61.9,230.3,61.9,230.3C61.9,230.4,61.9,230.3,61.9,230.3z"/>
					<path id="XMLID_359_" d="M64.5,251.5c0.1-0.2,0.1-0.4,0.1-0.6C64.6,251,64.6,251.2,64.5,251.5z"/>
					<path id="XMLID_358_" d="M64.7,251.4c0,0.2,0,0.3,0,0.4C64.8,251.8,64.8,251.8,64.7,251.4z"/>
					<path id="XMLID_357_" d="M64.7,250.2c0,0.3,0,0.5,0,0.7c0-0.1,0.1-0.1,0.1-0.1C64.7,250.7,64.7,250.5,64.7,250.2z"/>
					<path id="XMLID_356_" d="M60.7,91.6C60.7,91.6,60.7,91.6,60.7,91.6C60.5,91.1,60.6,91.3,60.7,91.6z"/>
					<path id="XMLID_355_" d="M60,196.5C60,196.5,60,196.6,60,196.5C60,196.6,60,196.5,60,196.5L60,196.5z"/>
					<path id="XMLID_354_" d="M59.7,194.9c0.5,0.7,0.5,1.1,0.4,1.6l1.3-0.5L59.7,194.9z"/>
					<path id="XMLID_347_" d="M59.5,133.4l-0.4,1.1c-0.6-1.3-0.4-2.3-1-1.3c1.4,0.2,0.1,4.3,1.5,4.5l-0.3,0.7c0-0.2-0.1-0.2-0.1-0.5
						c-0.7,1.4,1,1.1,0.8,2.9c-0.1,0.6-0.3,1.1-0.5,0.7L60,143c0,0.4-0.3,0.3-0.2-0.1l0.1,2.2l0,0c0.2,0.3,0.5,1,0.7,1.4
						c-0.2,0.6-0.1-0.3-0.3-0.1l0.3,1.2c-0.4,0.5-0.7-0.5-0.6-1.3c-1.4,1.1,0.3,1-0.5,3.4l-0.2-1.1c-0.8,0.7-0.5,1.6-1,2.9
						c0.3-0.3,1.2-2.6,1.5-1.3c-0.1,0.4-0.2,0.9,0.1,1.6c-0.5,0-0.4,0.7-0.3,1.6l-0.6-0.1c0.2,0.9,0.5,0.9,0.8,1.4
						c-0.1,1-0.6,1.3-1,1.5c-0.1,1.7,0.8-1.2,0.9,0.8c-0.2,1.4,0,2.4,0.4,4c-0.2,1-0.4-0.2-0.6,0.2L60,162c0,0.2-0.2,0.1-0.2,0.1
						c0.2,0.7,0.6,0.1,0.8,1.2c0.7,0.3-1,2.3-0.2,3.7c-0.2,0.3-0.4-0.2-0.6-0.1c0.5,1.9,0.4,1.7,1.1,3.2l-0.4,1.4
						c0.5-1,1,0.3,1.5,1.4c0.2-0.4,0.4-0.7,0.5-0.9l0.3,1.8c-0.1,0.2-0.3,0-0.6-0.3c0.1,0.1,0.1,0.2,0.2,0.3c-0.2,0.6-0.6,0.3-1-0.1
						c0.1-0.2,0.3-0.4,0.4-0.6c-0.4-0.4-0.8-0.8-1.2-0.8c0.1,0.1,0.1,0.3,0.2,0.6c-0.1-0.1-0.2-0.2-0.3-0.1
						c-0.1,0.1,0.1,0.2,0.2,0.5l-0.7,0.4l0.3,0.1l-0.4,2.3c0.7,1.7,1.8,3.1,2.1,5.7c-0.5-0.7-0.9-0.1-1.5-0.2c0.7-0.7-0.3-2-0.1-3.4
						c-0.1,0.7-0.4,0.6-0.5,0.4l0.6,2.4c-0.5-0.1-0.4,0.5-0.6,1.2c1-0.5,0.7,1.8,1,2.8c-0.3,0.1-0.7-0.2-0.6-1.4
						c-0.8,1.3,1.2,1.7,0.5,3c0-0.3,0-0.5-0.1-0.6c0.3,0.7,0.1,2.4-0.2,2l0-0.3c-0.1,2,0,6,0.8,6.3c-0.1,0-1-0.3-1.2-0.4l2.9,3.5
						c-0.7-0.3-2.5,0.9-2.9-0.8c-0.1,0.5-0.2,1,0,2c0.1-0.3,1.1-0.8,1.1-0.4c-0.8,1.2-0.4,0.8-1.1,2.3c0.2-0.5,1.3,0.1,1.3,0.8
						c-0.2-0.1-1.1,0.1-1.2-0.2l1.1,1.9c-0.2-0.5-1-0.1-1.3,0.3c0.2-0.2,0,1.6,0.1,2.1l0.3-0.8c-0.2,2.1,1.6,2.1,1.5,4.2
						c-0.2-0.3-1.4-0.6-1.6,0.4c0.6,0.5,2.8,2.2,3.2,4l-0.3,0.4l0.4,1.4c-0.9-0.9-2.7-3.4-3.4-4.8c-0.3,0.8-0.4,0.2-0.4,1.4
						c-0.3,0.4-0.5-0.6-0.5-1l-0.2,2.8c0.7-0.1,0.7,2.1,1.2,2l-0.7-3c0.7-0.1,1.9,1.7,1.8,3.7c-0.3,0.5-1.2-0.4-1.4-0.3
						c0.2,0.3,0.4,1.9,0.3,2l-0.4-0.8c-0.3,1.1,0.9,1.8,0.2,3.1c0,0.5-0.9,1.4-0.5,1.4c0.8-0.7,3.1-0.9,3.7-0.4
						c-0.1,0.2-0.7,2.4-1.1,2.9c-0.6,0.7-1.4-1.1-2-0.5c0.2,0,0.4,0.4,0.5,0.6c-0.2,0.5-0.6-0.2-0.5,0.8c0.7,0.2-0.1,2.1,0.6,0.5
						c0.2,1-0.1,1.1-0.1,2.3c0.4-0.4,1.5,1.1,1.7,2.1c-0.2-0.1-0.4,0.2-0.5,0.3c-0.1,2.1-0.4,3.2-0.4,5.1c-0.2,0.2-0.4,1.1-0.7,0.7
						c0.1,0.3,0.4,0.5,0.4,1.1c-0.6,1.2-0.1-1.3-0.8-0.4c0.4,0.1,0.5,1.5,0.8,2.4c0.6-0.3,0.1-2-0.1-2.8c0.8,0,1.7,1.5,2.1,3.5
						c0.2,1.6-0.5,0.7-0.4,1c-0.1,3,1.5,2.6,0.9,5.1c-0.5,1-1.1,0-1.5,0.3c-0.2-1.3,0.3-2,0.3-2.9l-0.3,1.1
						c-0.2-0.4-0.3-1.3-0.2-1.8c-0.5,0.8-0.1,5.1-0.5,7.4c0.2,0.4,0.4,1.1,0.6,0.8l-0.1-0.7c0.4-0.7,0.6,1.4,0.8,0.5
						c0.3,1,0.8,2.1,0.5,3.5l-0.6,0.3c0.2,0,0.4-0.9,0.2-1.3c0.3,0.6-0.8,2.1,0,2.8l0.4-1c0.3,1,1,2.2,0.8,3.4
						c0.6-0.6-0.1-0.3,0.6-1.2c-0.9,0.8,0-3.2-0.9-1.9c0.8-0.9,0.3-1.6,1-2.7c-0.2,0-0.4,0.4-0.3-0.6c-0.1,0-0.1-0.2-0.2-0.2
						c0,0,0,0,0-0.1c0,0,0,0,0,0.1c0,0,0,0,0,0c-0.1,0.2-0.2,0.4-0.3,0.5c-0.5-0.5-0.4-2.2-0.7-2.7c0.1-0.6,0.2,0.3,0.4-0.1
						l-0.4-0.8c0.4-0.1,0.7-1.6,1-0.2l0-1.3c0.3-0.8,0.4-1.8,0.2-2.5c0.1-0.6-0.5-1.6-0.1-1l-0.3-2l0.1,0c0.1-2-0.7-4.1,0.1-6.4
						c-0.1-0.7-0.3-1.4-0.1-2.5l0.4-0.2c-0.1-0.9,0.4-2.6,0-3c1-0.9,0.2-4.2,0.4-5.8l-0.5-0.1c0-1.1-0.1-2.1-0.3-3.4l-0.4,0.1
						c-0.4-1.1,0.3-2.9,0.3-4.7c0.2,0.1,0.1,0.6,0,0.9c1-2.1-0.7-4.5,0-6.4c-0.2-0.5-0.1-0.8,0-1.2c0,0,0,0.1,0,0.1c0,0,0-0.1,0-0.2
						c0.1-0.2,0.2-0.4,0.2-0.7c-0.1,0.2-0.2,0.4-0.2,0.6c0-0.4-0.1-0.9-0.2-1.5l0.5-0.2c0,0,0-0.1,0-0.1c0.2-0.5-0.2-0.4-0.6-0.1
						c-0.1-0.3-0.2-0.5-0.3-0.7c0.8-0.4-0.3-1.4,0.6-2c-0.4-0.4-0.3-2.8-1.2-3.1c0.1,0,0.2-0.2,0.2,0.1c0.1-0.6,0.2-1.2,0-1.8
						l0.6-0.3l-0.8-1.3c0.4-0.8,0.6-1.2,1.1-0.3c-0.7-2-0.3-1.6-1-3.3l0.4,0.1c0-0.6-0.5-1.5-0.2-1.9c0.8-1.3,0.1-6.6,0.8-10
						c-1.2,0.7,0.5-1.6-0.4-1.7c0.3-0.2,0.4-0.7,0.7-0.1c-0.3-1.7,0.4-2.6-0.3-3.8c0.3-0.2,0.4,0.4,0.6,0.2
						c-0.1-0.1-0.2-0.6-0.1-0.7c0.2-0.2,0.2,0.3,0.4,0.5c0-1.8-0.9-2-1.7-2.1c0.4-0.9,0.3-1.4-0.2-2c0.3-0.3,0.5-0.8,0.6,0.3
						c0-0.6,0.4-3.8-0.3-3.9c0.2-0.2,0-0.9,0-1c0-1.4,0.1-1.5,0-2.9l-0.1,0.4c-0.8-0.5-0.2-1.1-0.3-2.2l0.1,0
						c0.6-2.5-0.3-1.1,0.4-3.6l-0.5,0.1c-1-0.2,0.6-2.2,0.2-3.7l-0.3,0.5c-0.4-0.8,1.4-2.2,1.5-3c0.1-0.2,0.1,0.3,0.2,0.5
						c0.6-2.1-0.6-0.3-0.8-1.8c0.3-0.3,0.9,0.4,0.9-0.7c0.3-0.5-1.1-3-0.5-4.5c-0.3,0.3-0.5,0.6-0.7-0.1c-0.1-1.1,1-3,0.2-4
						c0.1-0.1,0.1-0.2,0.2-0.2c-0.2-0.8-0.4-2.7-0.8-3.3c1.7-0.8-0.8-5.3,0.7-5.2l-0.1-2.6l0.2,0.1c0.1-1.7-0.3-2.3-0.6-2.8
						c0.1-0.4,0.2-0.1,0.3-0.1c0.3-2.4,0.2-2.7-0.5-4.7l0.5-0.2c-0.3-0.6,0.8-3.5,0.2-5.9c0.1,0,0.2,0.1,0.2,0.3
						c-0.6-2.7,1.4-6.4-0.4-7.4l-0.4-1.8c-0.1,2.3-0.8-0.3-1.1,0.6c-0.1-0.9,0.5-2.3,0.6-1.2l-0.1,0.2c0.9,0.4,0.3-2.8,1-2.8
						c0-4.5,0.5-8.9,0.5-13.1L63.4,93l0-1.5c0.2-0.4,0.6-0.5,0.5,0.5c0.4-0.6-0.3-1.8-0.5-1.8c0.3-2.1,0.9,0.8,0.9,0.2l-0.1-0.9
						l-0.1,0.2c-0.3-0.7-0.6-0.8-0.6-2c0.1-0.8,0.5-0.4,0.5-0.7c0.1,0,0.1-0.1,0-0.5l0.1-1.9l-0.6,0.7c-0.3-0.8,0-1.7-0.6-0.9
						c1-1.3,0.4-6.9,0.7-7.7c-0.4-1.2-0.4-2.3-0.4-3.7c-0.1,0.3-0.8,0.6-0.7-0.7c1.3,0.4,0.6-2.2,1.5-3.2c-0.6,0.9-0.2-3.5-1.1-2.1
						c0.1-1,0.5-0.1,0.8-0.8c-0.5-2.4,0.3-5.3,0.2-8.3c-0.2,0-0.4,0.5-0.7-0.2l0.9-1.6c-0.1-0.6-1-0.5-0.4-1.6
						c-0.1,0.2-0.4,0.4-0.4,0c0.9-5.8-0.7-11.9,0.9-17.9c-0.3,0.8-0.4,0.3-0.4-0.3c-0.1,0.4-0.4,0-0.7,0.1l0.7-2.5
						c-0.7-0.5,0-2.7-0.7-2.9l0.1,0.8c-0.7-1-1.7,1.5-2.6,1.3c0.8,1.2-1.3,3.1,0,5c-0.2,0.4-0.3-0.4-0.5-0.1
						c0.4,0.5,0.5,1.1,0.3,2.2l-0.1-0.1c0.1,3.1-0.3,4.4-0.6,7.8l0.5-0.3c-0.1,0.7-0.2,0.9-0.3,1.2c0.7,0.8,0-2.1,0.8-1.3
						c-1,1,0,5.2-1.1,5.9c0,1.1,0.5-0.3,0.5,0.8l-0.3,0.3l0.4,0.3c-0.1,0.7-0.4,1.1-0.7,1.1c0-0.2-0.1-0.5-0.1-0.7
						c-0.3,1,0.1,2.7,0,3.1l0.2-1.1c0.3,3.1-0.1,6.9,0.5,9.9l0.2-0.2c0.4,2.3-0.2,1.8-0.1,4.3l-0.1-0.1c0.2,0.5,0.3,1.2,0.3,1.9
						c-0.3-0.6-0.5,1.2-0.8,0.4c0.4,2.5,0.3,1.2,1.2,2.9l-0.4,0.4c0.3,0.6,0.5,0.6,0.6,1.9c-0.3-1-0.6,0.8-1-0.4
						c-0.8,2.6,0.8,3.9-0.4,5.1c1,1.2,0.6-2.3,0.8-1.6c0.3-0.6,0.8,1,0.7,1.8c0,0.8-1.3,1.4-1.3,3.5c0-0.2-0.1-0.2-0.1-0.4
						c-0.3,0.8,0.4,1.6-0.1,2.5c0.6,0.5,0,1.3,0.8,1.4l-0.2-1.9c0.2,1.1,1.1,2.1,0.7,3.9c-0.2-0.1-0.4-0.7-0.5-1.1
						c-0.2,0.5,0.2,1-0.1,1.6c-0.8-0.2-0.2-2.4-0.8-3.5c-0.3,0.6,0.6,2.2-0.3,1.6c1.1,0.9-0.1,2.1,0.7,3.5l-0.5-0.1
						c0.1,0.2,0.3,0.7,0.3,1.1l-0.6-0.8c0.5,1.2-0.5,2.2-0.2,3.3c0-2.3,0.6-0.5,0.9-1.5c0.6,2.9-1.2,1.7-1,4.9
						c-0.1-0.4,0.3-1.6,0.5-1c-0.1,0.6-0.3,1.4-0.5,1.8c0.1,2.1,0.5-0.3,0.8,0.6c-0.6,0.7,0.2,1,0.4,2l-0.5,0
						c-0.3,2.4,1,0.6,0.6,2.8l-0.7-0.9l0.2,1.1l-0.5-0.2c0.4,1.2,0.3,1.6,0.1,2.8c0.3-0.3,0.9,0.2,0.9,1.2c-0.3,0.7-0.5-0.4-0.4,1.1
						c-0.3-0.3-0.7-0.7-0.2-1.4c-0.2-0.1-0.3-0.3-0.5-0.4c-0.3,0.8-0.1,2-0.1,2.5c0-0.2,0-0.5,0.1-0.6l0.7,2.2
						c-0.2,0.3-0.3,0.1-0.5-0.2c0.1,0.4,0.3,0.8,0.3,1.4c-0.4-0.2-0.8-0.1-1-1.1l0.4,2.1c-0.2,0.1-0.5,1.1-0.6,0.8
						c-0.2,1.2,0.8,2.9,0.5,4.4c0.1,0.1,0.1,0.2,0.2,0.6c-0.1,1.5-0.6,2.7,0,4.5l-0.7,1c0.2,1.4,0.9-1.3,1.2,0.9
						c0.2,1.6-0.6,0.6-0.8,1.2c0.4,0.8,1.1,2.2,0.5,3.6C59.4,134.3,59.6,133.9,59.5,133.4z M59.8,150.1c-0.1-0.3-0.4-1-0.1-1.2
						C60.2,149.3,60,149.6,59.8,150.1z M61,175.4c-0.2-0.2-0.1-0.6,0.1-1C61.1,174.7,61.1,175,61,175.4z M64.3,246
						C64.3,246,64.3,246,64.3,246C64.5,245.2,64.4,245.5,64.3,246z M64.1,247.5c0.1,0.2,0.1,0.1,0.2,0.1c-0.1-0.1-0.1-0.4-0.1-0.8
						C64.1,246.8,64,247,64.1,247.5z M63.9,86.9l-0.1,0.3C63.7,86.5,63.8,86.7,63.9,86.9z"/>
					<path id="XMLID_346_" d="M60.3,172.6c0.1-0.1,0.2-0.1,0.3-0.1C60.5,172.3,60.4,172.3,60.3,172.6z"/>
					<path id="XMLID_345_" d="M59.2,123.1C59.3,123.1,59.2,123,59.2,123.1c0-0.1-0.1-0.1-0.1-0.1L59.2,123.1z"/>
					<path id="XMLID_344_" d="M60,224.3c0.1-0.3,0.2-0.5,0.2-0.6C60.2,223.7,60.1,223.8,60,224.3z"/>
					<path id="XMLID_343_" d="M64.9,255.4l-0.1-1c0,0.5-0.1,0.6-0.2,0.9C64.8,255.3,64.9,255.1,64.9,255.4z"/>
					<path id="XMLID_342_" d="M62,263.7c0.1,0.1,0,0.3,0.1,0.4l0.2,0C62.2,263.5,62.1,263.1,62,263.7z"/>
					<path id="XMLID_341_" d="M63.3,256.3c-0.4,0.1-0.3,0.7-0.2,1.3c0,0,0-0.1,0-0.1C63.7,257.7,63.5,257,63.3,256.3z"/>
					<path id="XMLID_340_" d="M63.2,257.8c0,0.2,0,0.4,0,0.6C63.4,258.5,63.2,258.2,63.2,257.8z"/>
					<path id="XMLID_339_" d="M64.4,249.4c-0.1,0.3,0.5,0.2,0.4,0.4C65.3,250.1,64.1,247.6,64.4,249.4z"/>
					<polygon id="XMLID_338_" points="62,256.8 62.5,256.6 62.1,256.2 					"/>
					<path id="XMLID_337_" d="M62.4,251.5l-0.1,1.1c0.1,0,0.1,0.1,0.2,0.3C62.4,252.2,62.5,251.5,62.4,251.5z"/>
					<path id="XMLID_336_" d="M62.4,252.9c0,0.3,0,0.7,0.1,0.9C62.5,253.6,62.5,253.2,62.4,252.9z"/>
					<polygon id="XMLID_335_" points="61.9,255.4 62,255 62,254.3 					"/>
					<path id="XMLID_334_" d="M62.5,240l-0.1-1.2c-0.2-0.1-0.3,0.2-0.2,0.6C62.2,239.8,62.3,240.2,62.5,240z"/>
					<path id="XMLID_333_" d="M61.1,243.5c0.1-0.3,0.2-0.3,0.4-0.5l-0.6,0L61.1,243.5z"/>
					<path id="XMLID_332_" d="M60.9,240.1c-0.2-0.1-0.5-1.7-0.5-0.2C60.7,240,60.8,241.2,60.9,240.1z"/>
					<polygon id="XMLID_331_" points="61.7,222.5 61.7,222.8 62.8,222.8 					"/>
					<path id="XMLID_330_" d="M59.3,207c-0.2,1.4,0.6,0.3,0.3,1.6c0.2,0.3,0.2-1,0.5-0.7C59.8,207,60,206.6,59.3,207z"/>
					<path id="XMLID_329_" d="M60.1,207.9c0,0.1,0.1,0.3,0.2,0.4C60.2,208,60.1,207.9,60.1,207.9z"/>
					<polygon id="XMLID_328_" points="64.4,32.5 64.7,31.6 64.3,32.1 					"/>
					<path id="XMLID_327_" d="M63.7,30.7l0.6-0.2L63.8,30C63.8,30.2,63.8,30.6,63.7,30.7z"/>
					<path id="XMLID_326_" d="M58.5,152.6l0.2,0.1c0.2-0.1,0.2-0.3,0.2-0.8L58.5,152.6z"/>
					<polygon id="XMLID_325_" points="59,140.5 59,140.7 59.6,140.3 					"/>
					<path id="XMLID_324_" d="M58.2,130.3c0,0.4,0.1,0.9,0.1,1.3C58.2,130.8,59,130.2,58.2,130.3z"/>
				</g>
			</g>
		</g>
	</g>
</g>
<g id="XMLID_2_">
	<g id="XMLID_222_">
		<g id="XMLID_226_">
			<g id="XMLID_227_">
				<g id="XMLID_228_">
					<path id="XMLID_316_" d="M488.5,296.6c0.6,0,0.4-0.4,0.5-0.5C487.9,296.2,488.5,296.7,488.5,296.6z"/>
					<polygon id="XMLID_315_" points="478.1,297.5 478.3,297.3 476.7,297.8 					"/>
					<path id="XMLID_314_" d="M468.4,297.5c0.9,0.7,3.5-0.1,5.3,0.1l0.3,0.2l0.8-0.6C472.6,297.3,469.8,297.7,468.4,297.5z"/>
					<path id="XMLID_313_" d="M463.2,296c0.3,0.3-1.1,0.2,1.2,0.1c-0.1,0-0.2,0-0.2-0.1C464,296,463.7,296,463.2,296z"/>
					<path id="XMLID_312_" d="M464.2,296C465.2,296,463.5,295.7,464.2,296L464.2,296z"/>
					<path id="XMLID_311_" d="M459.4,296.1l1.3-0.2c-0.3-0.2-1.5-0.2-1-0.3C458.4,295.7,458.6,295.9,459.4,296.1z"/>
					<path id="XMLID_310_" d="M458.2,296.7l0.7-0.1C458.7,296.5,458.5,296.5,458.2,296.7z"/>
					<path id="XMLID_309_" d="M460.3,296.3l-1.5,0.2c0.2,0.1,0.2,0.3,0.7-0.1C459.4,296.7,459.7,296.5,460.3,296.3z"/>
					<path id="XMLID_308_" d="M461.2,296.4c0.8,0.2,1.7,0.3,0.4,0.5C464.1,296.8,463.8,296.3,461.2,296.4z"/>
					<path id="XMLID_307_" d="M467.9,298.2l1,0.2l0.9-0.2C469.3,298.3,467.8,298,467.9,298.2z"/>
					<path id="XMLID_305_" d="M451,295.8c-0.1,0.2,0.5,0.4,0.6,0.6l1-0.2C452.1,296.1,451.1,296,451,295.8z"/>
					<path id="XMLID_304_" d="M451.6,296.4l-1.5,0.3C451.4,296.7,451.7,296.5,451.6,296.4z"/>
					<polygon id="XMLID_303_" points="457.9,297.5 460.4,296.9 457.4,297.5 					"/>
					<polygon id="XMLID_302_" points="445.3,295.8 446.2,295.4 444.7,295.9 					"/>
					<path id="XMLID_301_" d="M441.5,295.8c0.6-0.3-0.9-0.5-0.2-0.7c-1,0.1-1.9,0.3-2.7,0.5C439.5,295.5,440.4,295.6,441.5,295.8z"
						/>
					<path id="XMLID_300_" d="M437.3,296c0.4-0.1,0.9-0.2,1.3-0.3C438.2,295.7,437.8,295.8,437.3,296z"/>
					<path id="XMLID_299_" d="M447.5,296.6c-0.1-0.1-0.3-0.3-1.2-0.4l0.6,0.4C447.1,296.6,447.3,296.6,447.5,296.6z"/>
					<path id="XMLID_298_" d="M447,296.6L447,296.6c-0.7,0-1.1,0-1.3,0C445.9,296.5,446.2,296.5,447,296.6z"/>
					<path id="XMLID_297_" d="M447.7,296.6c-0.1,0-0.1,0-0.1,0C447.6,296.6,447.6,296.6,447.7,296.6z"/>
					<path id="XMLID_296_" d="M454,297.1c-0.9,0.2-2.7,0.5-0.9,0.9C453.7,297.6,452.7,297.4,454,297.1z"/>
					<path id="XMLID_295_" d="M448.4,297.1l1.6,0.1c0-0.1-0.3-0.3,0.1-0.4L448.4,297.1z"/>
					<polygon id="XMLID_294_" points="447.6,297.2 448.4,297.1 447.8,297.1 					"/>
					<path id="XMLID_293_" d="M440,296.4c-0.7,0.2-1.4,0.2-2.3,0.2c0.9,0.1,1.8,0.1,2.7,0.1C440.6,296.6,441,296.4,440,296.4z"/>
					<path id="XMLID_292_" d="M443.4,296.5c0,0-0.1,0-0.2,0C443.4,296.6,443.4,296.6,443.4,296.5z"/>
					<path id="XMLID_291_" d="M429.4,296.6c0,0,0.1,0.1,0.1,0.1c0,0,0,0,0-0.1L429.4,296.6z"/>
					<path id="XMLID_290_" d="M440.7,296.8c0.7,0.1,1.1,0,1.5-0.2c-0.5,0-1,0.1-1.6,0.1C440.4,296.8,440.4,296.9,440.7,296.8z"/>
					<path id="XMLID_289_" d="M435,296.2c0.4,0.1,0.8,0.2,1.2,0.2C435.8,296.3,435.1,296.1,435,296.2z"/>
					<path id="XMLID_288_" d="M443,296.4c0,0,0.1,0,0.1,0C442.9,296.3,442.9,296.4,443,296.4z"/>
					<path id="XMLID_287_" d="M443,296.4c-0.4,0.1-0.6,0.2-0.9,0.3c0.4,0,0.8-0.1,1.1-0.1C443.2,296.5,443.1,296.5,443,296.4z"/>
					<path id="XMLID_286_" d="M426.9,299.4c0.1-0.4,1.9-0.8,3.5-0.3c1.5-0.3,0.5-1.6-0.8-2.3c0,0.2,0,0.3-1.6,0.6
						c0.5,0.2,3.5,0.5,2.2,0.9c-2.1,0.2-1.7-0.1-2.7-0.3c0.9,0.5-2.6,0.7-2.2,1.4l1.8-0.3C427.1,299.1,426.4,299.3,426.9,299.4z"/>
					<path id="XMLID_285_" d="M432.6,296.7l0.6,0c-0.7-0.1-1.3-0.2-2.2-0.5c-1.1,0.2-1.3,0.3-1.4,0.5l3.2,0.1L432.6,296.7z"/>
					<path id="XMLID_284_" d="M436.1,296.7c-0.5,0.4-2.1,0.6-1.1,1.1c1.9,0,1.3-0.4,2.5-0.5C434.4,297.3,438.3,297,436.1,296.7
						c0.6,0,1.2,0,1.7-0.1c-0.5-0.1-1.1-0.1-1.6-0.2c0,0,0,0,0.1,0l0,0c0,0,0,0,0,0c0.1,0.1,0.2,0.1,0,0.1c0,0,0,0-0.1,0
						C436.2,296.6,436.2,296.6,436.1,296.7c-0.9-0.1-0.1-0.1,0.1-0.2c0,0,0,0,0-0.1c0,0,0,0,0,0l-3.1,0.2
						C433.8,296.8,434.7,296.7,436.1,296.7z"/>
					<path id="XMLID_283_" d="M451.4,298.9c-0.1,0-0.1-0.1-0.1-0.1C451.1,298.8,451.1,298.8,451.4,298.9z"/>
					<path id="XMLID_282_" d="M450.2,298.6c0.2-0.1,0.4-0.2,1.1-0.2c0.6,0.1,0,0.2,0,0.3c0.4-0.1,1.5-0.3,0.2-0.5l-0.2,0.1
						c-1.2-0.1-2.8-0.7-2.6-0.7C449,297.9,449.4,298.2,450.2,298.6z"/>
					<path id="XMLID_281_" d="M443,297.8l-2.5,0.2l1.3,0.4l-0.1-0.2C443.2,298.2,442.9,297.9,443,297.8z"/>
					<polygon id="XMLID_280_" points="429.1,296.4 429.5,296 428,296.6 					"/>
					<polygon id="XMLID_279_" points="425.8,296.5 426,296.1 425.1,296.3 					"/>
					<path id="XMLID_278_" d="M239.2,301.4l-0.7,0.1C238.8,301.5,239,301.4,239.2,301.4z"/>
					<path id="XMLID_277_" d="M244.6,301.4l0.1-0.2C244.5,301.3,244.4,301.4,244.6,301.4z"/>
					<path id="XMLID_276_" d="M344.6,296.5c-1.1-0.4-2.3-0.9-2.2-0.5l0.3,0.4C343.5,296.4,344.1,296.4,344.6,296.5z"/>
					<path id="XMLID_275_" d="M289,299.1c0.1,0,0.2,0.1,0.3,0.1c0.3-0.1,0.5-0.3,0.7-0.4C289.7,298.9,289.3,299,289,299.1z"/>
					<path id="XMLID_274_" d="M288.2,300.9l-1.4-0.3C287.1,300.7,287.5,300.8,288.2,300.9z"/>
					<path id="XMLID_273_" d="M209.6,301.8l-0.9,0.4C210.1,302.3,209.5,302.1,209.6,301.8z"/>
					<path id="XMLID_272_" d="M392,296.6c-0.9-0.2-1.7-0.2-2.3-0.3C390.7,296.6,391.7,297,392,296.6z"/>
					<path id="XMLID_271_" d="M241.3,296.8c-0.5,0.1-0.7,0.2-0.6,0.3C241.1,297,241.4,296.9,241.3,296.8z"/>
					<path id="XMLID_270_" d="M386.9,296.4c0.2,0,0.3,0.1,0.5,0.1c0.7-0.1,1.4-0.1,2.2-0.1C388.8,296.2,387.8,296.1,386.9,296.4z"/>
					<path id="XMLID_269_" d="M102.3,301.5c-0.1,0-0.2,0-0.2-0.1C102.1,301.5,102.2,301.5,102.3,301.5z"/>
					<path id="XMLID_268_" d="M71.1,297.1c0.3,0,0.8,0,1.3,0C72.1,297,71.8,297,71.1,297.1z"/>
					<path id="XMLID_267_" d="M412.5,296.3C413.2,296.2,412.6,296.2,412.5,296.3L412.5,296.3z"/>
					<path id="XMLID_266_" d="M415.9,298c-0.1,0-0.3,0.1-0.3,0.2C415.7,298.1,415.8,298,415.9,298z"/>
					<path id="XMLID_265_" d="M379.9,299.1C379.9,299.1,379.9,299.1,379.9,299.1C380.1,299.1,380,299.1,379.9,299.1z"/>
					<path id="XMLID_264_" d="M413.6,296.5c-0.3-0.1-0.6-0.1-0.9-0.1C412.8,296.4,413.1,296.4,413.6,296.5z"/>
					<path id="XMLID_263_" d="M413.4,296.3c0.2,0,0.4,0,0.6,0C414.1,296.2,414.1,296.2,413.4,296.3z"/>
					<path id="XMLID_262_" d="M411.6,296.3c0.4,0,0.8,0,1.1,0c-0.1,0-0.2-0.1-0.2-0.1C412.3,296.3,412,296.3,411.6,296.3z"/>
					<path id="XMLID_261_" d="M159.8,300.3c0,0-0.1,0-0.2,0C158.9,300.5,159.3,300.4,159.8,300.3z"/>
					<path id="XMLID_260_" d="M326.3,301C326.4,301,326.4,301,326.3,301C326.4,301,326.3,301,326.3,301L326.3,301z"/>
					<path id="XMLID_259_" d="M323.8,301.3c1.1-0.5,1.7-0.5,2.5-0.4l-0.8-1.3L323.8,301.3z"/>
					<path id="XMLID_252_" d="M226.2,301.5l1.8,0.4c-2.1,0.6-3.7,0.4-2,1c0.3-1.4,6.9-0.1,7.1-1.5l1.2,0.3c-0.3,0-0.4,0.1-0.7,0.1
						c2.3,0.7,1.7-1,4.6-0.8c1,0.1,1.7,0.3,1,0.5l2.3-0.3c0.7,0,0.5,0.3-0.2,0.2l3.5-0.1l0,0c0.5-0.2,1.6-0.5,2.2-0.7
						c0.9,0.2-0.4,0.1-0.2,0.3l1.9-0.3c0.8,0.4-0.8,0.7-2.1,0.6c1.8,1.4,1.6-0.3,5.5,0.5l-1.8,0.2c1.2,0.8,2.6,0.5,4.6,1
						c-0.5-0.3-4.1-1.2-2-1.5c0.6,0.1,1.4,0.2,2.5-0.1c0,0.5,1.1,0.4,2.5,0.3l-0.1,0.6c1.5-0.2,1.4-0.5,2.2-0.8c1.7,0.1,2,0.6,2.4,1
						c2.6,0.1-1.8-0.8,1.3-0.9c2.2,0.2,3.7,0,6.4-0.4c1.5,0.2-0.3,0.4,0.3,0.6l1.4-0.5c0.3,0,0.2,0.2,0.2,0.2
						c1.2-0.2,0.1-0.6,1.9-0.8c0.5-0.7,3.7,1,6,0.2c0.6,0.2-0.3,0.4-0.1,0.6c3.1-0.5,2.6-0.4,5.2-1.1l2.1,0.4
						c-1.6-0.5,0.4-1,2.2-1.5c-0.6-0.2-1-0.4-1.4-0.5l2.8-0.3c0.3,0.1,0.1,0.3-0.4,0.6c0.2-0.1,0.4-0.1,0.5-0.2c1,0.2,0.5,0.6-0.2,1
						c-0.3-0.1-0.7-0.3-1-0.4c-0.7,0.4-1.3,0.8-1.2,1.2c0.2-0.1,0.5-0.1,0.9-0.2c-0.2,0.1-0.3,0.2-0.2,0.3c0.1,0.1,0.4-0.1,0.9-0.2
						l0.6,0.7l0.2-0.3l3.7,0.4c2.6-0.7,4.9-1.8,9.1-2.1c-1,0.5-0.2,0.9-0.3,1.5c-1.1-0.7-3.2,0.3-5.4,0.1c1.1,0.1,0.9,0.4,0.6,0.5
						l3.9-0.6c-0.1,0.5,0.8,0.4,1.8,0.6c-0.8-1,2.9-0.7,4.5-1c0.1,0.3-0.3,0.7-2.2,0.6c2.1,0.8,2.7-1.2,4.8-0.5
						c-0.5,0-0.7,0-0.9,0.1c1.1-0.3,3.8-0.1,3.1,0.2l-0.5,0c3.1,0.1,9.5,0,9.9-0.8c0,0.1-0.4,1-0.6,1.2l5.6-2.9
						c-0.5,0.7,1.4,2.5-1.2,2.9c0.7,0.1,1.7,0.2,3.2,0c-0.5-0.1-1.3-1.1-0.6-1.1c1.9,0.8,1.3,0.4,3.7,1.1c-0.8-0.2,0.1-1.3,1.3-1.3
						c-0.2,0.2,0.1,1.1-0.3,1.2l3-1.1c-0.7,0.2-0.1,1,0.5,1.3c-0.3-0.2,2.6,0,3.4-0.1l-1.3-0.3c3.4,0.2,3.3-1.6,6.7-1.5
						c-0.4,0.2-1,1.4,0.7,1.6c0.8-0.6,3.4-2.8,6.4-3.2l0.6,0.3l2.3-0.4c-1.4,0.9-5.4,2.7-7.5,3.4c1.3,0.3,0.4,0.4,2.2,0.4
						c0.7,0.3-1,0.5-1.6,0.5l4.4,0.2c-0.2-0.7,3.4-0.7,3.2-1.2l-4.8,0.7c-0.2-0.7,2.8-1.9,5.9-1.8c0.8,0.3-0.6,1.2-0.5,1.4
						c0.4-0.2,3-0.4,3.2-0.3l-1.3,0.4c1.7,0.3,2.8-0.9,4.9-0.2c0.7,0,2.1,0.9,2.3,0.5c-1.2-0.8-1.4-3.1-0.6-3.7
						c0.3,0.1,3.8,0.7,4.6,1.1c1.2,0.6-1.8,1.4-0.8,2c0-0.2,0.7-0.4,1-0.5c0.8,0.2-0.3,0.6,1.3,0.5c0.3-0.7,3.3,0.1,0.8-0.6
						c1.6-0.2,1.7,0.1,3.6,0.1c-0.6-0.4,1.7-1.5,3.3-1.7c-0.1,0.2,0.3,0.4,0.4,0.5c3.3,0.1,5.1,0.4,8.1,0.4c0.3,0.2,1.8,0.4,1.1,0.7
						c0.4-0.1,0.8-0.4,1.8-0.4c1.8,0.6-2.1,0.1-0.7,0.8c0.1-0.4,2.4-0.5,3.8-0.8c-0.4-0.6-3.1-0.1-4.5,0.1c0-0.8,2.3-1.7,5.6-2.1
						c2.5-0.2,1.1,0.5,1.5,0.4c4.8,0.1,4.1-1.5,8.1-0.9c1.6,0.5,0.1,1.1,0.4,1.5c-2.1,0.2-3.2-0.3-4.6-0.3l1.7,0.3
						c-0.7,0.2-2,0.3-2.8,0.2c1.3,0.5,8.1,0.1,11.8,0.5c0.7-0.2,1.8-0.4,1.3-0.6l-1.2,0.1c-1.1-0.4,2.2-0.6,0.7-0.8
						c1.6-0.3,3.3-0.8,5.5-0.5l0.4,0.6c0-0.2-1.4-0.4-2.1-0.2c0.9-0.3,3.4,0.8,4.4,0l-1.5-0.4c1.6-0.3,3.5-1,5.5-0.8
						c-0.9-0.6-0.5,0.1-1.8-0.6c1.2,0.9-5,0-3.1,0.9c-1.4-0.8-2.5-0.3-4.3-1c0.1,0.2,0.7,0.4-1,0.3c-0.1,0.1-0.2,0.1-0.4,0.2
						c-0.1,0-0.1,0-0.1,0c0,0,0.1,0,0.1,0c-0.1,0-0.1,0,0,0c0.4,0.1,0.7,0.2,0.8,0.3c-0.8,0.5-3.4,0.4-4.3,0.7
						c-1-0.1,0.4-0.2-0.1-0.4l-1.3,0.4c-0.1-0.4-2.6-0.7-0.3-1l-2.1,0c-1.2-0.3-2.9-0.4-3.9-0.2c-1-0.1-2.5,0.5-1.6,0.1l-3.2,0.3
						l0-0.1c-3.2-0.1-6.6,0.7-10.2-0.1c-1.1,0.1-2.2,0.3-4,0.1l-0.4-0.4c-1.4,0.1-4.1-0.4-4.7,0c-1.5-1-6.7-0.2-9.1-0.4l-0.1,0.5
						c-1.7,0-3.3,0.1-5.4,0.3l0.1,0.4c-1.8,0.4-4.6-0.3-7.4-0.3c0.2-0.2,0.9-0.1,1.4,0c-3.4-1-7.1,0.7-10.2,0
						c-0.8,0.2-1.3,0.1-1.9,0c0.1,0,0.1,0,0.2,0c-0.1,0-0.2,0-0.3,0c-0.3-0.1-0.7-0.2-1.1-0.2c0.3,0.1,0.6,0.2,0.9,0.2
						c-0.6,0-1.5,0.1-2.4,0.2l-0.4-0.5c-0.1,0-0.1,0-0.2,0c-0.9-0.2-0.7,0.2-0.2,0.6c-0.4,0.1-0.8,0.2-1.2,0.3
						c-0.7-0.8-2.3,0.3-3.3-0.6c-0.6,0.4-4.4,0.3-4.9,1.2c0-0.1-0.3-0.2,0.2-0.2c-1-0.1-2-0.2-2.8,0l-0.4-0.6l-2.1,0.8
						c-1.3-0.4-1.8-0.6-0.5-1.1c-3.1,0.7-2.5,0.3-5.2,1l0.1-0.4c-0.9,0-2.5,0.5-3,0.2c-2.1-0.8-10.5-0.1-15.9-0.8
						c1.1,1.2-2.5-0.5-2.7,0.4c-0.3-0.3-1.1-0.4-0.2-0.7c-2.8,0.3-4.2-0.4-6.1,0.3c-0.3-0.3,0.6-0.4,0.3-0.6
						c-0.2,0.1-0.9,0.2-1.2,0.1c-0.3-0.2,0.4-0.2,0.8-0.4c-2.8,0-3.1,0.9-3.3,1.7c-1.4-0.4-2.1-0.3-3.2,0.2
						c-0.5-0.3-1.3-0.5,0.4-0.6c-1,0-6-0.4-6.1,0.3c-0.3-0.2-1.4,0-1.6,0c-2.2,0-2.4-0.1-4.6,0l0.6,0.1c-0.9,0.8-1.8,0.2-3.6,0.3
						l0.1-0.1c-4-0.6-1.7,0.3-5.7-0.4l0.2,0.5c-0.4,1-3.5-0.6-5.8-0.2l0.8,0.3c-1.3,0.4-3.5-1.4-4.8-1.5c-0.3-0.1,0.4-0.1,0.8-0.2
						c-3.3-0.6-0.4,0.6-2.9,0.8c-0.5-0.3,0.6-0.9-1.1-0.9c-0.8-0.3-4.8,1.1-7.1,0.5c0.5,0.3,1,0.5-0.2,0.7c-1.8,0.1-4.7-1-6.3-0.2
						c-0.2-0.1-0.3-0.1-0.3-0.2c-1.3,0.2-4.4,0.4-5.2,0.8c-1.2-1.7-8.3,0.8-8.3-0.7l-4.1,0.1l0.1-0.2c-2.6-0.1-3.6,0.3-4.5,0.6
						c-0.6-0.1-0.2-0.2-0.1-0.3c-3.9-0.3-4.2-0.2-7.5,0.5l-0.3-0.5c-0.9,0.3-5.6-0.8-9.4-0.2c0-0.1,0.1-0.2,0.4-0.2
						c-4.3,0.6-10.2-1.4-11.8,0.4l-2.8,0.4c3.6,0.1-0.5,0.8,1,1.1c-1.4,0.1-3.7-0.5-1.9-0.6l0.3,0.1c0.6-0.9-4.5-0.3-4.4-1
						c-7.2,0-14.1-0.5-20.8-0.5l0.8,0.7l-2.3,0c-0.6-0.2-0.8-0.6,0.8-0.5c-0.9-0.4-2.8,0.3-2.8,0.5c-3.3-0.3,1.3-0.9,0.3-0.9
						l-1.4,0.1l0.3,0.1c-1.1,0.3-1.2,0.6-3.2,0.6c-1.3-0.1-0.7-0.5-1.1-0.5c0-0.1-0.2-0.1-0.8,0l-2.9-0.1l1.2,0.6
						c-1.3,0.3-2.8,0-1.4,0.6c-2-1-11-0.4-12.2-0.7c-1.8,0.4-3.6,0.4-5.9,0.4c0.6,0.1,0.9,0.8-1,0.7c0.7-1.3-3.5-0.6-5.1-1.5
						c1.4,0.6-5.5,0.2-3.3,1.1c-1.6-0.1-0.1-0.5-1.3-0.8c-3.8,0.5-8.4-0.3-13.2-0.2c-0.1,0.2,0.7,0.4-0.3,0.7l-2.5-0.9
						c-0.9,0.1-0.9,1-2.6,0.4c0.2,0.1,0.6,0.4,0,0.4c-9.3-0.9-18.9,0.7-28.4-0.9c1.3,0.3,0.4,0.4-0.5,0.4c0.6,0.1,0,0.4,0.1,0.7
						l-3.9-0.7c-0.7,0.7-4.2,0-4.6,0.7l1.2-0.1c-1.7,0.7,2.3,1.7,2.1,2.6c1.9-0.8,4.9,1.3,7.9,0c0.7,0.2-0.6,0.3-0.2,0.5
						c0.8-0.4,1.7-0.5,3.4-0.3l-0.2,0.1c4.9-0.1,6.9,0.3,12.4,0.6l-0.4-0.5c1.2,0.1,1.4,0.2,2,0.3c1.3-0.7-3.3,0-2.1-0.8
						c1.6,1,8.3,0,9.3,1.1c1.8,0-0.5-0.5,1.3-0.5l0.5,0.3l0.5-0.4c1.2,0.1,1.8,0.4,1.8,0.7c-0.3,0-0.8,0.1-1.1,0.1
						c1.5,0.3,4.3-0.1,4.9,0l-1.7-0.2c4.9-0.3,10.9,0.1,15.7-0.5l-0.4-0.2c3.6-0.4,2.9,0.2,6.9,0.1l-0.1,0.1c0.8-0.2,1.9-0.3,3-0.3
						c-1,0.3,1.9,0.5,0.6,0.8c3.9-0.4,1.9-0.3,4.6-1.2l0.6,0.4c0.9-0.3,1-0.5,3-0.6c-1.6,0.3,1.3,0.6-0.6,1c4.2,0.8,6.2-0.8,8.1,0.4
						c1.9-1-3.6-0.6-2.5-0.8c-0.9-0.3,1.6-0.8,2.9-0.7c1.3,0,2.3,1.3,5.6,1.3c-0.3,0-0.4,0.1-0.7,0.1c1.3,0.3,2.5-0.4,4,0.1
						c0.9-0.6,2,0,2.3-0.8l-3.1,0.2c1.7-0.2,3.4-1.1,6.3-0.7c-0.2,0.2-1.1,0.4-1.7,0.5c0.8,0.2,1.6-0.2,2.5,0.1
						c-0.2,0.8-3.7,0.2-5.6,0.8c0.9,0.3,3.5-0.6,2.6,0.3c1.4-1.1,3.3,0.1,5.6-0.7l-0.2,0.5c0.4-0.1,1.1-0.3,1.8-0.3l-1.2,0.6
						c1.8-0.5,3.6,0.5,5.3,0.2c-3.7,0-0.8-0.6-2.4-0.9c4.6-0.6,2.6,1.2,7.7,1c-0.7,0.1-2.6-0.3-1.5-0.5c1,0.1,2.3,0.3,2.9,0.5
						c3.4-0.1-0.5-0.5,0.9-0.8c1.2,0.6,1.7-0.2,3.1-0.4l0,0.5c3.9,0.3,1-1,4.5-0.6l-1.5,0.7l1.8-0.2l-0.4,0.5c2-0.4,2.6-0.3,4.5-0.1
						c-0.4-0.3,0.3-0.9,2-0.9c1.2,0.3-0.7,0.5,1.8,0.4c-0.5,0.3-1.1,0.7-2.2,0.2c-0.1,0.2-0.5,0.3-0.7,0.5c1.3,0.3,3.2,0.1,4,0.1
						c-0.3,0-0.7,0-0.9-0.1l3.5-0.7c0.6,0.2,0.1,0.3-0.3,0.5c0.7-0.1,1.2-0.3,2.2-0.3c-0.3,0.4-0.2,0.8-1.7,1l3.3-0.4
						c0.2,0.2,1.7,0.5,1.3,0.6c1.9,0.2,4.5-0.8,7-0.5c0.1-0.1,0.4-0.1,0.9-0.2c2.3,0.1,4.4,0.6,7.1,0l1.6,0.7
						c2.1-0.2-2.1-0.9,1.5-1.2c2.5-0.2,0.9,0.6,1.8,0.8c1.3-0.4,3.4-1.1,5.8-0.5C227.5,301.6,226.9,301.4,226.2,301.5z M252.6,301.2
						c-0.5,0.1-1.5,0.4-1.9,0.1C251.3,300.8,251.8,301,252.6,301.2z M292.8,300c-0.4,0.2-1,0.1-1.6-0.1
						C291.7,299.9,292.2,299.9,292.8,300z M404.8,296.7C404.8,296.7,404.8,296.7,404.8,296.7C403.6,296.5,404,296.6,404.8,296.7z
						 M407.2,296.9c0.2-0.1,0.2-0.1,0.1-0.2c-0.2,0.1-0.7,0.1-1.3,0.1C406.2,296.9,406.5,297,407.2,296.9z M152.3,297.1l0.5,0.1
						C151.7,297.3,152,297.2,152.3,297.1z"/>
					<path id="XMLID_251_" d="M288.3,300.7c-0.1-0.1-0.2-0.2-0.2-0.3C287.9,300.5,287.9,300.6,288.3,300.7z"/>
					<path id="XMLID_250_" d="M209.8,301.8C209.7,301.7,209.7,301.8,209.8,301.8c-0.1,0-0.1,0.1-0.2,0.1L209.8,301.8z"/>
					<path id="XMLID_249_" d="M370.4,301c-0.5-0.1-0.8-0.2-0.9-0.2C369.5,300.8,369.7,300.9,370.4,301z"/>
					<path id="XMLID_248_" d="M419.8,296.1l-1.5,0.1c0.7,0,1,0.1,1.4,0.2C419.6,296.2,419.3,296.1,419.8,296.1z"/>
					<path id="XMLID_247_" d="M433,299c0.2-0.1,0.5,0,0.7-0.1l-0.1-0.2C432.7,298.8,432,298.9,433,299z"/>
					<path id="XMLID_246_" d="M421.2,297.7c0.1,0.4,1.1,0.3,2.1,0.2c-0.1,0-0.1,0-0.2,0C423.5,297.3,422.3,297.5,421.2,297.7z"/>
					<path id="XMLID_245_" d="M423.6,297.8c0.3,0,0.7,0,1,0C424.7,297.6,424.2,297.8,423.6,297.8z"/>
					<path id="XMLID_244_" d="M410.2,296.6c0.5,0.1,0.3-0.5,0.6-0.4C411.4,295.7,407.5,296.9,410.2,296.6z"/>
					<polygon id="XMLID_243_" points="422.1,299 421.7,298.5 421.1,298.9 					"/>
					<path id="XMLID_242_" d="M413.7,298.6l1.7,0.1c0-0.1,0.2-0.1,0.5-0.2C414.8,298.6,413.6,298.5,413.7,298.6z"/>
					<path id="XMLID_241_" d="M415.8,298.6c0.5,0,1.1,0,1.4-0.1C416.9,298.5,416.2,298.5,415.8,298.6z"/>
					<polygon id="XMLID_240_" points="419.7,299.1 419.2,299 418,299 					"/>
					<path id="XMLID_239_" d="M395.4,298.5l-1.9,0.1c-0.2,0.2,0.3,0.3,1,0.2C395,298.8,395.6,298.7,395.4,298.5z"/>
					<path id="XMLID_238_" d="M401,299.9c-0.5-0.1-0.5-0.2-0.8-0.4l-0.1,0.6L401,299.9z"/>
					<path id="XMLID_237_" d="M395.6,300.1c-0.2,0.2-2.7,0.5-0.3,0.5C395.4,300.3,397.3,300.2,395.6,300.1z"/>
					<polygon id="XMLID_236_" points="367.6,299.3 368,299.3 368,298.2 					"/>
					<path id="XMLID_235_" d="M342.9,301.7c2.2,0.2,0.5-0.6,2.5-0.3c0.5-0.2-1.6-0.2-1.1-0.5C343,301.2,342.3,301,342.9,301.7z"/>
					<path id="XMLID_234_" d="M344.3,300.9c0.2,0,0.4-0.1,0.7-0.2C344.6,300.8,344.4,300.9,344.3,300.9z"/>
					<polygon id="XMLID_233_" points="65.9,296.6 64.5,296.3 65.4,296.7 					"/>
					<path id="XMLID_232_" d="M63.2,297.3l-0.3-0.6l-0.9,0.6C62.3,297.2,62.9,297.2,63.2,297.3z"/>
					<path id="XMLID_231_" d="M256.6,302.5l0.1-0.2c-0.2-0.2-0.6-0.2-1.2-0.2L256.6,302.5z"/>
					<polygon id="XMLID_230_" points="237.4,302 237.7,302 237.1,301.4 					"/>
					<path id="XMLID_229_" d="M221.3,302.8c0.7,0,1.4-0.1,2.1-0.1C221.9,302.8,221.1,302,221.3,302.8z"/>
				</g>
			</g>
		</g>
	</g>
</g>
<g id="XMLID_3_">
	<g id="XMLID_116_">
		<g id="XMLID_120_">
			<g id="XMLID_121_">
				<g id="XMLID_122_">
					<path id="XMLID_209_" d="M369.7,270.1c0.6,0,0.4-0.4,0.4-0.4C369.2,269.7,369.7,270.2,369.7,270.1z"/>
					<polygon id="XMLID_208_" points="360.4,270.8 360.5,270.7 359.2,271 					"/>
					<path id="XMLID_207_" d="M351.7,270.5c0.8,0.8,3.1,0.1,4.7,0.4l0.2,0.2l0.7-0.6C355.5,270.5,353,270.7,351.7,270.5z"/>
					<path id="XMLID_206_" d="M347.2,268.6c0.3,0.3-1,0.2,1.1,0.2c-0.1,0-0.1-0.1-0.2-0.1C347.9,268.7,347.6,268.7,347.2,268.6z"/>
					<path id="XMLID_205_" d="M348,268.7C349,268.7,347.5,268.4,348,268.7L348,268.7z"/>
					<path id="XMLID_204_" d="M343.8,268.6l1.2-0.2c-0.2-0.2-1.3-0.3-0.9-0.4C342.9,268.1,343.2,268.3,343.8,268.6z"/>
					<path id="XMLID_203_" d="M342.7,269.1l0.6-0.1C343.2,268.9,343,268.9,342.7,269.1z"/>
					<path id="XMLID_202_" d="M344.6,268.8l-1.3,0.1c0.2,0.1,0.2,0.4,0.6,0C343.8,269.1,344,269,344.6,268.8z"/>
					<path id="XMLID_201_" d="M345.4,269c0.7,0.2,1.5,0.3,0.3,0.5C348,269.6,347.7,269,345.4,269z"/>
					<path id="XMLID_200_" d="M351.2,271.2l0.9,0.3l0.8-0.2C352.5,271.3,351.2,270.9,351.2,271.2z"/>
					<path id="XMLID_199_" d="M336.4,267.5c-0.1,0.1,0.4,0.4,0.4,0.6l0.9-0.1C337.3,267.9,336.5,267.8,336.4,267.5z"/>
					<path id="XMLID_198_" d="M336.9,268.2l-1.3,0.1C336.7,268.4,336.9,268.3,336.9,268.2z"/>
					<path id="XMLID_197_" d="M342.4,269.8c0,0,0.6-0.1,1.1-0.2c0.6-0.1,1.1-0.2,1.1-0.2s-0.7,0.1-1.3,0.2c-0.7,0.1-1.3,0.2-1.3,0.2
						L342.4,269.8z"/>
					<polygon id="XMLID_196_" points="331.4,267 332.2,266.7 330.8,267.1 					"/>
					<path id="XMLID_195_" d="M328.1,266.7c0.6-0.2-0.7-0.6-0.1-0.7c-0.9-0.1-1.7,0.1-2.4,0.2C326.3,266.1,327.1,266.3,328.1,266.7z
						"/>
					<path id="XMLID_194_" d="M324.3,266.3c0.4,0,0.8-0.1,1.2-0.2C325.1,266.2,324.7,266.2,324.3,266.3z"/>
					<path id="XMLID_193_" d="M333.3,268c-0.1-0.1-0.3-0.4-1-0.5l0.5,0.5C332.9,268,333.1,268,333.3,268z"/>
					<path id="XMLID_192_" d="M332.8,268L332.8,268c-0.6-0.1-1-0.1-1.1-0.2C331.8,267.8,332.1,267.9,332.8,268z"/>
					<path id="XMLID_191_" d="M333.4,268c0,0-0.1,0-0.1,0C333.3,268,333.3,268.1,333.4,268z"/>
					<path id="XMLID_190_" d="M338.9,269.1c-0.8,0.2-2.4,0.2-0.9,0.8C338.6,269.6,337.7,269.3,338.9,269.1z"/>
					<path id="XMLID_189_" d="M334,268.6l1.4,0.2c0-0.1-0.3-0.3,0.1-0.4L334,268.6z"/>
					<polygon id="XMLID_188_" points="333.3,268.7 334,268.6 333.5,268.5 					"/>
					<path id="XMLID_187_" d="M326.7,267.1c-0.6,0.1-1.3,0-2-0.1c0.8,0.2,1.6,0.4,2.4,0.5C327.1,267.4,327.5,267.2,326.7,267.1z"/>
					<path id="XMLID_186_" d="M329.6,267.6c0,0-0.1,0-0.1,0C329.6,267.6,329.6,267.7,329.6,267.6z"/>
					<polygon id="XMLID_185_" points="317.3,265.9 317.4,266 317.4,266 					"/>
					<path id="XMLID_184_" d="M327.1,267.6c0.6,0.2,1,0.1,1.3,0c-0.5,0-0.9-0.1-1.4-0.1C327,267.5,326.9,267.6,327.1,267.6z"/>
					<path id="XMLID_183_" d="M322.2,266.2c0.3,0.1,0.6,0.3,1,0.4C323,266.4,322.4,266.1,322.2,266.2z"/>
					<path id="XMLID_182_" d="M329.3,267.5C329.3,267.5,329.3,267.4,329.3,267.5C329.2,267.3,329.2,267.4,329.3,267.5z"/>
					<path id="XMLID_181_" d="M329.3,267.5c-0.3,0-0.6,0.1-0.8,0.1c0.4,0,0.7,0,1,0C329.4,267.6,329.3,267.5,329.3,267.5z"/>
					<path id="XMLID_180_" d="M314.6,268.3c0.1-0.2,0.5-0.3,1.1-0.3c0.6,0,1.3,0.1,2,0.4c1.4-0.1,0.7-1.5-0.3-2.4
						c-0.1,0.2-0.1,0.3-1.5,0.4c0.4,0.3,3,0.9,1.8,1.1c-1.9-0.1-1.5-0.3-2.3-0.7c0.7,0.6-2.4,0.3-2.2,1.1l1.6,0
						C314.8,268,314.2,268.1,314.6,268.3z"/>
					<path id="XMLID_179_" d="M320,266.5l0.6,0c-0.6-0.2-1.1-0.4-1.9-0.8c-1,0.1-1.2,0.2-1.3,0.3l2.8,0.5L320,266.5z"/>
					<path id="XMLID_178_" d="M323.1,266.9c-0.5,0.4-1.9,0.3-1.1,0.9c1.7,0.2,1.2-0.2,2.2-0.2C321.5,267.3,325.1,267.4,323.1,266.9
						c0.6,0.1,1,0.1,1.5,0.1c-0.5-0.1-0.9-0.3-1.4-0.4c0,0,0,0,0.1,0l0,0l0,0c0.1,0.1,0.1,0.1,0,0.1c0,0,0,0-0.1,0
						C323.3,266.8,323.2,266.8,323.1,266.9c-0.8-0.2-0.1-0.1,0.1-0.1c0,0,0,0,0-0.1l0,0l-2.7-0.2
						C321.1,266.6,321.9,266.7,323.1,266.9z"/>
					<path id="XMLID_177_" d="M336.5,270.6c-0.1,0-0.1-0.1-0.1-0.1C336.2,270.6,336.2,270.6,336.5,270.6z"/>
					<path id="XMLID_176_" d="M335.4,270.3c0.2,0,0.4-0.2,1-0.1c0.5,0.2,0,0.2,0,0.3c0.4-0.1,1.4-0.2,0.2-0.5l-0.2,0
						c-1.1-0.3-2.4-0.9-2.2-1C334.4,269.5,334.7,269.8,335.4,270.3z"/>
					<path id="XMLID_175_" d="M329.1,268.8l-2.3-0.1l1.1,0.5l0-0.2C329.2,269.2,329,268.9,329.1,268.8z"/>
					<polygon id="XMLID_174_" points="317.1,265.7 317.4,265.3 316,265.7 					"/>
					<polygon id="XMLID_173_" points="314.1,265.3 314.3,264.9 313.5,265 					"/>
					<path id="XMLID_172_" d="M163.1,198.5l-0.6-0.4C162.8,198.3,163,198.4,163.1,198.5z"/>
					<path id="XMLID_171_" d="M166.7,201.8l0.2-0.1C166.7,201.7,166.6,201.7,166.7,201.8z"/>
					<path id="XMLID_170_" d="M244.9,245.2c-0.8-0.7-1.5-1.6-1.6-1.2l0.1,0.5C244,244.7,244.5,245,244.9,245.2z"/>
					<path id="XMLID_169_" d="M199.8,224.3c0.1,0.1,0.1,0.2,0.2,0.3c0.3,0,0.5,0,0.8,0C200.5,224.5,200.2,224.4,199.8,224.3z"/>
					<path id="XMLID_168_" d="M198.2,225.4c0,0-0.2-0.2-0.5-0.5c-0.2-0.2-0.5-0.5-0.5-0.5C197.5,224.7,197.8,225,198.2,225.4z"/>
					<path id="XMLID_167_" d="M144.3,179.4c0,0-0.2-0.1-0.4-0.2c-0.2-0.1-0.4-0.2-0.4-0.2C144.2,180,144,179.5,144.3,179.4z"/>
					<path id="XMLID_166_" d="M284.7,259c-0.8-0.4-1.4-0.6-1.9-0.8C283.6,258.7,284.3,259.2,284.7,259z"/>
					<path id="XMLID_165_" d="M167.7,196.4c-0.4-0.2-0.5-0.3-0.6-0.2C167.4,196.4,167.6,196.5,167.7,196.4z"/>
					<path id="XMLID_164_" d="M280.4,257.5c0.1,0.1,0.3,0.1,0.4,0.2c0.6,0.1,1.2,0.2,1.9,0.4C282.1,257.8,281.3,257.5,280.4,257.5z"
						/>
					<path id="XMLID_163_" d="M101.5,92.9c0-0.1,0-0.2,0-0.2C101.4,92.7,101.4,92.8,101.5,92.9z"/>
					<path id="XMLID_162_" d="M102.3,64.6c0,0.3,0,0.7,0.1,1.1C102.4,65.5,102.3,65.1,102.3,64.6z"/>
					<path id="XMLID_161_" d="M302.5,262.9C303.2,263,302.6,262.9,302.5,262.9L302.5,262.9z"/>
					<path id="XMLID_160_" d="M305.2,265.2c-0.1,0-0.3,0.1-0.3,0.2C305,265.2,305.1,265.2,305.2,265.2z"/>
					<path id="XMLID_159_" d="M273.7,258.3C273.6,258.3,273.6,258.3,273.7,258.3C273.8,258.5,273.7,258.4,273.7,258.3z"/>
					<path id="XMLID_158_" d="M303.4,263.3c-0.2-0.1-0.5-0.2-0.8-0.3C302.8,263.1,303,263.2,303.4,263.3z"/>
					<path id="XMLID_157_" d="M303.3,263.1c0.2,0.1,0.4,0.1,0.5,0.1C304,263.2,303.9,263.1,303.3,263.1z"/>
					<path id="XMLID_156_" d="M301.7,262.7c0.3,0.1,0.7,0.2,1,0.3c-0.1-0.1-0.2-0.1-0.1-0.1C302.4,262.9,302.1,262.8,301.7,262.7z"
						/>
					<path id="XMLID_155_" d="M120.2,141.3c0,0,0-0.1,0-0.1C119.7,140.7,119.9,140.9,120.2,141.3z"/>
					<path id="XMLID_154_" d="M228.1,242.5C228.1,242.5,228.2,242.5,228.1,242.5C228.2,242.5,228.1,242.5,228.1,242.5L228.1,242.5z"
						/>
					<path id="XMLID_153_" d="M225.9,241.8c1.1,0,1.6,0.3,2.2,0.7L228,241L225.9,241.8z"/>
					<path id="XMLID_146_" d="M154.7,190.3l0.8,1.4c-1.8-0.9-2.6-2.1-2-0.6c1.1-0.8,4.5,4.4,5.6,3.6l0.5,1c-0.2-0.2-0.3-0.2-0.5-0.4
						c1,1.9,1.8,0.4,3.6,2.3c0.6,0.7,0.9,1.3,0.4,1l1.7,1.1c0.4,0.4,0.2,0.5-0.3,0.1l2.4,2l0,0c0.5,0.1,1.4,0.6,1.9,0.8
						c0.5,0.7-0.4-0.2-0.4,0.1c0,0,0.4,0.2,0.7,0.5c0.4,0.2,0.8,0.4,0.8,0.4c0.3,0.7-1,0.1-1.9-0.8c0.3,2.1,1.3,0.7,3.5,3.5
						l-1.4-0.9c0.3,1.3,1.5,1.9,2.6,3.4c-0.2-0.5-2.1-3.3-0.4-2.4c0.3,0.4,0.8,0.9,1.8,1.3c-0.3,0.4,0.5,0.9,1.5,1.7l-0.5,0.4
						c1.1,0.7,1.3,0.4,2.1,0.7c1.1,1,1.1,1.5,1.1,2.1c1.8,1.5-0.8-1.6,1.5,0c1.4,1.4,2.7,2,4.8,3.2c1,1-0.4,0.2-0.1,0.6l1.3,0.3
						c0.2,0.2,0.1,0.3,0,0.3c0.9,0.5,0.4-0.5,1.8,0.4c0.8-0.3,2.2,2.7,4.3,3.2c0.3,0.4-0.4,0.2-0.4,0.5c2.6,1.1,2.2,1,4.4,1.8
						l1.4,1.5c-0.9-1.2,0.9-0.6,2.5-0.2c-0.3-0.5-0.6-0.9-0.7-1.1l2.3,1.1c0.2,0.3-0.1,0.3-0.6,0.3c0.2,0,0.3,0.1,0.5,0.1
						c0.6,0.7,0,0.7-0.7,0.7c-0.2-0.3-0.4-0.5-0.6-0.8c-0.7,0-1.5,0-1.6,0.4c0.2,0,0.5,0.1,0.8,0.3c-0.2,0-0.3,0-0.3,0.1
						c0,0.1,0.3,0.1,0.8,0.2l0.1,0.9l0.3-0.2l2.6,2.1c1.2,0.3,2.4,0.5,3.7,0.9c0.6,0.2,1.3,0.4,2,0.7c0.7,0.2,1.5,0.6,2.4,1
						c-1.1,0-0.6,0.6-1,1.1c-0.3-0.5-1-0.8-1.8-1.1c-0.8-0.3-1.7-0.7-2.5-1.2c0.8,0.6,0.5,0.7,0.2,0.7c0,0,0.8,0.3,1.6,0.7
						c0.8,0.3,1.7,0.6,1.7,0.6c-0.3,0.4,0.5,0.7,1.1,1.3c-0.1-1.2,2.6,0.7,4,1.1c-0.1,0.3-0.6,0.5-2-0.5c1.3,1.6,2.7,0.2,4,1.7
						c-0.4-0.2-0.5-0.4-0.8-0.3c1,0.2,3,1.6,2.4,1.6l-0.4-0.2c2.4,1.5,7.6,3.9,8.3,3.4c0,0.1-0.8,0.7-1,0.8l5.7-0.3
						c-0.7,0.5,0,2.8-2.2,2.1c0.5,0.4,1.2,0.9,2.6,1.2c-0.4-0.3-0.6-1.4,0-1.2c1.2,1.4,0.9,0.9,2.5,2.4c-0.6-0.4,0.6-1.1,1.6-0.7
						c-0.2,0.1-0.4,1.1-0.8,1l2.9,0.1c-0.7-0.1-0.5,0.8-0.1,1.4c-0.2-0.3,2.1,1,2.8,1.2l-0.9-0.7c2.7,1.4,3.4-0.3,6.1,1
						c-0.4,0.1-1.4,1,0,1.7c0.9-0.3,3.9-1.4,6.5-0.8l0.3,0.5c0,0,0.5,0.1,1,0.2c0.5,0.1,1,0.2,1,0.2c-1.5,0.4-5.4,0.7-7.5,0.6
						c1,0.7,0.1,0.5,1.7,1.1c0.4,0.5-1,0.1-1.5-0.1l3.6,1.7c0.1-0.7,3.1,0.5,3.1-0.1c0,0-1.1-0.2-2.1-0.5c-1.1-0.2-2.1-0.5-2.1-0.5
						c0-0.3,0.8-0.6,1.9-0.5c0.5,0,1.1,0.1,1.8,0.2c0.6,0.1,1.3,0.3,2,0.6c0.6,0.5-0.9,0.9-1,1.2c0.4-0.1,2.7,0.5,2.8,0.7l-1.2-0.1
						c1.4,0.8,2.7,0,4.3,1.3c0.6,0.3,1.5,1.5,1.8,1.1c-0.7-1.1-0.1-3.4,0.7-3.7c0.2,0.1,2.9,1.9,3.5,2.4c0.8,0.9-2,0.9-1.3,1.6
						c0.1-0.2,0.7-0.2,1-0.2c0.6,0.4-0.4,0.5,1,0.8c0.4-0.6,2.9,1,0.8-0.3c1.4,0.2,1.4,0.6,3,1.1c-0.4-0.6,1.9-1,3.3-0.7
						c-0.1,0.1,0.1,0.5,0.2,0.6c1.4,0.5,2.5,0.9,3.5,1.3c1,0.4,2.1,0.7,3.4,1.1c0.2,0.2,1.4,0.8,0.8,0.9c0.4,0,0.8-0.1,1.7,0.1
						c1.4,1-1.9-0.4-0.8,0.6c0.2-0.4,2.3,0,3.5,0.1c-0.2-0.7-2.7-0.8-3.9-0.9c0.2-0.8,2.5-1.1,5.3-0.7c2.2,0.4,0.8,0.8,1.2,0.8
						c2,0.7,3,0.4,3.9,0.3c0.9-0.1,1.6-0.2,3.3,0.5c1.3,0.8-0.2,1.1,0,1.5c-1.9-0.2-2.7-1-3.9-1.2l1.5,0.6c-0.6,0-1.9-0.1-2.5-0.4
						c1,0.7,7,1.7,10.2,2.9c0.6,0,1.6,0,1.2-0.3l-1-0.2c-0.8-0.6,2-0.2,0.8-0.6c1.4,0,3.1-0.2,5,0.4l0.2,0.7c0-0.2-1.2-0.6-1.8-0.5
						c0.9-0.1,2.8,1.4,3.9,0.7l-1.3-0.7c1.4,0,3.3-0.4,4.9,0.1c-0.7-0.7-0.4,0-1.5-0.9c0.9,1.1-4.4-0.8-2.8,0.4
						c-1.1-1-2.1-0.7-3.6-1.7c0,0.2,0.5,0.5-0.9,0.1c-0.1,0-0.2,0.1-0.4,0.1c0,0-0.1,0-0.1,0c0,0,0,0,0.1,0c-0.1,0-0.1,0,0,0
						c0.3,0.1,0.6,0.3,0.7,0.4c-0.8,0.4-3.1-0.2-3.9-0.1c-0.8-0.3,0.4-0.1,0-0.5l-1.2,0.1c0-0.5-2.1-1.2,0-1l-1.8-0.4
						c-1-0.5-2.4-0.9-3.4-0.9c-0.8-0.3-2.3,0-1.4-0.2c0,0-0.7-0.1-1.4-0.2c-0.7-0.1-1.4-0.2-1.4-0.2l0-0.1c-2.7-0.8-5.9-0.8-8.8-2.4
						c-1-0.2-2-0.2-3.5-0.8l-0.2-0.5c-1.2-0.2-3.4-1.5-4-1.3c-0.9-1.4-5.6-2-7.6-2.9l-0.2,0.5c-1.4-0.5-2.8-0.9-4.6-1.3l0,0.5
						c-1.6-0.2-3.7-1.7-6.1-2.5c0.2-0.1,0.8,0.2,1.2,0.4c-0.6-0.5-1.3-0.8-2-1.1c-0.7-0.3-1.5-0.5-2.2-0.7c-1.5-0.4-3-0.7-4.1-1.6
						c-0.7-0.1-1.1-0.3-1.5-0.6c0.1,0,0.1,0,0.2,0c-0.1,0-0.2-0.1-0.3-0.1c-0.2-0.2-0.5-0.4-0.8-0.6c0.2,0.2,0.4,0.4,0.6,0.5
						c-0.5-0.2-1.2-0.4-2-0.6l-0.1-0.6c-0.1,0-0.1,0-0.2-0.1c-0.6-0.5-0.7,0-0.4,0.5c-0.4-0.1-0.8-0.1-1.1-0.1c-0.3-1-2-0.6-2.4-1.7
						c-0.6,0.1-3.7-1.4-4.4-0.8c0-0.1-0.2-0.3,0.2-0.1c-0.8-0.5-1.5-0.9-2.3-1l-0.1-0.7l-2.1-0.1c-0.9-0.9-1.2-1.3,0-1.2
						c-2.8-0.6-2.1-0.8-4.5-1.2l0.3-0.3c-0.8-0.4-2.2-0.5-2.5-1c-0.7-0.8-2.8-1.8-5.1-3.1c-2.3-1.4-5-2.9-6.9-4.4
						c0.2,1.5-1.7-1.6-2.3-0.9c-0.1-0.4-0.6-0.9,0.2-0.7c-2.2-1.1-2.9-2.3-4.7-2.6c-0.1-0.4,0.7-0.1,0.5-0.3
						c-0.2-0.1-0.8-0.2-0.9-0.5c-0.1-0.3,0.4,0,0.8,0.1c-2.1-1.3-2.8-0.7-3.4-0.1c-0.9-1-1.4-1.3-2.5-1.3c-0.2-0.5-0.7-1.1,0.7-0.3
						c-0.8-0.4-4.2-3.4-4.7-2.9c-0.1-0.3-1-0.7-1.2-0.8c-1.6-1.2-1.7-1.3-3.3-2.4l0.4,0.4c-1.1,0.2-1.4-0.8-2.8-1.6l0.1,0
						c-2.5-2.6-1.4-0.7-3.8-3.4l-0.1,0.5c-0.9,0.6-2.1-2.4-4-3.3l0.4,0.7c-0.6-0.2-1-0.9-1.3-1.8c-0.3-0.8-0.6-1.7-1-2.1
						c-0.1-0.2,0.4,0.1,0.7,0.3c-1.9-2.4-0.7,0.2-2.5-1.1c-0.1-0.5,0.9-0.3-0.1-1.3c-0.4-0.7-4-1.9-5.1-3.7c0.2,0.5,0.3,1-0.6,0.4
						c-1.2-1-2.4-3.6-4-4c-0.1-0.2-0.1-0.3-0.1-0.3c-1-0.7-3.1-2.4-3.9-2.5c0.3-1.9-5.8-4.7-4.7-5.8l-2.6-2.6l0.2,0
						c-1.6-1.7-2.3-2.2-3.2-2.5c-0.3-0.5,0.1-0.3,0.2-0.3c-2.1-2.8-2.3-3-4.8-4.6l0.2-0.5c-0.8-0.4-2.5-4.3-5.1-6.6
						c0.1,0,0.2,0,0.4,0.2c-0.7-0.6-1.3-1.5-1.9-2.3c-0.3-0.4-0.6-0.9-0.9-1.3c-0.3-0.5-0.5-0.9-0.8-1.3c-1-1.7-1.9-3.1-3.1-3.1
						l-1.8-1.8c1.8,2.7-0.9,0.1-0.4,1.3c-0.8-1-1.5-3-0.5-1.8l0.1,0.3c0.6,0,0-0.9-0.5-1.8c-0.6-0.9-1.1-1.9-0.9-2
						c-1.7-2.7-3.3-5.4-4.9-8.1c-1.4-2.8-2.8-5.5-4.2-8.1l-0.3,0.9l-1-1.8c-0.1-0.6,0.1-0.9,0.8,0.4c0-0.9-1.4-2.1-1.6-2
						c-1-2.7,1.3,0.6,0.9-0.2l-0.6-1.1l0,0.3c-0.7-0.7-1-0.7-1.8-2.3c-0.4-1.1,0.1-0.7,0-1.1c0,0,0-0.2-0.3-0.6L119,131l-0.1,1.2
						c-0.8-0.9-1.1-2.2-1.1-0.9c0-1-0.8-3.3-1.7-5.5c-0.9-2.2-1.9-4.2-1.9-4.8c-1-1.3-1.5-2.9-2.1-4.8c0.1,0.5-0.5,1-1-0.6
						c1.5,0.1-0.5-3.2-0.1-4.8c-0.1,0.7-0.6-0.4-1-1.5c-0.4-1.1-0.8-2-0.9-1c-0.3-1.4,0.5-0.2,0.5-1.4c-1.4-3.1-1.9-7.3-2.8-11.3
						c-0.2,0-0.3,0.7-0.7-0.1l0.4-2.4c-0.3-0.8-1.2-0.5-0.9-2.1c-0.1,0.2-0.2,0.6-0.4,0.1c-0.3-2-0.5-4.1-0.8-6.2
						c-0.3-2.1-0.7-4.1-1.1-6.2c-0.3-2.1-0.5-4.2-0.6-6.3c-0.1-1.1-0.1-2.1-0.1-3.2c0-1.1,0.1-2.1,0.3-3.2c-0.3,1.1-0.4,0.4-0.4-0.5
						c-0.1,0.6-0.4,0-0.7,0.1l0.6-3.5c-0.7-0.6-0.2-3.7-0.8-4.1l0.1,1.1c-0.8-1.5-1.6,2.1-2.6,1.9c0.9,1.6-1.2,4.5,0.2,7.2
						c-0.1,0.6-0.4-0.5-0.5-0.2c0.5,0.7,0.6,1.5,0.6,3.1l-0.1-0.2c0.3,2.2,0.3,3.8,0.4,5.4c0,0.8,0,1.7,0.1,2.6
						c0.1,0.9,0.2,2,0.3,3.2l0.4-0.4c0.1,1.1,0,1.3,0,1.8c0.9,1.1-0.4-3,0.5-2c-0.7,1.5,1.1,7.4,0.3,8.5c0.4,1.6,0.4-0.6,0.8,1
						l-0.2,0.5l0.5,0.3c0.2,1.1-0.1,1.7-0.3,1.8c0-0.3-0.2-0.7-0.3-1c0,1.4,1,3.8,1,4.3l-0.2-1.6c0.3,1.1,0.6,2.2,0.9,3.4
						c0.1,0.6,0.3,1.2,0.4,1.8l0.5,1.8c0.7,2.4,1.4,4.7,2.3,6.7l0.1-0.4c1.3,3,0.6,2.6,1.9,5.9l-0.1-0.1c0.5,0.6,0.9,1.5,1.2,2.4
						c-0.6-0.8,0.1,1.8-0.6,0.8c1.6,3.2,0.9,1.6,2.5,3.5l-0.1,0.6c0.6,0.6,0.8,0.6,1.6,2.2c-0.9-1.2-0.1,1.3-1.1-0.1
						c0.7,3.8,2.9,4.8,2.5,6.9c1.6,1.2-0.8-3.2-0.2-2.4c0-0.9,1.3,1,1.6,2.1c0.5,1.1-0.3,2.4,1.1,5.1c-0.1-0.3-0.2-0.3-0.3-0.5
						c0.3,1.1,1.3,1.8,1.5,3.3c0.9,0.4,0.8,1.6,1.6,1.5l-1.4-2.4c0.4,0.7,1,1.2,1.6,1.9c0.3,0.4,0.6,0.7,0.8,1.2
						c0.3,0.5,0.5,1,0.8,1.6c-0.2-0.1-0.8-0.7-1.2-1.1c0.2,0.8,0.9,1.2,1,2c-0.4,0.1-0.9-0.6-1.4-1.5c-0.5-0.9-1-2-1.7-2.6
						c0.1,0.9,1.9,2.6,0.8,2.2c1.5,0.6,1.3,2.7,3.1,4.1l-0.5,0.1c0.2,0.2,0.8,0.7,1,1.3l-1.1-0.6c1.3,1.2,1.2,3,2.2,4.3
						c-1.7-2.9,0.1-0.9-0.3-2.4c2.6,3.3,0.1,2.7,2.8,6.5c-0.4-0.5-1-2.1-0.3-1.4c0.4,0.8,0.9,1.9,0.9,2.5c1.7,2.5,0.2-0.7,1.1,0.3
						c0.1,1.2,1,1.1,1.9,2.2l-0.4,0.3c0.8,1.6,1.1,1.6,1.4,1.6c0.3,0,0.6,0,1.3,1.4l-1.3-0.7l1.1,1.2l-0.6,0
						c1.4,1.2,1.6,1.7,2.5,3.2c0-0.5,0.8-0.3,1.8,0.9c0.4,1-0.7-0.2,0.6,1.5c-0.5-0.2-1.2-0.4-1.4-1.5c-0.2,0-0.5-0.2-0.7-0.2
						c0.4,1.1,1.6,2.4,2.1,3c-0.2-0.3-0.4-0.6-0.4-0.8c0,0,0.6,0.5,1.2,1.1c0.3,0.3,0.6,0.5,0.8,0.7c0.2,0.2,0.4,0.3,0.4,0.3
						c0.2,0.5-0.2,0.3-0.6,0.1c0.4,0.5,0.9,0.7,1.5,1.4c-0.5,0-0.7,0.3-1.7-0.6l2.2,2.1c0,0.3,0.6,1.5,0.2,1.3
						c0.9,1.5,3.2,2.8,4.4,4.7c0.1,0,0.3,0.2,0.7,0.5c1.3,1.6,2.2,3.3,4.2,4.8l0.4,1.5c1.4,1.3-0.6-2,1.7,0.2c1.7,1.5,0.1,1,0.5,1.8
						c1.1,0.6,3,1.5,4,3.4C155.5,191.2,155.1,190.7,154.7,190.3z M172.3,206.4c-0.4-0.2-1.3-0.6-1.4-1
						C171.7,205.3,171.8,205.8,172.3,206.4z M202.3,226.9c-0.4,0-0.8-0.4-1.2-0.9C201.5,226.2,201.9,226.5,202.3,226.9z
						 M295.8,261.8C295.8,261.8,295.8,261.8,295.8,261.8C294.8,261.4,295.1,261.5,295.8,261.8z M297.8,262.4c0.2,0,0.2-0.1,0.1-0.2
						c-0.2,0.1-0.6,0-1.2-0.2C296.9,262.3,297.2,262.4,297.8,262.4z M120.1,133.8l0.1,0.4C119.7,133.5,119.9,133.7,120.1,133.8z"/>
					<path id="XMLID_145_" d="M198.4,225.3c-0.1-0.1,0-0.2,0-0.3C198.2,224.9,198.2,225,198.4,225.3z"/>
					<path id="XMLID_144_" d="M144.4,179.5L144.4,179.5c-0.1-0.1-0.1-0.1-0.2-0.1L144.4,179.5z"/>
					<path id="XMLID_143_" d="M264.9,257.6c-0.4-0.2-0.6-0.4-0.7-0.5C264.2,257.2,264.3,257.4,264.9,257.6z"/>
					<path id="XMLID_142_" d="M308.9,263.9l-1.4-0.1c0.6,0.1,0.9,0.2,1.2,0.4C308.7,264,308.5,263.8,308.9,263.9z"/>
					<path id="XMLID_141_" d="M320.1,268.8c0.2,0,0.4,0.1,0.6,0l0-0.2C319.8,268.5,319.2,268.6,320.1,268.8z"/>
					<path id="XMLID_140_" d="M309.9,265.7c0,0.4,0.9,0.4,1.8,0.5c-0.1,0-0.1,0-0.2,0C311.9,265.7,310.9,265.7,309.9,265.7z"/>
					<path id="XMLID_139_" d="M311.9,266.3c0.3,0,0.6,0.1,0.9,0.1C313,266.2,312.5,266.3,311.9,266.3z"/>
					<path id="XMLID_138_" d="M300.5,262.8c0.4,0.2,0.4-0.4,0.6-0.2C301.7,262.2,298,262.5,300.5,262.8z"/>
					<polygon id="XMLID_137_" points="310.4,267.1 310.1,266.6 309.5,266.9 					"/>
					<path id="XMLID_136_" d="M303,265.4l1.5,0.4c0-0.1,0.2-0.1,0.4-0.1C304,265.5,303,265.3,303,265.4z"/>
					<path id="XMLID_135_" d="M305,265.7c0.5,0.1,0.9,0.2,1.2,0.1C305.9,265.8,305.4,265.7,305,265.7z"/>
					<polygon id="XMLID_134_" points="308.3,266.9 307.9,266.7 306.8,266.5 					"/>
					<path id="XMLID_133_" d="M287.1,261.6l-1.6-0.3c-0.2,0.1,0.2,0.3,0.8,0.4C286.7,261.7,287.3,261.8,287.1,261.6z"/>
					<path id="XMLID_132_" d="M291.7,264.2c-0.4-0.2-0.4-0.3-0.6-0.5l-0.2,0.6L291.7,264.2z"/>
					<path id="XMLID_131_" d="M286.9,263.1c-0.2,0.1-2.5-0.2-0.4,0.4C286.7,263.4,288.4,263.7,286.9,263.1z"/>
					<polygon id="XMLID_130_" points="263.1,255.1 263.5,255.3 263.7,254.3 					"/>
					<path id="XMLID_129_" d="M241.4,249.4c1.7,1,0.7-0.4,2.2,0.6c0.5,0-1.3-0.8-0.7-0.8C241.7,249,241.2,248.6,241.4,249.4z"/>
					<path id="XMLID_128_" d="M242.9,249.2c0.2,0,0.4,0.1,0.6,0.1C243.2,249.2,243,249.2,242.9,249.2z"/>
					<polygon id="XMLID_127_" points="102.7,59.9 102.8,58.7 102.5,59.5 					"/>
					<path id="XMLID_126_" d="M101.8,57.6l0.6-0.3l-0.6-0.8C101.9,56.8,102,57.3,101.8,57.6z"/>
					<path id="XMLID_125_" d="M174.2,209.7l0.2-0.1c0-0.3-0.3-0.5-0.7-0.9L174.2,209.7z"/>
					<polygon id="XMLID_124_" points="161.5,197.8 161.7,198 161.7,197.2 					"/>
					<path id="XMLID_123_" d="M150.6,188c0.4,0.5,1,0.9,1.4,1.3C151,188.4,151,187.3,150.6,188z"/>
				</g>
			</g>
		</g>
	</g>
</g>
<g id="XMLID_4_">
	<g id="XMLID_108_">
		<g id="XMLID_112_">
			<g id="XMLID_113_">
				<g id="XMLID_114_">
					<path id="XMLID_483_" class="st0" d="M489.2,285.6c0.2,0.1,0.2-0.4,0.2-0.4C489.1,285.2,489.2,285.7,489.2,285.6z"/>
					<polygon id="XMLID_482_" class="st0" points="486.2,286.1 486.2,286 485.7,286.3 					"/>
					<path id="XMLID_481_" class="st0" d="M483.4,285.8c0.2,0.7,1,0,1.4,0.3l0.1,0.2l0.3-0.5C484.6,285.7,483.8,286,483.4,285.8z"/>
					<path id="XMLID_480_" class="st0" d="M482.2,284.1c0.1,0.3-0.3,0.2,0.3,0.1c0,0,0-0.1-0.1-0.1
						C482.4,284.1,482.3,284.1,482.2,284.1z"/>
					<path id="XMLID_479_" class="st0" d="M482.5,284.1C482.8,284.1,482.3,283.8,482.5,284.1L482.5,284.1z"/>
					<path id="XMLID_478_" class="st0" d="M481.1,284.1l0.4-0.2c-0.1-0.2-0.4-0.3-0.2-0.4C480.9,283.6,481,283.8,481.1,284.1z"/>
					<path id="XMLID_477_" class="st0" d="M480.7,284.6l0.2-0.1C480.9,284.4,480.8,284.4,480.7,284.6z"/>
					<path id="XMLID_476_" class="st0" d="M481.4,284.3l-0.4,0.2c0,0.1,0,0.4,0.2-0.1C481.1,284.6,481.2,284.4,481.4,284.3z"/>
					<path id="XMLID_475_" class="st0" d="M481.6,284.5c0.2,0.2,0.5,0.3,0,0.5C482.4,285,482.3,284.4,481.6,284.5z"/>
					<path id="XMLID_474_" class="st0" d="M483.2,286.5l0.3,0.2l0.3-0.2C483.6,286.6,483.2,286.3,483.2,286.5z"/>
					<path id="XMLID_473_" class="st0" d="M478.8,283.4c0,0.1,0.1,0.4,0.1,0.6l0.3-0.1C479.1,283.8,478.8,283.6,478.8,283.4z"/>
					<path id="XMLID_472_" class="st0" d="M478.9,284l-0.4,0.2C478.8,284.3,478.9,284.2,478.9,284z"/>
					<polygon id="XMLID_471_" class="st0" points="480.5,285.3 481.3,284.9 480.4,285.3 					"/>
					<polygon id="XMLID_470_" class="st0" points="477.3,283.2 477.5,282.9 477.1,283.3 					"/>
					<path id="XMLID_469_" class="st0" d="M476.2,283.1c0.2-0.3-0.2-0.5,0-0.7c-0.3,0-0.6,0.2-0.8,0.4
						C475.7,282.8,475.9,282.8,476.2,283.1z"/>
					<path id="XMLID_468_" class="st0" d="M475,283.1c0.1-0.1,0.3-0.2,0.4-0.3C475.3,282.9,475.1,283,475,283.1z"/>
					<path id="XMLID_467_" class="st0" d="M477.8,284.1c0-0.1-0.1-0.3-0.3-0.5l0.1,0.4C477.7,284.1,477.7,284.1,477.8,284.1z"/>
					<path id="XMLID_466_" class="st0" d="M477.6,284.1L477.6,284.1c-0.2,0-0.3-0.1-0.4-0.1C477.3,284,477.4,284,477.6,284.1z"/>
					<path id="XMLID_465_" class="st0" d="M477.8,284.1C477.8,284.1,477.8,284.1,477.8,284.1C477.8,284.1,477.8,284.1,477.8,284.1z"
						/>
					<path id="XMLID_464_" class="st0" d="M479.5,284.8c-0.3,0.2-0.8,0.4-0.4,0.8C479.3,285.4,479.1,285.1,479.5,284.8z"/>
					<path id="XMLID_463_" class="st0" d="M477.9,284.6l0.4,0.2c0-0.1-0.1-0.3,0.1-0.4L477.9,284.6z"/>
					<polygon id="XMLID_462_" class="st0" points="477.7,284.7 477.9,284.6 477.8,284.6 					"/>
					<path id="XMLID_461_" class="st0" d="M475.7,283.6c-0.2,0.2-0.4,0.1-0.7,0.1c0.2,0.1,0.5,0.2,0.7,0.2
						C475.8,283.9,476,283.7,475.7,283.6z"/>
					<path id="XMLID_460_" class="st0" d="M476.6,283.9C476.6,283.9,476.6,283.9,476.6,283.9C476.6,283.9,476.6,284,476.6,283.9z"/>
					<path id="XMLID_459_" class="st0" d="M472.7,283.5C472.7,283.5,472.7,283.5,472.7,283.5C472.8,283.5,472.8,283.5,472.7,283.5
						L472.7,283.5z"/>
					<path id="XMLID_458_" class="st0" d="M475.8,284.1c0.2,0.1,0.3,0,0.4-0.1C476.1,284,475.9,284,475.8,284.1
						C475.8,284.1,475.8,284.1,475.8,284.1z"/>
					<path id="XMLID_457_" class="st0" d="M474.3,283.3c0.1,0.1,0.2,0.2,0.3,0.3C474.5,283.4,474.4,283.2,474.3,283.3z"/>
					<path id="XMLID_456_" class="st0" d="M476.5,283.8C476.5,283.8,476.6,283.8,476.5,283.8C476.5,283.7,476.5,283.7,476.5,283.8z"
						/>
					<path id="XMLID_455_" class="st0" d="M476.5,283.8c-0.1,0-0.2,0.1-0.3,0.2c0.1,0,0.2,0,0.3-0.1
						C476.6,283.9,476.5,283.8,476.5,283.8z"/>
					<path id="XMLID_454_" class="st0" d="M471.7,286.1c0.1-0.4,0.6-0.7,1-0.2c0.5-0.2,0.4-1.6,0.1-2.3c0,0.2-0.1,0.3-0.5,0.5
						c0.1,0.2,0.9,0.6,0.5,0.9c-0.6,0.1-0.5-0.2-0.7-0.4c0.2,0.5-0.8,0.6-0.8,1.4l0.5-0.2C471.7,285.8,471.5,286,471.7,286.1z"/>
					<path id="XMLID_453_" class="st0" d="M473.6,283.7l0.2,0c-0.2-0.1-0.3-0.3-0.6-0.6c-0.3,0.2-0.4,0.3-0.4,0.4L473.6,283.7
						L473.6,283.7z"/>
					<path id="XMLID_452_" class="st0" d="M474.6,283.8c-0.2,0.4-0.7,0.5-0.4,1c0.5,0,0.4-0.3,0.8-0.5
						C474,284.4,475.1,284.2,474.6,283.8c0.2,0,0.3,0,0.5,0c-0.1-0.1-0.3-0.2-0.4-0.3c0,0,0,0,0,0l0,0c0,0,0,0,0,0
						c0,0.1,0,0.1,0,0.1c0,0,0,0,0,0C474.6,283.7,474.6,283.7,474.6,283.8c-0.2-0.1,0-0.1,0.1-0.2c0,0,0,0,0-0.1c0,0,0,0,0,0
						l-0.9,0.1C473.9,283.8,474.2,283.8,474.6,283.8z"/>
					<path id="XMLID_451_" class="st0" d="M478.6,286.5c0,0,0-0.1,0-0.1C478.5,286.4,478.5,286.5,478.6,286.5z"/>
					<path id="XMLID_450_" class="st0" d="M478.2,286.2c0.1-0.1,0.1-0.2,0.3-0.1c0.2,0.2,0,0.2,0,0.3c0.1-0.1,0.5-0.3,0.1-0.5
						l-0.1,0.1c-0.3-0.2-0.7-0.8-0.6-0.8C478,285.5,478.1,285.8,478.2,286.2z"/>
					<path id="XMLID_449_" class="st0" d="M476.4,285.1l-0.7,0.1l0.3,0.4l0-0.2C476.3,285.5,476.3,285.3,476.4,285.1z"/>
					<polygon id="XMLID_448_" class="st0" points="472.7,283.3 472.8,282.8 472.3,283.4 					"/>
					<polygon id="XMLID_447_" class="st0" points="471.7,283.2 471.8,282.8 471.6,283 					"/>
					<path id="XMLID_446_" class="st0" d="M419.1,281.3l-0.2,0.1C419,281.3,419.1,281.3,419.1,281.3z"/>
					<path id="XMLID_445_" class="st0" d="M420.6,281.5l0.1-0.2C420.6,281.4,420.6,281.5,420.6,281.5z"/>
					<path id="XMLID_444_" class="st0" d="M449.1,280.3c-0.3-0.4-0.5-1-0.5-0.6l0,0.4C448.8,280.1,449,280.2,449.1,280.3z"/>
					<path id="XMLID_443_" class="st0" d="M433.3,280.8c0,0,0,0.1,0.1,0.1c0.1-0.1,0.2-0.3,0.3-0.4
						C433.5,280.7,433.4,280.8,433.3,280.8z"/>
					<path id="XMLID_442_" class="st0" d="M432.8,282.6l-0.4-0.3C432.6,282.4,432.7,282.5,432.8,282.6z"/>
					<path id="XMLID_441_" class="st0" d="M410.8,280.7l-0.3,0.4C410.9,281.1,410.8,280.9,410.8,280.7z"/>
					<path id="XMLID_440_" class="st0" d="M462.3,282.1c-0.2-0.2-0.4-0.3-0.6-0.3C462,282.1,462.2,282.5,462.3,282.1z"/>
					<path id="XMLID_439_" class="st0" d="M420.3,276.8c-0.1,0.1-0.2,0.1-0.2,0.2C420.2,277,420.3,276.9,420.3,276.8z"/>
					<path id="XMLID_438_" class="st0" d="M460.9,281.7c0,0,0.1,0.1,0.1,0.1c0.2,0,0.4-0.1,0.6,0
						C461.5,281.6,461.2,281.4,460.9,281.7z"/>
					<path id="XMLID_437_" class="st0" d="M381,276.4C381,276.4,381,276.4,381,276.4C380.9,276.4,381,276.4,381,276.4z"/>
					<path id="XMLID_436_" class="st0" d="M372.9,270.9c0.1,0,0.2,0,0.4,0C373.2,270.9,373.1,270.9,372.9,270.9z"/>
					<path id="XMLID_435_" class="st0" d="M468.1,282.5C468.3,282.5,468.1,282.5,468.1,282.5L468.1,282.5z"/>
					<path id="XMLID_434_" class="st0" d="M468.8,284.3c0,0-0.1,0.1-0.1,0.2C468.7,284.4,468.7,284.4,468.8,284.3z"/>
					<path id="XMLID_433_" class="st0" d="M458.6,284.1C458.6,284.1,458.6,284.1,458.6,284.1C458.6,284.2,458.6,284.2,458.6,284.1z"
						/>
					<path id="XMLID_432_" class="st0" d="M468.3,282.8c-0.1-0.1-0.1-0.1-0.2-0.2C468.1,282.6,468.2,282.7,468.3,282.8z"/>
					<path id="XMLID_431_" class="st0" d="M468.3,282.5c0.1,0,0.1,0,0.2,0.1C468.5,282.5,468.5,282.5,468.3,282.5z"/>
					<path id="XMLID_430_" class="st0" d="M467.8,282.5c0.1,0,0.2,0,0.3,0.1c0,0,0-0.1,0-0.1C468,282.5,467.9,282.5,467.8,282.5z"/>
					<path id="XMLID_429_" class="st0" d="M397.2,277.4C397.2,277.3,397.1,277.3,397.2,277.4C396.9,277.5,397,277.4,397.2,277.4z"/>
					<path id="XMLID_428_" class="st0" d="M443.4,284.1C443.5,284.1,443.5,284.1,443.4,284.1C443.5,284.1,443.5,284.1,443.4,284.1
						L443.4,284.1z"/>
					<path id="XMLID_427_" class="st0" d="M442.7,284.3c0.4-0.5,0.5-0.4,0.7-0.3l-0.1-1.3L442.7,284.3z"/>
					<path id="XMLID_420_" class="st0" d="M415.5,280.9l0.4,0.5c-0.7,0.6-1.1,0.3-0.7,0.9c0.2-1.3,1.9,0.1,2.2-1.2l0.3,0.3
						c-0.1,0-0.1,0.1-0.2,0c0.5,0.7,0.6-0.9,1.4-0.6c0.3,0.1,0.4,0.4,0.2,0.5l0.7-0.3c0.2,0.1,0.1,0.3-0.1,0.2l1,0l0,0
						c0.2-0.2,0.5-0.5,0.7-0.6c0.2,0.2-0.1,0.1-0.1,0.3l0.6-0.3c0.2,0.4-0.3,0.7-0.7,0.6c0.3,1.4,0.5-0.3,1.5,0.6l-0.5,0.1
						c0.2,0.8,0.7,0.6,1.2,1.1c-0.1-0.3-1-1.3-0.4-1.6c0.2,0.1,0.4,0.2,0.7,0c-0.1,0.5,0.3,0.4,0.6,0.4l-0.1,0.6
						c0.4-0.1,0.4-0.5,0.7-0.7c0.5,0.1,0.5,0.6,0.5,1.1c0.7,0.2-0.4-0.9,0.5-0.9c0.6,0.3,1,0.1,1.8-0.2c0.4,0.3-0.1,0.4,0,0.6
						l0.4-0.5c0.1,0,0,0.2,0,0.3c0.3-0.2,0.1-0.6,0.6-0.7c0.2-0.7,0.9,1.2,1.6,0.4c0.1,0.2-0.1,0.4-0.1,0.6c0.9-0.4,0.8-0.3,1.6-0.9
						l0.5,0.5c-0.4-0.5,0.3-1,0.8-1.4c-0.1-0.3-0.2-0.5-0.3-0.6l0.8-0.2c0.1,0.1,0,0.3-0.2,0.6c0.1,0,0.1-0.1,0.2-0.1
						c0.3,0.3,0.1,0.6-0.2,0.9c-0.1-0.1-0.2-0.3-0.2-0.4c-0.2,0.4-0.5,0.8-0.5,1.1c0.1-0.1,0.2-0.1,0.3-0.1
						c-0.1,0.1-0.1,0.2-0.1,0.3c0,0.1,0.1-0.1,0.3-0.2l0.1,0.7l0.1-0.3l1,0.6c0.8-0.6,1.6-1.6,2.8-1.7c-0.4,0.5-0.2,0.8-0.3,1.5
						c-0.2-0.7-0.9,0.2-1.5-0.1c0.3,0.1,0.2,0.4,0.1,0.5l1.2-0.5c-0.1,0.5,0.2,0.4,0.4,0.7c-0.1-1,0.9-0.6,1.4-0.8
						c0,0.3-0.2,0.7-0.7,0.5c0.5,0.8,0.9-1.1,1.4-0.4c-0.1,0-0.2-0.1-0.3,0.1c0.3-0.3,1.1,0.1,0.8,0.3l-0.1,0
						c0.9,0.2,2.6,0.4,2.9-0.5c0,0.1-0.2,1-0.3,1.2l1.9-2.6c-0.2,0.7,0.1,2.5-0.7,2.8c0.2,0.1,0.4,0.3,0.9,0.1
						c-0.1-0.1-0.2-1.1,0-1.1c0.4,0.9,0.3,0.5,0.9,1.3c-0.2-0.2,0.2-1.3,0.5-1.2c-0.1,0.2-0.1,1.1-0.3,1.2l1-1
						c-0.2,0.2-0.2,0.9,0,1.3c-0.1-0.2,0.7,0.1,1,0l-0.3-0.3c0.9,0.3,1.1-1.4,2.1-1.3c-0.1,0.2-0.5,1.4,0,1.6c0.3-0.5,1.3-2.6,2.2-3
						l0.1,0.3l0.7-0.3c-0.5,0.8-1.8,2.5-2.5,3.1c0.3,0.3,0,0.4,0.6,0.4c0.1,0.3-0.3,0.4-0.5,0.4l1.2,0.4c0-0.7,1-0.5,1-1.1l-1.4,0.5
						c0-0.7,1-1.8,1.9-1.6c0.2,0.3-0.3,1.2-0.3,1.4c0.1-0.2,0.9-0.3,0.9-0.2l-0.4,0.3c0.5,0.3,0.9-0.8,1.4-0.1
						c0.2,0.1,0.5,0.9,0.6,0.5c-0.2-0.8,0-3.2,0.3-3.7c0.1,0.1,1,0.9,1.1,1.3c0.3,0.6-0.7,1.4-0.5,1.9c0-0.2,0.2-0.4,0.3-0.4
						c0.2,0.2-0.2,0.6,0.3,0.5c0.2-0.7,0.9,0.2,0.3-0.5c0.5-0.1,0.5,0.2,1,0.2c-0.1-0.5,0.7-1.4,1.1-1.6c0,0.2,0,0.4,0.1,0.5
						c0.9,0.2,1.4,0.6,2.2,0.7c0.1,0.2,0.4,0.4,0.2,0.7c0.1-0.1,0.3-0.3,0.5-0.3c0.4,0.7-0.6,0-0.3,0.8c0.1-0.4,0.8-0.5,1.2-0.6
						c0-0.6-0.9-0.2-1.3,0c0.1-0.8,0.9-1.6,1.8-1.9c0.7-0.1,0.2,0.6,0.4,0.5c1.3,0.3,1.3-1.3,2.4-0.6c0.4,0.6-0.1,1.1-0.1,1.5
						c-0.6,0.1-0.8-0.5-1.2-0.5l0.4,0.3c-0.2,0.2-0.6,0.2-0.8,0.1c0.3,0.5,2.2,0.4,3.2,1c0.2-0.2,0.5-0.3,0.4-0.5l-0.3,0
						c-0.2-0.5,0.7-0.5,0.3-0.8c0.5-0.2,1-0.7,1.6-0.3l0,0.6c0-0.2-0.4-0.4-0.6-0.3c0.3-0.2,0.8,0.9,1.2,0.2l-0.4-0.5
						c0.5-0.2,1.1-0.8,1.6-0.6c-0.2-0.6-0.1,0.1-0.4-0.7c0.2,0.9-1.4-0.2-1,0.8c-0.3-0.9-0.6-0.4-1.1-1.2c0,0.2,0.1,0.4-0.3,0.2
						c0,0.1-0.1,0.1-0.1,0.2c0,0,0,0,0,0c0,0,0,0,0,0c0,0,0,0,0,0c0.1,0.1,0.2,0.2,0.2,0.3c-0.3,0.4-1,0.3-1.3,0.5
						c-0.3-0.1,0.1-0.2,0-0.4l-0.4,0.3c0-0.5-0.6-0.8,0-1l-0.6-0.1c-0.3-0.3-0.8-0.5-1.1-0.3c-0.3-0.1-0.7,0.4-0.5,0.1l-0.9,0.2
						l0-0.1c-0.9-0.2-1.9,0.5-2.8-0.4c-0.3,0.1-0.6,0.2-1.1,0l0-0.4c-0.4,0.1-1.1-0.5-1.3-0.2c-0.3-1.1-1.8-0.5-2.5-0.7L456,281
						c-0.5-0.1-0.9,0-1.5,0.1l0,0.4c-0.5,0.3-1.2-0.5-2-0.5c0.1-0.2,0.3-0.1,0.4,0c-0.8-1.1-2.1,0.5-2.8-0.4
						c-0.2,0.1-0.4,0.1-0.5-0.1c0,0,0,0,0.1,0c0,0-0.1,0-0.1,0c-0.1-0.1-0.2-0.2-0.3-0.3c0.1,0.1,0.1,0.2,0.2,0.3
						c-0.2,0-0.4,0-0.7,0.1l0-0.5c0,0,0,0-0.1,0c-0.2-0.2-0.2,0.2-0.1,0.6c-0.1,0.1-0.3,0.1-0.4,0.2c-0.1-0.8-0.7,0.2-0.8-0.7
						c-0.2,0.4-1.3,0.1-1.5,1c0-0.1-0.1-0.2,0.1-0.2c-0.3-0.1-0.5-0.3-0.8-0.1l0-0.6l-0.7,0.7c-0.3-0.4-0.4-0.7,0-1.1
						c-1,0.6-0.7,0.2-1.6,0.8l0.1-0.4c-0.3,0-0.8,0.5-0.9,0.1c-0.5-0.8-2.9-0.5-4.3-1.4c0.1,1.2-0.6-0.6-0.8,0.3
						c-0.1-0.3-0.2-0.5,0-0.7c-0.8,0.2-1.1-0.6-1.7,0.1c-0.1-0.3,0.2-0.4,0.2-0.6c-0.1,0.1-0.3,0.2-0.3,0c-0.1-0.2,0.1-0.2,0.3-0.3
						c-0.8-0.1-1,0.8-1.1,1.6c-0.4-0.4-0.6-0.4-0.9,0.1c-0.1-0.3-0.3-0.6,0.2-0.6c-0.3-0.1-1.6-0.6-1.7,0c-0.1-0.2-0.4-0.1-0.5,0
						c-0.6-0.1-0.7-0.2-1.3-0.2l0.2,0.1c-0.3,0.7-0.5,0.1-1,0.1l0-0.1c-1-0.7-0.5,0.2-1.5-0.6l0,0.5c-0.2,1-0.9-0.7-1.6-0.4l0.2,0.3
						c-0.4,0.3-0.8-1.5-1.1-1.7c-0.1-0.1,0.1-0.1,0.3-0.2c-0.8-0.7-0.2,0.6-0.9,0.7c-0.1-0.4,0.3-0.8-0.2-1c-0.2-0.3-1.5,0.9-2,0.2
						c0.1,0.3,0.2,0.6-0.1,0.7c-0.5,0-1.2-1.2-1.7-0.4c-0.1-0.1-0.1-0.1-0.1-0.2c-0.4,0.2-1.3,0.2-1.5,0.6c-0.1-1.7-2.4,0.5-2.2-1
						l-1.2-0.1l0.1-0.2c-0.7-0.2-1,0.1-1.3,0.5c-0.2-0.1,0-0.3,0-0.3c-1-0.4-1.1-0.4-2.1,0.2l0-0.5c-0.3,0.3-1.5-1-2.6-0.5
						c0-0.1,0.1-0.1,0.1-0.2c-1.3,0.4-2.7-1.7-3.3,0l-0.8,0.3c1,0.3-0.3,0.8,0.1,1.1c-0.4,0.1-1-0.7-0.5-0.7l0.1,0.1
						c0.3-0.9-1.2-0.5-1.1-1.1c-2-0.2-3.9-1-5.7-1.3l0.1,0.8l-0.6-0.1c-0.1-0.2-0.2-0.6,0.3-0.5c-0.2-0.4-0.8,0.2-0.9,0.4
						c-0.9-0.4,0.5-0.8,0.2-0.9l-0.4,0l0.1,0.1c-0.3,0.3-0.4,0.6-1,0.5c-0.3-0.2-0.1-0.5-0.3-0.5c0-0.1,0-0.1-0.2,0l-0.8-0.2
						l0.3,0.6c-0.4,0.2-0.8-0.1-0.5,0.6c-0.4-1.1-3-0.8-3.3-1.1c-0.6,0.4-1.1,0.3-1.7,0.1c0.1,0.1,0.1,0.8-0.4,0.6
						c0.4-1.3-0.9-0.7-1.2-1.7c0.3,0.7-1.5,0-1.1,0.9c-0.4-0.2,0-0.5-0.3-0.9c-1.1,0.4-2.3-0.6-3.6-0.6c0,0.2,0.1,0.5-0.2,0.7
						l-0.6-1c-0.3,0.1-0.4,1-0.8,0.3c0,0.2,0.1,0.4-0.1,0.4c-2.5-1.2-5.4,0-7.8-1.9c0.3,0.4,0.1,0.4-0.2,0.4
						c0.2,0.1-0.1,0.4-0.1,0.7l-1-0.8c-0.3,0.6-1.2-0.1-1.4,0.5l0.4-0.1c-0.6,0.7,0.4,1.7,0.2,2.7c0.6-0.8,1.2,1.4,2.2,0.3
						c0.2,0.2-0.2,0.3-0.1,0.5c0.3-0.4,0.5-0.4,1-0.2l-0.1,0.1c1.4,0.1,1.9,0.6,3.4,1l-0.1-0.5c0.3,0.1,0.4,0.3,0.5,0.4
						c0.5-0.7-0.9-0.2-0.5-0.9c0.3,1,2.3,0.3,2.5,1.4c0.5,0.1-0.1-0.6,0.4-0.5l0.1,0.3l0.2-0.4c0.3,0.1,0.4,0.5,0.4,0.7
						c-0.1,0-0.2,0-0.3,0.1c0.4,0.4,1.2,0,1.4,0.2l-0.5-0.2c1.4-0.1,3,0.5,4.4,0.1l-0.1-0.2c1.1-0.3,0.8,0.3,1.9,0.3l0,0
						c0.3-0.2,0.6-0.3,0.9-0.2c-0.3,0.2,0.5,0.6,0.1,0.8c1.2-0.3,0.6-0.3,1.4-1l0.1,0.4c0.3-0.3,0.3-0.5,0.9-0.5
						c-0.5,0.3,0.3,0.6-0.3,1c1.1,1,1.8-0.6,2.2,0.7c0.7-0.9-0.9-0.7-0.6-0.9c-0.2-0.4,0.5-0.7,0.9-0.6c0.4,0.1,0.5,1.4,1.4,1.5
						c-0.1,0-0.1,0.1-0.2,0c0.3,0.3,0.7-0.3,1.1,0.2c0.3-0.6,0.6,0.1,0.7-0.7l-0.9,0.1c0.5-0.1,1.1-1,1.8-0.5
						c-0.1,0.2-0.3,0.3-0.5,0.4c0.2,0.3,0.5-0.1,0.7,0.2c-0.2,0.8-1.1,0-1.7,0.6c0.2,0.4,1.1-0.4,0.7,0.4c0.5-1,0.9,0.3,1.6-0.5
						l-0.1,0.5c0.1-0.1,0.3-0.3,0.5-0.2l-0.4,0.6c0.6-0.5,0.9,0.6,1.5,0.4c-1-0.1-0.2-0.6-0.5-1c1.4-0.5,0.6,1.3,2,1.3
						c-0.2,0-0.7-0.4-0.4-0.6c0.3,0.1,0.6,0.4,0.7,0.6c1,0-0.1-0.5,0.4-0.7c0.2,0.6,0.5-0.2,0.9-0.3l-0.1,0.5c1,0.4,0.4-1,1.3-0.5
						l-0.5,0.6l0.5-0.1l-0.2,0.5c0.6-0.3,0.8-0.2,1.3,0c-0.1-0.4,0.2-0.9,0.7-0.8c0.3,0.3-0.2,0.4,0.4,0.5c-0.2,0.3-0.4,0.6-0.6,0.2
						c-0.1,0.2-0.2,0.3-0.2,0.4c0.3,0.4,0.9,0.2,1.1,0.2c-0.1,0-0.2-0.1-0.2-0.1l1.1-0.5c0.1,0.2,0,0.3-0.1,0.5
						c0.2,0,0.4-0.2,0.7-0.2c-0.1,0.4-0.2,0.8-0.6,0.9l1-0.3c0,0.2,0.4,0.5,0.3,0.7c0.5,0.3,1.4-0.6,2-0.2c0-0.1,0.1-0.1,0.3-0.2
						c0.6,0.2,1.1,0.7,2,0.3l0.3,0.8c0.6-0.1-0.5-1,0.6-1.1c0.7-0.1,0.2,0.6,0.4,0.9c0.4-0.3,1.1-0.9,1.7-0.3
						C415.9,281,415.7,280.9,415.5,280.9z M422.9,281.6c-0.2,0.1-0.5,0.4-0.5,0.1C422.6,281.1,422.7,281.4,422.9,281.6z
						 M434.2,281.9c-0.1,0.1-0.3,0-0.4-0.2C433.9,281.7,434.1,281.8,434.2,281.9z M465.9,282.6C465.9,282.6,465.9,282.6,465.9,282.6
						C465.6,282.4,465.7,282.5,465.9,282.6z M466.5,282.9c0.1-0.1,0.1-0.1,0.1-0.2c-0.1,0.1-0.2,0.1-0.4,0
						C466.2,282.9,466.3,283,466.5,282.9z M395.5,273.9l0.1,0.1C395.3,274.1,395.4,274,395.5,273.9z"/>
					<path id="XMLID_419_" class="st0" d="M432.9,282.4c0-0.1,0-0.2,0-0.3C432.8,282.2,432.8,282.3,432.9,282.4z"/>
					<path id="XMLID_418_" class="st0" d="M410.9,280.6C410.9,280.6,410.9,280.6,410.9,280.6C410.9,280.6,410.8,280.6,410.9,280.6
						L410.9,280.6z"/>
					<path id="XMLID_417_" class="st0" d="M455.7,285.6c-0.1-0.1-0.2-0.2-0.2-0.3C455.5,285.5,455.5,285.6,455.7,285.6z"/>
					<path id="XMLID_416_" class="st0" d="M470.1,282.6l-0.4,0.1c0.2,0,0.3,0.1,0.4,0.2C470,282.7,470,282.6,470.1,282.6z"/>
					<path id="XMLID_415_" class="st0" d="M473.4,286c0.1-0.1,0.1,0,0.2,0l0-0.2C473.3,285.7,473.1,285.9,473.4,286z"/>
					<path id="XMLID_414_" class="st0" d="M470.3,284.2c0,0.4,0.3,0.3,0.6,0.3c0,0,0,0-0.1,0C471,283.9,470.6,284.1,470.3,284.2z"/>
					<path id="XMLID_413_" class="st0" d="M470.9,284.5c0.1,0,0.2,0,0.3,0C471.3,284.3,471.1,284.4,470.9,284.5z"/>
					<path id="XMLID_412_" class="st0" d="M467.4,282.8c0.1,0.1,0.2-0.5,0.2-0.3C467.8,281.9,466.6,282.9,467.4,282.8z"/>
					<polygon id="XMLID_411_" class="st0" points="470.4,285.6 470.3,285.1 470.1,285.4 					"/>
					<path id="XMLID_410_" class="st0" d="M468.1,284.9l0.5,0.2c0-0.1,0.1-0.1,0.1-0.2C468.4,284.9,468.1,284.7,468.1,284.9z"/>
					<path id="XMLID_409_" class="st0" d="M468.7,284.9c0.2,0,0.3,0,0.4,0C469,284.9,468.8,284.9,468.7,284.9z"/>
					<polygon id="XMLID_408_" class="st0" points="469.7,285.6 469.6,285.5 469.2,285.4 					"/>
					<path id="XMLID_407_" class="st0" d="M463,284.1l-0.5,0.1c-0.1,0.2,0.1,0.3,0.3,0.2C462.8,284.4,463,284.3,463,284.1z"/>
					<path id="XMLID_406_" class="st0" d="M464.4,285.7c-0.1-0.1-0.1-0.2-0.2-0.4l-0.1,0.6L464.4,285.7z"/>
					<path id="XMLID_405_" class="st0" d="M462.8,285.6c-0.1,0.2-0.8,0.4-0.2,0.4C462.8,285.9,463.3,285.9,462.8,285.6z"/>
					<polygon id="XMLID_404_" class="st0" points="455.2,283.9 455.3,283.9 455.4,282.9 					"/>
					<path id="XMLID_403_" class="st0" d="M448,285.4c0.6,0.3,0.2-0.6,0.7-0.2c0.2-0.2-0.4-0.3-0.2-0.5
						C448.1,284.9,447.9,284.7,448,285.4z"/>
					<path id="XMLID_402_" class="st0" d="M448.5,284.7c0.1,0,0.1-0.1,0.2-0.1C448.6,284.6,448.5,284.6,448.5,284.7z"/>
					<polygon id="XMLID_401_" class="st0" points="371.5,270.2 371.1,270 371.3,270.3 					"/>
					<path id="XMLID_306_" class="st0" d="M370.7,270.9l0-0.7l-0.3,0.6C370.4,270.7,370.6,270.7,370.7,270.9z"/>
					<path id="XMLID_211_" class="st0" d="M423.8,283l0.1-0.2c0-0.2-0.1-0.2-0.3-0.3L423.8,283z"/>
					<polygon id="XMLID_210_" class="st0" points="418.5,281.9 418.6,281.9 418.5,281.3 					"/>
					<path id="XMLID_115_" class="st0" d="M414,282c0.2,0,0.4-0.1,0.6,0C414.1,282.1,414,281.3,414,282z"/>
				</g>
			</g>
		</g>
	</g>
</g>
<text id="XMLID_5_" transform="matrix(1 0 0 1 241.9307 96)"><tspan x="0" y="0" class="st1 st2">To close this gap </tspan><tspan x="25.8" y="27.2" class="st1 st2">we need to </tspan><tspan x="-9.2" y="54.4" class="st1 st2">change behaviours</tspan></text>
<path id="XMLID_6_" class="st3" d="M453,78c0,116.1-8.1,210-18,210"/>
<g id="XMLID_7_">
	<g id="XMLID_24_">
		<path id="XMLID_27_" d="M325.8,164.5c0,0,0,2.2,0,6c0,1.9,0,4.2,0.1,6.8c0,1.3,0.1,2.7,0.2,4.2c0.1,1.5,0.2,3,0.3,4.6
			c0.2,3.2,0.5,6.7,0.9,10.4c0.4,3.7,0.9,7.6,1.6,11.6c0.7,4,1.4,8.1,2.4,12.3c0.9,4.2,2,8.3,3.3,12.5c1.3,4.1,2.7,8.2,4.2,12.2
			c1.6,4,3.3,7.8,5.1,11.4c1.9,3.6,3.8,7,5.9,10.1c2.1,3.1,4.3,5.8,6.5,8.2c2.2,2.3,4.4,4.4,6.5,6c2.1,1.6,4.1,2.8,5.7,3.7
			c1.7,0.8,3.1,1.4,4,1.8c1,0.3,1.5,0.5,1.5,0.5l-0.1,0.3c0,0-0.5-0.2-1.5-0.5c-1-0.3-2.4-0.8-4.2-1.6c-1.7-0.8-3.8-1.9-6-3.5
			c-2.2-1.5-4.5-3.5-6.9-5.8c-2.4-2.3-4.7-5.1-6.9-8.1c-2.3-3-4.4-6.4-6.4-10c-2-3.6-3.9-7.4-5.7-11.4c-1.7-4-3.3-8.1-4.8-12.3
			c-1.4-4.2-2.7-8.4-3.8-12.6c-1.1-4.2-2.1-8.4-2.9-12.4c-0.8-4.1-1.5-8-2-11.7c-0.6-3.7-1-7.3-1.3-10.6c-0.2-1.6-0.3-3.2-0.5-4.7
			c-0.1-1.5-0.2-2.9-0.3-4.3c-0.2-2.7-0.3-5-0.4-7c-0.1-3.8-0.2-6-0.2-6L325.8,164.5z"/>
		<g id="XMLID_25_">
			<polygon id="XMLID_26_" points="371.4,292 382,288 373.3,280.8 			"/>
		</g>
	</g>
</g>
<text id="XMLID_8_" transform="matrix(-2.264909e-03 -1 1 -2.264909e-03 44.7344 199.1209)" class="st1 st2">Injuries</text>
<text id="XMLID_9_" transform="matrix(1 0 0 1 240.957 330)" class="st1 st2">time</text>
</svg>
