<?xml version="1.0" encoding="utf-8"?>
<!-- Generator: Adobe Illustrator 19.0.0, SVG Export Plug-In . SVG Version: 6.00 Build 0)  -->
<svg version="1.1" id="Layer_1" xmlns="http://www.w3.org/2000/svg" xmlns:xlink="http://www.w3.org/1999/xlink" x="0px" y="0px"
	 viewBox="0 0 455.4 134.1" style="enable-background:new 0 0 455.4 134.1;" xml:space="preserve">
<style type="text/css">
	.st0{fill:#F78E1E;stroke:#FFFFFF;}
	.st1{fill:#F78E1E;}
	.st2{fill:none;}
	.st3{font-family:'HelveticaNeue';}
	.st4{font-size:79.3701px;}
</style>
<g>
	<path class="st0" d="M43.5,45.9"/>
</g>
<g>
	<path class="st0" d="M49,45.9"/>
</g>
<g>
	<g>
		<g>
			<path class="st1" d="M55.7,100.6c-2.1,0-5.2,2.1-7,4.7c0,0-3,4.4-8.2,4.4c-6,0-11.3-5-11.3-11.3c0-6.3,5.4-11.3,11.3-11.3
				c5.2-0.1,8.2,4.4,8.2,4.4c1.7,2.6,5.3,4.7,7.9,4.7c2.6,0,5.4-2.2,3.9-5c0,0-8.5-15.5-19.9-15.4c-12.2,0.1-22.7,10.2-22.7,22.7
				c0,12.6,10.5,22.7,22.7,22.7c11.3,0,19.9-15.5,19.9-15.5C62,102.8,57.8,100.6,55.7,100.6z"/>
		</g>
	</g>
</g>
<g>
	<path class="st1" d="M52.8,46.7c1.5-12,0.8-20.4,0.8-20.4c-0.4-4.7-3.3-7.8-6.4-7c-3.1,0.8-5.7,1.4-5.7,1.4c0.6,3.5,1,6.9,1.1,10.7
		c0,0,0.2,7.4-1.1,15.3c-2.5,14.6-10.2,28-12.8,32.4c1.5-0.8,3.5-1.7,6-2.4c2.7-0.7,5-1,6.8-1.1C45.4,69.1,51.2,59.3,52.8,46.7z"/>
</g>
<g>
	<path class="st1" d="M37.6,53.3c0.2-1.4,0.5-2.8,0.8-4.2c0.1-0.8,0.2-1.7,0.3-2.5c0.1-0.7,0.1-1.3,0.2-1.9c0.1-1.4,0.2-3.4,0.2-5.4
		c0-1.3,0-2.7,0-3.8c-0.1-4-0.6-8.4-0.6-8.4c-0.3-3.1-3-5-6-4.3l-4,1c1.2,7.3,2.2,16.7,1.8,28.4c-0.4,13.7-2.1,18.4-4.1,26.8
		C26.2,79.1,35,64.4,37.6,53.3z"/>
</g>
<g>
	<path class="st1" d="M28.1,52.6c0-0.9,0-1.8,0.1-2.7c0-1.3,0-2.5,0-3.7c0-1.6-0.1-3.2-0.1-4.7c-0.2-5.4-1.3-11.2-1.3-11.2
		c-0.3-3.1-2.4-5.2-4.7-4.6c-2.2,0.6-4,1-4,1c1.9,8.4,3.5,13.8,4.1,28.8c0.5,11.5-1.5,29.1-1.5,29.1C25.8,77.8,27.5,63.8,28.1,52.6z
		"/>
</g>
<rect x="64.8" y="62.9" class="st2" width="530" height="57.8"/>
<text transform="matrix(1 0 0 1 64.7935 119.5897)" class="st3 st4">safehandz</text>
</svg>
